<?xml version="1.0" encoding="UTF-8"?>
<!DOCTYPE svg PUBLIC "-//W3C//DTD SVG 1.1//EN"
    "http://www.w3.org/Graphics/SVG/1.1/DTD/svg11.dtd"><svg xmlns="http://www.w3.org/2000/svg" height="312.5669" stroke-opacity="1" viewBox="0.0 0.0 438.2173228346456 312.56692913385825" font-size="1" width="438.2173" xmlns:xlink="http://www.w3.org/1999/xlink" stroke="rgb(0,0,0)" version="1.1"><defs></defs><g stroke-linejoin="miter" stroke-opacity="1.0" fill-opacity="1.0" font-size="18.89763779527559px" stroke="rgb(0,0,0)" stroke-width="1.4803904506132737" fill="rgb(0,0,0)" stroke-linecap="butt" stroke-miterlimit="10.0"><text dominant-baseline="middle" transform="matrix(0.0000,-1.0000,1.0000,0.0000,400.5260,64.2520)" stroke="none" text-anchor="middle">promicro</text></g><g stroke-linejoin="miter" stroke-opacity="1.0" fill-opacity="0.0" stroke="rgb(0,128,0)" stroke-width="1.4803904506132737" fill="rgb(0,0,0)" stroke-linecap="butt" stroke-miterlimit="10.0"><path d="M 432.6520,18.8976 c 0.0000,-1.0437 -0.8461,-1.8898 -1.8898 -1.8898c -1.0437,-0.0000 -1.8898,0.8461 -1.8898 1.8898c -0.0000,1.0437 0.8461,1.8898 1.8898 1.8898c 1.0437,0.0000 1.8898,-0.8461 1.8898 -1.8898Z"/></g><g stroke-linejoin="miter" stroke-opacity="1.0" fill-opacity="0.0" stroke="rgb(0,128,0)" stroke-width="1.4803904506132737" fill="rgb(0,0,0)" stroke-linecap="butt" stroke-miterlimit="10.0"><path d="M 432.6520,28.3465 c 0.0000,-1.0437 -0.8461,-1.8898 -1.8898 -1.8898c -1.0437,-0.0000 -1.8898,0.8461 -1.8898 1.8898c -0.0000,1.0437 0.8461,1.8898 1.8898 1.8898c 1.0437,0.0000 1.8898,-0.8461 1.8898 -1.8898Z"/></g><g stroke-linejoin="miter" stroke-opacity="1.0" fill-opacity="0.0" stroke="rgb(0,128,0)" stroke-width="1.4803904506132737" fill="rgb(0,0,0)" stroke-linecap="butt" stroke-miterlimit="10.0"><path d="M 432.6520,37.7953 c 0.0000,-1.0437 -0.8461,-1.8898 -1.8898 -1.8898c -1.0437,-0.0000 -1.8898,0.8461 -1.8898 1.8898c -0.0000,1.0437 0.8461,1.8898 1.8898 1.8898c 1.0437,0.0000 1.8898,-0.8461 1.8898 -1.8898Z"/></g><g stroke-linejoin="miter" stroke-opacity="1.0" fill-opacity="0.0" stroke="rgb(0,128,0)" stroke-width="1.4803904506132737" fill="rgb(0,0,0)" stroke-linecap="butt" stroke-miterlimit="10.0"><path d="M 432.6520,47.2441 c 0.0000,-1.0437 -0.8461,-1.8898 -1.8898 -1.8898c -1.0437,-0.0000 -1.8898,0.8461 -1.8898 1.8898c -0.0000,1.0437 0.8461,1.8898 1.8898 1.8898c 1.0437,0.0000 1.8898,-0.8461 1.8898 -1.8898Z"/></g><g stroke-linejoin="miter" stroke-opacity="1.0" fill-opacity="0.0" stroke="rgb(0,128,0)" stroke-width="1.4803904506132737" fill="rgb(0,0,0)" stroke-linecap="butt" stroke-miterlimit="10.0"><path d="M 432.6520,56.6929 c 0.0000,-1.0437 -0.8461,-1.8898 -1.8898 -1.8898c -1.0437,-0.0000 -1.8898,0.8461 -1.8898 1.8898c -0.0000,1.0437 0.8461,1.8898 1.8898 1.8898c 1.0437,0.0000 1.8898,-0.8461 1.8898 -1.8898Z"/></g><g stroke-linejoin="miter" stroke-opacity="1.0" fill-opacity="0.0" stroke="rgb(0,128,0)" stroke-width="1.4803904506132737" fill="rgb(0,0,0)" stroke-linecap="butt" stroke-miterlimit="10.0"><path d="M 432.6520,66.1417 c 0.0000,-1.0437 -0.8461,-1.8898 -1.8898 -1.8898c -1.0437,-0.0000 -1.8898,0.8461 -1.8898 1.8898c -0.0000,1.0437 0.8461,1.8898 1.8898 1.8898c 1.0437,0.0000 1.8898,-0.8461 1.8898 -1.8898Z"/></g><g stroke-linejoin="miter" stroke-opacity="1.0" fill-opacity="0.0" stroke="rgb(0,128,0)" stroke-width="1.4803904506132737" fill="rgb(0,0,0)" stroke-linecap="butt" stroke-miterlimit="10.0"><path d="M 432.6520,75.5906 c 0.0000,-1.0437 -0.8461,-1.8898 -1.8898 -1.8898c -1.0437,-0.0000 -1.8898,0.8461 -1.8898 1.8898c -0.0000,1.0437 0.8461,1.8898 1.8898 1.8898c 1.0437,0.0000 1.8898,-0.8461 1.8898 -1.8898Z"/></g><g stroke-linejoin="miter" stroke-opacity="1.0" fill-opacity="0.0" stroke="rgb(0,128,0)" stroke-width="1.4803904506132737" fill="rgb(0,0,0)" stroke-linecap="butt" stroke-miterlimit="10.0"><path d="M 432.6520,85.0394 c 0.0000,-1.0437 -0.8461,-1.8898 -1.8898 -1.8898c -1.0437,-0.0000 -1.8898,0.8461 -1.8898 1.8898c -0.0000,1.0437 0.8461,1.8898 1.8898 1.8898c 1.0437,0.0000 1.8898,-0.8461 1.8898 -1.8898Z"/></g><g stroke-linejoin="miter" stroke-opacity="1.0" fill-opacity="0.0" stroke="rgb(0,128,0)" stroke-width="1.4803904506132737" fill="rgb(0,0,0)" stroke-linecap="butt" stroke-miterlimit="10.0"><path d="M 432.6520,94.4882 c 0.0000,-1.0437 -0.8461,-1.8898 -1.8898 -1.8898c -1.0437,-0.0000 -1.8898,0.8461 -1.8898 1.8898c -0.0000,1.0437 0.8461,1.8898 1.8898 1.8898c 1.0437,0.0000 1.8898,-0.8461 1.8898 -1.8898Z"/></g><g stroke-linejoin="miter" stroke-opacity="1.0" fill-opacity="0.0" stroke="rgb(0,128,0)" stroke-width="1.4803904506132737" fill="rgb(0,0,0)" stroke-linecap="butt" stroke-miterlimit="10.0"><path d="M 432.6520,103.9370 c 0.0000,-1.0437 -0.8461,-1.8898 -1.8898 -1.8898c -1.0437,-0.0000 -1.8898,0.8461 -1.8898 1.8898c -0.0000,1.0437 0.8461,1.8898 1.8898 1.8898c 1.0437,0.0000 1.8898,-0.8461 1.8898 -1.8898Z"/></g><g stroke-linejoin="miter" stroke-opacity="1.0" fill-opacity="0.0" stroke="rgb(0,128,0)" stroke-width="1.4803904506132737" fill="rgb(0,0,0)" stroke-linecap="butt" stroke-miterlimit="10.0"><path d="M 432.6520,113.3858 c 0.0000,-1.0437 -0.8461,-1.8898 -1.8898 -1.8898c -1.0437,-0.0000 -1.8898,0.8461 -1.8898 1.8898c -0.0000,1.0437 0.8461,1.8898 1.8898 1.8898c 1.0437,0.0000 1.8898,-0.8461 1.8898 -1.8898Z"/></g><g stroke-linejoin="miter" stroke-opacity="1.0" fill-opacity="0.0" stroke="rgb(0,128,0)" stroke-width="1.4803904506132737" fill="rgb(0,0,0)" stroke-linecap="butt" stroke-miterlimit="10.0"><path d="M 432.6520,122.8346 c 0.0000,-1.0437 -0.8461,-1.8898 -1.8898 -1.8898c -1.0437,-0.0000 -1.8898,0.8461 -1.8898 1.8898c -0.0000,1.0437 0.8461,1.8898 1.8898 1.8898c 1.0437,0.0000 1.8898,-0.8461 1.8898 -1.8898Z"/></g><g stroke-linejoin="miter" stroke-opacity="1.0" fill-opacity="0.0" stroke="rgb(0,128,0)" stroke-width="1.4803904506132737" fill="rgb(0,0,0)" stroke-linecap="butt" stroke-miterlimit="10.0"><path d="M 372.1795,18.8976 c 0.0000,-1.0437 -0.8461,-1.8898 -1.8898 -1.8898c -1.0437,-0.0000 -1.8898,0.8461 -1.8898 1.8898c -0.0000,1.0437 0.8461,1.8898 1.8898 1.8898c 1.0437,0.0000 1.8898,-0.8461 1.8898 -1.8898Z"/></g><g stroke-linejoin="miter" stroke-opacity="1.0" fill-opacity="0.0" stroke="rgb(0,128,0)" stroke-width="1.4803904506132737" fill="rgb(0,0,0)" stroke-linecap="butt" stroke-miterlimit="10.0"><path d="M 372.1795,28.3465 c 0.0000,-1.0437 -0.8461,-1.8898 -1.8898 -1.8898c -1.0437,-0.0000 -1.8898,0.8461 -1.8898 1.8898c -0.0000,1.0437 0.8461,1.8898 1.8898 1.8898c 1.0437,0.0000 1.8898,-0.8461 1.8898 -1.8898Z"/></g><g stroke-linejoin="miter" stroke-opacity="1.0" fill-opacity="0.0" stroke="rgb(0,128,0)" stroke-width="1.4803904506132737" fill="rgb(0,0,0)" stroke-linecap="butt" stroke-miterlimit="10.0"><path d="M 372.1795,37.7953 c 0.0000,-1.0437 -0.8461,-1.8898 -1.8898 -1.8898c -1.0437,-0.0000 -1.8898,0.8461 -1.8898 1.8898c -0.0000,1.0437 0.8461,1.8898 1.8898 1.8898c 1.0437,0.0000 1.8898,-0.8461 1.8898 -1.8898Z"/></g><g stroke-linejoin="miter" stroke-opacity="1.0" fill-opacity="0.0" stroke="rgb(0,128,0)" stroke-width="1.4803904506132737" fill="rgb(0,0,0)" stroke-linecap="butt" stroke-miterlimit="10.0"><path d="M 372.1795,47.2441 c 0.0000,-1.0437 -0.8461,-1.8898 -1.8898 -1.8898c -1.0437,-0.0000 -1.8898,0.8461 -1.8898 1.8898c -0.0000,1.0437 0.8461,1.8898 1.8898 1.8898c 1.0437,0.0000 1.8898,-0.8461 1.8898 -1.8898Z"/></g><g stroke-linejoin="miter" stroke-opacity="1.0" fill-opacity="0.0" stroke="rgb(0,128,0)" stroke-width="1.4803904506132737" fill="rgb(0,0,0)" stroke-linecap="butt" stroke-miterlimit="10.0"><path d="M 372.1795,56.6929 c 0.0000,-1.0437 -0.8461,-1.8898 -1.8898 -1.8898c -1.0437,-0.0000 -1.8898,0.8461 -1.8898 1.8898c -0.0000,1.0437 0.8461,1.8898 1.8898 1.8898c 1.0437,0.0000 1.8898,-0.8461 1.8898 -1.8898Z"/></g><g stroke-linejoin="miter" stroke-opacity="1.0" fill-opacity="0.0" stroke="rgb(0,128,0)" stroke-width="1.4803904506132737" fill="rgb(0,0,0)" stroke-linecap="butt" stroke-miterlimit="10.0"><path d="M 372.1795,66.1417 c 0.0000,-1.0437 -0.8461,-1.8898 -1.8898 -1.8898c -1.0437,-0.0000 -1.8898,0.8461 -1.8898 1.8898c -0.0000,1.0437 0.8461,1.8898 1.8898 1.8898c 1.0437,0.0000 1.8898,-0.8461 1.8898 -1.8898Z"/></g><g stroke-linejoin="miter" stroke-opacity="1.0" fill-opacity="0.0" stroke="rgb(0,128,0)" stroke-width="1.4803904506132737" fill="rgb(0,0,0)" stroke-linecap="butt" stroke-miterlimit="10.0"><path d="M 372.1795,75.5906 c 0.0000,-1.0437 -0.8461,-1.8898 -1.8898 -1.8898c -1.0437,-0.0000 -1.8898,0.8461 -1.8898 1.8898c -0.0000,1.0437 0.8461,1.8898 1.8898 1.8898c 1.0437,0.0000 1.8898,-0.8461 1.8898 -1.8898Z"/></g><g stroke-linejoin="miter" stroke-opacity="1.0" fill-opacity="0.0" stroke="rgb(0,128,0)" stroke-width="1.4803904506132737" fill="rgb(0,0,0)" stroke-linecap="butt" stroke-miterlimit="10.0"><path d="M 372.1795,85.0394 c 0.0000,-1.0437 -0.8461,-1.8898 -1.8898 -1.8898c -1.0437,-0.0000 -1.8898,0.8461 -1.8898 1.8898c -0.0000,1.0437 0.8461,1.8898 1.8898 1.8898c 1.0437,0.0000 1.8898,-0.8461 1.8898 -1.8898Z"/></g><g stroke-linejoin="miter" stroke-opacity="1.0" fill-opacity="0.0" stroke="rgb(0,128,0)" stroke-width="1.4803904506132737" fill="rgb(0,0,0)" stroke-linecap="butt" stroke-miterlimit="10.0"><path d="M 372.1795,94.4882 c 0.0000,-1.0437 -0.8461,-1.8898 -1.8898 -1.8898c -1.0437,-0.0000 -1.8898,0.8461 -1.8898 1.8898c -0.0000,1.0437 0.8461,1.8898 1.8898 1.8898c 1.0437,0.0000 1.8898,-0.8461 1.8898 -1.8898Z"/></g><g stroke-linejoin="miter" stroke-opacity="1.0" fill-opacity="0.0" stroke="rgb(0,128,0)" stroke-width="1.4803904506132737" fill="rgb(0,0,0)" stroke-linecap="butt" stroke-miterlimit="10.0"><path d="M 372.1795,103.9370 c 0.0000,-1.0437 -0.8461,-1.8898 -1.8898 -1.8898c -1.0437,-0.0000 -1.8898,0.8461 -1.8898 1.8898c -0.0000,1.0437 0.8461,1.8898 1.8898 1.8898c 1.0437,0.0000 1.8898,-0.8461 1.8898 -1.8898Z"/></g><g stroke-linejoin="miter" stroke-opacity="1.0" fill-opacity="0.0" stroke="rgb(0,128,0)" stroke-width="1.4803904506132737" fill="rgb(0,0,0)" stroke-linecap="butt" stroke-miterlimit="10.0"><path d="M 372.1795,113.3858 c 0.0000,-1.0437 -0.8461,-1.8898 -1.8898 -1.8898c -1.0437,-0.0000 -1.8898,0.8461 -1.8898 1.8898c -0.0000,1.0437 0.8461,1.8898 1.8898 1.8898c 1.0437,0.0000 1.8898,-0.8461 1.8898 -1.8898Z"/></g><g stroke-linejoin="miter" stroke-opacity="1.0" fill-opacity="0.0" stroke="rgb(0,128,0)" stroke-width="1.4803904506132737" fill="rgb(0,0,0)" stroke-linecap="butt" stroke-miterlimit="10.0"><path d="M 372.1795,122.8346 c 0.0000,-1.0437 -0.8461,-1.8898 -1.8898 -1.8898c -1.0437,-0.0000 -1.8898,0.8461 -1.8898 1.8898c -0.0000,1.0437 0.8461,1.8898 1.8898 1.8898c 1.0437,0.0000 1.8898,-0.8461 1.8898 -1.8898Z"/></g><g stroke-linejoin="miter" stroke-opacity="1.0" fill-opacity="0.0" stroke="rgb(0,0,0)" stroke-width="1.4803904506132737" fill="rgb(0,0,0)" stroke-linecap="butt" stroke-miterlimit="10.0"><path d="M 434.5417,126.6142 l -0.0000,-124.7244 h -68.0315 l -0.0000,124.7244 Z"/></g><g stroke-linejoin="miter" stroke-opacity="1.0" fill-opacity="0.0" stroke="rgb(0,0,255)" stroke-width="1.4803904506132737" fill="rgb(0,0,0)" stroke-linecap="butt" stroke-miterlimit="10.0"><path d="M 401.6598,199.1811 c 0.0000,-1.6699 -1.3537,-3.0236 -3.0236 -3.0236c -1.6699,-0.0000 -3.0236,1.3537 -3.0236 3.0236c -0.0000,1.6699 1.3537,3.0236 3.0236 3.0236c 1.6699,0.0000 3.0236,-1.3537 3.0236 -3.0236Z"/></g><g stroke-linejoin="miter" stroke-opacity="1.0" fill-opacity="1.0" stroke="rgb(255,0,0)" stroke-width="1.4803904506132737" fill="rgb(255,0,0)" stroke-linecap="butt" stroke-miterlimit="10.0"><path d="M 399.0142,199.1811 c 0.0000,-0.2087 -0.1692,-0.3780 -0.3780 -0.3780c -0.2087,-0.0000 -0.3780,0.1692 -0.3780 0.3780c -0.0000,0.2087 0.1692,0.3780 0.3780 0.3780c 0.2087,0.0000 0.3780,-0.1692 0.3780 -0.3780Z"/></g><g stroke-linejoin="miter" stroke-opacity="1.0" fill-opacity="0.0" stroke="rgb(0,0,255)" stroke-width="1.4803904506132737" fill="rgb(0,0,0)" stroke-linecap="butt" stroke-miterlimit="10.0"><path d="M 420.5575,199.1811 c 0.0000,-1.6699 -1.3537,-3.0236 -3.0236 -3.0236c -1.6699,-0.0000 -3.0236,1.3537 -3.0236 3.0236c -0.0000,1.6699 1.3537,3.0236 3.0236 3.0236c 1.6699,0.0000 3.0236,-1.3537 3.0236 -3.0236Z"/></g><g stroke-linejoin="miter" stroke-opacity="1.0" fill-opacity="1.0" stroke="rgb(255,0,0)" stroke-width="1.4803904506132737" fill="rgb(255,0,0)" stroke-linecap="butt" stroke-miterlimit="10.0"><path d="M 417.9118,199.1811 c 0.0000,-0.2087 -0.1692,-0.3780 -0.3780 -0.3780c -0.2087,-0.0000 -0.3780,0.1692 -0.3780 0.3780c -0.0000,0.2087 0.1692,0.3780 0.3780 0.3780c 0.2087,0.0000 0.3780,-0.1692 0.3780 -0.3780Z"/></g><g stroke-linejoin="miter" stroke-opacity="1.0" fill-opacity="0.0" stroke="rgb(0,0,0)" stroke-width="1.4803904506132737" fill="rgb(0,0,0)" stroke-linecap="butt" stroke-miterlimit="10.0"><path d="M 438.2173,238.8661 l -0.0000,-49.1339 h -60.2646 l -0.0000,49.1339 Z"/></g><g stroke-linejoin="miter" stroke-opacity="1.0" fill-opacity="1.0" font-size="18.89763779527559px" stroke="rgb(0,0,0)" stroke-width="1.4803904506132737" fill="rgb(0,0,0)" stroke-linecap="butt" stroke-miterlimit="10.0"><text dominant-baseline="middle" transform="matrix(1.0000,0.0000,0.0000,1.0000,408.0850,214.2992)" stroke="none" text-anchor="middle"></text></g><g stroke-linejoin="miter" stroke-opacity="1.0" fill-opacity="0.0" stroke="rgb(0,0,255)" stroke-width="1.4803904506132737" fill="rgb(0,0,0)" stroke-linecap="butt" stroke-miterlimit="10.0"><path d="M 401.6598,272.8819 c 0.0000,-1.6699 -1.3537,-3.0236 -3.0236 -3.0236c -1.6699,-0.0000 -3.0236,1.3537 -3.0236 3.0236c -0.0000,1.6699 1.3537,3.0236 3.0236 3.0236c 1.6699,0.0000 3.0236,-1.3537 3.0236 -3.0236Z"/></g><g stroke-linejoin="miter" stroke-opacity="1.0" fill-opacity="1.0" stroke="rgb(255,0,0)" stroke-width="1.4803904506132737" fill="rgb(255,0,0)" stroke-linecap="butt" stroke-miterlimit="10.0"><path d="M 399.0142,272.8819 c 0.0000,-0.2087 -0.1692,-0.3780 -0.3780 -0.3780c -0.2087,-0.0000 -0.3780,0.1692 -0.3780 0.3780c -0.0000,0.2087 0.1692,0.3780 0.3780 0.3780c 0.2087,0.0000 0.3780,-0.1692 0.3780 -0.3780Z"/></g><g stroke-linejoin="miter" stroke-opacity="1.0" fill-opacity="0.0" stroke="rgb(0,0,255)" stroke-width="1.4803904506132737" fill="rgb(0,0,0)" stroke-linecap="butt" stroke-miterlimit="10.0"><path d="M 420.5575,272.8819 c 0.0000,-1.6699 -1.3537,-3.0236 -3.0236 -3.0236c -1.6699,-0.0000 -3.0236,1.3537 -3.0236 3.0236c -0.0000,1.6699 1.3537,3.0236 3.0236 3.0236c 1.6699,0.0000 3.0236,-1.3537 3.0236 -3.0236Z"/></g><g stroke-linejoin="miter" stroke-opacity="1.0" fill-opacity="1.0" stroke="rgb(255,0,0)" stroke-width="1.4803904506132737" fill="rgb(255,0,0)" stroke-linecap="butt" stroke-miterlimit="10.0"><path d="M 417.9118,272.8819 c 0.0000,-0.2087 -0.1692,-0.3780 -0.3780 -0.3780c -0.2087,-0.0000 -0.3780,0.1692 -0.3780 0.3780c -0.0000,0.2087 0.1692,0.3780 0.3780 0.3780c 0.2087,0.0000 0.3780,-0.1692 0.3780 -0.3780Z"/></g><g stroke-linejoin="miter" stroke-opacity="1.0" fill-opacity="0.0" stroke="rgb(0,0,0)" stroke-width="1.4803904506132737" fill="rgb(0,0,0)" stroke-linecap="butt" stroke-miterlimit="10.0"><path d="M 438.2173,312.5669 l -0.0000,-49.1339 h -60.2646 l -0.0000,49.1339 Z"/></g><g stroke-linejoin="miter" stroke-opacity="1.0" fill-opacity="1.0" font-size="18.89763779527559px" stroke="rgb(0,0,0)" stroke-width="1.4803904506132737" fill="rgb(0,0,0)" stroke-linecap="butt" stroke-miterlimit="10.0"><text dominant-baseline="middle" transform="matrix(1.0000,0.0000,0.0000,1.0000,408.0850,288.0000)" stroke="none" text-anchor="middle"></text></g><g stroke-linejoin="miter" stroke-opacity="1.0" fill-opacity="0.0" stroke="rgb(0,0,255)" stroke-width="1.4803904506132737" fill="rgb(0,0,0)" stroke-linecap="butt" stroke-miterlimit="10.0"><path d="M 326.0693,39.6850 c 0.0000,-1.6699 -1.3537,-3.0236 -3.0236 -3.0236c -1.6699,-0.0000 -3.0236,1.3537 -3.0236 3.0236c -0.0000,1.6699 1.3537,3.0236 3.0236 3.0236c 1.6699,0.0000 3.0236,-1.3537 3.0236 -3.0236Z"/></g><g stroke-linejoin="miter" stroke-opacity="1.0" fill-opacity="1.0" stroke="rgb(255,0,0)" stroke-width="1.4803904506132737" fill="rgb(255,0,0)" stroke-linecap="butt" stroke-miterlimit="10.0"><path d="M 323.4236,39.6850 c 0.0000,-0.2087 -0.1692,-0.3780 -0.3780 -0.3780c -0.2087,-0.0000 -0.3780,0.1692 -0.3780 0.3780c -0.0000,0.2087 0.1692,0.3780 0.3780 0.3780c 0.2087,0.0000 0.3780,-0.1692 0.3780 -0.3780Z"/></g><g stroke-linejoin="miter" stroke-opacity="1.0" fill-opacity="0.0" stroke="rgb(0,0,255)" stroke-width="1.4803904506132737" fill="rgb(0,0,0)" stroke-linecap="butt" stroke-miterlimit="10.0"><path d="M 344.9669,39.6850 c 0.0000,-1.6699 -1.3537,-3.0236 -3.0236 -3.0236c -1.6699,-0.0000 -3.0236,1.3537 -3.0236 3.0236c -0.0000,1.6699 1.3537,3.0236 3.0236 3.0236c 1.6699,0.0000 3.0236,-1.3537 3.0236 -3.0236Z"/></g><g stroke-linejoin="miter" stroke-opacity="1.0" fill-opacity="1.0" stroke="rgb(255,0,0)" stroke-width="1.4803904506132737" fill="rgb(255,0,0)" stroke-linecap="butt" stroke-miterlimit="10.0"><path d="M 342.3213,39.6850 c 0.0000,-0.2087 -0.1692,-0.3780 -0.3780 -0.3780c -0.2087,-0.0000 -0.3780,0.1692 -0.3780 0.3780c -0.0000,0.2087 0.1692,0.3780 0.3780 0.3780c 0.2087,0.0000 0.3780,-0.1692 0.3780 -0.3780Z"/></g><g stroke-linejoin="miter" stroke-opacity="1.0" fill-opacity="0.0" stroke="rgb(0,0,0)" stroke-width="1.4803904506132737" fill="rgb(0,0,0)" stroke-linecap="butt" stroke-miterlimit="10.0"><path d="M 362.6268,79.3701 l -0.0000,-49.1339 h -60.2646 l -0.0000,49.1339 Z"/></g><g stroke-linejoin="miter" stroke-opacity="1.0" fill-opacity="1.0" font-size="18.89763779527559px" stroke="rgb(0,0,0)" stroke-width="1.4803904506132737" fill="rgb(0,0,0)" stroke-linecap="butt" stroke-miterlimit="10.0"><text dominant-baseline="middle" transform="matrix(1.0000,0.0000,0.0000,1.0000,332.4945,54.8031)" stroke="none" text-anchor="middle"></text></g><g stroke-linejoin="miter" stroke-opacity="1.0" fill-opacity="0.0" stroke="rgb(0,0,255)" stroke-width="1.4803904506132737" fill="rgb(0,0,0)" stroke-linecap="butt" stroke-miterlimit="10.0"><path d="M 326.0693,113.3858 c 0.0000,-1.6699 -1.3537,-3.0236 -3.0236 -3.0236c -1.6699,-0.0000 -3.0236,1.3537 -3.0236 3.0236c -0.0000,1.6699 1.3537,3.0236 3.0236 3.0236c 1.6699,0.0000 3.0236,-1.3537 3.0236 -3.0236Z"/></g><g stroke-linejoin="miter" stroke-opacity="1.0" fill-opacity="1.0" stroke="rgb(255,0,0)" stroke-width="1.4803904506132737" fill="rgb(255,0,0)" stroke-linecap="butt" stroke-miterlimit="10.0"><path d="M 323.4236,113.3858 c 0.0000,-0.2087 -0.1692,-0.3780 -0.3780 -0.3780c -0.2087,-0.0000 -0.3780,0.1692 -0.3780 0.3780c -0.0000,0.2087 0.1692,0.3780 0.3780 0.3780c 0.2087,0.0000 0.3780,-0.1692 0.3780 -0.3780Z"/></g><g stroke-linejoin="miter" stroke-opacity="1.0" fill-opacity="0.0" stroke="rgb(0,0,255)" stroke-width="1.4803904506132737" fill="rgb(0,0,0)" stroke-linecap="butt" stroke-miterlimit="10.0"><path d="M 344.9669,113.3858 c 0.0000,-1.6699 -1.3537,-3.0236 -3.0236 -3.0236c -1.6699,-0.0000 -3.0236,1.3537 -3.0236 3.0236c -0.0000,1.6699 1.3537,3.0236 3.0236 3.0236c 1.6699,0.0000 3.0236,-1.3537 3.0236 -3.0236Z"/></g><g stroke-linejoin="miter" stroke-opacity="1.0" fill-opacity="1.0" stroke="rgb(255,0,0)" stroke-width="1.4803904506132737" fill="rgb(255,0,0)" stroke-linecap="butt" stroke-miterlimit="10.0"><path d="M 342.3213,113.3858 c 0.0000,-0.2087 -0.1692,-0.3780 -0.3780 -0.3780c -0.2087,-0.0000 -0.3780,0.1692 -0.3780 0.3780c -0.0000,0.2087 0.1692,0.3780 0.3780 0.3780c 0.2087,0.0000 0.3780,-0.1692 0.3780 -0.3780Z"/></g><g stroke-linejoin="miter" stroke-opacity="1.0" fill-opacity="0.0" stroke="rgb(0,0,0)" stroke-width="1.4803904506132737" fill="rgb(0,0,0)" stroke-linecap="butt" stroke-miterlimit="10.0"><path d="M 362.6268,153.0709 l -0.0000,-49.1339 h -60.2646 l -0.0000,49.1339 Z"/></g><g stroke-linejoin="miter" stroke-opacity="1.0" fill-opacity="1.0" font-size="18.89763779527559px" stroke="rgb(0,0,0)" stroke-width="1.4803904506132737" fill="rgb(0,0,0)" stroke-linecap="butt" stroke-miterlimit="10.0"><text dominant-baseline="middle" transform="matrix(1.0000,0.0000,0.0000,1.0000,332.4945,128.5039)" stroke="none" text-anchor="middle"></text></g><g stroke-linejoin="miter" stroke-opacity="1.0" fill-opacity="0.0" stroke="rgb(0,0,255)" stroke-width="1.4803904506132737" fill="rgb(0,0,0)" stroke-linecap="butt" stroke-miterlimit="10.0"><path d="M 326.0693,187.0866 c 0.0000,-1.6699 -1.3537,-3.0236 -3.0236 -3.0236c -1.6699,-0.0000 -3.0236,1.3537 -3.0236 3.0236c -0.0000,1.6699 1.3537,3.0236 3.0236 3.0236c 1.6699,0.0000 3.0236,-1.3537 3.0236 -3.0236Z"/></g><g stroke-linejoin="miter" stroke-opacity="1.0" fill-opacity="1.0" stroke="rgb(255,0,0)" stroke-width="1.4803904506132737" fill="rgb(255,0,0)" stroke-linecap="butt" stroke-miterlimit="10.0"><path d="M 323.4236,187.0866 c 0.0000,-0.2087 -0.1692,-0.3780 -0.3780 -0.3780c -0.2087,-0.0000 -0.3780,0.1692 -0.3780 0.3780c -0.0000,0.2087 0.1692,0.3780 0.3780 0.3780c 0.2087,0.0000 0.3780,-0.1692 0.3780 -0.3780Z"/></g><g stroke-linejoin="miter" stroke-opacity="1.0" fill-opacity="0.0" stroke="rgb(0,0,255)" stroke-width="1.4803904506132737" fill="rgb(0,0,0)" stroke-linecap="butt" stroke-miterlimit="10.0"><path d="M 344.9669,187.0866 c 0.0000,-1.6699 -1.3537,-3.0236 -3.0236 -3.0236c -1.6699,-0.0000 -3.0236,1.3537 -3.0236 3.0236c -0.0000,1.6699 1.3537,3.0236 3.0236 3.0236c 1.6699,0.0000 3.0236,-1.3537 3.0236 -3.0236Z"/></g><g stroke-linejoin="miter" stroke-opacity="1.0" fill-opacity="1.0" stroke="rgb(255,0,0)" stroke-width="1.4803904506132737" fill="rgb(255,0,0)" stroke-linecap="butt" stroke-miterlimit="10.0"><path d="M 342.3213,187.0866 c 0.0000,-0.2087 -0.1692,-0.3780 -0.3780 -0.3780c -0.2087,-0.0000 -0.3780,0.1692 -0.3780 0.3780c -0.0000,0.2087 0.1692,0.3780 0.3780 0.3780c 0.2087,0.0000 0.3780,-0.1692 0.3780 -0.3780Z"/></g><g stroke-linejoin="miter" stroke-opacity="1.0" fill-opacity="0.0" stroke="rgb(0,0,0)" stroke-width="1.4803904506132737" fill="rgb(0,0,0)" stroke-linecap="butt" stroke-miterlimit="10.0"><path d="M 362.6268,226.7717 l -0.0000,-49.1339 h -60.2646 l -0.0000,49.1339 Z"/></g><g stroke-linejoin="miter" stroke-opacity="1.0" fill-opacity="1.0" font-size="18.89763779527559px" stroke="rgb(0,0,0)" stroke-width="1.4803904506132737" fill="rgb(0,0,0)" stroke-linecap="butt" stroke-miterlimit="10.0"><text dominant-baseline="middle" transform="matrix(1.0000,0.0000,0.0000,1.0000,332.4945,202.2047)" stroke="none" text-anchor="middle"></text></g><g stroke-linejoin="miter" stroke-opacity="1.0" fill-opacity="0.0" stroke="rgb(0,0,255)" stroke-width="1.4803904506132737" fill="rgb(0,0,0)" stroke-linecap="butt" stroke-miterlimit="10.0"><path d="M 326.0693,260.7874 c 0.0000,-1.6699 -1.3537,-3.0236 -3.0236 -3.0236c -1.6699,-0.0000 -3.0236,1.3537 -3.0236 3.0236c -0.0000,1.6699 1.3537,3.0236 3.0236 3.0236c 1.6699,0.0000 3.0236,-1.3537 3.0236 -3.0236Z"/></g><g stroke-linejoin="miter" stroke-opacity="1.0" fill-opacity="1.0" stroke="rgb(255,0,0)" stroke-width="1.4803904506132737" fill="rgb(255,0,0)" stroke-linecap="butt" stroke-miterlimit="10.0"><path d="M 323.4236,260.7874 c 0.0000,-0.2087 -0.1692,-0.3780 -0.3780 -0.3780c -0.2087,-0.0000 -0.3780,0.1692 -0.3780 0.3780c -0.0000,0.2087 0.1692,0.3780 0.3780 0.3780c 0.2087,0.0000 0.3780,-0.1692 0.3780 -0.3780Z"/></g><g stroke-linejoin="miter" stroke-opacity="1.0" fill-opacity="0.0" stroke="rgb(0,0,255)" stroke-width="1.4803904506132737" fill="rgb(0,0,0)" stroke-linecap="butt" stroke-miterlimit="10.0"><path d="M 344.9669,260.7874 c 0.0000,-1.6699 -1.3537,-3.0236 -3.0236 -3.0236c -1.6699,-0.0000 -3.0236,1.3537 -3.0236 3.0236c -0.0000,1.6699 1.3537,3.0236 3.0236 3.0236c 1.6699,0.0000 3.0236,-1.3537 3.0236 -3.0236Z"/></g><g stroke-linejoin="miter" stroke-opacity="1.0" fill-opacity="1.0" stroke="rgb(255,0,0)" stroke-width="1.4803904506132737" fill="rgb(255,0,0)" stroke-linecap="butt" stroke-miterlimit="10.0"><path d="M 342.3213,260.7874 c 0.0000,-0.2087 -0.1692,-0.3780 -0.3780 -0.3780c -0.2087,-0.0000 -0.3780,0.1692 -0.3780 0.3780c -0.0000,0.2087 0.1692,0.3780 0.3780 0.3780c 0.2087,0.0000 0.3780,-0.1692 0.3780 -0.3780Z"/></g><g stroke-linejoin="miter" stroke-opacity="1.0" fill-opacity="0.0" stroke="rgb(0,0,0)" stroke-width="1.4803904506132737" fill="rgb(0,0,0)" stroke-linecap="butt" stroke-miterlimit="10.0"><path d="M 362.6268,300.4724 l -0.0000,-49.1339 h -60.2646 l -0.0000,49.1339 Z"/></g><g stroke-linejoin="miter" stroke-opacity="1.0" fill-opacity="1.0" font-size="18.89763779527559px" stroke="rgb(0,0,0)" stroke-width="1.4803904506132737" fill="rgb(0,0,0)" stroke-linecap="butt" stroke-miterlimit="10.0"><text dominant-baseline="middle" transform="matrix(1.0000,0.0000,0.0000,1.0000,332.4945,275.9055)" stroke="none" text-anchor="middle"></text></g><g stroke-linejoin="miter" stroke-opacity="1.0" fill-opacity="0.0" stroke="rgb(0,0,255)" stroke-width="1.4803904506132737" fill="rgb(0,0,0)" stroke-linecap="butt" stroke-miterlimit="10.0"><path d="M 250.4787,24.5669 c 0.0000,-1.6699 -1.3537,-3.0236 -3.0236 -3.0236c -1.6699,-0.0000 -3.0236,1.3537 -3.0236 3.0236c -0.0000,1.6699 1.3537,3.0236 3.0236 3.0236c 1.6699,0.0000 3.0236,-1.3537 3.0236 -3.0236Z"/></g><g stroke-linejoin="miter" stroke-opacity="1.0" fill-opacity="1.0" stroke="rgb(255,0,0)" stroke-width="1.4803904506132737" fill="rgb(255,0,0)" stroke-linecap="butt" stroke-miterlimit="10.0"><path d="M 247.8331,24.5669 c 0.0000,-0.2087 -0.1692,-0.3780 -0.3780 -0.3780c -0.2087,-0.0000 -0.3780,0.1692 -0.3780 0.3780c -0.0000,0.2087 0.1692,0.3780 0.3780 0.3780c 0.2087,0.0000 0.3780,-0.1692 0.3780 -0.3780Z"/></g><g stroke-linejoin="miter" stroke-opacity="1.0" fill-opacity="0.0" stroke="rgb(0,0,255)" stroke-width="1.4803904506132737" fill="rgb(0,0,0)" stroke-linecap="butt" stroke-miterlimit="10.0"><path d="M 269.3764,24.5669 c 0.0000,-1.6699 -1.3537,-3.0236 -3.0236 -3.0236c -1.6699,-0.0000 -3.0236,1.3537 -3.0236 3.0236c -0.0000,1.6699 1.3537,3.0236 3.0236 3.0236c 1.6699,0.0000 3.0236,-1.3537 3.0236 -3.0236Z"/></g><g stroke-linejoin="miter" stroke-opacity="1.0" fill-opacity="1.0" stroke="rgb(255,0,0)" stroke-width="1.4803904506132737" fill="rgb(255,0,0)" stroke-linecap="butt" stroke-miterlimit="10.0"><path d="M 266.7307,24.5669 c 0.0000,-0.2087 -0.1692,-0.3780 -0.3780 -0.3780c -0.2087,-0.0000 -0.3780,0.1692 -0.3780 0.3780c -0.0000,0.2087 0.1692,0.3780 0.3780 0.3780c 0.2087,0.0000 0.3780,-0.1692 0.3780 -0.3780Z"/></g><g stroke-linejoin="miter" stroke-opacity="1.0" fill-opacity="0.0" stroke="rgb(0,0,0)" stroke-width="1.4803904506132737" fill="rgb(0,0,0)" stroke-linecap="butt" stroke-miterlimit="10.0"><path d="M 287.0362,64.2520 l -0.0000,-49.1339 h -60.2646 l -0.0000,49.1339 Z"/></g><g stroke-linejoin="miter" stroke-opacity="1.0" fill-opacity="1.0" font-size="18.89763779527559px" stroke="rgb(0,0,0)" stroke-width="1.4803904506132737" fill="rgb(0,0,0)" stroke-linecap="butt" stroke-miterlimit="10.0"><text dominant-baseline="middle" transform="matrix(1.0000,0.0000,0.0000,1.0000,256.9039,39.6850)" stroke="none" text-anchor="middle"></text></g><g stroke-linejoin="miter" stroke-opacity="1.0" fill-opacity="0.0" stroke="rgb(0,0,255)" stroke-width="1.4803904506132737" fill="rgb(0,0,0)" stroke-linecap="butt" stroke-miterlimit="10.0"><path d="M 250.4787,98.2677 c 0.0000,-1.6699 -1.3537,-3.0236 -3.0236 -3.0236c -1.6699,-0.0000 -3.0236,1.3537 -3.0236 3.0236c -0.0000,1.6699 1.3537,3.0236 3.0236 3.0236c 1.6699,0.0000 3.0236,-1.3537 3.0236 -3.0236Z"/></g><g stroke-linejoin="miter" stroke-opacity="1.0" fill-opacity="1.0" stroke="rgb(255,0,0)" stroke-width="1.4803904506132737" fill="rgb(255,0,0)" stroke-linecap="butt" stroke-miterlimit="10.0"><path d="M 247.8331,98.2677 c 0.0000,-0.2087 -0.1692,-0.3780 -0.3780 -0.3780c -0.2087,-0.0000 -0.3780,0.1692 -0.3780 0.3780c -0.0000,0.2087 0.1692,0.3780 0.3780 0.3780c 0.2087,0.0000 0.3780,-0.1692 0.3780 -0.3780Z"/></g><g stroke-linejoin="miter" stroke-opacity="1.0" fill-opacity="0.0" stroke="rgb(0,0,255)" stroke-width="1.4803904506132737" fill="rgb(0,0,0)" stroke-linecap="butt" stroke-miterlimit="10.0"><path d="M 269.3764,98.2677 c 0.0000,-1.6699 -1.3537,-3.0236 -3.0236 -3.0236c -1.6699,-0.0000 -3.0236,1.3537 -3.0236 3.0236c -0.0000,1.6699 1.3537,3.0236 3.0236 3.0236c 1.6699,0.0000 3.0236,-1.3537 3.0236 -3.0236Z"/></g><g stroke-linejoin="miter" stroke-opacity="1.0" fill-opacity="1.0" stroke="rgb(255,0,0)" stroke-width="1.4803904506132737" fill="rgb(255,0,0)" stroke-linecap="butt" stroke-miterlimit="10.0"><path d="M 266.7307,98.2677 c 0.0000,-0.2087 -0.1692,-0.3780 -0.3780 -0.3780c -0.2087,-0.0000 -0.3780,0.1692 -0.3780 0.3780c -0.0000,0.2087 0.1692,0.3780 0.3780 0.3780c 0.2087,0.0000 0.3780,-0.1692 0.3780 -0.3780Z"/></g><g stroke-linejoin="miter" stroke-opacity="1.0" fill-opacity="0.0" stroke="rgb(0,0,0)" stroke-width="1.4803904506132737" fill="rgb(0,0,0)" stroke-linecap="butt" stroke-miterlimit="10.0"><path d="M 287.0362,137.9528 l -0.0000,-49.1339 h -60.2646 l -0.0000,49.1339 Z"/></g><g stroke-linejoin="miter" stroke-opacity="1.0" fill-opacity="1.0" font-size="18.89763779527559px" stroke="rgb(0,0,0)" stroke-width="1.4803904506132737" fill="rgb(0,0,0)" stroke-linecap="butt" stroke-miterlimit="10.0"><text dominant-baseline="middle" transform="matrix(1.0000,0.0000,0.0000,1.0000,256.9039,113.3858)" stroke="none" text-anchor="middle"></text></g><g stroke-linejoin="miter" stroke-opacity="1.0" fill-opacity="0.0" stroke="rgb(0,0,255)" stroke-width="1.4803904506132737" fill="rgb(0,0,0)" stroke-linecap="butt" stroke-miterlimit="10.0"><path d="M 250.4787,171.9685 c 0.0000,-1.6699 -1.3537,-3.0236 -3.0236 -3.0236c -1.6699,-0.0000 -3.0236,1.3537 -3.0236 3.0236c -0.0000,1.6699 1.3537,3.0236 3.0236 3.0236c 1.6699,0.0000 3.0236,-1.3537 3.0236 -3.0236Z"/></g><g stroke-linejoin="miter" stroke-opacity="1.0" fill-opacity="1.0" stroke="rgb(255,0,0)" stroke-width="1.4803904506132737" fill="rgb(255,0,0)" stroke-linecap="butt" stroke-miterlimit="10.0"><path d="M 247.8331,171.9685 c 0.0000,-0.2087 -0.1692,-0.3780 -0.3780 -0.3780c -0.2087,-0.0000 -0.3780,0.1692 -0.3780 0.3780c -0.0000,0.2087 0.1692,0.3780 0.3780 0.3780c 0.2087,0.0000 0.3780,-0.1692 0.3780 -0.3780Z"/></g><g stroke-linejoin="miter" stroke-opacity="1.0" fill-opacity="0.0" stroke="rgb(0,0,255)" stroke-width="1.4803904506132737" fill="rgb(0,0,0)" stroke-linecap="butt" stroke-miterlimit="10.0"><path d="M 269.3764,171.9685 c 0.0000,-1.6699 -1.3537,-3.0236 -3.0236 -3.0236c -1.6699,-0.0000 -3.0236,1.3537 -3.0236 3.0236c -0.0000,1.6699 1.3537,3.0236 3.0236 3.0236c 1.6699,0.0000 3.0236,-1.3537 3.0236 -3.0236Z"/></g><g stroke-linejoin="miter" stroke-opacity="1.0" fill-opacity="1.0" stroke="rgb(255,0,0)" stroke-width="1.4803904506132737" fill="rgb(255,0,0)" stroke-linecap="butt" stroke-miterlimit="10.0"><path d="M 266.7307,171.9685 c 0.0000,-0.2087 -0.1692,-0.3780 -0.3780 -0.3780c -0.2087,-0.0000 -0.3780,0.1692 -0.3780 0.3780c -0.0000,0.2087 0.1692,0.3780 0.3780 0.3780c 0.2087,0.0000 0.3780,-0.1692 0.3780 -0.3780Z"/></g><g stroke-linejoin="miter" stroke-opacity="1.0" fill-opacity="0.0" stroke="rgb(0,0,0)" stroke-width="1.4803904506132737" fill="rgb(0,0,0)" stroke-linecap="butt" stroke-miterlimit="10.0"><path d="M 287.0362,211.6535 l -0.0000,-49.1339 h -60.2646 l -0.0000,49.1339 Z"/></g><g stroke-linejoin="miter" stroke-opacity="1.0" fill-opacity="1.0" font-size="18.89763779527559px" stroke="rgb(0,0,0)" stroke-width="1.4803904506132737" fill="rgb(0,0,0)" stroke-linecap="butt" stroke-miterlimit="10.0"><text dominant-baseline="middle" transform="matrix(1.0000,0.0000,0.0000,1.0000,256.9039,187.0866)" stroke="none" text-anchor="middle"></text></g><g stroke-linejoin="miter" stroke-opacity="1.0" fill-opacity="0.0" stroke="rgb(0,0,255)" stroke-width="1.4803904506132737" fill="rgb(0,0,0)" stroke-linecap="butt" stroke-miterlimit="10.0"><path d="M 250.4787,245.6693 c 0.0000,-1.6699 -1.3537,-3.0236 -3.0236 -3.0236c -1.6699,-0.0000 -3.0236,1.3537 -3.0236 3.0236c -0.0000,1.6699 1.3537,3.0236 3.0236 3.0236c 1.6699,0.0000 3.0236,-1.3537 3.0236 -3.0236Z"/></g><g stroke-linejoin="miter" stroke-opacity="1.0" fill-opacity="1.0" stroke="rgb(255,0,0)" stroke-width="1.4803904506132737" fill="rgb(255,0,0)" stroke-linecap="butt" stroke-miterlimit="10.0"><path d="M 247.8331,245.6693 c 0.0000,-0.2087 -0.1692,-0.3780 -0.3780 -0.3780c -0.2087,-0.0000 -0.3780,0.1692 -0.3780 0.3780c -0.0000,0.2087 0.1692,0.3780 0.3780 0.3780c 0.2087,0.0000 0.3780,-0.1692 0.3780 -0.3780Z"/></g><g stroke-linejoin="miter" stroke-opacity="1.0" fill-opacity="0.0" stroke="rgb(0,0,255)" stroke-width="1.4803904506132737" fill="rgb(0,0,0)" stroke-linecap="butt" stroke-miterlimit="10.0"><path d="M 269.3764,245.6693 c 0.0000,-1.6699 -1.3537,-3.0236 -3.0236 -3.0236c -1.6699,-0.0000 -3.0236,1.3537 -3.0236 3.0236c -0.0000,1.6699 1.3537,3.0236 3.0236 3.0236c 1.6699,0.0000 3.0236,-1.3537 3.0236 -3.0236Z"/></g><g stroke-linejoin="miter" stroke-opacity="1.0" fill-opacity="1.0" stroke="rgb(255,0,0)" stroke-width="1.4803904506132737" fill="rgb(255,0,0)" stroke-linecap="butt" stroke-miterlimit="10.0"><path d="M 266.7307,245.6693 c 0.0000,-0.2087 -0.1692,-0.3780 -0.3780 -0.3780c -0.2087,-0.0000 -0.3780,0.1692 -0.3780 0.3780c -0.0000,0.2087 0.1692,0.3780 0.3780 0.3780c 0.2087,0.0000 0.3780,-0.1692 0.3780 -0.3780Z"/></g><g stroke-linejoin="miter" stroke-opacity="1.0" fill-opacity="0.0" stroke="rgb(0,0,0)" stroke-width="1.4803904506132737" fill="rgb(0,0,0)" stroke-linecap="butt" stroke-miterlimit="10.0"><path d="M 287.0362,285.3543 l -0.0000,-49.1339 h -60.2646 l -0.0000,49.1339 Z"/></g><g stroke-linejoin="miter" stroke-opacity="1.0" fill-opacity="1.0" font-size="18.89763779527559px" stroke="rgb(0,0,0)" stroke-width="1.4803904506132737" fill="rgb(0,0,0)" stroke-linecap="butt" stroke-miterlimit="10.0"><text dominant-baseline="middle" transform="matrix(1.0000,0.0000,0.0000,1.0000,256.9039,260.7874)" stroke="none" text-anchor="middle"></text></g><g stroke-linejoin="miter" stroke-opacity="1.0" fill-opacity="0.0" stroke="rgb(0,0,255)" stroke-width="1.4803904506132737" fill="rgb(0,0,0)" stroke-linecap="butt" stroke-miterlimit="10.0"><path d="M 174.8882,9.4488 c 0.0000,-1.6699 -1.3537,-3.0236 -3.0236 -3.0236c -1.6699,-0.0000 -3.0236,1.3537 -3.0236 3.0236c -0.0000,1.6699 1.3537,3.0236 3.0236 3.0236c 1.6699,0.0000 3.0236,-1.3537 3.0236 -3.0236Z"/></g><g stroke-linejoin="miter" stroke-opacity="1.0" fill-opacity="1.0" stroke="rgb(255,0,0)" stroke-width="1.4803904506132737" fill="rgb(255,0,0)" stroke-linecap="butt" stroke-miterlimit="10.0"><path d="M 172.2425,9.4488 c 0.0000,-0.2087 -0.1692,-0.3780 -0.3780 -0.3780c -0.2087,-0.0000 -0.3780,0.1692 -0.3780 0.3780c -0.0000,0.2087 0.1692,0.3780 0.3780 0.3780c 0.2087,0.0000 0.3780,-0.1692 0.3780 -0.3780Z"/></g><g stroke-linejoin="miter" stroke-opacity="1.0" fill-opacity="0.0" stroke="rgb(0,0,255)" stroke-width="1.4803904506132737" fill="rgb(0,0,0)" stroke-linecap="butt" stroke-miterlimit="10.0"><path d="M 193.7858,9.4488 c 0.0000,-1.6699 -1.3537,-3.0236 -3.0236 -3.0236c -1.6699,-0.0000 -3.0236,1.3537 -3.0236 3.0236c -0.0000,1.6699 1.3537,3.0236 3.0236 3.0236c 1.6699,0.0000 3.0236,-1.3537 3.0236 -3.0236Z"/></g><g stroke-linejoin="miter" stroke-opacity="1.0" fill-opacity="1.0" stroke="rgb(255,0,0)" stroke-width="1.4803904506132737" fill="rgb(255,0,0)" stroke-linecap="butt" stroke-miterlimit="10.0"><path d="M 191.1402,9.4488 c 0.0000,-0.2087 -0.1692,-0.3780 -0.3780 -0.3780c -0.2087,-0.0000 -0.3780,0.1692 -0.3780 0.3780c -0.0000,0.2087 0.1692,0.3780 0.3780 0.3780c 0.2087,0.0000 0.3780,-0.1692 0.3780 -0.3780Z"/></g><g stroke-linejoin="miter" stroke-opacity="1.0" fill-opacity="0.0" stroke="rgb(0,0,0)" stroke-width="1.4803904506132737" fill="rgb(0,0,0)" stroke-linecap="butt" stroke-miterlimit="10.0"><path d="M 211.4457,49.1339 l -0.0000,-49.1339 h -60.2646 l -0.0000,49.1339 Z"/></g><g stroke-linejoin="miter" stroke-opacity="1.0" fill-opacity="1.0" font-size="18.89763779527559px" stroke="rgb(0,0,0)" stroke-width="1.4803904506132737" fill="rgb(0,0,0)" stroke-linecap="butt" stroke-miterlimit="10.0"><text dominant-baseline="middle" transform="matrix(1.0000,0.0000,0.0000,1.0000,181.3134,24.5669)" stroke="none" text-anchor="middle"></text></g><g stroke-linejoin="miter" stroke-opacity="1.0" fill-opacity="0.0" stroke="rgb(0,0,255)" stroke-width="1.4803904506132737" fill="rgb(0,0,0)" stroke-linecap="butt" stroke-miterlimit="10.0"><path d="M 174.8882,83.1496 c 0.0000,-1.6699 -1.3537,-3.0236 -3.0236 -3.0236c -1.6699,-0.0000 -3.0236,1.3537 -3.0236 3.0236c -0.0000,1.6699 1.3537,3.0236 3.0236 3.0236c 1.6699,0.0000 3.0236,-1.3537 3.0236 -3.0236Z"/></g><g stroke-linejoin="miter" stroke-opacity="1.0" fill-opacity="1.0" stroke="rgb(255,0,0)" stroke-width="1.4803904506132737" fill="rgb(255,0,0)" stroke-linecap="butt" stroke-miterlimit="10.0"><path d="M 172.2425,83.1496 c 0.0000,-0.2087 -0.1692,-0.3780 -0.3780 -0.3780c -0.2087,-0.0000 -0.3780,0.1692 -0.3780 0.3780c -0.0000,0.2087 0.1692,0.3780 0.3780 0.3780c 0.2087,0.0000 0.3780,-0.1692 0.3780 -0.3780Z"/></g><g stroke-linejoin="miter" stroke-opacity="1.0" fill-opacity="0.0" stroke="rgb(0,0,255)" stroke-width="1.4803904506132737" fill="rgb(0,0,0)" stroke-linecap="butt" stroke-miterlimit="10.0"><path d="M 193.7858,83.1496 c 0.0000,-1.6699 -1.3537,-3.0236 -3.0236 -3.0236c -1.6699,-0.0000 -3.0236,1.3537 -3.0236 3.0236c -0.0000,1.6699 1.3537,3.0236 3.0236 3.0236c 1.6699,0.0000 3.0236,-1.3537 3.0236 -3.0236Z"/></g><g stroke-linejoin="miter" stroke-opacity="1.0" fill-opacity="1.0" stroke="rgb(255,0,0)" stroke-width="1.4803904506132737" fill="rgb(255,0,0)" stroke-linecap="butt" stroke-miterlimit="10.0"><path d="M 191.1402,83.1496 c 0.0000,-0.2087 -0.1692,-0.3780 -0.3780 -0.3780c -0.2087,-0.0000 -0.3780,0.1692 -0.3780 0.3780c -0.0000,0.2087 0.1692,0.3780 0.3780 0.3780c 0.2087,0.0000 0.3780,-0.1692 0.3780 -0.3780Z"/></g><g stroke-linejoin="miter" stroke-opacity="1.0" fill-opacity="0.0" stroke="rgb(0,0,0)" stroke-width="1.4803904506132737" fill="rgb(0,0,0)" stroke-linecap="butt" stroke-miterlimit="10.0"><path d="M 211.4457,122.8346 l -0.0000,-49.1339 h -60.2646 l -0.0000,49.1339 Z"/></g><g stroke-linejoin="miter" stroke-opacity="1.0" fill-opacity="1.0" font-size="18.89763779527559px" stroke="rgb(0,0,0)" stroke-width="1.4803904506132737" fill="rgb(0,0,0)" stroke-linecap="butt" stroke-miterlimit="10.0"><text dominant-baseline="middle" transform="matrix(1.0000,0.0000,0.0000,1.0000,181.3134,98.2677)" stroke="none" text-anchor="middle"></text></g><g stroke-linejoin="miter" stroke-opacity="1.0" fill-opacity="0.0" stroke="rgb(0,0,255)" stroke-width="1.4803904506132737" fill="rgb(0,0,0)" stroke-linecap="butt" stroke-miterlimit="10.0"><path d="M 174.8882,156.8504 c 0.0000,-1.6699 -1.3537,-3.0236 -3.0236 -3.0236c -1.6699,-0.0000 -3.0236,1.3537 -3.0236 3.0236c -0.0000,1.6699 1.3537,3.0236 3.0236 3.0236c 1.6699,0.0000 3.0236,-1.3537 3.0236 -3.0236Z"/></g><g stroke-linejoin="miter" stroke-opacity="1.0" fill-opacity="1.0" stroke="rgb(255,0,0)" stroke-width="1.4803904506132737" fill="rgb(255,0,0)" stroke-linecap="butt" stroke-miterlimit="10.0"><path d="M 172.2425,156.8504 c 0.0000,-0.2087 -0.1692,-0.3780 -0.3780 -0.3780c -0.2087,-0.0000 -0.3780,0.1692 -0.3780 0.3780c -0.0000,0.2087 0.1692,0.3780 0.3780 0.3780c 0.2087,0.0000 0.3780,-0.1692 0.3780 -0.3780Z"/></g><g stroke-linejoin="miter" stroke-opacity="1.0" fill-opacity="0.0" stroke="rgb(0,0,255)" stroke-width="1.4803904506132737" fill="rgb(0,0,0)" stroke-linecap="butt" stroke-miterlimit="10.0"><path d="M 193.7858,156.8504 c 0.0000,-1.6699 -1.3537,-3.0236 -3.0236 -3.0236c -1.6699,-0.0000 -3.0236,1.3537 -3.0236 3.0236c -0.0000,1.6699 1.3537,3.0236 3.0236 3.0236c 1.6699,0.0000 3.0236,-1.3537 3.0236 -3.0236Z"/></g><g stroke-linejoin="miter" stroke-opacity="1.0" fill-opacity="1.0" stroke="rgb(255,0,0)" stroke-width="1.4803904506132737" fill="rgb(255,0,0)" stroke-linecap="butt" stroke-miterlimit="10.0"><path d="M 191.1402,156.8504 c 0.0000,-0.2087 -0.1692,-0.3780 -0.3780 -0.3780c -0.2087,-0.0000 -0.3780,0.1692 -0.3780 0.3780c -0.0000,0.2087 0.1692,0.3780 0.3780 0.3780c 0.2087,0.0000 0.3780,-0.1692 0.3780 -0.3780Z"/></g><g stroke-linejoin="miter" stroke-opacity="1.0" fill-opacity="0.0" stroke="rgb(0,0,0)" stroke-width="1.4803904506132737" fill="rgb(0,0,0)" stroke-linecap="butt" stroke-miterlimit="10.0"><path d="M 211.4457,196.5354 l -0.0000,-49.1339 h -60.2646 l -0.0000,49.1339 Z"/></g><g stroke-linejoin="miter" stroke-opacity="1.0" fill-opacity="1.0" font-size="18.89763779527559px" stroke="rgb(0,0,0)" stroke-width="1.4803904506132737" fill="rgb(0,0,0)" stroke-linecap="butt" stroke-miterlimit="10.0"><text dominant-baseline="middle" transform="matrix(1.0000,0.0000,0.0000,1.0000,181.3134,171.9685)" stroke="none" text-anchor="middle"></text></g><g stroke-linejoin="miter" stroke-opacity="1.0" fill-opacity="0.0" stroke="rgb(0,0,255)" stroke-width="1.4803904506132737" fill="rgb(0,0,0)" stroke-linecap="butt" stroke-miterlimit="10.0"><path d="M 174.8882,230.5512 c 0.0000,-1.6699 -1.3537,-3.0236 -3.0236 -3.0236c -1.6699,-0.0000 -3.0236,1.3537 -3.0236 3.0236c -0.0000,1.6699 1.3537,3.0236 3.0236 3.0236c 1.6699,0.0000 3.0236,-1.3537 3.0236 -3.0236Z"/></g><g stroke-linejoin="miter" stroke-opacity="1.0" fill-opacity="1.0" stroke="rgb(255,0,0)" stroke-width="1.4803904506132737" fill="rgb(255,0,0)" stroke-linecap="butt" stroke-miterlimit="10.0"><path d="M 172.2425,230.5512 c 0.0000,-0.2087 -0.1692,-0.3780 -0.3780 -0.3780c -0.2087,-0.0000 -0.3780,0.1692 -0.3780 0.3780c -0.0000,0.2087 0.1692,0.3780 0.3780 0.3780c 0.2087,0.0000 0.3780,-0.1692 0.3780 -0.3780Z"/></g><g stroke-linejoin="miter" stroke-opacity="1.0" fill-opacity="0.0" stroke="rgb(0,0,255)" stroke-width="1.4803904506132737" fill="rgb(0,0,0)" stroke-linecap="butt" stroke-miterlimit="10.0"><path d="M 193.7858,230.5512 c 0.0000,-1.6699 -1.3537,-3.0236 -3.0236 -3.0236c -1.6699,-0.0000 -3.0236,1.3537 -3.0236 3.0236c -0.0000,1.6699 1.3537,3.0236 3.0236 3.0236c 1.6699,0.0000 3.0236,-1.3537 3.0236 -3.0236Z"/></g><g stroke-linejoin="miter" stroke-opacity="1.0" fill-opacity="1.0" stroke="rgb(255,0,0)" stroke-width="1.4803904506132737" fill="rgb(255,0,0)" stroke-linecap="butt" stroke-miterlimit="10.0"><path d="M 191.1402,230.5512 c 0.0000,-0.2087 -0.1692,-0.3780 -0.3780 -0.3780c -0.2087,-0.0000 -0.3780,0.1692 -0.3780 0.3780c -0.0000,0.2087 0.1692,0.3780 0.3780 0.3780c 0.2087,0.0000 0.3780,-0.1692 0.3780 -0.3780Z"/></g><g stroke-linejoin="miter" stroke-opacity="1.0" fill-opacity="0.0" stroke="rgb(0,0,0)" stroke-width="1.4803904506132737" fill="rgb(0,0,0)" stroke-linecap="butt" stroke-miterlimit="10.0"><path d="M 211.4457,270.2362 l -0.0000,-49.1339 h -60.2646 l -0.0000,49.1339 Z"/></g><g stroke-linejoin="miter" stroke-opacity="1.0" fill-opacity="1.0" font-size="18.89763779527559px" stroke="rgb(0,0,0)" stroke-width="1.4803904506132737" fill="rgb(0,0,0)" stroke-linecap="butt" stroke-miterlimit="10.0"><text dominant-baseline="middle" transform="matrix(1.0000,0.0000,0.0000,1.0000,181.3134,245.6693)" stroke="none" text-anchor="middle"></text></g><g stroke-linejoin="miter" stroke-opacity="1.0" fill-opacity="0.0" stroke="rgb(0,0,255)" stroke-width="1.4803904506132737" fill="rgb(0,0,0)" stroke-linecap="butt" stroke-miterlimit="10.0"><path d="M 99.2976,24.5669 c 0.0000,-1.6699 -1.3537,-3.0236 -3.0236 -3.0236c -1.6699,-0.0000 -3.0236,1.3537 -3.0236 3.0236c -0.0000,1.6699 1.3537,3.0236 3.0236 3.0236c 1.6699,0.0000 3.0236,-1.3537 3.0236 -3.0236Z"/></g><g stroke-linejoin="miter" stroke-opacity="1.0" fill-opacity="1.0" stroke="rgb(255,0,0)" stroke-width="1.4803904506132737" fill="rgb(255,0,0)" stroke-linecap="butt" stroke-miterlimit="10.0"><path d="M 96.6520,24.5669 c 0.0000,-0.2087 -0.1692,-0.3780 -0.3780 -0.3780c -0.2087,-0.0000 -0.3780,0.1692 -0.3780 0.3780c -0.0000,0.2087 0.1692,0.3780 0.3780 0.3780c 0.2087,0.0000 0.3780,-0.1692 0.3780 -0.3780Z"/></g><g stroke-linejoin="miter" stroke-opacity="1.0" fill-opacity="0.0" stroke="rgb(0,0,255)" stroke-width="1.4803904506132737" fill="rgb(0,0,0)" stroke-linecap="butt" stroke-miterlimit="10.0"><path d="M 118.1953,24.5669 c 0.0000,-1.6699 -1.3537,-3.0236 -3.0236 -3.0236c -1.6699,-0.0000 -3.0236,1.3537 -3.0236 3.0236c -0.0000,1.6699 1.3537,3.0236 3.0236 3.0236c 1.6699,0.0000 3.0236,-1.3537 3.0236 -3.0236Z"/></g><g stroke-linejoin="miter" stroke-opacity="1.0" fill-opacity="1.0" stroke="rgb(255,0,0)" stroke-width="1.4803904506132737" fill="rgb(255,0,0)" stroke-linecap="butt" stroke-miterlimit="10.0"><path d="M 115.5496,24.5669 c 0.0000,-0.2087 -0.1692,-0.3780 -0.3780 -0.3780c -0.2087,-0.0000 -0.3780,0.1692 -0.3780 0.3780c -0.0000,0.2087 0.1692,0.3780 0.3780 0.3780c 0.2087,0.0000 0.3780,-0.1692 0.3780 -0.3780Z"/></g><g stroke-linejoin="miter" stroke-opacity="1.0" fill-opacity="0.0" stroke="rgb(0,0,0)" stroke-width="1.4803904506132737" fill="rgb(0,0,0)" stroke-linecap="butt" stroke-miterlimit="10.0"><path d="M 135.8551,64.2520 l -0.0000,-49.1339 h -60.2646 l -0.0000,49.1339 Z"/></g><g stroke-linejoin="miter" stroke-opacity="1.0" fill-opacity="1.0" font-size="18.89763779527559px" stroke="rgb(0,0,0)" stroke-width="1.4803904506132737" fill="rgb(0,0,0)" stroke-linecap="butt" stroke-miterlimit="10.0"><text dominant-baseline="middle" transform="matrix(1.0000,0.0000,0.0000,1.0000,105.7228,39.6850)" stroke="none" text-anchor="middle"></text></g><g stroke-linejoin="miter" stroke-opacity="1.0" fill-opacity="0.0" stroke="rgb(0,0,255)" stroke-width="1.4803904506132737" fill="rgb(0,0,0)" stroke-linecap="butt" stroke-miterlimit="10.0"><path d="M 99.2976,98.2677 c 0.0000,-1.6699 -1.3537,-3.0236 -3.0236 -3.0236c -1.6699,-0.0000 -3.0236,1.3537 -3.0236 3.0236c -0.0000,1.6699 1.3537,3.0236 3.0236 3.0236c 1.6699,0.0000 3.0236,-1.3537 3.0236 -3.0236Z"/></g><g stroke-linejoin="miter" stroke-opacity="1.0" fill-opacity="1.0" stroke="rgb(255,0,0)" stroke-width="1.4803904506132737" fill="rgb(255,0,0)" stroke-linecap="butt" stroke-miterlimit="10.0"><path d="M 96.6520,98.2677 c 0.0000,-0.2087 -0.1692,-0.3780 -0.3780 -0.3780c -0.2087,-0.0000 -0.3780,0.1692 -0.3780 0.3780c -0.0000,0.2087 0.1692,0.3780 0.3780 0.3780c 0.2087,0.0000 0.3780,-0.1692 0.3780 -0.3780Z"/></g><g stroke-linejoin="miter" stroke-opacity="1.0" fill-opacity="0.0" stroke="rgb(0,0,255)" stroke-width="1.4803904506132737" fill="rgb(0,0,0)" stroke-linecap="butt" stroke-miterlimit="10.0"><path d="M 118.1953,98.2677 c 0.0000,-1.6699 -1.3537,-3.0236 -3.0236 -3.0236c -1.6699,-0.0000 -3.0236,1.3537 -3.0236 3.0236c -0.0000,1.6699 1.3537,3.0236 3.0236 3.0236c 1.6699,0.0000 3.0236,-1.3537 3.0236 -3.0236Z"/></g><g stroke-linejoin="miter" stroke-opacity="1.0" fill-opacity="1.0" stroke="rgb(255,0,0)" stroke-width="1.4803904506132737" fill="rgb(255,0,0)" stroke-linecap="butt" stroke-miterlimit="10.0"><path d="M 115.5496,98.2677 c 0.0000,-0.2087 -0.1692,-0.3780 -0.3780 -0.3780c -0.2087,-0.0000 -0.3780,0.1692 -0.3780 0.3780c -0.0000,0.2087 0.1692,0.3780 0.3780 0.3780c 0.2087,0.0000 0.3780,-0.1692 0.3780 -0.3780Z"/></g><g stroke-linejoin="miter" stroke-opacity="1.0" fill-opacity="0.0" stroke="rgb(0,0,0)" stroke-width="1.4803904506132737" fill="rgb(0,0,0)" stroke-linecap="butt" stroke-miterlimit="10.0"><path d="M 135.8551,137.9528 l -0.0000,-49.1339 h -60.2646 l -0.0000,49.1339 Z"/></g><g stroke-linejoin="miter" stroke-opacity="1.0" fill-opacity="1.0" font-size="18.89763779527559px" stroke="rgb(0,0,0)" stroke-width="1.4803904506132737" fill="rgb(0,0,0)" stroke-linecap="butt" stroke-miterlimit="10.0"><text dominant-baseline="middle" transform="matrix(1.0000,0.0000,0.0000,1.0000,105.7228,113.3858)" stroke="none" text-anchor="middle"></text></g><g stroke-linejoin="miter" stroke-opacity="1.0" fill-opacity="0.0" stroke="rgb(0,0,255)" stroke-width="1.4803904506132737" fill="rgb(0,0,0)" stroke-linecap="butt" stroke-miterlimit="10.0"><path d="M 99.2976,171.9685 c 0.0000,-1.6699 -1.3537,-3.0236 -3.0236 -3.0236c -1.6699,-0.0000 -3.0236,1.3537 -3.0236 3.0236c -0.0000,1.6699 1.3537,3.0236 3.0236 3.0236c 1.6699,0.0000 3.0236,-1.3537 3.0236 -3.0236Z"/></g><g stroke-linejoin="miter" stroke-opacity="1.0" fill-opacity="1.0" stroke="rgb(255,0,0)" stroke-width="1.4803904506132737" fill="rgb(255,0,0)" stroke-linecap="butt" stroke-miterlimit="10.0"><path d="M 96.6520,171.9685 c 0.0000,-0.2087 -0.1692,-0.3780 -0.3780 -0.3780c -0.2087,-0.0000 -0.3780,0.1692 -0.3780 0.3780c -0.0000,0.2087 0.1692,0.3780 0.3780 0.3780c 0.2087,0.0000 0.3780,-0.1692 0.3780 -0.3780Z"/></g><g stroke-linejoin="miter" stroke-opacity="1.0" fill-opacity="0.0" stroke="rgb(0,0,255)" stroke-width="1.4803904506132737" fill="rgb(0,0,0)" stroke-linecap="butt" stroke-miterlimit="10.0"><path d="M 118.1953,171.9685 c 0.0000,-1.6699 -1.3537,-3.0236 -3.0236 -3.0236c -1.6699,-0.0000 -3.0236,1.3537 -3.0236 3.0236c -0.0000,1.6699 1.3537,3.0236 3.0236 3.0236c 1.6699,0.0000 3.0236,-1.3537 3.0236 -3.0236Z"/></g><g stroke-linejoin="miter" stroke-opacity="1.0" fill-opacity="1.0" stroke="rgb(255,0,0)" stroke-width="1.4803904506132737" fill="rgb(255,0,0)" stroke-linecap="butt" stroke-miterlimit="10.0"><path d="M 115.5496,171.9685 c 0.0000,-0.2087 -0.1692,-0.3780 -0.3780 -0.3780c -0.2087,-0.0000 -0.3780,0.1692 -0.3780 0.3780c -0.0000,0.2087 0.1692,0.3780 0.3780 0.3780c 0.2087,0.0000 0.3780,-0.1692 0.3780 -0.3780Z"/></g><g stroke-linejoin="miter" stroke-opacity="1.0" fill-opacity="0.0" stroke="rgb(0,0,0)" stroke-width="1.4803904506132737" fill="rgb(0,0,0)" stroke-linecap="butt" stroke-miterlimit="10.0"><path d="M 135.8551,211.6535 l -0.0000,-49.1339 h -60.2646 l -0.0000,49.1339 Z"/></g><g stroke-linejoin="miter" stroke-opacity="1.0" fill-opacity="1.0" font-size="18.89763779527559px" stroke="rgb(0,0,0)" stroke-width="1.4803904506132737" fill="rgb(0,0,0)" stroke-linecap="butt" stroke-miterlimit="10.0"><text dominant-baseline="middle" transform="matrix(1.0000,0.0000,0.0000,1.0000,105.7228,187.0866)" stroke="none" text-anchor="middle"></text></g><g stroke-linejoin="miter" stroke-opacity="1.0" fill-opacity="0.0" stroke="rgb(0,0,255)" stroke-width="1.4803904506132737" fill="rgb(0,0,0)" stroke-linecap="butt" stroke-miterlimit="10.0"><path d="M 99.2976,245.6693 c 0.0000,-1.6699 -1.3537,-3.0236 -3.0236 -3.0236c -1.6699,-0.0000 -3.0236,1.3537 -3.0236 3.0236c -0.0000,1.6699 1.3537,3.0236 3.0236 3.0236c 1.6699,0.0000 3.0236,-1.3537 3.0236 -3.0236Z"/></g><g stroke-linejoin="miter" stroke-opacity="1.0" fill-opacity="1.0" stroke="rgb(255,0,0)" stroke-width="1.4803904506132737" fill="rgb(255,0,0)" stroke-linecap="butt" stroke-miterlimit="10.0"><path d="M 96.6520,245.6693 c 0.0000,-0.2087 -0.1692,-0.3780 -0.3780 -0.3780c -0.2087,-0.0000 -0.3780,0.1692 -0.3780 0.3780c -0.0000,0.2087 0.1692,0.3780 0.3780 0.3780c 0.2087,0.0000 0.3780,-0.1692 0.3780 -0.3780Z"/></g><g stroke-linejoin="miter" stroke-opacity="1.0" fill-opacity="0.0" stroke="rgb(0,0,255)" stroke-width="1.4803904506132737" fill="rgb(0,0,0)" stroke-linecap="butt" stroke-miterlimit="10.0"><path d="M 118.1953,245.6693 c 0.0000,-1.6699 -1.3537,-3.0236 -3.0236 -3.0236c -1.6699,-0.0000 -3.0236,1.3537 -3.0236 3.0236c -0.0000,1.6699 1.3537,3.0236 3.0236 3.0236c 1.6699,0.0000 3.0236,-1.3537 3.0236 -3.0236Z"/></g><g stroke-linejoin="miter" stroke-opacity="1.0" fill-opacity="1.0" stroke="rgb(255,0,0)" stroke-width="1.4803904506132737" fill="rgb(255,0,0)" stroke-linecap="butt" stroke-miterlimit="10.0"><path d="M 115.5496,245.6693 c 0.0000,-0.2087 -0.1692,-0.3780 -0.3780 -0.3780c -0.2087,-0.0000 -0.3780,0.1692 -0.3780 0.3780c -0.0000,0.2087 0.1692,0.3780 0.3780 0.3780c 0.2087,0.0000 0.3780,-0.1692 0.3780 -0.3780Z"/></g><g stroke-linejoin="miter" stroke-opacity="1.0" fill-opacity="0.0" stroke="rgb(0,0,0)" stroke-width="1.4803904506132737" fill="rgb(0,0,0)" stroke-linecap="butt" stroke-miterlimit="10.0"><path d="M 135.8551,285.3543 l -0.0000,-49.1339 h -60.2646 l -0.0000,49.1339 Z"/></g><g stroke-linejoin="miter" stroke-opacity="1.0" fill-opacity="1.0" font-size="18.89763779527559px" stroke="rgb(0,0,0)" stroke-width="1.4803904506132737" fill="rgb(0,0,0)" stroke-linecap="butt" stroke-miterlimit="10.0"><text dominant-baseline="middle" transform="matrix(1.0000,0.0000,0.0000,1.0000,105.7228,260.7874)" stroke="none" text-anchor="middle"></text></g><g stroke-linejoin="miter" stroke-opacity="1.0" fill-opacity="0.0" stroke="rgb(0,0,255)" stroke-width="1.4803904506132737" fill="rgb(0,0,0)" stroke-linecap="butt" stroke-miterlimit="10.0"><path d="M 23.7071,39.6850 c 0.0000,-1.6699 -1.3537,-3.0236 -3.0236 -3.0236c -1.6699,-0.0000 -3.0236,1.3537 -3.0236 3.0236c -0.0000,1.6699 1.3537,3.0236 3.0236 3.0236c 1.6699,0.0000 3.0236,-1.3537 3.0236 -3.0236Z"/></g><g stroke-linejoin="miter" stroke-opacity="1.0" fill-opacity="1.0" stroke="rgb(255,0,0)" stroke-width="1.4803904506132737" fill="rgb(255,0,0)" stroke-linecap="butt" stroke-miterlimit="10.0"><path d="M 21.0614,39.6850 c 0.0000,-0.2087 -0.1692,-0.3780 -0.3780 -0.3780c -0.2087,-0.0000 -0.3780,0.1692 -0.3780 0.3780c -0.0000,0.2087 0.1692,0.3780 0.3780 0.3780c 0.2087,0.0000 0.3780,-0.1692 0.3780 -0.3780Z"/></g><g stroke-linejoin="miter" stroke-opacity="1.0" fill-opacity="0.0" stroke="rgb(0,0,255)" stroke-width="1.4803904506132737" fill="rgb(0,0,0)" stroke-linecap="butt" stroke-miterlimit="10.0"><path d="M 42.6047,39.6850 c 0.0000,-1.6699 -1.3537,-3.0236 -3.0236 -3.0236c -1.6699,-0.0000 -3.0236,1.3537 -3.0236 3.0236c -0.0000,1.6699 1.3537,3.0236 3.0236 3.0236c 1.6699,0.0000 3.0236,-1.3537 3.0236 -3.0236Z"/></g><g stroke-linejoin="miter" stroke-opacity="1.0" fill-opacity="1.0" stroke="rgb(255,0,0)" stroke-width="1.4803904506132737" fill="rgb(255,0,0)" stroke-linecap="butt" stroke-miterlimit="10.0"><path d="M 39.9591,39.6850 c 0.0000,-0.2087 -0.1692,-0.3780 -0.3780 -0.3780c -0.2087,-0.0000 -0.3780,0.1692 -0.3780 0.3780c -0.0000,0.2087 0.1692,0.3780 0.3780 0.3780c 0.2087,0.0000 0.3780,-0.1692 0.3780 -0.3780Z"/></g><g stroke-linejoin="miter" stroke-opacity="1.0" fill-opacity="0.0" stroke="rgb(0,0,0)" stroke-width="1.4803904506132737" fill="rgb(0,0,0)" stroke-linecap="butt" stroke-miterlimit="10.0"><path d="M 60.2646,79.3701 l -0.0000,-49.1339 h -60.2646 l -0.0000,49.1339 Z"/></g><g stroke-linejoin="miter" stroke-opacity="1.0" fill-opacity="1.0" font-size="18.89763779527559px" stroke="rgb(0,0,0)" stroke-width="1.4803904506132737" fill="rgb(0,0,0)" stroke-linecap="butt" stroke-miterlimit="10.0"><text dominant-baseline="middle" transform="matrix(1.0000,0.0000,0.0000,1.0000,30.1323,54.8031)" stroke="none" text-anchor="middle"></text></g><g stroke-linejoin="miter" stroke-opacity="1.0" fill-opacity="0.0" stroke="rgb(0,0,255)" stroke-width="1.4803904506132737" fill="rgb(0,0,0)" stroke-linecap="butt" stroke-miterlimit="10.0"><path d="M 23.7071,113.3858 c 0.0000,-1.6699 -1.3537,-3.0236 -3.0236 -3.0236c -1.6699,-0.0000 -3.0236,1.3537 -3.0236 3.0236c -0.0000,1.6699 1.3537,3.0236 3.0236 3.0236c 1.6699,0.0000 3.0236,-1.3537 3.0236 -3.0236Z"/></g><g stroke-linejoin="miter" stroke-opacity="1.0" fill-opacity="1.0" stroke="rgb(255,0,0)" stroke-width="1.4803904506132737" fill="rgb(255,0,0)" stroke-linecap="butt" stroke-miterlimit="10.0"><path d="M 21.0614,113.3858 c 0.0000,-0.2087 -0.1692,-0.3780 -0.3780 -0.3780c -0.2087,-0.0000 -0.3780,0.1692 -0.3780 0.3780c -0.0000,0.2087 0.1692,0.3780 0.3780 0.3780c 0.2087,0.0000 0.3780,-0.1692 0.3780 -0.3780Z"/></g><g stroke-linejoin="miter" stroke-opacity="1.0" fill-opacity="0.0" stroke="rgb(0,0,255)" stroke-width="1.4803904506132737" fill="rgb(0,0,0)" stroke-linecap="butt" stroke-miterlimit="10.0"><path d="M 42.6047,113.3858 c 0.0000,-1.6699 -1.3537,-3.0236 -3.0236 -3.0236c -1.6699,-0.0000 -3.0236,1.3537 -3.0236 3.0236c -0.0000,1.6699 1.3537,3.0236 3.0236 3.0236c 1.6699,0.0000 3.0236,-1.3537 3.0236 -3.0236Z"/></g><g stroke-linejoin="miter" stroke-opacity="1.0" fill-opacity="1.0" stroke="rgb(255,0,0)" stroke-width="1.4803904506132737" fill="rgb(255,0,0)" stroke-linecap="butt" stroke-miterlimit="10.0"><path d="M 39.9591,113.3858 c 0.0000,-0.2087 -0.1692,-0.3780 -0.3780 -0.3780c -0.2087,-0.0000 -0.3780,0.1692 -0.3780 0.3780c -0.0000,0.2087 0.1692,0.3780 0.3780 0.3780c 0.2087,0.0000 0.3780,-0.1692 0.3780 -0.3780Z"/></g><g stroke-linejoin="miter" stroke-opacity="1.0" fill-opacity="0.0" stroke="rgb(0,0,0)" stroke-width="1.4803904506132737" fill="rgb(0,0,0)" stroke-linecap="butt" stroke-miterlimit="10.0"><path d="M 60.2646,153.0709 l -0.0000,-49.1339 h -60.2646 l -0.0000,49.1339 Z"/></g><g stroke-linejoin="miter" stroke-opacity="1.0" fill-opacity="1.0" font-size="18.89763779527559px" stroke="rgb(0,0,0)" stroke-width="1.4803904506132737" fill="rgb(0,0,0)" stroke-linecap="butt" stroke-miterlimit="10.0"><text dominant-baseline="middle" transform="matrix(1.0000,0.0000,0.0000,1.0000,30.1323,128.5039)" stroke="none" text-anchor="middle"></text></g><g stroke-linejoin="miter" stroke-opacity="1.0" fill-opacity="0.0" stroke="rgb(0,0,255)" stroke-width="1.4803904506132737" fill="rgb(0,0,0)" stroke-linecap="butt" stroke-miterlimit="10.0"><path d="M 23.7071,187.0866 c 0.0000,-1.6699 -1.3537,-3.0236 -3.0236 -3.0236c -1.6699,-0.0000 -3.0236,1.3537 -3.0236 3.0236c -0.0000,1.6699 1.3537,3.0236 3.0236 3.0236c 1.6699,0.0000 3.0236,-1.3537 3.0236 -3.0236Z"/></g><g stroke-linejoin="miter" stroke-opacity="1.0" fill-opacity="1.0" stroke="rgb(255,0,0)" stroke-width="1.4803904506132737" fill="rgb(255,0,0)" stroke-linecap="butt" stroke-miterlimit="10.0"><path d="M 21.0614,187.0866 c 0.0000,-0.2087 -0.1692,-0.3780 -0.3780 -0.3780c -0.2087,-0.0000 -0.3780,0.1692 -0.3780 0.3780c -0.0000,0.2087 0.1692,0.3780 0.3780 0.3780c 0.2087,0.0000 0.3780,-0.1692 0.3780 -0.3780Z"/></g><g stroke-linejoin="miter" stroke-opacity="1.0" fill-opacity="0.0" stroke="rgb(0,0,255)" stroke-width="1.4803904506132737" fill="rgb(0,0,0)" stroke-linecap="butt" stroke-miterlimit="10.0"><path d="M 42.6047,187.0866 c 0.0000,-1.6699 -1.3537,-3.0236 -3.0236 -3.0236c -1.6699,-0.0000 -3.0236,1.3537 -3.0236 3.0236c -0.0000,1.6699 1.3537,3.0236 3.0236 3.0236c 1.6699,0.0000 3.0236,-1.3537 3.0236 -3.0236Z"/></g><g stroke-linejoin="miter" stroke-opacity="1.0" fill-opacity="1.0" stroke="rgb(255,0,0)" stroke-width="1.4803904506132737" fill="rgb(255,0,0)" stroke-linecap="butt" stroke-miterlimit="10.0"><path d="M 39.9591,187.0866 c 0.0000,-0.2087 -0.1692,-0.3780 -0.3780 -0.3780c -0.2087,-0.0000 -0.3780,0.1692 -0.3780 0.3780c -0.0000,0.2087 0.1692,0.3780 0.3780 0.3780c 0.2087,0.0000 0.3780,-0.1692 0.3780 -0.3780Z"/></g><g stroke-linejoin="miter" stroke-opacity="1.0" fill-opacity="0.0" stroke="rgb(0,0,0)" stroke-width="1.4803904506132737" fill="rgb(0,0,0)" stroke-linecap="butt" stroke-miterlimit="10.0"><path d="M 60.2646,226.7717 l -0.0000,-49.1339 h -60.2646 l -0.0000,49.1339 Z"/></g><g stroke-linejoin="miter" stroke-opacity="1.0" fill-opacity="1.0" font-size="18.89763779527559px" stroke="rgb(0,0,0)" stroke-width="1.4803904506132737" fill="rgb(0,0,0)" stroke-linecap="butt" stroke-miterlimit="10.0"><text dominant-baseline="middle" transform="matrix(1.0000,0.0000,0.0000,1.0000,30.1323,202.2047)" stroke="none" text-anchor="middle"></text></g><g stroke-linejoin="miter" stroke-opacity="1.0" fill-opacity="0.0" stroke="rgb(0,0,255)" stroke-width="1.4803904506132737" fill="rgb(0,0,0)" stroke-linecap="butt" stroke-miterlimit="10.0"><path d="M 23.7071,260.7874 c 0.0000,-1.6699 -1.3537,-3.0236 -3.0236 -3.0236c -1.6699,-0.0000 -3.0236,1.3537 -3.0236 3.0236c -0.0000,1.6699 1.3537,3.0236 3.0236 3.0236c 1.6699,0.0000 3.0236,-1.3537 3.0236 -3.0236Z"/></g><g stroke-linejoin="miter" stroke-opacity="1.0" fill-opacity="1.0" stroke="rgb(255,0,0)" stroke-width="1.4803904506132737" fill="rgb(255,0,0)" stroke-linecap="butt" stroke-miterlimit="10.0"><path d="M 21.0614,260.7874 c 0.0000,-0.2087 -0.1692,-0.3780 -0.3780 -0.3780c -0.2087,-0.0000 -0.3780,0.1692 -0.3780 0.3780c -0.0000,0.2087 0.1692,0.3780 0.3780 0.3780c 0.2087,0.0000 0.3780,-0.1692 0.3780 -0.3780Z"/></g><g stroke-linejoin="miter" stroke-opacity="1.0" fill-opacity="0.0" stroke="rgb(0,0,255)" stroke-width="1.4803904506132737" fill="rgb(0,0,0)" stroke-linecap="butt" stroke-miterlimit="10.0"><path d="M 42.6047,260.7874 c 0.0000,-1.6699 -1.3537,-3.0236 -3.0236 -3.0236c -1.6699,-0.0000 -3.0236,1.3537 -3.0236 3.0236c -0.0000,1.6699 1.3537,3.0236 3.0236 3.0236c 1.6699,0.0000 3.0236,-1.3537 3.0236 -3.0236Z"/></g><g stroke-linejoin="miter" stroke-opacity="1.0" fill-opacity="1.0" stroke="rgb(255,0,0)" stroke-width="1.4803904506132737" fill="rgb(255,0,0)" stroke-linecap="butt" stroke-miterlimit="10.0"><path d="M 39.9591,260.7874 c 0.0000,-0.2087 -0.1692,-0.3780 -0.3780 -0.3780c -0.2087,-0.0000 -0.3780,0.1692 -0.3780 0.3780c -0.0000,0.2087 0.1692,0.3780 0.3780 0.3780c 0.2087,0.0000 0.3780,-0.1692 0.3780 -0.3780Z"/></g><g stroke-linejoin="miter" stroke-opacity="1.0" fill-opacity="0.0" stroke="rgb(0,0,0)" stroke-width="1.4803904506132737" fill="rgb(0,0,0)" stroke-linecap="butt" stroke-miterlimit="10.0"><path d="M 60.2646,300.4724 l -0.0000,-49.1339 h -60.2646 l -0.0000,49.1339 Z"/></g><g stroke-linejoin="miter" stroke-opacity="1.0" fill-opacity="1.0" font-size="18.89763779527559px" stroke="rgb(0,0,0)" stroke-width="1.4803904506132737" fill="rgb(0,0,0)" stroke-linecap="butt" stroke-miterlimit="10.0"><text dominant-baseline="middle" transform="matrix(1.0000,0.0000,0.0000,1.0000,30.1323,275.9055)" stroke="none" text-anchor="middle"></text></g></svg>