<?xml version="1.0" encoding="UTF-8"?>
<!DOCTYPE svg PUBLIC "-//W3C//DTD SVG 1.1//EN"
    "http://www.w3.org/Graphics/SVG/1.1/DTD/svg11.dtd"><svg xmlns="http://www.w3.org/2000/svg" height="270.2362" stroke-opacity="1" viewBox="0.0 0.0 438.2173228346456 270.2362204724409" font-size="1" width="438.2173" xmlns:xlink="http://www.w3.org/1999/xlink" stroke="rgb(0,0,0)" version="1.1"><defs></defs><g stroke-linejoin="miter" stroke-opacity="1.0" fill-opacity="0.0" stroke="rgb(0,0,255)" stroke-width="1.3765010312724715" fill="rgb(0,0,0)" stroke-linecap="butt" stroke-miterlimit="10.0"><path d="M 401.6598,156.8504 c 0.0000,-1.6699 -1.3537,-3.0236 -3.0236 -3.0236c -1.6699,-0.0000 -3.0236,1.3537 -3.0236 3.0236c -0.0000,1.6699 1.3537,3.0236 3.0236 3.0236c 1.6699,0.0000 3.0236,-1.3537 3.0236 -3.0236Z"/></g><g stroke-linejoin="miter" stroke-opacity="1.0" fill-opacity="1.0" stroke="rgb(255,0,0)" stroke-width="1.3765010312724715" fill="rgb(255,0,0)" stroke-linecap="butt" stroke-miterlimit="10.0"><path d="M 399.0142,156.8504 c 0.0000,-0.2087 -0.1692,-0.3780 -0.3780 -0.3780c -0.2087,-0.0000 -0.3780,0.1692 -0.3780 0.3780c -0.0000,0.2087 0.1692,0.3780 0.3780 0.3780c 0.2087,0.0000 0.3780,-0.1692 0.3780 -0.3780Z"/></g><g stroke-linejoin="miter" stroke-opacity="1.0" fill-opacity="0.0" stroke="rgb(0,0,255)" stroke-width="1.3765010312724715" fill="rgb(0,0,0)" stroke-linecap="butt" stroke-miterlimit="10.0"><path d="M 420.5575,156.8504 c 0.0000,-1.6699 -1.3537,-3.0236 -3.0236 -3.0236c -1.6699,-0.0000 -3.0236,1.3537 -3.0236 3.0236c -0.0000,1.6699 1.3537,3.0236 3.0236 3.0236c 1.6699,0.0000 3.0236,-1.3537 3.0236 -3.0236Z"/></g><g stroke-linejoin="miter" stroke-opacity="1.0" fill-opacity="1.0" stroke="rgb(255,0,0)" stroke-width="1.3765010312724715" fill="rgb(255,0,0)" stroke-linecap="butt" stroke-miterlimit="10.0"><path d="M 417.9118,156.8504 c 0.0000,-0.2087 -0.1692,-0.3780 -0.3780 -0.3780c -0.2087,-0.0000 -0.3780,0.1692 -0.3780 0.3780c -0.0000,0.2087 0.1692,0.3780 0.3780 0.3780c 0.2087,0.0000 0.3780,-0.1692 0.3780 -0.3780Z"/></g><g stroke-linejoin="miter" stroke-opacity="1.0" fill-opacity="0.0" stroke="rgb(0,0,0)" stroke-width="1.3765010312724715" fill="rgb(0,0,0)" stroke-linecap="butt" stroke-miterlimit="10.0"><path d="M 438.2173,196.5354 l -0.0000,-49.1339 h -60.2646 l -0.0000,49.1339 Z"/></g><g stroke-linejoin="miter" stroke-opacity="1.0" fill-opacity="1.0" font-size="18.89763779527559px" stroke="rgb(0,0,0)" stroke-width="1.3765010312724715" fill="rgb(0,0,0)" stroke-linecap="butt" stroke-miterlimit="10.0"><text dominant-baseline="middle" transform="matrix(1.0000,0.0000,0.0000,1.0000,408.0850,171.9685)" stroke="none" text-anchor="middle"></text></g><g stroke-linejoin="miter" stroke-opacity="1.0" fill-opacity="0.0" stroke="rgb(0,0,255)" stroke-width="1.3765010312724715" fill="rgb(0,0,0)" stroke-linecap="butt" stroke-miterlimit="10.0"><path d="M 401.6598,230.5512 c 0.0000,-1.6699 -1.3537,-3.0236 -3.0236 -3.0236c -1.6699,-0.0000 -3.0236,1.3537 -3.0236 3.0236c -0.0000,1.6699 1.3537,3.0236 3.0236 3.0236c 1.6699,0.0000 3.0236,-1.3537 3.0236 -3.0236Z"/></g><g stroke-linejoin="miter" stroke-opacity="1.0" fill-opacity="1.0" stroke="rgb(255,0,0)" stroke-width="1.3765010312724715" fill="rgb(255,0,0)" stroke-linecap="butt" stroke-miterlimit="10.0"><path d="M 399.0142,230.5512 c 0.0000,-0.2087 -0.1692,-0.3780 -0.3780 -0.3780c -0.2087,-0.0000 -0.3780,0.1692 -0.3780 0.3780c -0.0000,0.2087 0.1692,0.3780 0.3780 0.3780c 0.2087,0.0000 0.3780,-0.1692 0.3780 -0.3780Z"/></g><g stroke-linejoin="miter" stroke-opacity="1.0" fill-opacity="0.0" stroke="rgb(0,0,255)" stroke-width="1.3765010312724715" fill="rgb(0,0,0)" stroke-linecap="butt" stroke-miterlimit="10.0"><path d="M 420.5575,230.5512 c 0.0000,-1.6699 -1.3537,-3.0236 -3.0236 -3.0236c -1.6699,-0.0000 -3.0236,1.3537 -3.0236 3.0236c -0.0000,1.6699 1.3537,3.0236 3.0236 3.0236c 1.6699,0.0000 3.0236,-1.3537 3.0236 -3.0236Z"/></g><g stroke-linejoin="miter" stroke-opacity="1.0" fill-opacity="1.0" stroke="rgb(255,0,0)" stroke-width="1.3765010312724715" fill="rgb(255,0,0)" stroke-linecap="butt" stroke-miterlimit="10.0"><path d="M 417.9118,230.5512 c 0.0000,-0.2087 -0.1692,-0.3780 -0.3780 -0.3780c -0.2087,-0.0000 -0.3780,0.1692 -0.3780 0.3780c -0.0000,0.2087 0.1692,0.3780 0.3780 0.3780c 0.2087,0.0000 0.3780,-0.1692 0.3780 -0.3780Z"/></g><g stroke-linejoin="miter" stroke-opacity="1.0" fill-opacity="0.0" stroke="rgb(0,0,0)" stroke-width="1.3765010312724715" fill="rgb(0,0,0)" stroke-linecap="butt" stroke-miterlimit="10.0"><path d="M 438.2173,270.2362 l -0.0000,-49.1339 h -60.2646 l -0.0000,49.1339 Z"/></g><g stroke-linejoin="miter" stroke-opacity="1.0" fill-opacity="1.0" font-size="18.89763779527559px" stroke="rgb(0,0,0)" stroke-width="1.3765010312724715" fill="rgb(0,0,0)" stroke-linecap="butt" stroke-miterlimit="10.0"><text dominant-baseline="middle" transform="matrix(1.0000,0.0000,0.0000,1.0000,408.0850,245.6693)" stroke="none" text-anchor="middle"></text></g><g stroke-linejoin="miter" stroke-opacity="1.0" fill-opacity="0.0" stroke="rgb(0,0,255)" stroke-width="1.3765010312724715" fill="rgb(0,0,0)" stroke-linecap="butt" stroke-miterlimit="10.0"><path d="M 326.0693,9.4488 c 0.0000,-1.6699 -1.3537,-3.0236 -3.0236 -3.0236c -1.6699,-0.0000 -3.0236,1.3537 -3.0236 3.0236c -0.0000,1.6699 1.3537,3.0236 3.0236 3.0236c 1.6699,0.0000 3.0236,-1.3537 3.0236 -3.0236Z"/></g><g stroke-linejoin="miter" stroke-opacity="1.0" fill-opacity="1.0" stroke="rgb(255,0,0)" stroke-width="1.3765010312724715" fill="rgb(255,0,0)" stroke-linecap="butt" stroke-miterlimit="10.0"><path d="M 323.4236,9.4488 c 0.0000,-0.2087 -0.1692,-0.3780 -0.3780 -0.3780c -0.2087,-0.0000 -0.3780,0.1692 -0.3780 0.3780c -0.0000,0.2087 0.1692,0.3780 0.3780 0.3780c 0.2087,0.0000 0.3780,-0.1692 0.3780 -0.3780Z"/></g><g stroke-linejoin="miter" stroke-opacity="1.0" fill-opacity="0.0" stroke="rgb(0,0,255)" stroke-width="1.3765010312724715" fill="rgb(0,0,0)" stroke-linecap="butt" stroke-miterlimit="10.0"><path d="M 344.9669,9.4488 c 0.0000,-1.6699 -1.3537,-3.0236 -3.0236 -3.0236c -1.6699,-0.0000 -3.0236,1.3537 -3.0236 3.0236c -0.0000,1.6699 1.3537,3.0236 3.0236 3.0236c 1.6699,0.0000 3.0236,-1.3537 3.0236 -3.0236Z"/></g><g stroke-linejoin="miter" stroke-opacity="1.0" fill-opacity="1.0" stroke="rgb(255,0,0)" stroke-width="1.3765010312724715" fill="rgb(255,0,0)" stroke-linecap="butt" stroke-miterlimit="10.0"><path d="M 342.3213,9.4488 c 0.0000,-0.2087 -0.1692,-0.3780 -0.3780 -0.3780c -0.2087,-0.0000 -0.3780,0.1692 -0.3780 0.3780c -0.0000,0.2087 0.1692,0.3780 0.3780 0.3780c 0.2087,0.0000 0.3780,-0.1692 0.3780 -0.3780Z"/></g><g stroke-linejoin="miter" stroke-opacity="1.0" fill-opacity="0.0" stroke="rgb(0,0,0)" stroke-width="1.3765010312724715" fill="rgb(0,0,0)" stroke-linecap="butt" stroke-miterlimit="10.0"><path d="M 362.6268,49.1339 l -0.0000,-49.1339 h -60.2646 l -0.0000,49.1339 Z"/></g><g stroke-linejoin="miter" stroke-opacity="1.0" fill-opacity="1.0" font-size="18.89763779527559px" stroke="rgb(0,0,0)" stroke-width="1.3765010312724715" fill="rgb(0,0,0)" stroke-linecap="butt" stroke-miterlimit="10.0"><text dominant-baseline="middle" transform="matrix(1.0000,0.0000,0.0000,1.0000,332.4945,24.5669)" stroke="none" text-anchor="middle"></text></g><g stroke-linejoin="miter" stroke-opacity="1.0" fill-opacity="0.0" stroke="rgb(0,0,255)" stroke-width="1.3765010312724715" fill="rgb(0,0,0)" stroke-linecap="butt" stroke-miterlimit="10.0"><path d="M 326.0693,83.1496 c 0.0000,-1.6699 -1.3537,-3.0236 -3.0236 -3.0236c -1.6699,-0.0000 -3.0236,1.3537 -3.0236 3.0236c -0.0000,1.6699 1.3537,3.0236 3.0236 3.0236c 1.6699,0.0000 3.0236,-1.3537 3.0236 -3.0236Z"/></g><g stroke-linejoin="miter" stroke-opacity="1.0" fill-opacity="1.0" stroke="rgb(255,0,0)" stroke-width="1.3765010312724715" fill="rgb(255,0,0)" stroke-linecap="butt" stroke-miterlimit="10.0"><path d="M 323.4236,83.1496 c 0.0000,-0.2087 -0.1692,-0.3780 -0.3780 -0.3780c -0.2087,-0.0000 -0.3780,0.1692 -0.3780 0.3780c -0.0000,0.2087 0.1692,0.3780 0.3780 0.3780c 0.2087,0.0000 0.3780,-0.1692 0.3780 -0.3780Z"/></g><g stroke-linejoin="miter" stroke-opacity="1.0" fill-opacity="0.0" stroke="rgb(0,0,255)" stroke-width="1.3765010312724715" fill="rgb(0,0,0)" stroke-linecap="butt" stroke-miterlimit="10.0"><path d="M 344.9669,83.1496 c 0.0000,-1.6699 -1.3537,-3.0236 -3.0236 -3.0236c -1.6699,-0.0000 -3.0236,1.3537 -3.0236 3.0236c -0.0000,1.6699 1.3537,3.0236 3.0236 3.0236c 1.6699,0.0000 3.0236,-1.3537 3.0236 -3.0236Z"/></g><g stroke-linejoin="miter" stroke-opacity="1.0" fill-opacity="1.0" stroke="rgb(255,0,0)" stroke-width="1.3765010312724715" fill="rgb(255,0,0)" stroke-linecap="butt" stroke-miterlimit="10.0"><path d="M 342.3213,83.1496 c 0.0000,-0.2087 -0.1692,-0.3780 -0.3780 -0.3780c -0.2087,-0.0000 -0.3780,0.1692 -0.3780 0.3780c -0.0000,0.2087 0.1692,0.3780 0.3780 0.3780c 0.2087,0.0000 0.3780,-0.1692 0.3780 -0.3780Z"/></g><g stroke-linejoin="miter" stroke-opacity="1.0" fill-opacity="0.0" stroke="rgb(0,0,0)" stroke-width="1.3765010312724715" fill="rgb(0,0,0)" stroke-linecap="butt" stroke-miterlimit="10.0"><path d="M 362.6268,122.8346 l -0.0000,-49.1339 h -60.2646 l -0.0000,49.1339 Z"/></g><g stroke-linejoin="miter" stroke-opacity="1.0" fill-opacity="1.0" font-size="18.89763779527559px" stroke="rgb(0,0,0)" stroke-width="1.3765010312724715" fill="rgb(0,0,0)" stroke-linecap="butt" stroke-miterlimit="10.0"><text dominant-baseline="middle" transform="matrix(1.0000,0.0000,0.0000,1.0000,332.4945,98.2677)" stroke="none" text-anchor="middle"></text></g><g stroke-linejoin="miter" stroke-opacity="1.0" fill-opacity="0.0" stroke="rgb(0,0,255)" stroke-width="1.3765010312724715" fill="rgb(0,0,0)" stroke-linecap="butt" stroke-miterlimit="10.0"><path d="M 326.0693,156.8504 c 0.0000,-1.6699 -1.3537,-3.0236 -3.0236 -3.0236c -1.6699,-0.0000 -3.0236,1.3537 -3.0236 3.0236c -0.0000,1.6699 1.3537,3.0236 3.0236 3.0236c 1.6699,0.0000 3.0236,-1.3537 3.0236 -3.0236Z"/></g><g stroke-linejoin="miter" stroke-opacity="1.0" fill-opacity="1.0" stroke="rgb(255,0,0)" stroke-width="1.3765010312724715" fill="rgb(255,0,0)" stroke-linecap="butt" stroke-miterlimit="10.0"><path d="M 323.4236,156.8504 c 0.0000,-0.2087 -0.1692,-0.3780 -0.3780 -0.3780c -0.2087,-0.0000 -0.3780,0.1692 -0.3780 0.3780c -0.0000,0.2087 0.1692,0.3780 0.3780 0.3780c 0.2087,0.0000 0.3780,-0.1692 0.3780 -0.3780Z"/></g><g stroke-linejoin="miter" stroke-opacity="1.0" fill-opacity="0.0" stroke="rgb(0,0,255)" stroke-width="1.3765010312724715" fill="rgb(0,0,0)" stroke-linecap="butt" stroke-miterlimit="10.0"><path d="M 344.9669,156.8504 c 0.0000,-1.6699 -1.3537,-3.0236 -3.0236 -3.0236c -1.6699,-0.0000 -3.0236,1.3537 -3.0236 3.0236c -0.0000,1.6699 1.3537,3.0236 3.0236 3.0236c 1.6699,0.0000 3.0236,-1.3537 3.0236 -3.0236Z"/></g><g stroke-linejoin="miter" stroke-opacity="1.0" fill-opacity="1.0" stroke="rgb(255,0,0)" stroke-width="1.3765010312724715" fill="rgb(255,0,0)" stroke-linecap="butt" stroke-miterlimit="10.0"><path d="M 342.3213,156.8504 c 0.0000,-0.2087 -0.1692,-0.3780 -0.3780 -0.3780c -0.2087,-0.0000 -0.3780,0.1692 -0.3780 0.3780c -0.0000,0.2087 0.1692,0.3780 0.3780 0.3780c 0.2087,0.0000 0.3780,-0.1692 0.3780 -0.3780Z"/></g><g stroke-linejoin="miter" stroke-opacity="1.0" fill-opacity="0.0" stroke="rgb(0,0,0)" stroke-width="1.3765010312724715" fill="rgb(0,0,0)" stroke-linecap="butt" stroke-miterlimit="10.0"><path d="M 362.6268,196.5354 l -0.0000,-49.1339 h -60.2646 l -0.0000,49.1339 Z"/></g><g stroke-linejoin="miter" stroke-opacity="1.0" fill-opacity="1.0" font-size="18.89763779527559px" stroke="rgb(0,0,0)" stroke-width="1.3765010312724715" fill="rgb(0,0,0)" stroke-linecap="butt" stroke-miterlimit="10.0"><text dominant-baseline="middle" transform="matrix(1.0000,0.0000,0.0000,1.0000,332.4945,171.9685)" stroke="none" text-anchor="middle"></text></g><g stroke-linejoin="miter" stroke-opacity="1.0" fill-opacity="0.0" stroke="rgb(0,0,255)" stroke-width="1.3765010312724715" fill="rgb(0,0,0)" stroke-linecap="butt" stroke-miterlimit="10.0"><path d="M 326.0693,230.5512 c 0.0000,-1.6699 -1.3537,-3.0236 -3.0236 -3.0236c -1.6699,-0.0000 -3.0236,1.3537 -3.0236 3.0236c -0.0000,1.6699 1.3537,3.0236 3.0236 3.0236c 1.6699,0.0000 3.0236,-1.3537 3.0236 -3.0236Z"/></g><g stroke-linejoin="miter" stroke-opacity="1.0" fill-opacity="1.0" stroke="rgb(255,0,0)" stroke-width="1.3765010312724715" fill="rgb(255,0,0)" stroke-linecap="butt" stroke-miterlimit="10.0"><path d="M 323.4236,230.5512 c 0.0000,-0.2087 -0.1692,-0.3780 -0.3780 -0.3780c -0.2087,-0.0000 -0.3780,0.1692 -0.3780 0.3780c -0.0000,0.2087 0.1692,0.3780 0.3780 0.3780c 0.2087,0.0000 0.3780,-0.1692 0.3780 -0.3780Z"/></g><g stroke-linejoin="miter" stroke-opacity="1.0" fill-opacity="0.0" stroke="rgb(0,0,255)" stroke-width="1.3765010312724715" fill="rgb(0,0,0)" stroke-linecap="butt" stroke-miterlimit="10.0"><path d="M 344.9669,230.5512 c 0.0000,-1.6699 -1.3537,-3.0236 -3.0236 -3.0236c -1.6699,-0.0000 -3.0236,1.3537 -3.0236 3.0236c -0.0000,1.6699 1.3537,3.0236 3.0236 3.0236c 1.6699,0.0000 3.0236,-1.3537 3.0236 -3.0236Z"/></g><g stroke-linejoin="miter" stroke-opacity="1.0" fill-opacity="1.0" stroke="rgb(255,0,0)" stroke-width="1.3765010312724715" fill="rgb(255,0,0)" stroke-linecap="butt" stroke-miterlimit="10.0"><path d="M 342.3213,230.5512 c 0.0000,-0.2087 -0.1692,-0.3780 -0.3780 -0.3780c -0.2087,-0.0000 -0.3780,0.1692 -0.3780 0.3780c -0.0000,0.2087 0.1692,0.3780 0.3780 0.3780c 0.2087,0.0000 0.3780,-0.1692 0.3780 -0.3780Z"/></g><g stroke-linejoin="miter" stroke-opacity="1.0" fill-opacity="0.0" stroke="rgb(0,0,0)" stroke-width="1.3765010312724715" fill="rgb(0,0,0)" stroke-linecap="butt" stroke-miterlimit="10.0"><path d="M 362.6268,270.2362 l -0.0000,-49.1339 h -60.2646 l -0.0000,49.1339 Z"/></g><g stroke-linejoin="miter" stroke-opacity="1.0" fill-opacity="1.0" font-size="18.89763779527559px" stroke="rgb(0,0,0)" stroke-width="1.3765010312724715" fill="rgb(0,0,0)" stroke-linecap="butt" stroke-miterlimit="10.0"><text dominant-baseline="middle" transform="matrix(1.0000,0.0000,0.0000,1.0000,332.4945,245.6693)" stroke="none" text-anchor="middle"></text></g><g stroke-linejoin="miter" stroke-opacity="1.0" fill-opacity="0.0" stroke="rgb(0,0,255)" stroke-width="1.3765010312724715" fill="rgb(0,0,0)" stroke-linecap="butt" stroke-miterlimit="10.0"><path d="M 250.4787,9.4488 c 0.0000,-1.6699 -1.3537,-3.0236 -3.0236 -3.0236c -1.6699,-0.0000 -3.0236,1.3537 -3.0236 3.0236c -0.0000,1.6699 1.3537,3.0236 3.0236 3.0236c 1.6699,0.0000 3.0236,-1.3537 3.0236 -3.0236Z"/></g><g stroke-linejoin="miter" stroke-opacity="1.0" fill-opacity="1.0" stroke="rgb(255,0,0)" stroke-width="1.3765010312724715" fill="rgb(255,0,0)" stroke-linecap="butt" stroke-miterlimit="10.0"><path d="M 247.8331,9.4488 c 0.0000,-0.2087 -0.1692,-0.3780 -0.3780 -0.3780c -0.2087,-0.0000 -0.3780,0.1692 -0.3780 0.3780c -0.0000,0.2087 0.1692,0.3780 0.3780 0.3780c 0.2087,0.0000 0.3780,-0.1692 0.3780 -0.3780Z"/></g><g stroke-linejoin="miter" stroke-opacity="1.0" fill-opacity="0.0" stroke="rgb(0,0,255)" stroke-width="1.3765010312724715" fill="rgb(0,0,0)" stroke-linecap="butt" stroke-miterlimit="10.0"><path d="M 269.3764,9.4488 c 0.0000,-1.6699 -1.3537,-3.0236 -3.0236 -3.0236c -1.6699,-0.0000 -3.0236,1.3537 -3.0236 3.0236c -0.0000,1.6699 1.3537,3.0236 3.0236 3.0236c 1.6699,0.0000 3.0236,-1.3537 3.0236 -3.0236Z"/></g><g stroke-linejoin="miter" stroke-opacity="1.0" fill-opacity="1.0" stroke="rgb(255,0,0)" stroke-width="1.3765010312724715" fill="rgb(255,0,0)" stroke-linecap="butt" stroke-miterlimit="10.0"><path d="M 266.7307,9.4488 c 0.0000,-0.2087 -0.1692,-0.3780 -0.3780 -0.3780c -0.2087,-0.0000 -0.3780,0.1692 -0.3780 0.3780c -0.0000,0.2087 0.1692,0.3780 0.3780 0.3780c 0.2087,0.0000 0.3780,-0.1692 0.3780 -0.3780Z"/></g><g stroke-linejoin="miter" stroke-opacity="1.0" fill-opacity="0.0" stroke="rgb(0,0,0)" stroke-width="1.3765010312724715" fill="rgb(0,0,0)" stroke-linecap="butt" stroke-miterlimit="10.0"><path d="M 287.0362,49.1339 l -0.0000,-49.1339 h -60.2646 l -0.0000,49.1339 Z"/></g><g stroke-linejoin="miter" stroke-opacity="1.0" fill-opacity="1.0" font-size="18.89763779527559px" stroke="rgb(0,0,0)" stroke-width="1.3765010312724715" fill="rgb(0,0,0)" stroke-linecap="butt" stroke-miterlimit="10.0"><text dominant-baseline="middle" transform="matrix(1.0000,0.0000,0.0000,1.0000,256.9039,24.5669)" stroke="none" text-anchor="middle"></text></g><g stroke-linejoin="miter" stroke-opacity="1.0" fill-opacity="0.0" stroke="rgb(0,0,255)" stroke-width="1.3765010312724715" fill="rgb(0,0,0)" stroke-linecap="butt" stroke-miterlimit="10.0"><path d="M 250.4787,83.1496 c 0.0000,-1.6699 -1.3537,-3.0236 -3.0236 -3.0236c -1.6699,-0.0000 -3.0236,1.3537 -3.0236 3.0236c -0.0000,1.6699 1.3537,3.0236 3.0236 3.0236c 1.6699,0.0000 3.0236,-1.3537 3.0236 -3.0236Z"/></g><g stroke-linejoin="miter" stroke-opacity="1.0" fill-opacity="1.0" stroke="rgb(255,0,0)" stroke-width="1.3765010312724715" fill="rgb(255,0,0)" stroke-linecap="butt" stroke-miterlimit="10.0"><path d="M 247.8331,83.1496 c 0.0000,-0.2087 -0.1692,-0.3780 -0.3780 -0.3780c -0.2087,-0.0000 -0.3780,0.1692 -0.3780 0.3780c -0.0000,0.2087 0.1692,0.3780 0.3780 0.3780c 0.2087,0.0000 0.3780,-0.1692 0.3780 -0.3780Z"/></g><g stroke-linejoin="miter" stroke-opacity="1.0" fill-opacity="0.0" stroke="rgb(0,0,255)" stroke-width="1.3765010312724715" fill="rgb(0,0,0)" stroke-linecap="butt" stroke-miterlimit="10.0"><path d="M 269.3764,83.1496 c 0.0000,-1.6699 -1.3537,-3.0236 -3.0236 -3.0236c -1.6699,-0.0000 -3.0236,1.3537 -3.0236 3.0236c -0.0000,1.6699 1.3537,3.0236 3.0236 3.0236c 1.6699,0.0000 3.0236,-1.3537 3.0236 -3.0236Z"/></g><g stroke-linejoin="miter" stroke-opacity="1.0" fill-opacity="1.0" stroke="rgb(255,0,0)" stroke-width="1.3765010312724715" fill="rgb(255,0,0)" stroke-linecap="butt" stroke-miterlimit="10.0"><path d="M 266.7307,83.1496 c 0.0000,-0.2087 -0.1692,-0.3780 -0.3780 -0.3780c -0.2087,-0.0000 -0.3780,0.1692 -0.3780 0.3780c -0.0000,0.2087 0.1692,0.3780 0.3780 0.3780c 0.2087,0.0000 0.3780,-0.1692 0.3780 -0.3780Z"/></g><g stroke-linejoin="miter" stroke-opacity="1.0" fill-opacity="0.0" stroke="rgb(0,0,0)" stroke-width="1.3765010312724715" fill="rgb(0,0,0)" stroke-linecap="butt" stroke-miterlimit="10.0"><path d="M 287.0362,122.8346 l -0.0000,-49.1339 h -60.2646 l -0.0000,49.1339 Z"/></g><g stroke-linejoin="miter" stroke-opacity="1.0" fill-opacity="1.0" font-size="18.89763779527559px" stroke="rgb(0,0,0)" stroke-width="1.3765010312724715" fill="rgb(0,0,0)" stroke-linecap="butt" stroke-miterlimit="10.0"><text dominant-baseline="middle" transform="matrix(1.0000,0.0000,0.0000,1.0000,256.9039,98.2677)" stroke="none" text-anchor="middle"></text></g><g stroke-linejoin="miter" stroke-opacity="1.0" fill-opacity="0.0" stroke="rgb(0,0,255)" stroke-width="1.3765010312724715" fill="rgb(0,0,0)" stroke-linecap="butt" stroke-miterlimit="10.0"><path d="M 250.4787,156.8504 c 0.0000,-1.6699 -1.3537,-3.0236 -3.0236 -3.0236c -1.6699,-0.0000 -3.0236,1.3537 -3.0236 3.0236c -0.0000,1.6699 1.3537,3.0236 3.0236 3.0236c 1.6699,0.0000 3.0236,-1.3537 3.0236 -3.0236Z"/></g><g stroke-linejoin="miter" stroke-opacity="1.0" fill-opacity="1.0" stroke="rgb(255,0,0)" stroke-width="1.3765010312724715" fill="rgb(255,0,0)" stroke-linecap="butt" stroke-miterlimit="10.0"><path d="M 247.8331,156.8504 c 0.0000,-0.2087 -0.1692,-0.3780 -0.3780 -0.3780c -0.2087,-0.0000 -0.3780,0.1692 -0.3780 0.3780c -0.0000,0.2087 0.1692,0.3780 0.3780 0.3780c 0.2087,0.0000 0.3780,-0.1692 0.3780 -0.3780Z"/></g><g stroke-linejoin="miter" stroke-opacity="1.0" fill-opacity="0.0" stroke="rgb(0,0,255)" stroke-width="1.3765010312724715" fill="rgb(0,0,0)" stroke-linecap="butt" stroke-miterlimit="10.0"><path d="M 269.3764,156.8504 c 0.0000,-1.6699 -1.3537,-3.0236 -3.0236 -3.0236c -1.6699,-0.0000 -3.0236,1.3537 -3.0236 3.0236c -0.0000,1.6699 1.3537,3.0236 3.0236 3.0236c 1.6699,0.0000 3.0236,-1.3537 3.0236 -3.0236Z"/></g><g stroke-linejoin="miter" stroke-opacity="1.0" fill-opacity="1.0" stroke="rgb(255,0,0)" stroke-width="1.3765010312724715" fill="rgb(255,0,0)" stroke-linecap="butt" stroke-miterlimit="10.0"><path d="M 266.7307,156.8504 c 0.0000,-0.2087 -0.1692,-0.3780 -0.3780 -0.3780c -0.2087,-0.0000 -0.3780,0.1692 -0.3780 0.3780c -0.0000,0.2087 0.1692,0.3780 0.3780 0.3780c 0.2087,0.0000 0.3780,-0.1692 0.3780 -0.3780Z"/></g><g stroke-linejoin="miter" stroke-opacity="1.0" fill-opacity="0.0" stroke="rgb(0,0,0)" stroke-width="1.3765010312724715" fill="rgb(0,0,0)" stroke-linecap="butt" stroke-miterlimit="10.0"><path d="M 287.0362,196.5354 l -0.0000,-49.1339 h -60.2646 l -0.0000,49.1339 Z"/></g><g stroke-linejoin="miter" stroke-opacity="1.0" fill-opacity="1.0" font-size="18.89763779527559px" stroke="rgb(0,0,0)" stroke-width="1.3765010312724715" fill="rgb(0,0,0)" stroke-linecap="butt" stroke-miterlimit="10.0"><text dominant-baseline="middle" transform="matrix(1.0000,0.0000,0.0000,1.0000,256.9039,171.9685)" stroke="none" text-anchor="middle"></text></g><g stroke-linejoin="miter" stroke-opacity="1.0" fill-opacity="0.0" stroke="rgb(0,0,255)" stroke-width="1.3765010312724715" fill="rgb(0,0,0)" stroke-linecap="butt" stroke-miterlimit="10.0"><path d="M 250.4787,230.5512 c 0.0000,-1.6699 -1.3537,-3.0236 -3.0236 -3.0236c -1.6699,-0.0000 -3.0236,1.3537 -3.0236 3.0236c -0.0000,1.6699 1.3537,3.0236 3.0236 3.0236c 1.6699,0.0000 3.0236,-1.3537 3.0236 -3.0236Z"/></g><g stroke-linejoin="miter" stroke-opacity="1.0" fill-opacity="1.0" stroke="rgb(255,0,0)" stroke-width="1.3765010312724715" fill="rgb(255,0,0)" stroke-linecap="butt" stroke-miterlimit="10.0"><path d="M 247.8331,230.5512 c 0.0000,-0.2087 -0.1692,-0.3780 -0.3780 -0.3780c -0.2087,-0.0000 -0.3780,0.1692 -0.3780 0.3780c -0.0000,0.2087 0.1692,0.3780 0.3780 0.3780c 0.2087,0.0000 0.3780,-0.1692 0.3780 -0.3780Z"/></g><g stroke-linejoin="miter" stroke-opacity="1.0" fill-opacity="0.0" stroke="rgb(0,0,255)" stroke-width="1.3765010312724715" fill="rgb(0,0,0)" stroke-linecap="butt" stroke-miterlimit="10.0"><path d="M 269.3764,230.5512 c 0.0000,-1.6699 -1.3537,-3.0236 -3.0236 -3.0236c -1.6699,-0.0000 -3.0236,1.3537 -3.0236 3.0236c -0.0000,1.6699 1.3537,3.0236 3.0236 3.0236c 1.6699,0.0000 3.0236,-1.3537 3.0236 -3.0236Z"/></g><g stroke-linejoin="miter" stroke-opacity="1.0" fill-opacity="1.0" stroke="rgb(255,0,0)" stroke-width="1.3765010312724715" fill="rgb(255,0,0)" stroke-linecap="butt" stroke-miterlimit="10.0"><path d="M 266.7307,230.5512 c 0.0000,-0.2087 -0.1692,-0.3780 -0.3780 -0.3780c -0.2087,-0.0000 -0.3780,0.1692 -0.3780 0.3780c -0.0000,0.2087 0.1692,0.3780 0.3780 0.3780c 0.2087,0.0000 0.3780,-0.1692 0.3780 -0.3780Z"/></g><g stroke-linejoin="miter" stroke-opacity="1.0" fill-opacity="0.0" stroke="rgb(0,0,0)" stroke-width="1.3765010312724715" fill="rgb(0,0,0)" stroke-linecap="butt" stroke-miterlimit="10.0"><path d="M 287.0362,270.2362 l -0.0000,-49.1339 h -60.2646 l -0.0000,49.1339 Z"/></g><g stroke-linejoin="miter" stroke-opacity="1.0" fill-opacity="1.0" font-size="18.89763779527559px" stroke="rgb(0,0,0)" stroke-width="1.3765010312724715" fill="rgb(0,0,0)" stroke-linecap="butt" stroke-miterlimit="10.0"><text dominant-baseline="middle" transform="matrix(1.0000,0.0000,0.0000,1.0000,256.9039,245.6693)" stroke="none" text-anchor="middle"></text></g><g stroke-linejoin="miter" stroke-opacity="1.0" fill-opacity="0.0" stroke="rgb(0,0,255)" stroke-width="1.3765010312724715" fill="rgb(0,0,0)" stroke-linecap="butt" stroke-miterlimit="10.0"><path d="M 174.8882,9.4488 c 0.0000,-1.6699 -1.3537,-3.0236 -3.0236 -3.0236c -1.6699,-0.0000 -3.0236,1.3537 -3.0236 3.0236c -0.0000,1.6699 1.3537,3.0236 3.0236 3.0236c 1.6699,0.0000 3.0236,-1.3537 3.0236 -3.0236Z"/></g><g stroke-linejoin="miter" stroke-opacity="1.0" fill-opacity="1.0" stroke="rgb(255,0,0)" stroke-width="1.3765010312724715" fill="rgb(255,0,0)" stroke-linecap="butt" stroke-miterlimit="10.0"><path d="M 172.2425,9.4488 c 0.0000,-0.2087 -0.1692,-0.3780 -0.3780 -0.3780c -0.2087,-0.0000 -0.3780,0.1692 -0.3780 0.3780c -0.0000,0.2087 0.1692,0.3780 0.3780 0.3780c 0.2087,0.0000 0.3780,-0.1692 0.3780 -0.3780Z"/></g><g stroke-linejoin="miter" stroke-opacity="1.0" fill-opacity="0.0" stroke="rgb(0,0,255)" stroke-width="1.3765010312724715" fill="rgb(0,0,0)" stroke-linecap="butt" stroke-miterlimit="10.0"><path d="M 193.7858,9.4488 c 0.0000,-1.6699 -1.3537,-3.0236 -3.0236 -3.0236c -1.6699,-0.0000 -3.0236,1.3537 -3.0236 3.0236c -0.0000,1.6699 1.3537,3.0236 3.0236 3.0236c 1.6699,0.0000 3.0236,-1.3537 3.0236 -3.0236Z"/></g><g stroke-linejoin="miter" stroke-opacity="1.0" fill-opacity="1.0" stroke="rgb(255,0,0)" stroke-width="1.3765010312724715" fill="rgb(255,0,0)" stroke-linecap="butt" stroke-miterlimit="10.0"><path d="M 191.1402,9.4488 c 0.0000,-0.2087 -0.1692,-0.3780 -0.3780 -0.3780c -0.2087,-0.0000 -0.3780,0.1692 -0.3780 0.3780c -0.0000,0.2087 0.1692,0.3780 0.3780 0.3780c 0.2087,0.0000 0.3780,-0.1692 0.3780 -0.3780Z"/></g><g stroke-linejoin="miter" stroke-opacity="1.0" fill-opacity="0.0" stroke="rgb(0,0,0)" stroke-width="1.3765010312724715" fill="rgb(0,0,0)" stroke-linecap="butt" stroke-miterlimit="10.0"><path d="M 211.4457,49.1339 l -0.0000,-49.1339 h -60.2646 l -0.0000,49.1339 Z"/></g><g stroke-linejoin="miter" stroke-opacity="1.0" fill-opacity="1.0" font-size="18.89763779527559px" stroke="rgb(0,0,0)" stroke-width="1.3765010312724715" fill="rgb(0,0,0)" stroke-linecap="butt" stroke-miterlimit="10.0"><text dominant-baseline="middle" transform="matrix(1.0000,0.0000,0.0000,1.0000,181.3134,24.5669)" stroke="none" text-anchor="middle"></text></g><g stroke-linejoin="miter" stroke-opacity="1.0" fill-opacity="0.0" stroke="rgb(0,0,255)" stroke-width="1.3765010312724715" fill="rgb(0,0,0)" stroke-linecap="butt" stroke-miterlimit="10.0"><path d="M 174.8882,83.1496 c 0.0000,-1.6699 -1.3537,-3.0236 -3.0236 -3.0236c -1.6699,-0.0000 -3.0236,1.3537 -3.0236 3.0236c -0.0000,1.6699 1.3537,3.0236 3.0236 3.0236c 1.6699,0.0000 3.0236,-1.3537 3.0236 -3.0236Z"/></g><g stroke-linejoin="miter" stroke-opacity="1.0" fill-opacity="1.0" stroke="rgb(255,0,0)" stroke-width="1.3765010312724715" fill="rgb(255,0,0)" stroke-linecap="butt" stroke-miterlimit="10.0"><path d="M 172.2425,83.1496 c 0.0000,-0.2087 -0.1692,-0.3780 -0.3780 -0.3780c -0.2087,-0.0000 -0.3780,0.1692 -0.3780 0.3780c -0.0000,0.2087 0.1692,0.3780 0.3780 0.3780c 0.2087,0.0000 0.3780,-0.1692 0.3780 -0.3780Z"/></g><g stroke-linejoin="miter" stroke-opacity="1.0" fill-opacity="0.0" stroke="rgb(0,0,255)" stroke-width="1.3765010312724715" fill="rgb(0,0,0)" stroke-linecap="butt" stroke-miterlimit="10.0"><path d="M 193.7858,83.1496 c 0.0000,-1.6699 -1.3537,-3.0236 -3.0236 -3.0236c -1.6699,-0.0000 -3.0236,1.3537 -3.0236 3.0236c -0.0000,1.6699 1.3537,3.0236 3.0236 3.0236c 1.6699,0.0000 3.0236,-1.3537 3.0236 -3.0236Z"/></g><g stroke-linejoin="miter" stroke-opacity="1.0" fill-opacity="1.0" stroke="rgb(255,0,0)" stroke-width="1.3765010312724715" fill="rgb(255,0,0)" stroke-linecap="butt" stroke-miterlimit="10.0"><path d="M 191.1402,83.1496 c 0.0000,-0.2087 -0.1692,-0.3780 -0.3780 -0.3780c -0.2087,-0.0000 -0.3780,0.1692 -0.3780 0.3780c -0.0000,0.2087 0.1692,0.3780 0.3780 0.3780c 0.2087,0.0000 0.3780,-0.1692 0.3780 -0.3780Z"/></g><g stroke-linejoin="miter" stroke-opacity="1.0" fill-opacity="0.0" stroke="rgb(0,0,0)" stroke-width="1.3765010312724715" fill="rgb(0,0,0)" stroke-linecap="butt" stroke-miterlimit="10.0"><path d="M 211.4457,122.8346 l -0.0000,-49.1339 h -60.2646 l -0.0000,49.1339 Z"/></g><g stroke-linejoin="miter" stroke-opacity="1.0" fill-opacity="1.0" font-size="18.89763779527559px" stroke="rgb(0,0,0)" stroke-width="1.3765010312724715" fill="rgb(0,0,0)" stroke-linecap="butt" stroke-miterlimit="10.0"><text dominant-baseline="middle" transform="matrix(1.0000,0.0000,0.0000,1.0000,181.3134,98.2677)" stroke="none" text-anchor="middle"></text></g><g stroke-linejoin="miter" stroke-opacity="1.0" fill-opacity="0.0" stroke="rgb(0,0,255)" stroke-width="1.3765010312724715" fill="rgb(0,0,0)" stroke-linecap="butt" stroke-miterlimit="10.0"><path d="M 174.8882,156.8504 c 0.0000,-1.6699 -1.3537,-3.0236 -3.0236 -3.0236c -1.6699,-0.0000 -3.0236,1.3537 -3.0236 3.0236c -0.0000,1.6699 1.3537,3.0236 3.0236 3.0236c 1.6699,0.0000 3.0236,-1.3537 3.0236 -3.0236Z"/></g><g stroke-linejoin="miter" stroke-opacity="1.0" fill-opacity="1.0" stroke="rgb(255,0,0)" stroke-width="1.3765010312724715" fill="rgb(255,0,0)" stroke-linecap="butt" stroke-miterlimit="10.0"><path d="M 172.2425,156.8504 c 0.0000,-0.2087 -0.1692,-0.3780 -0.3780 -0.3780c -0.2087,-0.0000 -0.3780,0.1692 -0.3780 0.3780c -0.0000,0.2087 0.1692,0.3780 0.3780 0.3780c 0.2087,0.0000 0.3780,-0.1692 0.3780 -0.3780Z"/></g><g stroke-linejoin="miter" stroke-opacity="1.0" fill-opacity="0.0" stroke="rgb(0,0,255)" stroke-width="1.3765010312724715" fill="rgb(0,0,0)" stroke-linecap="butt" stroke-miterlimit="10.0"><path d="M 193.7858,156.8504 c 0.0000,-1.6699 -1.3537,-3.0236 -3.0236 -3.0236c -1.6699,-0.0000 -3.0236,1.3537 -3.0236 3.0236c -0.0000,1.6699 1.3537,3.0236 3.0236 3.0236c 1.6699,0.0000 3.0236,-1.3537 3.0236 -3.0236Z"/></g><g stroke-linejoin="miter" stroke-opacity="1.0" fill-opacity="1.0" stroke="rgb(255,0,0)" stroke-width="1.3765010312724715" fill="rgb(255,0,0)" stroke-linecap="butt" stroke-miterlimit="10.0"><path d="M 191.1402,156.8504 c 0.0000,-0.2087 -0.1692,-0.3780 -0.3780 -0.3780c -0.2087,-0.0000 -0.3780,0.1692 -0.3780 0.3780c -0.0000,0.2087 0.1692,0.3780 0.3780 0.3780c 0.2087,0.0000 0.3780,-0.1692 0.3780 -0.3780Z"/></g><g stroke-linejoin="miter" stroke-opacity="1.0" fill-opacity="0.0" stroke="rgb(0,0,0)" stroke-width="1.3765010312724715" fill="rgb(0,0,0)" stroke-linecap="butt" stroke-miterlimit="10.0"><path d="M 211.4457,196.5354 l -0.0000,-49.1339 h -60.2646 l -0.0000,49.1339 Z"/></g><g stroke-linejoin="miter" stroke-opacity="1.0" fill-opacity="1.0" font-size="18.89763779527559px" stroke="rgb(0,0,0)" stroke-width="1.3765010312724715" fill="rgb(0,0,0)" stroke-linecap="butt" stroke-miterlimit="10.0"><text dominant-baseline="middle" transform="matrix(1.0000,0.0000,0.0000,1.0000,181.3134,171.9685)" stroke="none" text-anchor="middle"></text></g><g stroke-linejoin="miter" stroke-opacity="1.0" fill-opacity="0.0" stroke="rgb(0,0,255)" stroke-width="1.3765010312724715" fill="rgb(0,0,0)" stroke-linecap="butt" stroke-miterlimit="10.0"><path d="M 174.8882,230.5512 c 0.0000,-1.6699 -1.3537,-3.0236 -3.0236 -3.0236c -1.6699,-0.0000 -3.0236,1.3537 -3.0236 3.0236c -0.0000,1.6699 1.3537,3.0236 3.0236 3.0236c 1.6699,0.0000 3.0236,-1.3537 3.0236 -3.0236Z"/></g><g stroke-linejoin="miter" stroke-opacity="1.0" fill-opacity="1.0" stroke="rgb(255,0,0)" stroke-width="1.3765010312724715" fill="rgb(255,0,0)" stroke-linecap="butt" stroke-miterlimit="10.0"><path d="M 172.2425,230.5512 c 0.0000,-0.2087 -0.1692,-0.3780 -0.3780 -0.3780c -0.2087,-0.0000 -0.3780,0.1692 -0.3780 0.3780c -0.0000,0.2087 0.1692,0.3780 0.3780 0.3780c 0.2087,0.0000 0.3780,-0.1692 0.3780 -0.3780Z"/></g><g stroke-linejoin="miter" stroke-opacity="1.0" fill-opacity="0.0" stroke="rgb(0,0,255)" stroke-width="1.3765010312724715" fill="rgb(0,0,0)" stroke-linecap="butt" stroke-miterlimit="10.0"><path d="M 193.7858,230.5512 c 0.0000,-1.6699 -1.3537,-3.0236 -3.0236 -3.0236c -1.6699,-0.0000 -3.0236,1.3537 -3.0236 3.0236c -0.0000,1.6699 1.3537,3.0236 3.0236 3.0236c 1.6699,0.0000 3.0236,-1.3537 3.0236 -3.0236Z"/></g><g stroke-linejoin="miter" stroke-opacity="1.0" fill-opacity="1.0" stroke="rgb(255,0,0)" stroke-width="1.3765010312724715" fill="rgb(255,0,0)" stroke-linecap="butt" stroke-miterlimit="10.0"><path d="M 191.1402,230.5512 c 0.0000,-0.2087 -0.1692,-0.3780 -0.3780 -0.3780c -0.2087,-0.0000 -0.3780,0.1692 -0.3780 0.3780c -0.0000,0.2087 0.1692,0.3780 0.3780 0.3780c 0.2087,0.0000 0.3780,-0.1692 0.3780 -0.3780Z"/></g><g stroke-linejoin="miter" stroke-opacity="1.0" fill-opacity="0.0" stroke="rgb(0,0,0)" stroke-width="1.3765010312724715" fill="rgb(0,0,0)" stroke-linecap="butt" stroke-miterlimit="10.0"><path d="M 211.4457,270.2362 l -0.0000,-49.1339 h -60.2646 l -0.0000,49.1339 Z"/></g><g stroke-linejoin="miter" stroke-opacity="1.0" fill-opacity="1.0" font-size="18.89763779527559px" stroke="rgb(0,0,0)" stroke-width="1.3765010312724715" fill="rgb(0,0,0)" stroke-linecap="butt" stroke-miterlimit="10.0"><text dominant-baseline="middle" transform="matrix(1.0000,0.0000,0.0000,1.0000,181.3134,245.6693)" stroke="none" text-anchor="middle"></text></g><g stroke-linejoin="miter" stroke-opacity="1.0" fill-opacity="0.0" stroke="rgb(0,0,255)" stroke-width="1.3765010312724715" fill="rgb(0,0,0)" stroke-linecap="butt" stroke-miterlimit="10.0"><path d="M 99.2976,9.4488 c 0.0000,-1.6699 -1.3537,-3.0236 -3.0236 -3.0236c -1.6699,-0.0000 -3.0236,1.3537 -3.0236 3.0236c -0.0000,1.6699 1.3537,3.0236 3.0236 3.0236c 1.6699,0.0000 3.0236,-1.3537 3.0236 -3.0236Z"/></g><g stroke-linejoin="miter" stroke-opacity="1.0" fill-opacity="1.0" stroke="rgb(255,0,0)" stroke-width="1.3765010312724715" fill="rgb(255,0,0)" stroke-linecap="butt" stroke-miterlimit="10.0"><path d="M 96.6520,9.4488 c 0.0000,-0.2087 -0.1692,-0.3780 -0.3780 -0.3780c -0.2087,-0.0000 -0.3780,0.1692 -0.3780 0.3780c -0.0000,0.2087 0.1692,0.3780 0.3780 0.3780c 0.2087,0.0000 0.3780,-0.1692 0.3780 -0.3780Z"/></g><g stroke-linejoin="miter" stroke-opacity="1.0" fill-opacity="0.0" stroke="rgb(0,0,255)" stroke-width="1.3765010312724715" fill="rgb(0,0,0)" stroke-linecap="butt" stroke-miterlimit="10.0"><path d="M 118.1953,9.4488 c 0.0000,-1.6699 -1.3537,-3.0236 -3.0236 -3.0236c -1.6699,-0.0000 -3.0236,1.3537 -3.0236 3.0236c -0.0000,1.6699 1.3537,3.0236 3.0236 3.0236c 1.6699,0.0000 3.0236,-1.3537 3.0236 -3.0236Z"/></g><g stroke-linejoin="miter" stroke-opacity="1.0" fill-opacity="1.0" stroke="rgb(255,0,0)" stroke-width="1.3765010312724715" fill="rgb(255,0,0)" stroke-linecap="butt" stroke-miterlimit="10.0"><path d="M 115.5496,9.4488 c 0.0000,-0.2087 -0.1692,-0.3780 -0.3780 -0.3780c -0.2087,-0.0000 -0.3780,0.1692 -0.3780 0.3780c -0.0000,0.2087 0.1692,0.3780 0.3780 0.3780c 0.2087,0.0000 0.3780,-0.1692 0.3780 -0.3780Z"/></g><g stroke-linejoin="miter" stroke-opacity="1.0" fill-opacity="0.0" stroke="rgb(0,0,0)" stroke-width="1.3765010312724715" fill="rgb(0,0,0)" stroke-linecap="butt" stroke-miterlimit="10.0"><path d="M 135.8551,49.1339 l -0.0000,-49.1339 h -60.2646 l -0.0000,49.1339 Z"/></g><g stroke-linejoin="miter" stroke-opacity="1.0" fill-opacity="1.0" font-size="18.89763779527559px" stroke="rgb(0,0,0)" stroke-width="1.3765010312724715" fill="rgb(0,0,0)" stroke-linecap="butt" stroke-miterlimit="10.0"><text dominant-baseline="middle" transform="matrix(1.0000,0.0000,0.0000,1.0000,105.7228,24.5669)" stroke="none" text-anchor="middle"></text></g><g stroke-linejoin="miter" stroke-opacity="1.0" fill-opacity="0.0" stroke="rgb(0,0,255)" stroke-width="1.3765010312724715" fill="rgb(0,0,0)" stroke-linecap="butt" stroke-miterlimit="10.0"><path d="M 99.2976,83.1496 c 0.0000,-1.6699 -1.3537,-3.0236 -3.0236 -3.0236c -1.6699,-0.0000 -3.0236,1.3537 -3.0236 3.0236c -0.0000,1.6699 1.3537,3.0236 3.0236 3.0236c 1.6699,0.0000 3.0236,-1.3537 3.0236 -3.0236Z"/></g><g stroke-linejoin="miter" stroke-opacity="1.0" fill-opacity="1.0" stroke="rgb(255,0,0)" stroke-width="1.3765010312724715" fill="rgb(255,0,0)" stroke-linecap="butt" stroke-miterlimit="10.0"><path d="M 96.6520,83.1496 c 0.0000,-0.2087 -0.1692,-0.3780 -0.3780 -0.3780c -0.2087,-0.0000 -0.3780,0.1692 -0.3780 0.3780c -0.0000,0.2087 0.1692,0.3780 0.3780 0.3780c 0.2087,0.0000 0.3780,-0.1692 0.3780 -0.3780Z"/></g><g stroke-linejoin="miter" stroke-opacity="1.0" fill-opacity="0.0" stroke="rgb(0,0,255)" stroke-width="1.3765010312724715" fill="rgb(0,0,0)" stroke-linecap="butt" stroke-miterlimit="10.0"><path d="M 118.1953,83.1496 c 0.0000,-1.6699 -1.3537,-3.0236 -3.0236 -3.0236c -1.6699,-0.0000 -3.0236,1.3537 -3.0236 3.0236c -0.0000,1.6699 1.3537,3.0236 3.0236 3.0236c 1.6699,0.0000 3.0236,-1.3537 3.0236 -3.0236Z"/></g><g stroke-linejoin="miter" stroke-opacity="1.0" fill-opacity="1.0" stroke="rgb(255,0,0)" stroke-width="1.3765010312724715" fill="rgb(255,0,0)" stroke-linecap="butt" stroke-miterlimit="10.0"><path d="M 115.5496,83.1496 c 0.0000,-0.2087 -0.1692,-0.3780 -0.3780 -0.3780c -0.2087,-0.0000 -0.3780,0.1692 -0.3780 0.3780c -0.0000,0.2087 0.1692,0.3780 0.3780 0.3780c 0.2087,0.0000 0.3780,-0.1692 0.3780 -0.3780Z"/></g><g stroke-linejoin="miter" stroke-opacity="1.0" fill-opacity="0.0" stroke="rgb(0,0,0)" stroke-width="1.3765010312724715" fill="rgb(0,0,0)" stroke-linecap="butt" stroke-miterlimit="10.0"><path d="M 135.8551,122.8346 l -0.0000,-49.1339 h -60.2646 l -0.0000,49.1339 Z"/></g><g stroke-linejoin="miter" stroke-opacity="1.0" fill-opacity="1.0" font-size="18.89763779527559px" stroke="rgb(0,0,0)" stroke-width="1.3765010312724715" fill="rgb(0,0,0)" stroke-linecap="butt" stroke-miterlimit="10.0"><text dominant-baseline="middle" transform="matrix(1.0000,0.0000,0.0000,1.0000,105.7228,98.2677)" stroke="none" text-anchor="middle"></text></g><g stroke-linejoin="miter" stroke-opacity="1.0" fill-opacity="0.0" stroke="rgb(0,0,255)" stroke-width="1.3765010312724715" fill="rgb(0,0,0)" stroke-linecap="butt" stroke-miterlimit="10.0"><path d="M 99.2976,156.8504 c 0.0000,-1.6699 -1.3537,-3.0236 -3.0236 -3.0236c -1.6699,-0.0000 -3.0236,1.3537 -3.0236 3.0236c -0.0000,1.6699 1.3537,3.0236 3.0236 3.0236c 1.6699,0.0000 3.0236,-1.3537 3.0236 -3.0236Z"/></g><g stroke-linejoin="miter" stroke-opacity="1.0" fill-opacity="1.0" stroke="rgb(255,0,0)" stroke-width="1.3765010312724715" fill="rgb(255,0,0)" stroke-linecap="butt" stroke-miterlimit="10.0"><path d="M 96.6520,156.8504 c 0.0000,-0.2087 -0.1692,-0.3780 -0.3780 -0.3780c -0.2087,-0.0000 -0.3780,0.1692 -0.3780 0.3780c -0.0000,0.2087 0.1692,0.3780 0.3780 0.3780c 0.2087,0.0000 0.3780,-0.1692 0.3780 -0.3780Z"/></g><g stroke-linejoin="miter" stroke-opacity="1.0" fill-opacity="0.0" stroke="rgb(0,0,255)" stroke-width="1.3765010312724715" fill="rgb(0,0,0)" stroke-linecap="butt" stroke-miterlimit="10.0"><path d="M 118.1953,156.8504 c 0.0000,-1.6699 -1.3537,-3.0236 -3.0236 -3.0236c -1.6699,-0.0000 -3.0236,1.3537 -3.0236 3.0236c -0.0000,1.6699 1.3537,3.0236 3.0236 3.0236c 1.6699,0.0000 3.0236,-1.3537 3.0236 -3.0236Z"/></g><g stroke-linejoin="miter" stroke-opacity="1.0" fill-opacity="1.0" stroke="rgb(255,0,0)" stroke-width="1.3765010312724715" fill="rgb(255,0,0)" stroke-linecap="butt" stroke-miterlimit="10.0"><path d="M 115.5496,156.8504 c 0.0000,-0.2087 -0.1692,-0.3780 -0.3780 -0.3780c -0.2087,-0.0000 -0.3780,0.1692 -0.3780 0.3780c -0.0000,0.2087 0.1692,0.3780 0.3780 0.3780c 0.2087,0.0000 0.3780,-0.1692 0.3780 -0.3780Z"/></g><g stroke-linejoin="miter" stroke-opacity="1.0" fill-opacity="0.0" stroke="rgb(0,0,0)" stroke-width="1.3765010312724715" fill="rgb(0,0,0)" stroke-linecap="butt" stroke-miterlimit="10.0"><path d="M 135.8551,196.5354 l -0.0000,-49.1339 h -60.2646 l -0.0000,49.1339 Z"/></g><g stroke-linejoin="miter" stroke-opacity="1.0" fill-opacity="1.0" font-size="18.89763779527559px" stroke="rgb(0,0,0)" stroke-width="1.3765010312724715" fill="rgb(0,0,0)" stroke-linecap="butt" stroke-miterlimit="10.0"><text dominant-baseline="middle" transform="matrix(1.0000,0.0000,0.0000,1.0000,105.7228,171.9685)" stroke="none" text-anchor="middle"></text></g><g stroke-linejoin="miter" stroke-opacity="1.0" fill-opacity="0.0" stroke="rgb(0,0,255)" stroke-width="1.3765010312724715" fill="rgb(0,0,0)" stroke-linecap="butt" stroke-miterlimit="10.0"><path d="M 99.2976,230.5512 c 0.0000,-1.6699 -1.3537,-3.0236 -3.0236 -3.0236c -1.6699,-0.0000 -3.0236,1.3537 -3.0236 3.0236c -0.0000,1.6699 1.3537,3.0236 3.0236 3.0236c 1.6699,0.0000 3.0236,-1.3537 3.0236 -3.0236Z"/></g><g stroke-linejoin="miter" stroke-opacity="1.0" fill-opacity="1.0" stroke="rgb(255,0,0)" stroke-width="1.3765010312724715" fill="rgb(255,0,0)" stroke-linecap="butt" stroke-miterlimit="10.0"><path d="M 96.6520,230.5512 c 0.0000,-0.2087 -0.1692,-0.3780 -0.3780 -0.3780c -0.2087,-0.0000 -0.3780,0.1692 -0.3780 0.3780c -0.0000,0.2087 0.1692,0.3780 0.3780 0.3780c 0.2087,0.0000 0.3780,-0.1692 0.3780 -0.3780Z"/></g><g stroke-linejoin="miter" stroke-opacity="1.0" fill-opacity="0.0" stroke="rgb(0,0,255)" stroke-width="1.3765010312724715" fill="rgb(0,0,0)" stroke-linecap="butt" stroke-miterlimit="10.0"><path d="M 118.1953,230.5512 c 0.0000,-1.6699 -1.3537,-3.0236 -3.0236 -3.0236c -1.6699,-0.0000 -3.0236,1.3537 -3.0236 3.0236c -0.0000,1.6699 1.3537,3.0236 3.0236 3.0236c 1.6699,0.0000 3.0236,-1.3537 3.0236 -3.0236Z"/></g><g stroke-linejoin="miter" stroke-opacity="1.0" fill-opacity="1.0" stroke="rgb(255,0,0)" stroke-width="1.3765010312724715" fill="rgb(255,0,0)" stroke-linecap="butt" stroke-miterlimit="10.0"><path d="M 115.5496,230.5512 c 0.0000,-0.2087 -0.1692,-0.3780 -0.3780 -0.3780c -0.2087,-0.0000 -0.3780,0.1692 -0.3780 0.3780c -0.0000,0.2087 0.1692,0.3780 0.3780 0.3780c 0.2087,0.0000 0.3780,-0.1692 0.3780 -0.3780Z"/></g><g stroke-linejoin="miter" stroke-opacity="1.0" fill-opacity="0.0" stroke="rgb(0,0,0)" stroke-width="1.3765010312724715" fill="rgb(0,0,0)" stroke-linecap="butt" stroke-miterlimit="10.0"><path d="M 135.8551,270.2362 l -0.0000,-49.1339 h -60.2646 l -0.0000,49.1339 Z"/></g><g stroke-linejoin="miter" stroke-opacity="1.0" fill-opacity="1.0" font-size="18.89763779527559px" stroke="rgb(0,0,0)" stroke-width="1.3765010312724715" fill="rgb(0,0,0)" stroke-linecap="butt" stroke-miterlimit="10.0"><text dominant-baseline="middle" transform="matrix(1.0000,0.0000,0.0000,1.0000,105.7228,245.6693)" stroke="none" text-anchor="middle"></text></g><g stroke-linejoin="miter" stroke-opacity="1.0" fill-opacity="0.0" stroke="rgb(0,0,255)" stroke-width="1.3765010312724715" fill="rgb(0,0,0)" stroke-linecap="butt" stroke-miterlimit="10.0"><path d="M 23.7071,9.4488 c 0.0000,-1.6699 -1.3537,-3.0236 -3.0236 -3.0236c -1.6699,-0.0000 -3.0236,1.3537 -3.0236 3.0236c -0.0000,1.6699 1.3537,3.0236 3.0236 3.0236c 1.6699,0.0000 3.0236,-1.3537 3.0236 -3.0236Z"/></g><g stroke-linejoin="miter" stroke-opacity="1.0" fill-opacity="1.0" stroke="rgb(255,0,0)" stroke-width="1.3765010312724715" fill="rgb(255,0,0)" stroke-linecap="butt" stroke-miterlimit="10.0"><path d="M 21.0614,9.4488 c 0.0000,-0.2087 -0.1692,-0.3780 -0.3780 -0.3780c -0.2087,-0.0000 -0.3780,0.1692 -0.3780 0.3780c -0.0000,0.2087 0.1692,0.3780 0.3780 0.3780c 0.2087,0.0000 0.3780,-0.1692 0.3780 -0.3780Z"/></g><g stroke-linejoin="miter" stroke-opacity="1.0" fill-opacity="0.0" stroke="rgb(0,0,255)" stroke-width="1.3765010312724715" fill="rgb(0,0,0)" stroke-linecap="butt" stroke-miterlimit="10.0"><path d="M 42.6047,9.4488 c 0.0000,-1.6699 -1.3537,-3.0236 -3.0236 -3.0236c -1.6699,-0.0000 -3.0236,1.3537 -3.0236 3.0236c -0.0000,1.6699 1.3537,3.0236 3.0236 3.0236c 1.6699,0.0000 3.0236,-1.3537 3.0236 -3.0236Z"/></g><g stroke-linejoin="miter" stroke-opacity="1.0" fill-opacity="1.0" stroke="rgb(255,0,0)" stroke-width="1.3765010312724715" fill="rgb(255,0,0)" stroke-linecap="butt" stroke-miterlimit="10.0"><path d="M 39.9591,9.4488 c 0.0000,-0.2087 -0.1692,-0.3780 -0.3780 -0.3780c -0.2087,-0.0000 -0.3780,0.1692 -0.3780 0.3780c -0.0000,0.2087 0.1692,0.3780 0.3780 0.3780c 0.2087,0.0000 0.3780,-0.1692 0.3780 -0.3780Z"/></g><g stroke-linejoin="miter" stroke-opacity="1.0" fill-opacity="0.0" stroke="rgb(0,0,0)" stroke-width="1.3765010312724715" fill="rgb(0,0,0)" stroke-linecap="butt" stroke-miterlimit="10.0"><path d="M 60.2646,49.1339 l -0.0000,-49.1339 h -60.2646 l -0.0000,49.1339 Z"/></g><g stroke-linejoin="miter" stroke-opacity="1.0" fill-opacity="1.0" font-size="18.89763779527559px" stroke="rgb(0,0,0)" stroke-width="1.3765010312724715" fill="rgb(0,0,0)" stroke-linecap="butt" stroke-miterlimit="10.0"><text dominant-baseline="middle" transform="matrix(1.0000,0.0000,0.0000,1.0000,30.1323,24.5669)" stroke="none" text-anchor="middle"></text></g><g stroke-linejoin="miter" stroke-opacity="1.0" fill-opacity="0.0" stroke="rgb(0,0,255)" stroke-width="1.3765010312724715" fill="rgb(0,0,0)" stroke-linecap="butt" stroke-miterlimit="10.0"><path d="M 23.7071,83.1496 c 0.0000,-1.6699 -1.3537,-3.0236 -3.0236 -3.0236c -1.6699,-0.0000 -3.0236,1.3537 -3.0236 3.0236c -0.0000,1.6699 1.3537,3.0236 3.0236 3.0236c 1.6699,0.0000 3.0236,-1.3537 3.0236 -3.0236Z"/></g><g stroke-linejoin="miter" stroke-opacity="1.0" fill-opacity="1.0" stroke="rgb(255,0,0)" stroke-width="1.3765010312724715" fill="rgb(255,0,0)" stroke-linecap="butt" stroke-miterlimit="10.0"><path d="M 21.0614,83.1496 c 0.0000,-0.2087 -0.1692,-0.3780 -0.3780 -0.3780c -0.2087,-0.0000 -0.3780,0.1692 -0.3780 0.3780c -0.0000,0.2087 0.1692,0.3780 0.3780 0.3780c 0.2087,0.0000 0.3780,-0.1692 0.3780 -0.3780Z"/></g><g stroke-linejoin="miter" stroke-opacity="1.0" fill-opacity="0.0" stroke="rgb(0,0,255)" stroke-width="1.3765010312724715" fill="rgb(0,0,0)" stroke-linecap="butt" stroke-miterlimit="10.0"><path d="M 42.6047,83.1496 c 0.0000,-1.6699 -1.3537,-3.0236 -3.0236 -3.0236c -1.6699,-0.0000 -3.0236,1.3537 -3.0236 3.0236c -0.0000,1.6699 1.3537,3.0236 3.0236 3.0236c 1.6699,0.0000 3.0236,-1.3537 3.0236 -3.0236Z"/></g><g stroke-linejoin="miter" stroke-opacity="1.0" fill-opacity="1.0" stroke="rgb(255,0,0)" stroke-width="1.3765010312724715" fill="rgb(255,0,0)" stroke-linecap="butt" stroke-miterlimit="10.0"><path d="M 39.9591,83.1496 c 0.0000,-0.2087 -0.1692,-0.3780 -0.3780 -0.3780c -0.2087,-0.0000 -0.3780,0.1692 -0.3780 0.3780c -0.0000,0.2087 0.1692,0.3780 0.3780 0.3780c 0.2087,0.0000 0.3780,-0.1692 0.3780 -0.3780Z"/></g><g stroke-linejoin="miter" stroke-opacity="1.0" fill-opacity="0.0" stroke="rgb(0,0,0)" stroke-width="1.3765010312724715" fill="rgb(0,0,0)" stroke-linecap="butt" stroke-miterlimit="10.0"><path d="M 60.2646,122.8346 l -0.0000,-49.1339 h -60.2646 l -0.0000,49.1339 Z"/></g><g stroke-linejoin="miter" stroke-opacity="1.0" fill-opacity="1.0" font-size="18.89763779527559px" stroke="rgb(0,0,0)" stroke-width="1.3765010312724715" fill="rgb(0,0,0)" stroke-linecap="butt" stroke-miterlimit="10.0"><text dominant-baseline="middle" transform="matrix(1.0000,0.0000,0.0000,1.0000,30.1323,98.2677)" stroke="none" text-anchor="middle"></text></g><g stroke-linejoin="miter" stroke-opacity="1.0" fill-opacity="0.0" stroke="rgb(0,0,255)" stroke-width="1.3765010312724715" fill="rgb(0,0,0)" stroke-linecap="butt" stroke-miterlimit="10.0"><path d="M 23.7071,156.8504 c 0.0000,-1.6699 -1.3537,-3.0236 -3.0236 -3.0236c -1.6699,-0.0000 -3.0236,1.3537 -3.0236 3.0236c -0.0000,1.6699 1.3537,3.0236 3.0236 3.0236c 1.6699,0.0000 3.0236,-1.3537 3.0236 -3.0236Z"/></g><g stroke-linejoin="miter" stroke-opacity="1.0" fill-opacity="1.0" stroke="rgb(255,0,0)" stroke-width="1.3765010312724715" fill="rgb(255,0,0)" stroke-linecap="butt" stroke-miterlimit="10.0"><path d="M 21.0614,156.8504 c 0.0000,-0.2087 -0.1692,-0.3780 -0.3780 -0.3780c -0.2087,-0.0000 -0.3780,0.1692 -0.3780 0.3780c -0.0000,0.2087 0.1692,0.3780 0.3780 0.3780c 0.2087,0.0000 0.3780,-0.1692 0.3780 -0.3780Z"/></g><g stroke-linejoin="miter" stroke-opacity="1.0" fill-opacity="0.0" stroke="rgb(0,0,255)" stroke-width="1.3765010312724715" fill="rgb(0,0,0)" stroke-linecap="butt" stroke-miterlimit="10.0"><path d="M 42.6047,156.8504 c 0.0000,-1.6699 -1.3537,-3.0236 -3.0236 -3.0236c -1.6699,-0.0000 -3.0236,1.3537 -3.0236 3.0236c -0.0000,1.6699 1.3537,3.0236 3.0236 3.0236c 1.6699,0.0000 3.0236,-1.3537 3.0236 -3.0236Z"/></g><g stroke-linejoin="miter" stroke-opacity="1.0" fill-opacity="1.0" stroke="rgb(255,0,0)" stroke-width="1.3765010312724715" fill="rgb(255,0,0)" stroke-linecap="butt" stroke-miterlimit="10.0"><path d="M 39.9591,156.8504 c 0.0000,-0.2087 -0.1692,-0.3780 -0.3780 -0.3780c -0.2087,-0.0000 -0.3780,0.1692 -0.3780 0.3780c -0.0000,0.2087 0.1692,0.3780 0.3780 0.3780c 0.2087,0.0000 0.3780,-0.1692 0.3780 -0.3780Z"/></g><g stroke-linejoin="miter" stroke-opacity="1.0" fill-opacity="0.0" stroke="rgb(0,0,0)" stroke-width="1.3765010312724715" fill="rgb(0,0,0)" stroke-linecap="butt" stroke-miterlimit="10.0"><path d="M 60.2646,196.5354 l -0.0000,-49.1339 h -60.2646 l -0.0000,49.1339 Z"/></g><g stroke-linejoin="miter" stroke-opacity="1.0" fill-opacity="1.0" font-size="18.89763779527559px" stroke="rgb(0,0,0)" stroke-width="1.3765010312724715" fill="rgb(0,0,0)" stroke-linecap="butt" stroke-miterlimit="10.0"><text dominant-baseline="middle" transform="matrix(1.0000,0.0000,0.0000,1.0000,30.1323,171.9685)" stroke="none" text-anchor="middle"></text></g><g stroke-linejoin="miter" stroke-opacity="1.0" fill-opacity="0.0" stroke="rgb(0,0,255)" stroke-width="1.3765010312724715" fill="rgb(0,0,0)" stroke-linecap="butt" stroke-miterlimit="10.0"><path d="M 23.7071,230.5512 c 0.0000,-1.6699 -1.3537,-3.0236 -3.0236 -3.0236c -1.6699,-0.0000 -3.0236,1.3537 -3.0236 3.0236c -0.0000,1.6699 1.3537,3.0236 3.0236 3.0236c 1.6699,0.0000 3.0236,-1.3537 3.0236 -3.0236Z"/></g><g stroke-linejoin="miter" stroke-opacity="1.0" fill-opacity="1.0" stroke="rgb(255,0,0)" stroke-width="1.3765010312724715" fill="rgb(255,0,0)" stroke-linecap="butt" stroke-miterlimit="10.0"><path d="M 21.0614,230.5512 c 0.0000,-0.2087 -0.1692,-0.3780 -0.3780 -0.3780c -0.2087,-0.0000 -0.3780,0.1692 -0.3780 0.3780c -0.0000,0.2087 0.1692,0.3780 0.3780 0.3780c 0.2087,0.0000 0.3780,-0.1692 0.3780 -0.3780Z"/></g><g stroke-linejoin="miter" stroke-opacity="1.0" fill-opacity="0.0" stroke="rgb(0,0,255)" stroke-width="1.3765010312724715" fill="rgb(0,0,0)" stroke-linecap="butt" stroke-miterlimit="10.0"><path d="M 42.6047,230.5512 c 0.0000,-1.6699 -1.3537,-3.0236 -3.0236 -3.0236c -1.6699,-0.0000 -3.0236,1.3537 -3.0236 3.0236c -0.0000,1.6699 1.3537,3.0236 3.0236 3.0236c 1.6699,0.0000 3.0236,-1.3537 3.0236 -3.0236Z"/></g><g stroke-linejoin="miter" stroke-opacity="1.0" fill-opacity="1.0" stroke="rgb(255,0,0)" stroke-width="1.3765010312724715" fill="rgb(255,0,0)" stroke-linecap="butt" stroke-miterlimit="10.0"><path d="M 39.9591,230.5512 c 0.0000,-0.2087 -0.1692,-0.3780 -0.3780 -0.3780c -0.2087,-0.0000 -0.3780,0.1692 -0.3780 0.3780c -0.0000,0.2087 0.1692,0.3780 0.3780 0.3780c 0.2087,0.0000 0.3780,-0.1692 0.3780 -0.3780Z"/></g><g stroke-linejoin="miter" stroke-opacity="1.0" fill-opacity="0.0" stroke="rgb(0,0,0)" stroke-width="1.3765010312724715" fill="rgb(0,0,0)" stroke-linecap="butt" stroke-miterlimit="10.0"><path d="M 60.2646,270.2362 l -0.0000,-49.1339 h -60.2646 l -0.0000,49.1339 Z"/></g><g stroke-linejoin="miter" stroke-opacity="1.0" fill-opacity="1.0" font-size="18.89763779527559px" stroke="rgb(0,0,0)" stroke-width="1.3765010312724715" fill="rgb(0,0,0)" stroke-linecap="butt" stroke-miterlimit="10.0"><text dominant-baseline="middle" transform="matrix(1.0000,0.0000,0.0000,1.0000,30.1323,245.6693)" stroke="none" text-anchor="middle"></text></g></svg>