<?xml version="1.0" encoding="UTF-8"?>
<!DOCTYPE svg PUBLIC "-//W3C//DTD SVG 1.1//EN"
    "http://www.w3.org/Graphics/SVG/1.1/DTD/svg11.dtd"><svg xmlns="http://www.w3.org/2000/svg" height="312.5669" stroke-opacity="1" viewBox="0.0 0.0 438.2173228346456 312.56692913385825" font-size="1" width="438.2173" xmlns:xlink="http://www.w3.org/1999/xlink" stroke="rgb(0,0,0)" version="1.1"><defs></defs><g stroke-linejoin="miter" stroke-opacity="1.0" fill-opacity="0.0" stroke="rgb(0,0,255)" stroke-width="1.4803904506132737" fill="rgb(0,0,0)" stroke-linecap="butt" stroke-miterlimit="10.0"><path d="M 392.3150,199.1811 c 0.0000,-1.6699 -1.3537,-3.0236 -3.0236 -3.0236c -1.6699,-0.0000 -3.0236,1.3537 -3.0236 3.0236c -0.0000,1.6699 1.3537,3.0236 3.0236 3.0236c 1.6699,0.0000 3.0236,-1.3537 3.0236 -3.0236Z"/></g><g stroke-linejoin="miter" stroke-opacity="1.0" fill-opacity="1.0" stroke="rgb(255,0,0)" stroke-width="1.4803904506132737" fill="rgb(255,0,0)" stroke-linecap="butt" stroke-miterlimit="10.0"><path d="M 389.6693,199.1811 c 0.0000,-0.2087 -0.1692,-0.3780 -0.3780 -0.3780c -0.2087,-0.0000 -0.3780,0.1692 -0.3780 0.3780c -0.0000,0.2087 0.1692,0.3780 0.3780 0.3780c 0.2087,0.0000 0.3780,-0.1692 0.3780 -0.3780Z"/></g><g stroke-linejoin="miter" stroke-opacity="1.0" fill-opacity="0.0" stroke="rgb(0,0,255)" stroke-width="1.4803904506132737" fill="rgb(0,0,0)" stroke-linecap="butt" stroke-miterlimit="10.0"><path d="M 411.1087,199.1811 c 0.0000,-1.6699 -1.3537,-3.0236 -3.0236 -3.0236c -1.6699,-0.0000 -3.0236,1.3537 -3.0236 3.0236c -0.0000,1.6699 1.3537,3.0236 3.0236 3.0236c 1.6699,0.0000 3.0236,-1.3537 3.0236 -3.0236Z"/></g><g stroke-linejoin="miter" stroke-opacity="1.0" fill-opacity="1.0" stroke="rgb(255,0,0)" stroke-width="1.4803904506132737" fill="rgb(255,0,0)" stroke-linecap="butt" stroke-miterlimit="10.0"><path d="M 408.4630,199.1811 c 0.0000,-0.2087 -0.1692,-0.3780 -0.3780 -0.3780c -0.2087,-0.0000 -0.3780,0.1692 -0.3780 0.3780c -0.0000,0.2087 0.1692,0.3780 0.3780 0.3780c 0.2087,0.0000 0.3780,-0.1692 0.3780 -0.3780Z"/></g><g stroke-linejoin="miter" stroke-opacity="1.0" fill-opacity="0.0" stroke="rgb(0,0,255)" stroke-width="1.4803904506132737" fill="rgb(0,0,0)" stroke-linecap="butt" stroke-miterlimit="10.0"><path d="M 429.9024,199.1811 c 0.0000,-1.6699 -1.3537,-3.0236 -3.0236 -3.0236c -1.6699,-0.0000 -3.0236,1.3537 -3.0236 3.0236c -0.0000,1.6699 1.3537,3.0236 3.0236 3.0236c 1.6699,0.0000 3.0236,-1.3537 3.0236 -3.0236Z"/></g><g stroke-linejoin="miter" stroke-opacity="1.0" fill-opacity="1.0" stroke="rgb(255,0,0)" stroke-width="1.4803904506132737" fill="rgb(255,0,0)" stroke-linecap="butt" stroke-miterlimit="10.0"><path d="M 427.2567,199.1811 c 0.0000,-0.2087 -0.1692,-0.3780 -0.3780 -0.3780c -0.2087,-0.0000 -0.3780,0.1692 -0.3780 0.3780c -0.0000,0.2087 0.1692,0.3780 0.3780 0.3780c 0.2087,0.0000 0.3780,-0.1692 0.3780 -0.3780Z"/></g><g stroke-linejoin="miter" stroke-opacity="1.0" fill-opacity="0.0" stroke="rgb(0,0,0)" stroke-width="1.4803904506132737" fill="rgb(0,0,0)" stroke-linecap="butt" stroke-miterlimit="10.0"><path d="M 438.2173,238.8661 l -0.0000,-49.1339 h -60.2646 l -0.0000,49.1339 Z"/></g><g stroke-linejoin="miter" stroke-opacity="1.0" fill-opacity="1.0" font-size="18.89763779527559px" stroke="rgb(0,0,0)" stroke-width="1.4803904506132737" fill="rgb(0,0,0)" stroke-linecap="butt" stroke-miterlimit="10.0"><text dominant-baseline="middle" transform="matrix(1.0000,-0.0000,0.0000,1.0000,408.0850,214.2992)" stroke="none" text-anchor="middle"></text></g><g stroke-linejoin="miter" stroke-opacity="1.0" fill-opacity="0.0" stroke="rgb(0,0,255)" stroke-width="1.4803904506132737" fill="rgb(0,0,0)" stroke-linecap="butt" stroke-miterlimit="10.0"><path d="M 392.3150,272.8819 c 0.0000,-1.6699 -1.3537,-3.0236 -3.0236 -3.0236c -1.6699,-0.0000 -3.0236,1.3537 -3.0236 3.0236c -0.0000,1.6699 1.3537,3.0236 3.0236 3.0236c 1.6699,0.0000 3.0236,-1.3537 3.0236 -3.0236Z"/></g><g stroke-linejoin="miter" stroke-opacity="1.0" fill-opacity="1.0" stroke="rgb(255,0,0)" stroke-width="1.4803904506132737" fill="rgb(255,0,0)" stroke-linecap="butt" stroke-miterlimit="10.0"><path d="M 389.6693,272.8819 c 0.0000,-0.2087 -0.1692,-0.3780 -0.3780 -0.3780c -0.2087,-0.0000 -0.3780,0.1692 -0.3780 0.3780c -0.0000,0.2087 0.1692,0.3780 0.3780 0.3780c 0.2087,0.0000 0.3780,-0.1692 0.3780 -0.3780Z"/></g><g stroke-linejoin="miter" stroke-opacity="1.0" fill-opacity="0.0" stroke="rgb(0,0,255)" stroke-width="1.4803904506132737" fill="rgb(0,0,0)" stroke-linecap="butt" stroke-miterlimit="10.0"><path d="M 411.1087,272.8819 c 0.0000,-1.6699 -1.3537,-3.0236 -3.0236 -3.0236c -1.6699,-0.0000 -3.0236,1.3537 -3.0236 3.0236c -0.0000,1.6699 1.3537,3.0236 3.0236 3.0236c 1.6699,0.0000 3.0236,-1.3537 3.0236 -3.0236Z"/></g><g stroke-linejoin="miter" stroke-opacity="1.0" fill-opacity="1.0" stroke="rgb(255,0,0)" stroke-width="1.4803904506132737" fill="rgb(255,0,0)" stroke-linecap="butt" stroke-miterlimit="10.0"><path d="M 408.4630,272.8819 c 0.0000,-0.2087 -0.1692,-0.3780 -0.3780 -0.3780c -0.2087,-0.0000 -0.3780,0.1692 -0.3780 0.3780c -0.0000,0.2087 0.1692,0.3780 0.3780 0.3780c 0.2087,0.0000 0.3780,-0.1692 0.3780 -0.3780Z"/></g><g stroke-linejoin="miter" stroke-opacity="1.0" fill-opacity="0.0" stroke="rgb(0,0,255)" stroke-width="1.4803904506132737" fill="rgb(0,0,0)" stroke-linecap="butt" stroke-miterlimit="10.0"><path d="M 429.9024,272.8819 c 0.0000,-1.6699 -1.3537,-3.0236 -3.0236 -3.0236c -1.6699,-0.0000 -3.0236,1.3537 -3.0236 3.0236c -0.0000,1.6699 1.3537,3.0236 3.0236 3.0236c 1.6699,0.0000 3.0236,-1.3537 3.0236 -3.0236Z"/></g><g stroke-linejoin="miter" stroke-opacity="1.0" fill-opacity="1.0" stroke="rgb(255,0,0)" stroke-width="1.4803904506132737" fill="rgb(255,0,0)" stroke-linecap="butt" stroke-miterlimit="10.0"><path d="M 427.2567,272.8819 c 0.0000,-0.2087 -0.1692,-0.3780 -0.3780 -0.3780c -0.2087,-0.0000 -0.3780,0.1692 -0.3780 0.3780c -0.0000,0.2087 0.1692,0.3780 0.3780 0.3780c 0.2087,0.0000 0.3780,-0.1692 0.3780 -0.3780Z"/></g><g stroke-linejoin="miter" stroke-opacity="1.0" fill-opacity="0.0" stroke="rgb(0,0,0)" stroke-width="1.4803904506132737" fill="rgb(0,0,0)" stroke-linecap="butt" stroke-miterlimit="10.0"><path d="M 438.2173,312.5669 l -0.0000,-49.1339 h -60.2646 l -0.0000,49.1339 Z"/></g><g stroke-linejoin="miter" stroke-opacity="1.0" fill-opacity="1.0" font-size="18.89763779527559px" stroke="rgb(0,0,0)" stroke-width="1.4803904506132737" fill="rgb(0,0,0)" stroke-linecap="butt" stroke-miterlimit="10.0"><text dominant-baseline="middle" transform="matrix(1.0000,-0.0000,0.0000,1.0000,408.0850,288.0000)" stroke="none" text-anchor="middle"></text></g><g stroke-linejoin="miter" stroke-opacity="1.0" fill-opacity="0.0" stroke="rgb(0,0,255)" stroke-width="1.4803904506132737" fill="rgb(0,0,0)" stroke-linecap="butt" stroke-miterlimit="10.0"><path d="M 316.7244,39.6850 c 0.0000,-1.6699 -1.3537,-3.0236 -3.0236 -3.0236c -1.6699,-0.0000 -3.0236,1.3537 -3.0236 3.0236c -0.0000,1.6699 1.3537,3.0236 3.0236 3.0236c 1.6699,0.0000 3.0236,-1.3537 3.0236 -3.0236Z"/></g><g stroke-linejoin="miter" stroke-opacity="1.0" fill-opacity="1.0" stroke="rgb(255,0,0)" stroke-width="1.4803904506132737" fill="rgb(255,0,0)" stroke-linecap="butt" stroke-miterlimit="10.0"><path d="M 314.0787,39.6850 c 0.0000,-0.2087 -0.1692,-0.3780 -0.3780 -0.3780c -0.2087,-0.0000 -0.3780,0.1692 -0.3780 0.3780c -0.0000,0.2087 0.1692,0.3780 0.3780 0.3780c 0.2087,0.0000 0.3780,-0.1692 0.3780 -0.3780Z"/></g><g stroke-linejoin="miter" stroke-opacity="1.0" fill-opacity="0.0" stroke="rgb(0,0,255)" stroke-width="1.4803904506132737" fill="rgb(0,0,0)" stroke-linecap="butt" stroke-miterlimit="10.0"><path d="M 335.5181,39.6850 c 0.0000,-1.6699 -1.3537,-3.0236 -3.0236 -3.0236c -1.6699,-0.0000 -3.0236,1.3537 -3.0236 3.0236c -0.0000,1.6699 1.3537,3.0236 3.0236 3.0236c 1.6699,0.0000 3.0236,-1.3537 3.0236 -3.0236Z"/></g><g stroke-linejoin="miter" stroke-opacity="1.0" fill-opacity="1.0" stroke="rgb(255,0,0)" stroke-width="1.4803904506132737" fill="rgb(255,0,0)" stroke-linecap="butt" stroke-miterlimit="10.0"><path d="M 332.8724,39.6850 c 0.0000,-0.2087 -0.1692,-0.3780 -0.3780 -0.3780c -0.2087,-0.0000 -0.3780,0.1692 -0.3780 0.3780c -0.0000,0.2087 0.1692,0.3780 0.3780 0.3780c 0.2087,0.0000 0.3780,-0.1692 0.3780 -0.3780Z"/></g><g stroke-linejoin="miter" stroke-opacity="1.0" fill-opacity="0.0" stroke="rgb(0,0,255)" stroke-width="1.4803904506132737" fill="rgb(0,0,0)" stroke-linecap="butt" stroke-miterlimit="10.0"><path d="M 354.3118,39.6850 c 0.0000,-1.6699 -1.3537,-3.0236 -3.0236 -3.0236c -1.6699,-0.0000 -3.0236,1.3537 -3.0236 3.0236c -0.0000,1.6699 1.3537,3.0236 3.0236 3.0236c 1.6699,0.0000 3.0236,-1.3537 3.0236 -3.0236Z"/></g><g stroke-linejoin="miter" stroke-opacity="1.0" fill-opacity="1.0" stroke="rgb(255,0,0)" stroke-width="1.4803904506132737" fill="rgb(255,0,0)" stroke-linecap="butt" stroke-miterlimit="10.0"><path d="M 351.6661,39.6850 c 0.0000,-0.2087 -0.1692,-0.3780 -0.3780 -0.3780c -0.2087,-0.0000 -0.3780,0.1692 -0.3780 0.3780c -0.0000,0.2087 0.1692,0.3780 0.3780 0.3780c 0.2087,0.0000 0.3780,-0.1692 0.3780 -0.3780Z"/></g><g stroke-linejoin="miter" stroke-opacity="1.0" fill-opacity="0.0" stroke="rgb(0,0,0)" stroke-width="1.4803904506132737" fill="rgb(0,0,0)" stroke-linecap="butt" stroke-miterlimit="10.0"><path d="M 362.6268,79.3701 l -0.0000,-49.1339 h -60.2646 l -0.0000,49.1339 Z"/></g><g stroke-linejoin="miter" stroke-opacity="1.0" fill-opacity="1.0" font-size="18.89763779527559px" stroke="rgb(0,0,0)" stroke-width="1.4803904506132737" fill="rgb(0,0,0)" stroke-linecap="butt" stroke-miterlimit="10.0"><text dominant-baseline="middle" transform="matrix(1.0000,-0.0000,0.0000,1.0000,332.4945,54.8031)" stroke="none" text-anchor="middle"></text></g><g stroke-linejoin="miter" stroke-opacity="1.0" fill-opacity="0.0" stroke="rgb(0,0,255)" stroke-width="1.4803904506132737" fill="rgb(0,0,0)" stroke-linecap="butt" stroke-miterlimit="10.0"><path d="M 316.7244,113.3858 c 0.0000,-1.6699 -1.3537,-3.0236 -3.0236 -3.0236c -1.6699,-0.0000 -3.0236,1.3537 -3.0236 3.0236c -0.0000,1.6699 1.3537,3.0236 3.0236 3.0236c 1.6699,0.0000 3.0236,-1.3537 3.0236 -3.0236Z"/></g><g stroke-linejoin="miter" stroke-opacity="1.0" fill-opacity="1.0" stroke="rgb(255,0,0)" stroke-width="1.4803904506132737" fill="rgb(255,0,0)" stroke-linecap="butt" stroke-miterlimit="10.0"><path d="M 314.0787,113.3858 c 0.0000,-0.2087 -0.1692,-0.3780 -0.3780 -0.3780c -0.2087,-0.0000 -0.3780,0.1692 -0.3780 0.3780c -0.0000,0.2087 0.1692,0.3780 0.3780 0.3780c 0.2087,0.0000 0.3780,-0.1692 0.3780 -0.3780Z"/></g><g stroke-linejoin="miter" stroke-opacity="1.0" fill-opacity="0.0" stroke="rgb(0,0,255)" stroke-width="1.4803904506132737" fill="rgb(0,0,0)" stroke-linecap="butt" stroke-miterlimit="10.0"><path d="M 335.5181,113.3858 c 0.0000,-1.6699 -1.3537,-3.0236 -3.0236 -3.0236c -1.6699,-0.0000 -3.0236,1.3537 -3.0236 3.0236c -0.0000,1.6699 1.3537,3.0236 3.0236 3.0236c 1.6699,0.0000 3.0236,-1.3537 3.0236 -3.0236Z"/></g><g stroke-linejoin="miter" stroke-opacity="1.0" fill-opacity="1.0" stroke="rgb(255,0,0)" stroke-width="1.4803904506132737" fill="rgb(255,0,0)" stroke-linecap="butt" stroke-miterlimit="10.0"><path d="M 332.8724,113.3858 c 0.0000,-0.2087 -0.1692,-0.3780 -0.3780 -0.3780c -0.2087,-0.0000 -0.3780,0.1692 -0.3780 0.3780c -0.0000,0.2087 0.1692,0.3780 0.3780 0.3780c 0.2087,0.0000 0.3780,-0.1692 0.3780 -0.3780Z"/></g><g stroke-linejoin="miter" stroke-opacity="1.0" fill-opacity="0.0" stroke="rgb(0,0,255)" stroke-width="1.4803904506132737" fill="rgb(0,0,0)" stroke-linecap="butt" stroke-miterlimit="10.0"><path d="M 354.3118,113.3858 c 0.0000,-1.6699 -1.3537,-3.0236 -3.0236 -3.0236c -1.6699,-0.0000 -3.0236,1.3537 -3.0236 3.0236c -0.0000,1.6699 1.3537,3.0236 3.0236 3.0236c 1.6699,0.0000 3.0236,-1.3537 3.0236 -3.0236Z"/></g><g stroke-linejoin="miter" stroke-opacity="1.0" fill-opacity="1.0" stroke="rgb(255,0,0)" stroke-width="1.4803904506132737" fill="rgb(255,0,0)" stroke-linecap="butt" stroke-miterlimit="10.0"><path d="M 351.6661,113.3858 c 0.0000,-0.2087 -0.1692,-0.3780 -0.3780 -0.3780c -0.2087,-0.0000 -0.3780,0.1692 -0.3780 0.3780c -0.0000,0.2087 0.1692,0.3780 0.3780 0.3780c 0.2087,0.0000 0.3780,-0.1692 0.3780 -0.3780Z"/></g><g stroke-linejoin="miter" stroke-opacity="1.0" fill-opacity="0.0" stroke="rgb(0,0,0)" stroke-width="1.4803904506132737" fill="rgb(0,0,0)" stroke-linecap="butt" stroke-miterlimit="10.0"><path d="M 362.6268,153.0709 l -0.0000,-49.1339 h -60.2646 l -0.0000,49.1339 Z"/></g><g stroke-linejoin="miter" stroke-opacity="1.0" fill-opacity="1.0" font-size="18.89763779527559px" stroke="rgb(0,0,0)" stroke-width="1.4803904506132737" fill="rgb(0,0,0)" stroke-linecap="butt" stroke-miterlimit="10.0"><text dominant-baseline="middle" transform="matrix(1.0000,-0.0000,0.0000,1.0000,332.4945,128.5039)" stroke="none" text-anchor="middle"></text></g><g stroke-linejoin="miter" stroke-opacity="1.0" fill-opacity="0.0" stroke="rgb(0,0,255)" stroke-width="1.4803904506132737" fill="rgb(0,0,0)" stroke-linecap="butt" stroke-miterlimit="10.0"><path d="M 316.7244,187.0866 c 0.0000,-1.6699 -1.3537,-3.0236 -3.0236 -3.0236c -1.6699,-0.0000 -3.0236,1.3537 -3.0236 3.0236c -0.0000,1.6699 1.3537,3.0236 3.0236 3.0236c 1.6699,0.0000 3.0236,-1.3537 3.0236 -3.0236Z"/></g><g stroke-linejoin="miter" stroke-opacity="1.0" fill-opacity="1.0" stroke="rgb(255,0,0)" stroke-width="1.4803904506132737" fill="rgb(255,0,0)" stroke-linecap="butt" stroke-miterlimit="10.0"><path d="M 314.0787,187.0866 c 0.0000,-0.2087 -0.1692,-0.3780 -0.3780 -0.3780c -0.2087,-0.0000 -0.3780,0.1692 -0.3780 0.3780c -0.0000,0.2087 0.1692,0.3780 0.3780 0.3780c 0.2087,0.0000 0.3780,-0.1692 0.3780 -0.3780Z"/></g><g stroke-linejoin="miter" stroke-opacity="1.0" fill-opacity="0.0" stroke="rgb(0,0,255)" stroke-width="1.4803904506132737" fill="rgb(0,0,0)" stroke-linecap="butt" stroke-miterlimit="10.0"><path d="M 335.5181,187.0866 c 0.0000,-1.6699 -1.3537,-3.0236 -3.0236 -3.0236c -1.6699,-0.0000 -3.0236,1.3537 -3.0236 3.0236c -0.0000,1.6699 1.3537,3.0236 3.0236 3.0236c 1.6699,0.0000 3.0236,-1.3537 3.0236 -3.0236Z"/></g><g stroke-linejoin="miter" stroke-opacity="1.0" fill-opacity="1.0" stroke="rgb(255,0,0)" stroke-width="1.4803904506132737" fill="rgb(255,0,0)" stroke-linecap="butt" stroke-miterlimit="10.0"><path d="M 332.8724,187.0866 c 0.0000,-0.2087 -0.1692,-0.3780 -0.3780 -0.3780c -0.2087,-0.0000 -0.3780,0.1692 -0.3780 0.3780c -0.0000,0.2087 0.1692,0.3780 0.3780 0.3780c 0.2087,0.0000 0.3780,-0.1692 0.3780 -0.3780Z"/></g><g stroke-linejoin="miter" stroke-opacity="1.0" fill-opacity="0.0" stroke="rgb(0,0,255)" stroke-width="1.4803904506132737" fill="rgb(0,0,0)" stroke-linecap="butt" stroke-miterlimit="10.0"><path d="M 354.3118,187.0866 c 0.0000,-1.6699 -1.3537,-3.0236 -3.0236 -3.0236c -1.6699,-0.0000 -3.0236,1.3537 -3.0236 3.0236c -0.0000,1.6699 1.3537,3.0236 3.0236 3.0236c 1.6699,0.0000 3.0236,-1.3537 3.0236 -3.0236Z"/></g><g stroke-linejoin="miter" stroke-opacity="1.0" fill-opacity="1.0" stroke="rgb(255,0,0)" stroke-width="1.4803904506132737" fill="rgb(255,0,0)" stroke-linecap="butt" stroke-miterlimit="10.0"><path d="M 351.6661,187.0866 c 0.0000,-0.2087 -0.1692,-0.3780 -0.3780 -0.3780c -0.2087,-0.0000 -0.3780,0.1692 -0.3780 0.3780c -0.0000,0.2087 0.1692,0.3780 0.3780 0.3780c 0.2087,0.0000 0.3780,-0.1692 0.3780 -0.3780Z"/></g><g stroke-linejoin="miter" stroke-opacity="1.0" fill-opacity="0.0" stroke="rgb(0,0,0)" stroke-width="1.4803904506132737" fill="rgb(0,0,0)" stroke-linecap="butt" stroke-miterlimit="10.0"><path d="M 362.6268,226.7717 l -0.0000,-49.1339 h -60.2646 l -0.0000,49.1339 Z"/></g><g stroke-linejoin="miter" stroke-opacity="1.0" fill-opacity="1.0" font-size="18.89763779527559px" stroke="rgb(0,0,0)" stroke-width="1.4803904506132737" fill="rgb(0,0,0)" stroke-linecap="butt" stroke-miterlimit="10.0"><text dominant-baseline="middle" transform="matrix(1.0000,-0.0000,0.0000,1.0000,332.4945,202.2047)" stroke="none" text-anchor="middle"></text></g><g stroke-linejoin="miter" stroke-opacity="1.0" fill-opacity="0.0" stroke="rgb(0,0,255)" stroke-width="1.4803904506132737" fill="rgb(0,0,0)" stroke-linecap="butt" stroke-miterlimit="10.0"><path d="M 316.7244,260.7874 c 0.0000,-1.6699 -1.3537,-3.0236 -3.0236 -3.0236c -1.6699,-0.0000 -3.0236,1.3537 -3.0236 3.0236c -0.0000,1.6699 1.3537,3.0236 3.0236 3.0236c 1.6699,0.0000 3.0236,-1.3537 3.0236 -3.0236Z"/></g><g stroke-linejoin="miter" stroke-opacity="1.0" fill-opacity="1.0" stroke="rgb(255,0,0)" stroke-width="1.4803904506132737" fill="rgb(255,0,0)" stroke-linecap="butt" stroke-miterlimit="10.0"><path d="M 314.0787,260.7874 c 0.0000,-0.2087 -0.1692,-0.3780 -0.3780 -0.3780c -0.2087,-0.0000 -0.3780,0.1692 -0.3780 0.3780c -0.0000,0.2087 0.1692,0.3780 0.3780 0.3780c 0.2087,0.0000 0.3780,-0.1692 0.3780 -0.3780Z"/></g><g stroke-linejoin="miter" stroke-opacity="1.0" fill-opacity="0.0" stroke="rgb(0,0,255)" stroke-width="1.4803904506132737" fill="rgb(0,0,0)" stroke-linecap="butt" stroke-miterlimit="10.0"><path d="M 335.5181,260.7874 c 0.0000,-1.6699 -1.3537,-3.0236 -3.0236 -3.0236c -1.6699,-0.0000 -3.0236,1.3537 -3.0236 3.0236c -0.0000,1.6699 1.3537,3.0236 3.0236 3.0236c 1.6699,0.0000 3.0236,-1.3537 3.0236 -3.0236Z"/></g><g stroke-linejoin="miter" stroke-opacity="1.0" fill-opacity="1.0" stroke="rgb(255,0,0)" stroke-width="1.4803904506132737" fill="rgb(255,0,0)" stroke-linecap="butt" stroke-miterlimit="10.0"><path d="M 332.8724,260.7874 c 0.0000,-0.2087 -0.1692,-0.3780 -0.3780 -0.3780c -0.2087,-0.0000 -0.3780,0.1692 -0.3780 0.3780c -0.0000,0.2087 0.1692,0.3780 0.3780 0.3780c 0.2087,0.0000 0.3780,-0.1692 0.3780 -0.3780Z"/></g><g stroke-linejoin="miter" stroke-opacity="1.0" fill-opacity="0.0" stroke="rgb(0,0,255)" stroke-width="1.4803904506132737" fill="rgb(0,0,0)" stroke-linecap="butt" stroke-miterlimit="10.0"><path d="M 354.3118,260.7874 c 0.0000,-1.6699 -1.3537,-3.0236 -3.0236 -3.0236c -1.6699,-0.0000 -3.0236,1.3537 -3.0236 3.0236c -0.0000,1.6699 1.3537,3.0236 3.0236 3.0236c 1.6699,0.0000 3.0236,-1.3537 3.0236 -3.0236Z"/></g><g stroke-linejoin="miter" stroke-opacity="1.0" fill-opacity="1.0" stroke="rgb(255,0,0)" stroke-width="1.4803904506132737" fill="rgb(255,0,0)" stroke-linecap="butt" stroke-miterlimit="10.0"><path d="M 351.6661,260.7874 c 0.0000,-0.2087 -0.1692,-0.3780 -0.3780 -0.3780c -0.2087,-0.0000 -0.3780,0.1692 -0.3780 0.3780c -0.0000,0.2087 0.1692,0.3780 0.3780 0.3780c 0.2087,0.0000 0.3780,-0.1692 0.3780 -0.3780Z"/></g><g stroke-linejoin="miter" stroke-opacity="1.0" fill-opacity="0.0" stroke="rgb(0,0,0)" stroke-width="1.4803904506132737" fill="rgb(0,0,0)" stroke-linecap="butt" stroke-miterlimit="10.0"><path d="M 362.6268,300.4724 l -0.0000,-49.1339 h -60.2646 l -0.0000,49.1339 Z"/></g><g stroke-linejoin="miter" stroke-opacity="1.0" fill-opacity="1.0" font-size="18.89763779527559px" stroke="rgb(0,0,0)" stroke-width="1.4803904506132737" fill="rgb(0,0,0)" stroke-linecap="butt" stroke-miterlimit="10.0"><text dominant-baseline="middle" transform="matrix(1.0000,-0.0000,0.0000,1.0000,332.4945,275.9055)" stroke="none" text-anchor="middle"></text></g><g stroke-linejoin="miter" stroke-opacity="1.0" fill-opacity="0.0" stroke="rgb(0,0,255)" stroke-width="1.4803904506132737" fill="rgb(0,0,0)" stroke-linecap="butt" stroke-miterlimit="10.0"><path d="M 241.1339,24.5669 c 0.0000,-1.6699 -1.3537,-3.0236 -3.0236 -3.0236c -1.6699,-0.0000 -3.0236,1.3537 -3.0236 3.0236c -0.0000,1.6699 1.3537,3.0236 3.0236 3.0236c 1.6699,0.0000 3.0236,-1.3537 3.0236 -3.0236Z"/></g><g stroke-linejoin="miter" stroke-opacity="1.0" fill-opacity="1.0" stroke="rgb(255,0,0)" stroke-width="1.4803904506132737" fill="rgb(255,0,0)" stroke-linecap="butt" stroke-miterlimit="10.0"><path d="M 238.4882,24.5669 c 0.0000,-0.2087 -0.1692,-0.3780 -0.3780 -0.3780c -0.2087,-0.0000 -0.3780,0.1692 -0.3780 0.3780c -0.0000,0.2087 0.1692,0.3780 0.3780 0.3780c 0.2087,0.0000 0.3780,-0.1692 0.3780 -0.3780Z"/></g><g stroke-linejoin="miter" stroke-opacity="1.0" fill-opacity="0.0" stroke="rgb(0,0,255)" stroke-width="1.4803904506132737" fill="rgb(0,0,0)" stroke-linecap="butt" stroke-miterlimit="10.0"><path d="M 259.9276,24.5669 c 0.0000,-1.6699 -1.3537,-3.0236 -3.0236 -3.0236c -1.6699,-0.0000 -3.0236,1.3537 -3.0236 3.0236c -0.0000,1.6699 1.3537,3.0236 3.0236 3.0236c 1.6699,0.0000 3.0236,-1.3537 3.0236 -3.0236Z"/></g><g stroke-linejoin="miter" stroke-opacity="1.0" fill-opacity="1.0" stroke="rgb(255,0,0)" stroke-width="1.4803904506132737" fill="rgb(255,0,0)" stroke-linecap="butt" stroke-miterlimit="10.0"><path d="M 257.2819,24.5669 c 0.0000,-0.2087 -0.1692,-0.3780 -0.3780 -0.3780c -0.2087,-0.0000 -0.3780,0.1692 -0.3780 0.3780c -0.0000,0.2087 0.1692,0.3780 0.3780 0.3780c 0.2087,0.0000 0.3780,-0.1692 0.3780 -0.3780Z"/></g><g stroke-linejoin="miter" stroke-opacity="1.0" fill-opacity="0.0" stroke="rgb(0,0,255)" stroke-width="1.4803904506132737" fill="rgb(0,0,0)" stroke-linecap="butt" stroke-miterlimit="10.0"><path d="M 278.7213,24.5669 c 0.0000,-1.6699 -1.3537,-3.0236 -3.0236 -3.0236c -1.6699,-0.0000 -3.0236,1.3537 -3.0236 3.0236c -0.0000,1.6699 1.3537,3.0236 3.0236 3.0236c 1.6699,0.0000 3.0236,-1.3537 3.0236 -3.0236Z"/></g><g stroke-linejoin="miter" stroke-opacity="1.0" fill-opacity="1.0" stroke="rgb(255,0,0)" stroke-width="1.4803904506132737" fill="rgb(255,0,0)" stroke-linecap="butt" stroke-miterlimit="10.0"><path d="M 276.0756,24.5669 c 0.0000,-0.2087 -0.1692,-0.3780 -0.3780 -0.3780c -0.2087,-0.0000 -0.3780,0.1692 -0.3780 0.3780c -0.0000,0.2087 0.1692,0.3780 0.3780 0.3780c 0.2087,0.0000 0.3780,-0.1692 0.3780 -0.3780Z"/></g><g stroke-linejoin="miter" stroke-opacity="1.0" fill-opacity="0.0" stroke="rgb(0,0,0)" stroke-width="1.4803904506132737" fill="rgb(0,0,0)" stroke-linecap="butt" stroke-miterlimit="10.0"><path d="M 287.0362,64.2520 l -0.0000,-49.1339 h -60.2646 l -0.0000,49.1339 Z"/></g><g stroke-linejoin="miter" stroke-opacity="1.0" fill-opacity="1.0" font-size="18.89763779527559px" stroke="rgb(0,0,0)" stroke-width="1.4803904506132737" fill="rgb(0,0,0)" stroke-linecap="butt" stroke-miterlimit="10.0"><text dominant-baseline="middle" transform="matrix(1.0000,-0.0000,0.0000,1.0000,256.9039,39.6850)" stroke="none" text-anchor="middle"></text></g><g stroke-linejoin="miter" stroke-opacity="1.0" fill-opacity="0.0" stroke="rgb(0,0,255)" stroke-width="1.4803904506132737" fill="rgb(0,0,0)" stroke-linecap="butt" stroke-miterlimit="10.0"><path d="M 241.1339,98.2677 c 0.0000,-1.6699 -1.3537,-3.0236 -3.0236 -3.0236c -1.6699,-0.0000 -3.0236,1.3537 -3.0236 3.0236c -0.0000,1.6699 1.3537,3.0236 3.0236 3.0236c 1.6699,0.0000 3.0236,-1.3537 3.0236 -3.0236Z"/></g><g stroke-linejoin="miter" stroke-opacity="1.0" fill-opacity="1.0" stroke="rgb(255,0,0)" stroke-width="1.4803904506132737" fill="rgb(255,0,0)" stroke-linecap="butt" stroke-miterlimit="10.0"><path d="M 238.4882,98.2677 c 0.0000,-0.2087 -0.1692,-0.3780 -0.3780 -0.3780c -0.2087,-0.0000 -0.3780,0.1692 -0.3780 0.3780c -0.0000,0.2087 0.1692,0.3780 0.3780 0.3780c 0.2087,0.0000 0.3780,-0.1692 0.3780 -0.3780Z"/></g><g stroke-linejoin="miter" stroke-opacity="1.0" fill-opacity="0.0" stroke="rgb(0,0,255)" stroke-width="1.4803904506132737" fill="rgb(0,0,0)" stroke-linecap="butt" stroke-miterlimit="10.0"><path d="M 259.9276,98.2677 c 0.0000,-1.6699 -1.3537,-3.0236 -3.0236 -3.0236c -1.6699,-0.0000 -3.0236,1.3537 -3.0236 3.0236c -0.0000,1.6699 1.3537,3.0236 3.0236 3.0236c 1.6699,0.0000 3.0236,-1.3537 3.0236 -3.0236Z"/></g><g stroke-linejoin="miter" stroke-opacity="1.0" fill-opacity="1.0" stroke="rgb(255,0,0)" stroke-width="1.4803904506132737" fill="rgb(255,0,0)" stroke-linecap="butt" stroke-miterlimit="10.0"><path d="M 257.2819,98.2677 c 0.0000,-0.2087 -0.1692,-0.3780 -0.3780 -0.3780c -0.2087,-0.0000 -0.3780,0.1692 -0.3780 0.3780c -0.0000,0.2087 0.1692,0.3780 0.3780 0.3780c 0.2087,0.0000 0.3780,-0.1692 0.3780 -0.3780Z"/></g><g stroke-linejoin="miter" stroke-opacity="1.0" fill-opacity="0.0" stroke="rgb(0,0,255)" stroke-width="1.4803904506132737" fill="rgb(0,0,0)" stroke-linecap="butt" stroke-miterlimit="10.0"><path d="M 278.7213,98.2677 c 0.0000,-1.6699 -1.3537,-3.0236 -3.0236 -3.0236c -1.6699,-0.0000 -3.0236,1.3537 -3.0236 3.0236c -0.0000,1.6699 1.3537,3.0236 3.0236 3.0236c 1.6699,0.0000 3.0236,-1.3537 3.0236 -3.0236Z"/></g><g stroke-linejoin="miter" stroke-opacity="1.0" fill-opacity="1.0" stroke="rgb(255,0,0)" stroke-width="1.4803904506132737" fill="rgb(255,0,0)" stroke-linecap="butt" stroke-miterlimit="10.0"><path d="M 276.0756,98.2677 c 0.0000,-0.2087 -0.1692,-0.3780 -0.3780 -0.3780c -0.2087,-0.0000 -0.3780,0.1692 -0.3780 0.3780c -0.0000,0.2087 0.1692,0.3780 0.3780 0.3780c 0.2087,0.0000 0.3780,-0.1692 0.3780 -0.3780Z"/></g><g stroke-linejoin="miter" stroke-opacity="1.0" fill-opacity="0.0" stroke="rgb(0,0,0)" stroke-width="1.4803904506132737" fill="rgb(0,0,0)" stroke-linecap="butt" stroke-miterlimit="10.0"><path d="M 287.0362,137.9528 l -0.0000,-49.1339 h -60.2646 l -0.0000,49.1339 Z"/></g><g stroke-linejoin="miter" stroke-opacity="1.0" fill-opacity="1.0" font-size="18.89763779527559px" stroke="rgb(0,0,0)" stroke-width="1.4803904506132737" fill="rgb(0,0,0)" stroke-linecap="butt" stroke-miterlimit="10.0"><text dominant-baseline="middle" transform="matrix(1.0000,-0.0000,0.0000,1.0000,256.9039,113.3858)" stroke="none" text-anchor="middle"></text></g><g stroke-linejoin="miter" stroke-opacity="1.0" fill-opacity="0.0" stroke="rgb(0,0,255)" stroke-width="1.4803904506132737" fill="rgb(0,0,0)" stroke-linecap="butt" stroke-miterlimit="10.0"><path d="M 241.1339,171.9685 c 0.0000,-1.6699 -1.3537,-3.0236 -3.0236 -3.0236c -1.6699,-0.0000 -3.0236,1.3537 -3.0236 3.0236c -0.0000,1.6699 1.3537,3.0236 3.0236 3.0236c 1.6699,0.0000 3.0236,-1.3537 3.0236 -3.0236Z"/></g><g stroke-linejoin="miter" stroke-opacity="1.0" fill-opacity="1.0" stroke="rgb(255,0,0)" stroke-width="1.4803904506132737" fill="rgb(255,0,0)" stroke-linecap="butt" stroke-miterlimit="10.0"><path d="M 238.4882,171.9685 c 0.0000,-0.2087 -0.1692,-0.3780 -0.3780 -0.3780c -0.2087,-0.0000 -0.3780,0.1692 -0.3780 0.3780c -0.0000,0.2087 0.1692,0.3780 0.3780 0.3780c 0.2087,0.0000 0.3780,-0.1692 0.3780 -0.3780Z"/></g><g stroke-linejoin="miter" stroke-opacity="1.0" fill-opacity="0.0" stroke="rgb(0,0,255)" stroke-width="1.4803904506132737" fill="rgb(0,0,0)" stroke-linecap="butt" stroke-miterlimit="10.0"><path d="M 259.9276,171.9685 c 0.0000,-1.6699 -1.3537,-3.0236 -3.0236 -3.0236c -1.6699,-0.0000 -3.0236,1.3537 -3.0236 3.0236c -0.0000,1.6699 1.3537,3.0236 3.0236 3.0236c 1.6699,0.0000 3.0236,-1.3537 3.0236 -3.0236Z"/></g><g stroke-linejoin="miter" stroke-opacity="1.0" fill-opacity="1.0" stroke="rgb(255,0,0)" stroke-width="1.4803904506132737" fill="rgb(255,0,0)" stroke-linecap="butt" stroke-miterlimit="10.0"><path d="M 257.2819,171.9685 c 0.0000,-0.2087 -0.1692,-0.3780 -0.3780 -0.3780c -0.2087,-0.0000 -0.3780,0.1692 -0.3780 0.3780c -0.0000,0.2087 0.1692,0.3780 0.3780 0.3780c 0.2087,0.0000 0.3780,-0.1692 0.3780 -0.3780Z"/></g><g stroke-linejoin="miter" stroke-opacity="1.0" fill-opacity="0.0" stroke="rgb(0,0,255)" stroke-width="1.4803904506132737" fill="rgb(0,0,0)" stroke-linecap="butt" stroke-miterlimit="10.0"><path d="M 278.7213,171.9685 c 0.0000,-1.6699 -1.3537,-3.0236 -3.0236 -3.0236c -1.6699,-0.0000 -3.0236,1.3537 -3.0236 3.0236c -0.0000,1.6699 1.3537,3.0236 3.0236 3.0236c 1.6699,0.0000 3.0236,-1.3537 3.0236 -3.0236Z"/></g><g stroke-linejoin="miter" stroke-opacity="1.0" fill-opacity="1.0" stroke="rgb(255,0,0)" stroke-width="1.4803904506132737" fill="rgb(255,0,0)" stroke-linecap="butt" stroke-miterlimit="10.0"><path d="M 276.0756,171.9685 c 0.0000,-0.2087 -0.1692,-0.3780 -0.3780 -0.3780c -0.2087,-0.0000 -0.3780,0.1692 -0.3780 0.3780c -0.0000,0.2087 0.1692,0.3780 0.3780 0.3780c 0.2087,0.0000 0.3780,-0.1692 0.3780 -0.3780Z"/></g><g stroke-linejoin="miter" stroke-opacity="1.0" fill-opacity="0.0" stroke="rgb(0,0,0)" stroke-width="1.4803904506132737" fill="rgb(0,0,0)" stroke-linecap="butt" stroke-miterlimit="10.0"><path d="M 287.0362,211.6535 l -0.0000,-49.1339 h -60.2646 l -0.0000,49.1339 Z"/></g><g stroke-linejoin="miter" stroke-opacity="1.0" fill-opacity="1.0" font-size="18.89763779527559px" stroke="rgb(0,0,0)" stroke-width="1.4803904506132737" fill="rgb(0,0,0)" stroke-linecap="butt" stroke-miterlimit="10.0"><text dominant-baseline="middle" transform="matrix(1.0000,-0.0000,0.0000,1.0000,256.9039,187.0866)" stroke="none" text-anchor="middle"></text></g><g stroke-linejoin="miter" stroke-opacity="1.0" fill-opacity="0.0" stroke="rgb(0,0,255)" stroke-width="1.4803904506132737" fill="rgb(0,0,0)" stroke-linecap="butt" stroke-miterlimit="10.0"><path d="M 241.1339,245.6693 c 0.0000,-1.6699 -1.3537,-3.0236 -3.0236 -3.0236c -1.6699,-0.0000 -3.0236,1.3537 -3.0236 3.0236c -0.0000,1.6699 1.3537,3.0236 3.0236 3.0236c 1.6699,0.0000 3.0236,-1.3537 3.0236 -3.0236Z"/></g><g stroke-linejoin="miter" stroke-opacity="1.0" fill-opacity="1.0" stroke="rgb(255,0,0)" stroke-width="1.4803904506132737" fill="rgb(255,0,0)" stroke-linecap="butt" stroke-miterlimit="10.0"><path d="M 238.4882,245.6693 c 0.0000,-0.2087 -0.1692,-0.3780 -0.3780 -0.3780c -0.2087,-0.0000 -0.3780,0.1692 -0.3780 0.3780c -0.0000,0.2087 0.1692,0.3780 0.3780 0.3780c 0.2087,0.0000 0.3780,-0.1692 0.3780 -0.3780Z"/></g><g stroke-linejoin="miter" stroke-opacity="1.0" fill-opacity="0.0" stroke="rgb(0,0,255)" stroke-width="1.4803904506132737" fill="rgb(0,0,0)" stroke-linecap="butt" stroke-miterlimit="10.0"><path d="M 259.9276,245.6693 c 0.0000,-1.6699 -1.3537,-3.0236 -3.0236 -3.0236c -1.6699,-0.0000 -3.0236,1.3537 -3.0236 3.0236c -0.0000,1.6699 1.3537,3.0236 3.0236 3.0236c 1.6699,0.0000 3.0236,-1.3537 3.0236 -3.0236Z"/></g><g stroke-linejoin="miter" stroke-opacity="1.0" fill-opacity="1.0" stroke="rgb(255,0,0)" stroke-width="1.4803904506132737" fill="rgb(255,0,0)" stroke-linecap="butt" stroke-miterlimit="10.0"><path d="M 257.2819,245.6693 c 0.0000,-0.2087 -0.1692,-0.3780 -0.3780 -0.3780c -0.2087,-0.0000 -0.3780,0.1692 -0.3780 0.3780c -0.0000,0.2087 0.1692,0.3780 0.3780 0.3780c 0.2087,0.0000 0.3780,-0.1692 0.3780 -0.3780Z"/></g><g stroke-linejoin="miter" stroke-opacity="1.0" fill-opacity="0.0" stroke="rgb(0,0,255)" stroke-width="1.4803904506132737" fill="rgb(0,0,0)" stroke-linecap="butt" stroke-miterlimit="10.0"><path d="M 278.7213,245.6693 c 0.0000,-1.6699 -1.3537,-3.0236 -3.0236 -3.0236c -1.6699,-0.0000 -3.0236,1.3537 -3.0236 3.0236c -0.0000,1.6699 1.3537,3.0236 3.0236 3.0236c 1.6699,0.0000 3.0236,-1.3537 3.0236 -3.0236Z"/></g><g stroke-linejoin="miter" stroke-opacity="1.0" fill-opacity="1.0" stroke="rgb(255,0,0)" stroke-width="1.4803904506132737" fill="rgb(255,0,0)" stroke-linecap="butt" stroke-miterlimit="10.0"><path d="M 276.0756,245.6693 c 0.0000,-0.2087 -0.1692,-0.3780 -0.3780 -0.3780c -0.2087,-0.0000 -0.3780,0.1692 -0.3780 0.3780c -0.0000,0.2087 0.1692,0.3780 0.3780 0.3780c 0.2087,0.0000 0.3780,-0.1692 0.3780 -0.3780Z"/></g><g stroke-linejoin="miter" stroke-opacity="1.0" fill-opacity="0.0" stroke="rgb(0,0,0)" stroke-width="1.4803904506132737" fill="rgb(0,0,0)" stroke-linecap="butt" stroke-miterlimit="10.0"><path d="M 287.0362,285.3543 l -0.0000,-49.1339 h -60.2646 l -0.0000,49.1339 Z"/></g><g stroke-linejoin="miter" stroke-opacity="1.0" fill-opacity="1.0" font-size="18.89763779527559px" stroke="rgb(0,0,0)" stroke-width="1.4803904506132737" fill="rgb(0,0,0)" stroke-linecap="butt" stroke-miterlimit="10.0"><text dominant-baseline="middle" transform="matrix(1.0000,-0.0000,0.0000,1.0000,256.9039,260.7874)" stroke="none" text-anchor="middle"></text></g><g stroke-linejoin="miter" stroke-opacity="1.0" fill-opacity="0.0" stroke="rgb(0,0,255)" stroke-width="1.4803904506132737" fill="rgb(0,0,0)" stroke-linecap="butt" stroke-miterlimit="10.0"><path d="M 165.5433,9.4488 c 0.0000,-1.6699 -1.3537,-3.0236 -3.0236 -3.0236c -1.6699,-0.0000 -3.0236,1.3537 -3.0236 3.0236c -0.0000,1.6699 1.3537,3.0236 3.0236 3.0236c 1.6699,0.0000 3.0236,-1.3537 3.0236 -3.0236Z"/></g><g stroke-linejoin="miter" stroke-opacity="1.0" fill-opacity="1.0" stroke="rgb(255,0,0)" stroke-width="1.4803904506132737" fill="rgb(255,0,0)" stroke-linecap="butt" stroke-miterlimit="10.0"><path d="M 162.8976,9.4488 c 0.0000,-0.2087 -0.1692,-0.3780 -0.3780 -0.3780c -0.2087,-0.0000 -0.3780,0.1692 -0.3780 0.3780c -0.0000,0.2087 0.1692,0.3780 0.3780 0.3780c 0.2087,0.0000 0.3780,-0.1692 0.3780 -0.3780Z"/></g><g stroke-linejoin="miter" stroke-opacity="1.0" fill-opacity="0.0" stroke="rgb(0,0,255)" stroke-width="1.4803904506132737" fill="rgb(0,0,0)" stroke-linecap="butt" stroke-miterlimit="10.0"><path d="M 184.3370,9.4488 c 0.0000,-1.6699 -1.3537,-3.0236 -3.0236 -3.0236c -1.6699,-0.0000 -3.0236,1.3537 -3.0236 3.0236c -0.0000,1.6699 1.3537,3.0236 3.0236 3.0236c 1.6699,0.0000 3.0236,-1.3537 3.0236 -3.0236Z"/></g><g stroke-linejoin="miter" stroke-opacity="1.0" fill-opacity="1.0" stroke="rgb(255,0,0)" stroke-width="1.4803904506132737" fill="rgb(255,0,0)" stroke-linecap="butt" stroke-miterlimit="10.0"><path d="M 181.6913,9.4488 c 0.0000,-0.2087 -0.1692,-0.3780 -0.3780 -0.3780c -0.2087,-0.0000 -0.3780,0.1692 -0.3780 0.3780c -0.0000,0.2087 0.1692,0.3780 0.3780 0.3780c 0.2087,0.0000 0.3780,-0.1692 0.3780 -0.3780Z"/></g><g stroke-linejoin="miter" stroke-opacity="1.0" fill-opacity="0.0" stroke="rgb(0,0,255)" stroke-width="1.4803904506132737" fill="rgb(0,0,0)" stroke-linecap="butt" stroke-miterlimit="10.0"><path d="M 203.1307,9.4488 c 0.0000,-1.6699 -1.3537,-3.0236 -3.0236 -3.0236c -1.6699,-0.0000 -3.0236,1.3537 -3.0236 3.0236c -0.0000,1.6699 1.3537,3.0236 3.0236 3.0236c 1.6699,0.0000 3.0236,-1.3537 3.0236 -3.0236Z"/></g><g stroke-linejoin="miter" stroke-opacity="1.0" fill-opacity="1.0" stroke="rgb(255,0,0)" stroke-width="1.4803904506132737" fill="rgb(255,0,0)" stroke-linecap="butt" stroke-miterlimit="10.0"><path d="M 200.4850,9.4488 c 0.0000,-0.2087 -0.1692,-0.3780 -0.3780 -0.3780c -0.2087,-0.0000 -0.3780,0.1692 -0.3780 0.3780c -0.0000,0.2087 0.1692,0.3780 0.3780 0.3780c 0.2087,0.0000 0.3780,-0.1692 0.3780 -0.3780Z"/></g><g stroke-linejoin="miter" stroke-opacity="1.0" fill-opacity="0.0" stroke="rgb(0,0,0)" stroke-width="1.4803904506132737" fill="rgb(0,0,0)" stroke-linecap="butt" stroke-miterlimit="10.0"><path d="M 211.4457,49.1339 l -0.0000,-49.1339 h -60.2646 l -0.0000,49.1339 Z"/></g><g stroke-linejoin="miter" stroke-opacity="1.0" fill-opacity="1.0" font-size="18.89763779527559px" stroke="rgb(0,0,0)" stroke-width="1.4803904506132737" fill="rgb(0,0,0)" stroke-linecap="butt" stroke-miterlimit="10.0"><text dominant-baseline="middle" transform="matrix(1.0000,-0.0000,0.0000,1.0000,181.3134,24.5669)" stroke="none" text-anchor="middle"></text></g><g stroke-linejoin="miter" stroke-opacity="1.0" fill-opacity="0.0" stroke="rgb(0,0,255)" stroke-width="1.4803904506132737" fill="rgb(0,0,0)" stroke-linecap="butt" stroke-miterlimit="10.0"><path d="M 165.5433,83.1496 c 0.0000,-1.6699 -1.3537,-3.0236 -3.0236 -3.0236c -1.6699,-0.0000 -3.0236,1.3537 -3.0236 3.0236c -0.0000,1.6699 1.3537,3.0236 3.0236 3.0236c 1.6699,0.0000 3.0236,-1.3537 3.0236 -3.0236Z"/></g><g stroke-linejoin="miter" stroke-opacity="1.0" fill-opacity="1.0" stroke="rgb(255,0,0)" stroke-width="1.4803904506132737" fill="rgb(255,0,0)" stroke-linecap="butt" stroke-miterlimit="10.0"><path d="M 162.8976,83.1496 c 0.0000,-0.2087 -0.1692,-0.3780 -0.3780 -0.3780c -0.2087,-0.0000 -0.3780,0.1692 -0.3780 0.3780c -0.0000,0.2087 0.1692,0.3780 0.3780 0.3780c 0.2087,0.0000 0.3780,-0.1692 0.3780 -0.3780Z"/></g><g stroke-linejoin="miter" stroke-opacity="1.0" fill-opacity="0.0" stroke="rgb(0,0,255)" stroke-width="1.4803904506132737" fill="rgb(0,0,0)" stroke-linecap="butt" stroke-miterlimit="10.0"><path d="M 184.3370,83.1496 c 0.0000,-1.6699 -1.3537,-3.0236 -3.0236 -3.0236c -1.6699,-0.0000 -3.0236,1.3537 -3.0236 3.0236c -0.0000,1.6699 1.3537,3.0236 3.0236 3.0236c 1.6699,0.0000 3.0236,-1.3537 3.0236 -3.0236Z"/></g><g stroke-linejoin="miter" stroke-opacity="1.0" fill-opacity="1.0" stroke="rgb(255,0,0)" stroke-width="1.4803904506132737" fill="rgb(255,0,0)" stroke-linecap="butt" stroke-miterlimit="10.0"><path d="M 181.6913,83.1496 c 0.0000,-0.2087 -0.1692,-0.3780 -0.3780 -0.3780c -0.2087,-0.0000 -0.3780,0.1692 -0.3780 0.3780c -0.0000,0.2087 0.1692,0.3780 0.3780 0.3780c 0.2087,0.0000 0.3780,-0.1692 0.3780 -0.3780Z"/></g><g stroke-linejoin="miter" stroke-opacity="1.0" fill-opacity="0.0" stroke="rgb(0,0,255)" stroke-width="1.4803904506132737" fill="rgb(0,0,0)" stroke-linecap="butt" stroke-miterlimit="10.0"><path d="M 203.1307,83.1496 c 0.0000,-1.6699 -1.3537,-3.0236 -3.0236 -3.0236c -1.6699,-0.0000 -3.0236,1.3537 -3.0236 3.0236c -0.0000,1.6699 1.3537,3.0236 3.0236 3.0236c 1.6699,0.0000 3.0236,-1.3537 3.0236 -3.0236Z"/></g><g stroke-linejoin="miter" stroke-opacity="1.0" fill-opacity="1.0" stroke="rgb(255,0,0)" stroke-width="1.4803904506132737" fill="rgb(255,0,0)" stroke-linecap="butt" stroke-miterlimit="10.0"><path d="M 200.4850,83.1496 c 0.0000,-0.2087 -0.1692,-0.3780 -0.3780 -0.3780c -0.2087,-0.0000 -0.3780,0.1692 -0.3780 0.3780c -0.0000,0.2087 0.1692,0.3780 0.3780 0.3780c 0.2087,0.0000 0.3780,-0.1692 0.3780 -0.3780Z"/></g><g stroke-linejoin="miter" stroke-opacity="1.0" fill-opacity="0.0" stroke="rgb(0,0,0)" stroke-width="1.4803904506132737" fill="rgb(0,0,0)" stroke-linecap="butt" stroke-miterlimit="10.0"><path d="M 211.4457,122.8346 l -0.0000,-49.1339 h -60.2646 l -0.0000,49.1339 Z"/></g><g stroke-linejoin="miter" stroke-opacity="1.0" fill-opacity="1.0" font-size="18.89763779527559px" stroke="rgb(0,0,0)" stroke-width="1.4803904506132737" fill="rgb(0,0,0)" stroke-linecap="butt" stroke-miterlimit="10.0"><text dominant-baseline="middle" transform="matrix(1.0000,-0.0000,0.0000,1.0000,181.3134,98.2677)" stroke="none" text-anchor="middle"></text></g><g stroke-linejoin="miter" stroke-opacity="1.0" fill-opacity="0.0" stroke="rgb(0,0,255)" stroke-width="1.4803904506132737" fill="rgb(0,0,0)" stroke-linecap="butt" stroke-miterlimit="10.0"><path d="M 165.5433,156.8504 c 0.0000,-1.6699 -1.3537,-3.0236 -3.0236 -3.0236c -1.6699,-0.0000 -3.0236,1.3537 -3.0236 3.0236c -0.0000,1.6699 1.3537,3.0236 3.0236 3.0236c 1.6699,0.0000 3.0236,-1.3537 3.0236 -3.0236Z"/></g><g stroke-linejoin="miter" stroke-opacity="1.0" fill-opacity="1.0" stroke="rgb(255,0,0)" stroke-width="1.4803904506132737" fill="rgb(255,0,0)" stroke-linecap="butt" stroke-miterlimit="10.0"><path d="M 162.8976,156.8504 c 0.0000,-0.2087 -0.1692,-0.3780 -0.3780 -0.3780c -0.2087,-0.0000 -0.3780,0.1692 -0.3780 0.3780c -0.0000,0.2087 0.1692,0.3780 0.3780 0.3780c 0.2087,0.0000 0.3780,-0.1692 0.3780 -0.3780Z"/></g><g stroke-linejoin="miter" stroke-opacity="1.0" fill-opacity="0.0" stroke="rgb(0,0,255)" stroke-width="1.4803904506132737" fill="rgb(0,0,0)" stroke-linecap="butt" stroke-miterlimit="10.0"><path d="M 184.3370,156.8504 c 0.0000,-1.6699 -1.3537,-3.0236 -3.0236 -3.0236c -1.6699,-0.0000 -3.0236,1.3537 -3.0236 3.0236c -0.0000,1.6699 1.3537,3.0236 3.0236 3.0236c 1.6699,0.0000 3.0236,-1.3537 3.0236 -3.0236Z"/></g><g stroke-linejoin="miter" stroke-opacity="1.0" fill-opacity="1.0" stroke="rgb(255,0,0)" stroke-width="1.4803904506132737" fill="rgb(255,0,0)" stroke-linecap="butt" stroke-miterlimit="10.0"><path d="M 181.6913,156.8504 c 0.0000,-0.2087 -0.1692,-0.3780 -0.3780 -0.3780c -0.2087,-0.0000 -0.3780,0.1692 -0.3780 0.3780c -0.0000,0.2087 0.1692,0.3780 0.3780 0.3780c 0.2087,0.0000 0.3780,-0.1692 0.3780 -0.3780Z"/></g><g stroke-linejoin="miter" stroke-opacity="1.0" fill-opacity="0.0" stroke="rgb(0,0,255)" stroke-width="1.4803904506132737" fill="rgb(0,0,0)" stroke-linecap="butt" stroke-miterlimit="10.0"><path d="M 203.1307,156.8504 c 0.0000,-1.6699 -1.3537,-3.0236 -3.0236 -3.0236c -1.6699,-0.0000 -3.0236,1.3537 -3.0236 3.0236c -0.0000,1.6699 1.3537,3.0236 3.0236 3.0236c 1.6699,0.0000 3.0236,-1.3537 3.0236 -3.0236Z"/></g><g stroke-linejoin="miter" stroke-opacity="1.0" fill-opacity="1.0" stroke="rgb(255,0,0)" stroke-width="1.4803904506132737" fill="rgb(255,0,0)" stroke-linecap="butt" stroke-miterlimit="10.0"><path d="M 200.4850,156.8504 c 0.0000,-0.2087 -0.1692,-0.3780 -0.3780 -0.3780c -0.2087,-0.0000 -0.3780,0.1692 -0.3780 0.3780c -0.0000,0.2087 0.1692,0.3780 0.3780 0.3780c 0.2087,0.0000 0.3780,-0.1692 0.3780 -0.3780Z"/></g><g stroke-linejoin="miter" stroke-opacity="1.0" fill-opacity="0.0" stroke="rgb(0,0,0)" stroke-width="1.4803904506132737" fill="rgb(0,0,0)" stroke-linecap="butt" stroke-miterlimit="10.0"><path d="M 211.4457,196.5354 l -0.0000,-49.1339 h -60.2646 l -0.0000,49.1339 Z"/></g><g stroke-linejoin="miter" stroke-opacity="1.0" fill-opacity="1.0" font-size="18.89763779527559px" stroke="rgb(0,0,0)" stroke-width="1.4803904506132737" fill="rgb(0,0,0)" stroke-linecap="butt" stroke-miterlimit="10.0"><text dominant-baseline="middle" transform="matrix(1.0000,-0.0000,0.0000,1.0000,181.3134,171.9685)" stroke="none" text-anchor="middle"></text></g><g stroke-linejoin="miter" stroke-opacity="1.0" fill-opacity="0.0" stroke="rgb(0,0,255)" stroke-width="1.4803904506132737" fill="rgb(0,0,0)" stroke-linecap="butt" stroke-miterlimit="10.0"><path d="M 165.5433,230.5512 c 0.0000,-1.6699 -1.3537,-3.0236 -3.0236 -3.0236c -1.6699,-0.0000 -3.0236,1.3537 -3.0236 3.0236c -0.0000,1.6699 1.3537,3.0236 3.0236 3.0236c 1.6699,0.0000 3.0236,-1.3537 3.0236 -3.0236Z"/></g><g stroke-linejoin="miter" stroke-opacity="1.0" fill-opacity="1.0" stroke="rgb(255,0,0)" stroke-width="1.4803904506132737" fill="rgb(255,0,0)" stroke-linecap="butt" stroke-miterlimit="10.0"><path d="M 162.8976,230.5512 c 0.0000,-0.2087 -0.1692,-0.3780 -0.3780 -0.3780c -0.2087,-0.0000 -0.3780,0.1692 -0.3780 0.3780c -0.0000,0.2087 0.1692,0.3780 0.3780 0.3780c 0.2087,0.0000 0.3780,-0.1692 0.3780 -0.3780Z"/></g><g stroke-linejoin="miter" stroke-opacity="1.0" fill-opacity="0.0" stroke="rgb(0,0,255)" stroke-width="1.4803904506132737" fill="rgb(0,0,0)" stroke-linecap="butt" stroke-miterlimit="10.0"><path d="M 184.3370,230.5512 c 0.0000,-1.6699 -1.3537,-3.0236 -3.0236 -3.0236c -1.6699,-0.0000 -3.0236,1.3537 -3.0236 3.0236c -0.0000,1.6699 1.3537,3.0236 3.0236 3.0236c 1.6699,0.0000 3.0236,-1.3537 3.0236 -3.0236Z"/></g><g stroke-linejoin="miter" stroke-opacity="1.0" fill-opacity="1.0" stroke="rgb(255,0,0)" stroke-width="1.4803904506132737" fill="rgb(255,0,0)" stroke-linecap="butt" stroke-miterlimit="10.0"><path d="M 181.6913,230.5512 c 0.0000,-0.2087 -0.1692,-0.3780 -0.3780 -0.3780c -0.2087,-0.0000 -0.3780,0.1692 -0.3780 0.3780c -0.0000,0.2087 0.1692,0.3780 0.3780 0.3780c 0.2087,0.0000 0.3780,-0.1692 0.3780 -0.3780Z"/></g><g stroke-linejoin="miter" stroke-opacity="1.0" fill-opacity="0.0" stroke="rgb(0,0,255)" stroke-width="1.4803904506132737" fill="rgb(0,0,0)" stroke-linecap="butt" stroke-miterlimit="10.0"><path d="M 203.1307,230.5512 c 0.0000,-1.6699 -1.3537,-3.0236 -3.0236 -3.0236c -1.6699,-0.0000 -3.0236,1.3537 -3.0236 3.0236c -0.0000,1.6699 1.3537,3.0236 3.0236 3.0236c 1.6699,0.0000 3.0236,-1.3537 3.0236 -3.0236Z"/></g><g stroke-linejoin="miter" stroke-opacity="1.0" fill-opacity="1.0" stroke="rgb(255,0,0)" stroke-width="1.4803904506132737" fill="rgb(255,0,0)" stroke-linecap="butt" stroke-miterlimit="10.0"><path d="M 200.4850,230.5512 c 0.0000,-0.2087 -0.1692,-0.3780 -0.3780 -0.3780c -0.2087,-0.0000 -0.3780,0.1692 -0.3780 0.3780c -0.0000,0.2087 0.1692,0.3780 0.3780 0.3780c 0.2087,0.0000 0.3780,-0.1692 0.3780 -0.3780Z"/></g><g stroke-linejoin="miter" stroke-opacity="1.0" fill-opacity="0.0" stroke="rgb(0,0,0)" stroke-width="1.4803904506132737" fill="rgb(0,0,0)" stroke-linecap="butt" stroke-miterlimit="10.0"><path d="M 211.4457,270.2362 l -0.0000,-49.1339 h -60.2646 l -0.0000,49.1339 Z"/></g><g stroke-linejoin="miter" stroke-opacity="1.0" fill-opacity="1.0" font-size="18.89763779527559px" stroke="rgb(0,0,0)" stroke-width="1.4803904506132737" fill="rgb(0,0,0)" stroke-linecap="butt" stroke-miterlimit="10.0"><text dominant-baseline="middle" transform="matrix(1.0000,-0.0000,0.0000,1.0000,181.3134,245.6693)" stroke="none" text-anchor="middle"></text></g><g stroke-linejoin="miter" stroke-opacity="1.0" fill-opacity="0.0" stroke="rgb(0,0,255)" stroke-width="1.4803904506132737" fill="rgb(0,0,0)" stroke-linecap="butt" stroke-miterlimit="10.0"><path d="M 89.9528,24.5669 c 0.0000,-1.6699 -1.3537,-3.0236 -3.0236 -3.0236c -1.6699,-0.0000 -3.0236,1.3537 -3.0236 3.0236c -0.0000,1.6699 1.3537,3.0236 3.0236 3.0236c 1.6699,0.0000 3.0236,-1.3537 3.0236 -3.0236Z"/></g><g stroke-linejoin="miter" stroke-opacity="1.0" fill-opacity="1.0" stroke="rgb(255,0,0)" stroke-width="1.4803904506132737" fill="rgb(255,0,0)" stroke-linecap="butt" stroke-miterlimit="10.0"><path d="M 87.3071,24.5669 c 0.0000,-0.2087 -0.1692,-0.3780 -0.3780 -0.3780c -0.2087,-0.0000 -0.3780,0.1692 -0.3780 0.3780c -0.0000,0.2087 0.1692,0.3780 0.3780 0.3780c 0.2087,0.0000 0.3780,-0.1692 0.3780 -0.3780Z"/></g><g stroke-linejoin="miter" stroke-opacity="1.0" fill-opacity="0.0" stroke="rgb(0,0,255)" stroke-width="1.4803904506132737" fill="rgb(0,0,0)" stroke-linecap="butt" stroke-miterlimit="10.0"><path d="M 108.7465,24.5669 c 0.0000,-1.6699 -1.3537,-3.0236 -3.0236 -3.0236c -1.6699,-0.0000 -3.0236,1.3537 -3.0236 3.0236c -0.0000,1.6699 1.3537,3.0236 3.0236 3.0236c 1.6699,0.0000 3.0236,-1.3537 3.0236 -3.0236Z"/></g><g stroke-linejoin="miter" stroke-opacity="1.0" fill-opacity="1.0" stroke="rgb(255,0,0)" stroke-width="1.4803904506132737" fill="rgb(255,0,0)" stroke-linecap="butt" stroke-miterlimit="10.0"><path d="M 106.1008,24.5669 c 0.0000,-0.2087 -0.1692,-0.3780 -0.3780 -0.3780c -0.2087,-0.0000 -0.3780,0.1692 -0.3780 0.3780c -0.0000,0.2087 0.1692,0.3780 0.3780 0.3780c 0.2087,0.0000 0.3780,-0.1692 0.3780 -0.3780Z"/></g><g stroke-linejoin="miter" stroke-opacity="1.0" fill-opacity="0.0" stroke="rgb(0,0,255)" stroke-width="1.4803904506132737" fill="rgb(0,0,0)" stroke-linecap="butt" stroke-miterlimit="10.0"><path d="M 127.5402,24.5669 c 0.0000,-1.6699 -1.3537,-3.0236 -3.0236 -3.0236c -1.6699,-0.0000 -3.0236,1.3537 -3.0236 3.0236c -0.0000,1.6699 1.3537,3.0236 3.0236 3.0236c 1.6699,0.0000 3.0236,-1.3537 3.0236 -3.0236Z"/></g><g stroke-linejoin="miter" stroke-opacity="1.0" fill-opacity="1.0" stroke="rgb(255,0,0)" stroke-width="1.4803904506132737" fill="rgb(255,0,0)" stroke-linecap="butt" stroke-miterlimit="10.0"><path d="M 124.8945,24.5669 c 0.0000,-0.2087 -0.1692,-0.3780 -0.3780 -0.3780c -0.2087,-0.0000 -0.3780,0.1692 -0.3780 0.3780c -0.0000,0.2087 0.1692,0.3780 0.3780 0.3780c 0.2087,0.0000 0.3780,-0.1692 0.3780 -0.3780Z"/></g><g stroke-linejoin="miter" stroke-opacity="1.0" fill-opacity="0.0" stroke="rgb(0,0,0)" stroke-width="1.4803904506132737" fill="rgb(0,0,0)" stroke-linecap="butt" stroke-miterlimit="10.0"><path d="M 135.8551,64.2520 l -0.0000,-49.1339 h -60.2646 l -0.0000,49.1339 Z"/></g><g stroke-linejoin="miter" stroke-opacity="1.0" fill-opacity="1.0" font-size="18.89763779527559px" stroke="rgb(0,0,0)" stroke-width="1.4803904506132737" fill="rgb(0,0,0)" stroke-linecap="butt" stroke-miterlimit="10.0"><text dominant-baseline="middle" transform="matrix(1.0000,-0.0000,0.0000,1.0000,105.7228,39.6850)" stroke="none" text-anchor="middle"></text></g><g stroke-linejoin="miter" stroke-opacity="1.0" fill-opacity="0.0" stroke="rgb(0,0,255)" stroke-width="1.4803904506132737" fill="rgb(0,0,0)" stroke-linecap="butt" stroke-miterlimit="10.0"><path d="M 89.9528,98.2677 c 0.0000,-1.6699 -1.3537,-3.0236 -3.0236 -3.0236c -1.6699,-0.0000 -3.0236,1.3537 -3.0236 3.0236c -0.0000,1.6699 1.3537,3.0236 3.0236 3.0236c 1.6699,0.0000 3.0236,-1.3537 3.0236 -3.0236Z"/></g><g stroke-linejoin="miter" stroke-opacity="1.0" fill-opacity="1.0" stroke="rgb(255,0,0)" stroke-width="1.4803904506132737" fill="rgb(255,0,0)" stroke-linecap="butt" stroke-miterlimit="10.0"><path d="M 87.3071,98.2677 c 0.0000,-0.2087 -0.1692,-0.3780 -0.3780 -0.3780c -0.2087,-0.0000 -0.3780,0.1692 -0.3780 0.3780c -0.0000,0.2087 0.1692,0.3780 0.3780 0.3780c 0.2087,0.0000 0.3780,-0.1692 0.3780 -0.3780Z"/></g><g stroke-linejoin="miter" stroke-opacity="1.0" fill-opacity="0.0" stroke="rgb(0,0,255)" stroke-width="1.4803904506132737" fill="rgb(0,0,0)" stroke-linecap="butt" stroke-miterlimit="10.0"><path d="M 108.7465,98.2677 c 0.0000,-1.6699 -1.3537,-3.0236 -3.0236 -3.0236c -1.6699,-0.0000 -3.0236,1.3537 -3.0236 3.0236c -0.0000,1.6699 1.3537,3.0236 3.0236 3.0236c 1.6699,0.0000 3.0236,-1.3537 3.0236 -3.0236Z"/></g><g stroke-linejoin="miter" stroke-opacity="1.0" fill-opacity="1.0" stroke="rgb(255,0,0)" stroke-width="1.4803904506132737" fill="rgb(255,0,0)" stroke-linecap="butt" stroke-miterlimit="10.0"><path d="M 106.1008,98.2677 c 0.0000,-0.2087 -0.1692,-0.3780 -0.3780 -0.3780c -0.2087,-0.0000 -0.3780,0.1692 -0.3780 0.3780c -0.0000,0.2087 0.1692,0.3780 0.3780 0.3780c 0.2087,0.0000 0.3780,-0.1692 0.3780 -0.3780Z"/></g><g stroke-linejoin="miter" stroke-opacity="1.0" fill-opacity="0.0" stroke="rgb(0,0,255)" stroke-width="1.4803904506132737" fill="rgb(0,0,0)" stroke-linecap="butt" stroke-miterlimit="10.0"><path d="M 127.5402,98.2677 c 0.0000,-1.6699 -1.3537,-3.0236 -3.0236 -3.0236c -1.6699,-0.0000 -3.0236,1.3537 -3.0236 3.0236c -0.0000,1.6699 1.3537,3.0236 3.0236 3.0236c 1.6699,0.0000 3.0236,-1.3537 3.0236 -3.0236Z"/></g><g stroke-linejoin="miter" stroke-opacity="1.0" fill-opacity="1.0" stroke="rgb(255,0,0)" stroke-width="1.4803904506132737" fill="rgb(255,0,0)" stroke-linecap="butt" stroke-miterlimit="10.0"><path d="M 124.8945,98.2677 c 0.0000,-0.2087 -0.1692,-0.3780 -0.3780 -0.3780c -0.2087,-0.0000 -0.3780,0.1692 -0.3780 0.3780c -0.0000,0.2087 0.1692,0.3780 0.3780 0.3780c 0.2087,0.0000 0.3780,-0.1692 0.3780 -0.3780Z"/></g><g stroke-linejoin="miter" stroke-opacity="1.0" fill-opacity="0.0" stroke="rgb(0,0,0)" stroke-width="1.4803904506132737" fill="rgb(0,0,0)" stroke-linecap="butt" stroke-miterlimit="10.0"><path d="M 135.8551,137.9528 l -0.0000,-49.1339 h -60.2646 l -0.0000,49.1339 Z"/></g><g stroke-linejoin="miter" stroke-opacity="1.0" fill-opacity="1.0" font-size="18.89763779527559px" stroke="rgb(0,0,0)" stroke-width="1.4803904506132737" fill="rgb(0,0,0)" stroke-linecap="butt" stroke-miterlimit="10.0"><text dominant-baseline="middle" transform="matrix(1.0000,-0.0000,0.0000,1.0000,105.7228,113.3858)" stroke="none" text-anchor="middle"></text></g><g stroke-linejoin="miter" stroke-opacity="1.0" fill-opacity="0.0" stroke="rgb(0,0,255)" stroke-width="1.4803904506132737" fill="rgb(0,0,0)" stroke-linecap="butt" stroke-miterlimit="10.0"><path d="M 89.9528,171.9685 c 0.0000,-1.6699 -1.3537,-3.0236 -3.0236 -3.0236c -1.6699,-0.0000 -3.0236,1.3537 -3.0236 3.0236c -0.0000,1.6699 1.3537,3.0236 3.0236 3.0236c 1.6699,0.0000 3.0236,-1.3537 3.0236 -3.0236Z"/></g><g stroke-linejoin="miter" stroke-opacity="1.0" fill-opacity="1.0" stroke="rgb(255,0,0)" stroke-width="1.4803904506132737" fill="rgb(255,0,0)" stroke-linecap="butt" stroke-miterlimit="10.0"><path d="M 87.3071,171.9685 c 0.0000,-0.2087 -0.1692,-0.3780 -0.3780 -0.3780c -0.2087,-0.0000 -0.3780,0.1692 -0.3780 0.3780c -0.0000,0.2087 0.1692,0.3780 0.3780 0.3780c 0.2087,0.0000 0.3780,-0.1692 0.3780 -0.3780Z"/></g><g stroke-linejoin="miter" stroke-opacity="1.0" fill-opacity="0.0" stroke="rgb(0,0,255)" stroke-width="1.4803904506132737" fill="rgb(0,0,0)" stroke-linecap="butt" stroke-miterlimit="10.0"><path d="M 108.7465,171.9685 c 0.0000,-1.6699 -1.3537,-3.0236 -3.0236 -3.0236c -1.6699,-0.0000 -3.0236,1.3537 -3.0236 3.0236c -0.0000,1.6699 1.3537,3.0236 3.0236 3.0236c 1.6699,0.0000 3.0236,-1.3537 3.0236 -3.0236Z"/></g><g stroke-linejoin="miter" stroke-opacity="1.0" fill-opacity="1.0" stroke="rgb(255,0,0)" stroke-width="1.4803904506132737" fill="rgb(255,0,0)" stroke-linecap="butt" stroke-miterlimit="10.0"><path d="M 106.1008,171.9685 c 0.0000,-0.2087 -0.1692,-0.3780 -0.3780 -0.3780c -0.2087,-0.0000 -0.3780,0.1692 -0.3780 0.3780c -0.0000,0.2087 0.1692,0.3780 0.3780 0.3780c 0.2087,0.0000 0.3780,-0.1692 0.3780 -0.3780Z"/></g><g stroke-linejoin="miter" stroke-opacity="1.0" fill-opacity="0.0" stroke="rgb(0,0,255)" stroke-width="1.4803904506132737" fill="rgb(0,0,0)" stroke-linecap="butt" stroke-miterlimit="10.0"><path d="M 127.5402,171.9685 c 0.0000,-1.6699 -1.3537,-3.0236 -3.0236 -3.0236c -1.6699,-0.0000 -3.0236,1.3537 -3.0236 3.0236c -0.0000,1.6699 1.3537,3.0236 3.0236 3.0236c 1.6699,0.0000 3.0236,-1.3537 3.0236 -3.0236Z"/></g><g stroke-linejoin="miter" stroke-opacity="1.0" fill-opacity="1.0" stroke="rgb(255,0,0)" stroke-width="1.4803904506132737" fill="rgb(255,0,0)" stroke-linecap="butt" stroke-miterlimit="10.0"><path d="M 124.8945,171.9685 c 0.0000,-0.2087 -0.1692,-0.3780 -0.3780 -0.3780c -0.2087,-0.0000 -0.3780,0.1692 -0.3780 0.3780c -0.0000,0.2087 0.1692,0.3780 0.3780 0.3780c 0.2087,0.0000 0.3780,-0.1692 0.3780 -0.3780Z"/></g><g stroke-linejoin="miter" stroke-opacity="1.0" fill-opacity="0.0" stroke="rgb(0,0,0)" stroke-width="1.4803904506132737" fill="rgb(0,0,0)" stroke-linecap="butt" stroke-miterlimit="10.0"><path d="M 135.8551,211.6535 l -0.0000,-49.1339 h -60.2646 l -0.0000,49.1339 Z"/></g><g stroke-linejoin="miter" stroke-opacity="1.0" fill-opacity="1.0" font-size="18.89763779527559px" stroke="rgb(0,0,0)" stroke-width="1.4803904506132737" fill="rgb(0,0,0)" stroke-linecap="butt" stroke-miterlimit="10.0"><text dominant-baseline="middle" transform="matrix(1.0000,-0.0000,0.0000,1.0000,105.7228,187.0866)" stroke="none" text-anchor="middle"></text></g><g stroke-linejoin="miter" stroke-opacity="1.0" fill-opacity="0.0" stroke="rgb(0,0,255)" stroke-width="1.4803904506132737" fill="rgb(0,0,0)" stroke-linecap="butt" stroke-miterlimit="10.0"><path d="M 89.9528,245.6693 c 0.0000,-1.6699 -1.3537,-3.0236 -3.0236 -3.0236c -1.6699,-0.0000 -3.0236,1.3537 -3.0236 3.0236c -0.0000,1.6699 1.3537,3.0236 3.0236 3.0236c 1.6699,0.0000 3.0236,-1.3537 3.0236 -3.0236Z"/></g><g stroke-linejoin="miter" stroke-opacity="1.0" fill-opacity="1.0" stroke="rgb(255,0,0)" stroke-width="1.4803904506132737" fill="rgb(255,0,0)" stroke-linecap="butt" stroke-miterlimit="10.0"><path d="M 87.3071,245.6693 c 0.0000,-0.2087 -0.1692,-0.3780 -0.3780 -0.3780c -0.2087,-0.0000 -0.3780,0.1692 -0.3780 0.3780c -0.0000,0.2087 0.1692,0.3780 0.3780 0.3780c 0.2087,0.0000 0.3780,-0.1692 0.3780 -0.3780Z"/></g><g stroke-linejoin="miter" stroke-opacity="1.0" fill-opacity="0.0" stroke="rgb(0,0,255)" stroke-width="1.4803904506132737" fill="rgb(0,0,0)" stroke-linecap="butt" stroke-miterlimit="10.0"><path d="M 108.7465,245.6693 c 0.0000,-1.6699 -1.3537,-3.0236 -3.0236 -3.0236c -1.6699,-0.0000 -3.0236,1.3537 -3.0236 3.0236c -0.0000,1.6699 1.3537,3.0236 3.0236 3.0236c 1.6699,0.0000 3.0236,-1.3537 3.0236 -3.0236Z"/></g><g stroke-linejoin="miter" stroke-opacity="1.0" fill-opacity="1.0" stroke="rgb(255,0,0)" stroke-width="1.4803904506132737" fill="rgb(255,0,0)" stroke-linecap="butt" stroke-miterlimit="10.0"><path d="M 106.1008,245.6693 c 0.0000,-0.2087 -0.1692,-0.3780 -0.3780 -0.3780c -0.2087,-0.0000 -0.3780,0.1692 -0.3780 0.3780c -0.0000,0.2087 0.1692,0.3780 0.3780 0.3780c 0.2087,0.0000 0.3780,-0.1692 0.3780 -0.3780Z"/></g><g stroke-linejoin="miter" stroke-opacity="1.0" fill-opacity="0.0" stroke="rgb(0,0,255)" stroke-width="1.4803904506132737" fill="rgb(0,0,0)" stroke-linecap="butt" stroke-miterlimit="10.0"><path d="M 127.5402,245.6693 c 0.0000,-1.6699 -1.3537,-3.0236 -3.0236 -3.0236c -1.6699,-0.0000 -3.0236,1.3537 -3.0236 3.0236c -0.0000,1.6699 1.3537,3.0236 3.0236 3.0236c 1.6699,0.0000 3.0236,-1.3537 3.0236 -3.0236Z"/></g><g stroke-linejoin="miter" stroke-opacity="1.0" fill-opacity="1.0" stroke="rgb(255,0,0)" stroke-width="1.4803904506132737" fill="rgb(255,0,0)" stroke-linecap="butt" stroke-miterlimit="10.0"><path d="M 124.8945,245.6693 c 0.0000,-0.2087 -0.1692,-0.3780 -0.3780 -0.3780c -0.2087,-0.0000 -0.3780,0.1692 -0.3780 0.3780c -0.0000,0.2087 0.1692,0.3780 0.3780 0.3780c 0.2087,0.0000 0.3780,-0.1692 0.3780 -0.3780Z"/></g><g stroke-linejoin="miter" stroke-opacity="1.0" fill-opacity="0.0" stroke="rgb(0,0,0)" stroke-width="1.4803904506132737" fill="rgb(0,0,0)" stroke-linecap="butt" stroke-miterlimit="10.0"><path d="M 135.8551,285.3543 l -0.0000,-49.1339 h -60.2646 l -0.0000,49.1339 Z"/></g><g stroke-linejoin="miter" stroke-opacity="1.0" fill-opacity="1.0" font-size="18.89763779527559px" stroke="rgb(0,0,0)" stroke-width="1.4803904506132737" fill="rgb(0,0,0)" stroke-linecap="butt" stroke-miterlimit="10.0"><text dominant-baseline="middle" transform="matrix(1.0000,-0.0000,0.0000,1.0000,105.7228,260.7874)" stroke="none" text-anchor="middle"></text></g><g stroke-linejoin="miter" stroke-opacity="1.0" fill-opacity="0.0" stroke="rgb(0,0,255)" stroke-width="1.4803904506132737" fill="rgb(0,0,0)" stroke-linecap="butt" stroke-miterlimit="10.0"><path d="M 14.3622,39.6850 c 0.0000,-1.6699 -1.3537,-3.0236 -3.0236 -3.0236c -1.6699,-0.0000 -3.0236,1.3537 -3.0236 3.0236c -0.0000,1.6699 1.3537,3.0236 3.0236 3.0236c 1.6699,0.0000 3.0236,-1.3537 3.0236 -3.0236Z"/></g><g stroke-linejoin="miter" stroke-opacity="1.0" fill-opacity="1.0" stroke="rgb(255,0,0)" stroke-width="1.4803904506132737" fill="rgb(255,0,0)" stroke-linecap="butt" stroke-miterlimit="10.0"><path d="M 11.7165,39.6850 c 0.0000,-0.2087 -0.1692,-0.3780 -0.3780 -0.3780c -0.2087,-0.0000 -0.3780,0.1692 -0.3780 0.3780c -0.0000,0.2087 0.1692,0.3780 0.3780 0.3780c 0.2087,0.0000 0.3780,-0.1692 0.3780 -0.3780Z"/></g><g stroke-linejoin="miter" stroke-opacity="1.0" fill-opacity="0.0" stroke="rgb(0,0,255)" stroke-width="1.4803904506132737" fill="rgb(0,0,0)" stroke-linecap="butt" stroke-miterlimit="10.0"><path d="M 33.1559,39.6850 c 0.0000,-1.6699 -1.3537,-3.0236 -3.0236 -3.0236c -1.6699,-0.0000 -3.0236,1.3537 -3.0236 3.0236c -0.0000,1.6699 1.3537,3.0236 3.0236 3.0236c 1.6699,0.0000 3.0236,-1.3537 3.0236 -3.0236Z"/></g><g stroke-linejoin="miter" stroke-opacity="1.0" fill-opacity="1.0" stroke="rgb(255,0,0)" stroke-width="1.4803904506132737" fill="rgb(255,0,0)" stroke-linecap="butt" stroke-miterlimit="10.0"><path d="M 30.5102,39.6850 c 0.0000,-0.2087 -0.1692,-0.3780 -0.3780 -0.3780c -0.2087,-0.0000 -0.3780,0.1692 -0.3780 0.3780c -0.0000,0.2087 0.1692,0.3780 0.3780 0.3780c 0.2087,0.0000 0.3780,-0.1692 0.3780 -0.3780Z"/></g><g stroke-linejoin="miter" stroke-opacity="1.0" fill-opacity="0.0" stroke="rgb(0,0,255)" stroke-width="1.4803904506132737" fill="rgb(0,0,0)" stroke-linecap="butt" stroke-miterlimit="10.0"><path d="M 51.9496,39.6850 c 0.0000,-1.6699 -1.3537,-3.0236 -3.0236 -3.0236c -1.6699,-0.0000 -3.0236,1.3537 -3.0236 3.0236c -0.0000,1.6699 1.3537,3.0236 3.0236 3.0236c 1.6699,0.0000 3.0236,-1.3537 3.0236 -3.0236Z"/></g><g stroke-linejoin="miter" stroke-opacity="1.0" fill-opacity="1.0" stroke="rgb(255,0,0)" stroke-width="1.4803904506132737" fill="rgb(255,0,0)" stroke-linecap="butt" stroke-miterlimit="10.0"><path d="M 49.3039,39.6850 c 0.0000,-0.2087 -0.1692,-0.3780 -0.3780 -0.3780c -0.2087,-0.0000 -0.3780,0.1692 -0.3780 0.3780c -0.0000,0.2087 0.1692,0.3780 0.3780 0.3780c 0.2087,0.0000 0.3780,-0.1692 0.3780 -0.3780Z"/></g><g stroke-linejoin="miter" stroke-opacity="1.0" fill-opacity="0.0" stroke="rgb(0,0,0)" stroke-width="1.4803904506132737" fill="rgb(0,0,0)" stroke-linecap="butt" stroke-miterlimit="10.0"><path d="M 60.2646,79.3701 l -0.0000,-49.1339 h -60.2646 l -0.0000,49.1339 Z"/></g><g stroke-linejoin="miter" stroke-opacity="1.0" fill-opacity="1.0" font-size="18.89763779527559px" stroke="rgb(0,0,0)" stroke-width="1.4803904506132737" fill="rgb(0,0,0)" stroke-linecap="butt" stroke-miterlimit="10.0"><text dominant-baseline="middle" transform="matrix(1.0000,-0.0000,0.0000,1.0000,30.1323,54.8031)" stroke="none" text-anchor="middle"></text></g><g stroke-linejoin="miter" stroke-opacity="1.0" fill-opacity="0.0" stroke="rgb(0,0,255)" stroke-width="1.4803904506132737" fill="rgb(0,0,0)" stroke-linecap="butt" stroke-miterlimit="10.0"><path d="M 14.3622,113.3858 c 0.0000,-1.6699 -1.3537,-3.0236 -3.0236 -3.0236c -1.6699,-0.0000 -3.0236,1.3537 -3.0236 3.0236c -0.0000,1.6699 1.3537,3.0236 3.0236 3.0236c 1.6699,0.0000 3.0236,-1.3537 3.0236 -3.0236Z"/></g><g stroke-linejoin="miter" stroke-opacity="1.0" fill-opacity="1.0" stroke="rgb(255,0,0)" stroke-width="1.4803904506132737" fill="rgb(255,0,0)" stroke-linecap="butt" stroke-miterlimit="10.0"><path d="M 11.7165,113.3858 c 0.0000,-0.2087 -0.1692,-0.3780 -0.3780 -0.3780c -0.2087,-0.0000 -0.3780,0.1692 -0.3780 0.3780c -0.0000,0.2087 0.1692,0.3780 0.3780 0.3780c 0.2087,0.0000 0.3780,-0.1692 0.3780 -0.3780Z"/></g><g stroke-linejoin="miter" stroke-opacity="1.0" fill-opacity="0.0" stroke="rgb(0,0,255)" stroke-width="1.4803904506132737" fill="rgb(0,0,0)" stroke-linecap="butt" stroke-miterlimit="10.0"><path d="M 33.1559,113.3858 c 0.0000,-1.6699 -1.3537,-3.0236 -3.0236 -3.0236c -1.6699,-0.0000 -3.0236,1.3537 -3.0236 3.0236c -0.0000,1.6699 1.3537,3.0236 3.0236 3.0236c 1.6699,0.0000 3.0236,-1.3537 3.0236 -3.0236Z"/></g><g stroke-linejoin="miter" stroke-opacity="1.0" fill-opacity="1.0" stroke="rgb(255,0,0)" stroke-width="1.4803904506132737" fill="rgb(255,0,0)" stroke-linecap="butt" stroke-miterlimit="10.0"><path d="M 30.5102,113.3858 c 0.0000,-0.2087 -0.1692,-0.3780 -0.3780 -0.3780c -0.2087,-0.0000 -0.3780,0.1692 -0.3780 0.3780c -0.0000,0.2087 0.1692,0.3780 0.3780 0.3780c 0.2087,0.0000 0.3780,-0.1692 0.3780 -0.3780Z"/></g><g stroke-linejoin="miter" stroke-opacity="1.0" fill-opacity="0.0" stroke="rgb(0,0,255)" stroke-width="1.4803904506132737" fill="rgb(0,0,0)" stroke-linecap="butt" stroke-miterlimit="10.0"><path d="M 51.9496,113.3858 c 0.0000,-1.6699 -1.3537,-3.0236 -3.0236 -3.0236c -1.6699,-0.0000 -3.0236,1.3537 -3.0236 3.0236c -0.0000,1.6699 1.3537,3.0236 3.0236 3.0236c 1.6699,0.0000 3.0236,-1.3537 3.0236 -3.0236Z"/></g><g stroke-linejoin="miter" stroke-opacity="1.0" fill-opacity="1.0" stroke="rgb(255,0,0)" stroke-width="1.4803904506132737" fill="rgb(255,0,0)" stroke-linecap="butt" stroke-miterlimit="10.0"><path d="M 49.3039,113.3858 c 0.0000,-0.2087 -0.1692,-0.3780 -0.3780 -0.3780c -0.2087,-0.0000 -0.3780,0.1692 -0.3780 0.3780c -0.0000,0.2087 0.1692,0.3780 0.3780 0.3780c 0.2087,0.0000 0.3780,-0.1692 0.3780 -0.3780Z"/></g><g stroke-linejoin="miter" stroke-opacity="1.0" fill-opacity="0.0" stroke="rgb(0,0,0)" stroke-width="1.4803904506132737" fill="rgb(0,0,0)" stroke-linecap="butt" stroke-miterlimit="10.0"><path d="M 60.2646,153.0709 l -0.0000,-49.1339 h -60.2646 l -0.0000,49.1339 Z"/></g><g stroke-linejoin="miter" stroke-opacity="1.0" fill-opacity="1.0" font-size="18.89763779527559px" stroke="rgb(0,0,0)" stroke-width="1.4803904506132737" fill="rgb(0,0,0)" stroke-linecap="butt" stroke-miterlimit="10.0"><text dominant-baseline="middle" transform="matrix(1.0000,-0.0000,0.0000,1.0000,30.1323,128.5039)" stroke="none" text-anchor="middle"></text></g><g stroke-linejoin="miter" stroke-opacity="1.0" fill-opacity="0.0" stroke="rgb(0,0,255)" stroke-width="1.4803904506132737" fill="rgb(0,0,0)" stroke-linecap="butt" stroke-miterlimit="10.0"><path d="M 14.3622,187.0866 c 0.0000,-1.6699 -1.3537,-3.0236 -3.0236 -3.0236c -1.6699,-0.0000 -3.0236,1.3537 -3.0236 3.0236c -0.0000,1.6699 1.3537,3.0236 3.0236 3.0236c 1.6699,0.0000 3.0236,-1.3537 3.0236 -3.0236Z"/></g><g stroke-linejoin="miter" stroke-opacity="1.0" fill-opacity="1.0" stroke="rgb(255,0,0)" stroke-width="1.4803904506132737" fill="rgb(255,0,0)" stroke-linecap="butt" stroke-miterlimit="10.0"><path d="M 11.7165,187.0866 c 0.0000,-0.2087 -0.1692,-0.3780 -0.3780 -0.3780c -0.2087,-0.0000 -0.3780,0.1692 -0.3780 0.3780c -0.0000,0.2087 0.1692,0.3780 0.3780 0.3780c 0.2087,0.0000 0.3780,-0.1692 0.3780 -0.3780Z"/></g><g stroke-linejoin="miter" stroke-opacity="1.0" fill-opacity="0.0" stroke="rgb(0,0,255)" stroke-width="1.4803904506132737" fill="rgb(0,0,0)" stroke-linecap="butt" stroke-miterlimit="10.0"><path d="M 33.1559,187.0866 c 0.0000,-1.6699 -1.3537,-3.0236 -3.0236 -3.0236c -1.6699,-0.0000 -3.0236,1.3537 -3.0236 3.0236c -0.0000,1.6699 1.3537,3.0236 3.0236 3.0236c 1.6699,0.0000 3.0236,-1.3537 3.0236 -3.0236Z"/></g><g stroke-linejoin="miter" stroke-opacity="1.0" fill-opacity="1.0" stroke="rgb(255,0,0)" stroke-width="1.4803904506132737" fill="rgb(255,0,0)" stroke-linecap="butt" stroke-miterlimit="10.0"><path d="M 30.5102,187.0866 c 0.0000,-0.2087 -0.1692,-0.3780 -0.3780 -0.3780c -0.2087,-0.0000 -0.3780,0.1692 -0.3780 0.3780c -0.0000,0.2087 0.1692,0.3780 0.3780 0.3780c 0.2087,0.0000 0.3780,-0.1692 0.3780 -0.3780Z"/></g><g stroke-linejoin="miter" stroke-opacity="1.0" fill-opacity="0.0" stroke="rgb(0,0,255)" stroke-width="1.4803904506132737" fill="rgb(0,0,0)" stroke-linecap="butt" stroke-miterlimit="10.0"><path d="M 51.9496,187.0866 c 0.0000,-1.6699 -1.3537,-3.0236 -3.0236 -3.0236c -1.6699,-0.0000 -3.0236,1.3537 -3.0236 3.0236c -0.0000,1.6699 1.3537,3.0236 3.0236 3.0236c 1.6699,0.0000 3.0236,-1.3537 3.0236 -3.0236Z"/></g><g stroke-linejoin="miter" stroke-opacity="1.0" fill-opacity="1.0" stroke="rgb(255,0,0)" stroke-width="1.4803904506132737" fill="rgb(255,0,0)" stroke-linecap="butt" stroke-miterlimit="10.0"><path d="M 49.3039,187.0866 c 0.0000,-0.2087 -0.1692,-0.3780 -0.3780 -0.3780c -0.2087,-0.0000 -0.3780,0.1692 -0.3780 0.3780c -0.0000,0.2087 0.1692,0.3780 0.3780 0.3780c 0.2087,0.0000 0.3780,-0.1692 0.3780 -0.3780Z"/></g><g stroke-linejoin="miter" stroke-opacity="1.0" fill-opacity="0.0" stroke="rgb(0,0,0)" stroke-width="1.4803904506132737" fill="rgb(0,0,0)" stroke-linecap="butt" stroke-miterlimit="10.0"><path d="M 60.2646,226.7717 l -0.0000,-49.1339 h -60.2646 l -0.0000,49.1339 Z"/></g><g stroke-linejoin="miter" stroke-opacity="1.0" fill-opacity="1.0" font-size="18.89763779527559px" stroke="rgb(0,0,0)" stroke-width="1.4803904506132737" fill="rgb(0,0,0)" stroke-linecap="butt" stroke-miterlimit="10.0"><text dominant-baseline="middle" transform="matrix(1.0000,-0.0000,0.0000,1.0000,30.1323,202.2047)" stroke="none" text-anchor="middle"></text></g><g stroke-linejoin="miter" stroke-opacity="1.0" fill-opacity="0.0" stroke="rgb(0,0,255)" stroke-width="1.4803904506132737" fill="rgb(0,0,0)" stroke-linecap="butt" stroke-miterlimit="10.0"><path d="M 14.3622,260.7874 c 0.0000,-1.6699 -1.3537,-3.0236 -3.0236 -3.0236c -1.6699,-0.0000 -3.0236,1.3537 -3.0236 3.0236c -0.0000,1.6699 1.3537,3.0236 3.0236 3.0236c 1.6699,0.0000 3.0236,-1.3537 3.0236 -3.0236Z"/></g><g stroke-linejoin="miter" stroke-opacity="1.0" fill-opacity="1.0" stroke="rgb(255,0,0)" stroke-width="1.4803904506132737" fill="rgb(255,0,0)" stroke-linecap="butt" stroke-miterlimit="10.0"><path d="M 11.7165,260.7874 c 0.0000,-0.2087 -0.1692,-0.3780 -0.3780 -0.3780c -0.2087,-0.0000 -0.3780,0.1692 -0.3780 0.3780c -0.0000,0.2087 0.1692,0.3780 0.3780 0.3780c 0.2087,0.0000 0.3780,-0.1692 0.3780 -0.3780Z"/></g><g stroke-linejoin="miter" stroke-opacity="1.0" fill-opacity="0.0" stroke="rgb(0,0,255)" stroke-width="1.4803904506132737" fill="rgb(0,0,0)" stroke-linecap="butt" stroke-miterlimit="10.0"><path d="M 33.1559,260.7874 c 0.0000,-1.6699 -1.3537,-3.0236 -3.0236 -3.0236c -1.6699,-0.0000 -3.0236,1.3537 -3.0236 3.0236c -0.0000,1.6699 1.3537,3.0236 3.0236 3.0236c 1.6699,0.0000 3.0236,-1.3537 3.0236 -3.0236Z"/></g><g stroke-linejoin="miter" stroke-opacity="1.0" fill-opacity="1.0" stroke="rgb(255,0,0)" stroke-width="1.4803904506132737" fill="rgb(255,0,0)" stroke-linecap="butt" stroke-miterlimit="10.0"><path d="M 30.5102,260.7874 c 0.0000,-0.2087 -0.1692,-0.3780 -0.3780 -0.3780c -0.2087,-0.0000 -0.3780,0.1692 -0.3780 0.3780c -0.0000,0.2087 0.1692,0.3780 0.3780 0.3780c 0.2087,0.0000 0.3780,-0.1692 0.3780 -0.3780Z"/></g><g stroke-linejoin="miter" stroke-opacity="1.0" fill-opacity="0.0" stroke="rgb(0,0,255)" stroke-width="1.4803904506132737" fill="rgb(0,0,0)" stroke-linecap="butt" stroke-miterlimit="10.0"><path d="M 51.9496,260.7874 c 0.0000,-1.6699 -1.3537,-3.0236 -3.0236 -3.0236c -1.6699,-0.0000 -3.0236,1.3537 -3.0236 3.0236c -0.0000,1.6699 1.3537,3.0236 3.0236 3.0236c 1.6699,0.0000 3.0236,-1.3537 3.0236 -3.0236Z"/></g><g stroke-linejoin="miter" stroke-opacity="1.0" fill-opacity="1.0" stroke="rgb(255,0,0)" stroke-width="1.4803904506132737" fill="rgb(255,0,0)" stroke-linecap="butt" stroke-miterlimit="10.0"><path d="M 49.3039,260.7874 c 0.0000,-0.2087 -0.1692,-0.3780 -0.3780 -0.3780c -0.2087,-0.0000 -0.3780,0.1692 -0.3780 0.3780c -0.0000,0.2087 0.1692,0.3780 0.3780 0.3780c 0.2087,0.0000 0.3780,-0.1692 0.3780 -0.3780Z"/></g><g stroke-linejoin="miter" stroke-opacity="1.0" fill-opacity="0.0" stroke="rgb(0,0,0)" stroke-width="1.4803904506132737" fill="rgb(0,0,0)" stroke-linecap="butt" stroke-miterlimit="10.0"><path d="M 60.2646,300.4724 l -0.0000,-49.1339 h -60.2646 l -0.0000,49.1339 Z"/></g><g stroke-linejoin="miter" stroke-opacity="1.0" fill-opacity="1.0" font-size="18.89763779527559px" stroke="rgb(0,0,0)" stroke-width="1.4803904506132737" fill="rgb(0,0,0)" stroke-linecap="butt" stroke-miterlimit="10.0"><text dominant-baseline="middle" transform="matrix(1.0000,-0.0000,0.0000,1.0000,30.1323,275.9055)" stroke="none" text-anchor="middle"></text></g></svg>