<?xml version="1.0" encoding="UTF-8"?>
<!DOCTYPE svg PUBLIC "-//W3C//DTD SVG 1.1//EN"
    "http://www.w3.org/Graphics/SVG/1.1/DTD/svg11.dtd"><svg xmlns="http://www.w3.org/2000/svg" height="351.4961" stroke-opacity="1" viewBox="0.0 0.0 982.6771653543306 351.496062992126" font-size="1" width="982.6772" xmlns:xlink="http://www.w3.org/1999/xlink" stroke="rgb(0,0,0)" version="1.1"><defs></defs><g stroke-linejoin="miter" stroke-opacity="1.0" fill-opacity="0.0" stroke="rgb(0,128,0)" stroke-width="2.350853988879138" fill="rgb(0,0,0)" stroke-linecap="butt" stroke-miterlimit="10.0"><path d="M 827.7165,15.1181 c 0.0000,-3.1311 -2.5382,-5.6693 -5.6693 -5.6693c -3.1311,-0.0000 -5.6693,2.5382 -5.6693 5.6693c -0.0000,3.1311 2.5382,5.6693 5.6693 5.6693c 3.1311,0.0000 5.6693,-2.5382 5.6693 -5.6693Z"/></g><g stroke-linejoin="miter" stroke-opacity="1.0" fill-opacity="1.0" stroke="rgb(0,128,0)" stroke-width="0.0" fill="rgb(255,0,0)" stroke-linecap="butt" stroke-miterlimit="10.0"><path d="M 822.2740,15.1181 c 0.0000,-0.1252 -0.1015,-0.2268 -0.2268 -0.2268c -0.1252,-0.0000 -0.2268,0.1015 -0.2268 0.2268c -0.0000,0.1252 0.1015,0.2268 0.2268 0.2268c 0.1252,0.0000 0.2268,-0.1015 0.2268 -0.2268Z"/></g><g stroke-linejoin="miter" stroke-opacity="1.0" fill-opacity="0.0" stroke="rgb(0,128,0)" stroke-width="2.350853988879138" fill="rgb(0,0,0)" stroke-linecap="butt" stroke-miterlimit="10.0"><path d="M 747.4016,336.3780 c 0.0000,-3.1311 -2.5382,-5.6693 -5.6693 -5.6693c -3.1311,-0.0000 -5.6693,2.5382 -5.6693 5.6693c -0.0000,3.1311 2.5382,5.6693 5.6693 5.6693c 3.1311,0.0000 5.6693,-2.5382 5.6693 -5.6693Z"/></g><g stroke-linejoin="miter" stroke-opacity="1.0" fill-opacity="1.0" stroke="rgb(0,128,0)" stroke-width="0.0" fill="rgb(255,0,0)" stroke-linecap="butt" stroke-miterlimit="10.0"><path d="M 741.9591,336.3780 c 0.0000,-0.1252 -0.1015,-0.2268 -0.2268 -0.2268c -0.1252,-0.0000 -0.2268,0.1015 -0.2268 0.2268c -0.0000,0.1252 0.1015,0.2268 0.2268 0.2268c 0.1252,0.0000 0.2268,-0.1015 0.2268 -0.2268Z"/></g><g stroke-linejoin="miter" stroke-opacity="1.0" fill-opacity="0.0" stroke="rgb(0,128,0)" stroke-width="2.350853988879138" fill="rgb(0,0,0)" stroke-linecap="butt" stroke-miterlimit="10.0"><path d="M 521.5748,15.1181 c 0.0000,-3.1311 -2.5382,-5.6693 -5.6693 -5.6693c -3.1311,-0.0000 -5.6693,2.5382 -5.6693 5.6693c -0.0000,3.1311 2.5382,5.6693 5.6693 5.6693c 3.1311,0.0000 5.6693,-2.5382 5.6693 -5.6693Z"/></g><g stroke-linejoin="miter" stroke-opacity="1.0" fill-opacity="1.0" stroke="rgb(0,128,0)" stroke-width="0.0" fill="rgb(255,0,0)" stroke-linecap="butt" stroke-miterlimit="10.0"><path d="M 516.1323,15.1181 c 0.0000,-0.1252 -0.1015,-0.2268 -0.2268 -0.2268c -0.1252,-0.0000 -0.2268,0.1015 -0.2268 0.2268c -0.0000,0.1252 0.1015,0.2268 0.2268 0.2268c 0.1252,0.0000 0.2268,-0.1015 0.2268 -0.2268Z"/></g><g stroke-linejoin="miter" stroke-opacity="1.0" fill-opacity="0.0" stroke="rgb(0,128,0)" stroke-width="2.350853988879138" fill="rgb(0,0,0)" stroke-linecap="butt" stroke-miterlimit="10.0"><path d="M 973.2283,336.3780 c 0.0000,-3.1311 -2.5382,-5.6693 -5.6693 -5.6693c -3.1311,-0.0000 -5.6693,2.5382 -5.6693 5.6693c -0.0000,3.1311 2.5382,5.6693 5.6693 5.6693c 3.1311,0.0000 5.6693,-2.5382 5.6693 -5.6693Z"/></g><g stroke-linejoin="miter" stroke-opacity="1.0" fill-opacity="1.0" stroke="rgb(0,128,0)" stroke-width="0.0" fill="rgb(255,0,0)" stroke-linecap="butt" stroke-miterlimit="10.0"><path d="M 967.7858,336.3780 c 0.0000,-0.1252 -0.1015,-0.2268 -0.2268 -0.2268c -0.1252,-0.0000 -0.2268,0.1015 -0.2268 0.2268c -0.0000,0.1252 0.1015,0.2268 0.2268 0.2268c 0.1252,0.0000 0.2268,-0.1015 0.2268 -0.2268Z"/></g><g stroke-linejoin="miter" stroke-opacity="1.0" fill-opacity="0.0" stroke="rgb(0,128,0)" stroke-width="2.350853988879138" fill="rgb(0,0,0)" stroke-linecap="butt" stroke-miterlimit="10.0"><path d="M 521.5748,336.3780 c 0.0000,-3.1311 -2.5382,-5.6693 -5.6693 -5.6693c -3.1311,-0.0000 -5.6693,2.5382 -5.6693 5.6693c -0.0000,3.1311 2.5382,5.6693 5.6693 5.6693c 3.1311,0.0000 5.6693,-2.5382 5.6693 -5.6693Z"/></g><g stroke-linejoin="miter" stroke-opacity="1.0" fill-opacity="1.0" stroke="rgb(0,128,0)" stroke-width="0.0" fill="rgb(255,0,0)" stroke-linecap="butt" stroke-miterlimit="10.0"><path d="M 516.1323,336.3780 c 0.0000,-0.1252 -0.1015,-0.2268 -0.2268 -0.2268c -0.1252,-0.0000 -0.2268,0.1015 -0.2268 0.2268c -0.0000,0.1252 0.1015,0.2268 0.2268 0.2268c 0.1252,0.0000 0.2268,-0.1015 0.2268 -0.2268Z"/></g><g stroke-linejoin="miter" stroke-opacity="1.0" fill-opacity="0.0" stroke="rgb(0,128,0)" stroke-width="2.350853988879138" fill="rgb(0,0,0)" stroke-linecap="butt" stroke-miterlimit="10.0"><path d="M 500.7874,351.4961 v -351.4961 h 481.8898 v 351.4961 h -481.8898 "/></g><g stroke-linejoin="miter" stroke-opacity="1.0" fill-opacity="0.0" stroke="rgb(0,128,0)" stroke-width="2.350853988879138" fill="rgb(0,0,0)" stroke-linecap="butt" stroke-miterlimit="10.0"><path d="M 326.9291,15.1181 c 0.0000,-3.1311 -2.5382,-5.6693 -5.6693 -5.6693c -3.1311,-0.0000 -5.6693,2.5382 -5.6693 5.6693c -0.0000,3.1311 2.5382,5.6693 5.6693 5.6693c 3.1311,0.0000 5.6693,-2.5382 5.6693 -5.6693Z"/></g><g stroke-linejoin="miter" stroke-opacity="1.0" fill-opacity="1.0" stroke="rgb(0,128,0)" stroke-width="0.0" fill="rgb(255,0,0)" stroke-linecap="butt" stroke-miterlimit="10.0"><path d="M 321.4866,15.1181 c 0.0000,-0.1252 -0.1015,-0.2268 -0.2268 -0.2268c -0.1252,-0.0000 -0.2268,0.1015 -0.2268 0.2268c -0.0000,0.1252 0.1015,0.2268 0.2268 0.2268c 0.1252,0.0000 0.2268,-0.1015 0.2268 -0.2268Z"/></g><g stroke-linejoin="miter" stroke-opacity="1.0" fill-opacity="0.0" stroke="rgb(0,128,0)" stroke-width="2.350853988879138" fill="rgb(0,0,0)" stroke-linecap="butt" stroke-miterlimit="10.0"><path d="M 246.6142,336.3780 c 0.0000,-3.1311 -2.5382,-5.6693 -5.6693 -5.6693c -3.1311,-0.0000 -5.6693,2.5382 -5.6693 5.6693c -0.0000,3.1311 2.5382,5.6693 5.6693 5.6693c 3.1311,0.0000 5.6693,-2.5382 5.6693 -5.6693Z"/></g><g stroke-linejoin="miter" stroke-opacity="1.0" fill-opacity="1.0" stroke="rgb(0,128,0)" stroke-width="0.0" fill="rgb(255,0,0)" stroke-linecap="butt" stroke-miterlimit="10.0"><path d="M 241.1717,336.3780 c 0.0000,-0.1252 -0.1015,-0.2268 -0.2268 -0.2268c -0.1252,-0.0000 -0.2268,0.1015 -0.2268 0.2268c -0.0000,0.1252 0.1015,0.2268 0.2268 0.2268c 0.1252,0.0000 0.2268,-0.1015 0.2268 -0.2268Z"/></g><g stroke-linejoin="miter" stroke-opacity="1.0" fill-opacity="0.0" stroke="rgb(0,128,0)" stroke-width="2.350853988879138" fill="rgb(0,0,0)" stroke-linecap="butt" stroke-miterlimit="10.0"><path d="M 20.7874,15.1181 c 0.0000,-3.1311 -2.5382,-5.6693 -5.6693 -5.6693c -3.1311,-0.0000 -5.6693,2.5382 -5.6693 5.6693c -0.0000,3.1311 2.5382,5.6693 5.6693 5.6693c 3.1311,0.0000 5.6693,-2.5382 5.6693 -5.6693Z"/></g><g stroke-linejoin="miter" stroke-opacity="1.0" fill-opacity="1.0" stroke="rgb(0,128,0)" stroke-width="0.0" fill="rgb(255,0,0)" stroke-linecap="butt" stroke-miterlimit="10.0"><path d="M 15.3449,15.1181 c 0.0000,-0.1252 -0.1015,-0.2268 -0.2268 -0.2268c -0.1252,-0.0000 -0.2268,0.1015 -0.2268 0.2268c -0.0000,0.1252 0.1015,0.2268 0.2268 0.2268c 0.1252,0.0000 0.2268,-0.1015 0.2268 -0.2268Z"/></g><g stroke-linejoin="miter" stroke-opacity="1.0" fill-opacity="0.0" stroke="rgb(0,128,0)" stroke-width="2.350853988879138" fill="rgb(0,0,0)" stroke-linecap="butt" stroke-miterlimit="10.0"><path d="M 472.4409,336.3780 c 0.0000,-3.1311 -2.5382,-5.6693 -5.6693 -5.6693c -3.1311,-0.0000 -5.6693,2.5382 -5.6693 5.6693c -0.0000,3.1311 2.5382,5.6693 5.6693 5.6693c 3.1311,0.0000 5.6693,-2.5382 5.6693 -5.6693Z"/></g><g stroke-linejoin="miter" stroke-opacity="1.0" fill-opacity="1.0" stroke="rgb(0,128,0)" stroke-width="0.0" fill="rgb(255,0,0)" stroke-linecap="butt" stroke-miterlimit="10.0"><path d="M 466.9984,336.3780 c 0.0000,-0.1252 -0.1015,-0.2268 -0.2268 -0.2268c -0.1252,-0.0000 -0.2268,0.1015 -0.2268 0.2268c -0.0000,0.1252 0.1015,0.2268 0.2268 0.2268c 0.1252,0.0000 0.2268,-0.1015 0.2268 -0.2268Z"/></g><g stroke-linejoin="miter" stroke-opacity="1.0" fill-opacity="0.0" stroke="rgb(0,128,0)" stroke-width="2.350853988879138" fill="rgb(0,0,0)" stroke-linecap="butt" stroke-miterlimit="10.0"><path d="M 20.7874,336.3780 c 0.0000,-3.1311 -2.5382,-5.6693 -5.6693 -5.6693c -3.1311,-0.0000 -5.6693,2.5382 -5.6693 5.6693c -0.0000,3.1311 2.5382,5.6693 5.6693 5.6693c 3.1311,0.0000 5.6693,-2.5382 5.6693 -5.6693Z"/></g><g stroke-linejoin="miter" stroke-opacity="1.0" fill-opacity="1.0" stroke="rgb(0,128,0)" stroke-width="0.0" fill="rgb(255,0,0)" stroke-linecap="butt" stroke-miterlimit="10.0"><path d="M 15.3449,336.3780 c 0.0000,-0.1252 -0.1015,-0.2268 -0.2268 -0.2268c -0.1252,-0.0000 -0.2268,0.1015 -0.2268 0.2268c -0.0000,0.1252 0.1015,0.2268 0.2268 0.2268c 0.1252,0.0000 0.2268,-0.1015 0.2268 -0.2268Z"/></g><g stroke-linejoin="miter" stroke-opacity="1.0" fill-opacity="0.0" stroke="rgb(0,128,0)" stroke-width="2.350853988879138" fill="rgb(0,0,0)" stroke-linecap="butt" stroke-miterlimit="10.0"><path d="M -0.0000,351.4961 v -351.4961 h 481.8898 v 351.4961 h -481.8898 "/></g><g stroke-linejoin="miter" stroke-opacity="1.0" fill-opacity="1.0" font-size="18.89763779527559px" stroke="rgb(0,0,0)" stroke-width="2.350853988879138" fill="rgb(0,0,0)" stroke-linecap="butt" stroke-miterlimit="10.0"><text dominant-baseline="middle" transform="matrix(1.0000,0.0000,0.0000,1.0000,429.9213,143.6220)" stroke="none" text-anchor="middle">trrs</text></g><g stroke-linejoin="miter" stroke-opacity="1.0" fill-opacity="0.0" stroke="rgb(0,0,0)" stroke-width="2.350853988879138" fill="rgb(0,0,0)" stroke-linecap="butt" stroke-miterlimit="10.0"><path d="M 463.9370,154.9606 l -0.0000,-22.6772 h -68.0315 l -0.0000,22.6772 Z"/></g><g stroke-linejoin="miter" stroke-opacity="1.0" fill-opacity="1.0" font-size="18.89763779527559px" stroke="rgb(0,0,0)" stroke-width="2.350853988879138" fill="rgb(0,0,0)" stroke-linecap="butt" stroke-miterlimit="10.0"><text dominant-baseline="middle" transform="matrix(0.0000,-1.0000,1.0000,0.0000,429.9213,69.9213)" stroke="none" text-anchor="middle">promicro</text></g><g stroke-linejoin="miter" stroke-opacity="1.0" fill-opacity="0.0" stroke="rgb(0,0,0)" stroke-width="2.350853988879138" fill="rgb(0,0,0)" stroke-linecap="butt" stroke-miterlimit="10.0"><path d="M 462.0472,24.5669 c 0.0000,-1.0437 -0.8461,-1.8898 -1.8898 -1.8898c -1.0437,-0.0000 -1.8898,0.8461 -1.8898 1.8898c -0.0000,1.0437 0.8461,1.8898 1.8898 1.8898c 1.0437,0.0000 1.8898,-0.8461 1.8898 -1.8898Z"/></g><g stroke-linejoin="miter" stroke-opacity="1.0" fill-opacity="0.0" stroke="rgb(0,0,0)" stroke-width="2.350853988879138" fill="rgb(0,0,0)" stroke-linecap="butt" stroke-miterlimit="10.0"><path d="M 462.0472,34.0157 c 0.0000,-1.0437 -0.8461,-1.8898 -1.8898 -1.8898c -1.0437,-0.0000 -1.8898,0.8461 -1.8898 1.8898c -0.0000,1.0437 0.8461,1.8898 1.8898 1.8898c 1.0437,0.0000 1.8898,-0.8461 1.8898 -1.8898Z"/></g><g stroke-linejoin="miter" stroke-opacity="1.0" fill-opacity="0.0" stroke="rgb(0,0,0)" stroke-width="2.350853988879138" fill="rgb(0,0,0)" stroke-linecap="butt" stroke-miterlimit="10.0"><path d="M 462.0472,43.4646 c 0.0000,-1.0437 -0.8461,-1.8898 -1.8898 -1.8898c -1.0437,-0.0000 -1.8898,0.8461 -1.8898 1.8898c -0.0000,1.0437 0.8461,1.8898 1.8898 1.8898c 1.0437,0.0000 1.8898,-0.8461 1.8898 -1.8898Z"/></g><g stroke-linejoin="miter" stroke-opacity="1.0" fill-opacity="0.0" stroke="rgb(0,0,0)" stroke-width="2.350853988879138" fill="rgb(0,0,0)" stroke-linecap="butt" stroke-miterlimit="10.0"><path d="M 462.0472,52.9134 c 0.0000,-1.0437 -0.8461,-1.8898 -1.8898 -1.8898c -1.0437,-0.0000 -1.8898,0.8461 -1.8898 1.8898c -0.0000,1.0437 0.8461,1.8898 1.8898 1.8898c 1.0437,0.0000 1.8898,-0.8461 1.8898 -1.8898Z"/></g><g stroke-linejoin="miter" stroke-opacity="1.0" fill-opacity="0.0" stroke="rgb(0,0,0)" stroke-width="2.350853988879138" fill="rgb(0,0,0)" stroke-linecap="butt" stroke-miterlimit="10.0"><path d="M 462.0472,62.3622 c 0.0000,-1.0437 -0.8461,-1.8898 -1.8898 -1.8898c -1.0437,-0.0000 -1.8898,0.8461 -1.8898 1.8898c -0.0000,1.0437 0.8461,1.8898 1.8898 1.8898c 1.0437,0.0000 1.8898,-0.8461 1.8898 -1.8898Z"/></g><g stroke-linejoin="miter" stroke-opacity="1.0" fill-opacity="0.0" stroke="rgb(0,0,0)" stroke-width="2.350853988879138" fill="rgb(0,0,0)" stroke-linecap="butt" stroke-miterlimit="10.0"><path d="M 462.0472,71.8110 c 0.0000,-1.0437 -0.8461,-1.8898 -1.8898 -1.8898c -1.0437,-0.0000 -1.8898,0.8461 -1.8898 1.8898c -0.0000,1.0437 0.8461,1.8898 1.8898 1.8898c 1.0437,0.0000 1.8898,-0.8461 1.8898 -1.8898Z"/></g><g stroke-linejoin="miter" stroke-opacity="1.0" fill-opacity="0.0" stroke="rgb(0,0,0)" stroke-width="2.350853988879138" fill="rgb(0,0,0)" stroke-linecap="butt" stroke-miterlimit="10.0"><path d="M 462.0472,81.2598 c 0.0000,-1.0437 -0.8461,-1.8898 -1.8898 -1.8898c -1.0437,-0.0000 -1.8898,0.8461 -1.8898 1.8898c -0.0000,1.0437 0.8461,1.8898 1.8898 1.8898c 1.0437,0.0000 1.8898,-0.8461 1.8898 -1.8898Z"/></g><g stroke-linejoin="miter" stroke-opacity="1.0" fill-opacity="0.0" stroke="rgb(0,0,0)" stroke-width="2.350853988879138" fill="rgb(0,0,0)" stroke-linecap="butt" stroke-miterlimit="10.0"><path d="M 462.0472,90.7087 c 0.0000,-1.0437 -0.8461,-1.8898 -1.8898 -1.8898c -1.0437,-0.0000 -1.8898,0.8461 -1.8898 1.8898c -0.0000,1.0437 0.8461,1.8898 1.8898 1.8898c 1.0437,0.0000 1.8898,-0.8461 1.8898 -1.8898Z"/></g><g stroke-linejoin="miter" stroke-opacity="1.0" fill-opacity="0.0" stroke="rgb(0,0,0)" stroke-width="2.350853988879138" fill="rgb(0,0,0)" stroke-linecap="butt" stroke-miterlimit="10.0"><path d="M 462.0472,100.1575 c 0.0000,-1.0437 -0.8461,-1.8898 -1.8898 -1.8898c -1.0437,-0.0000 -1.8898,0.8461 -1.8898 1.8898c -0.0000,1.0437 0.8461,1.8898 1.8898 1.8898c 1.0437,0.0000 1.8898,-0.8461 1.8898 -1.8898Z"/></g><g stroke-linejoin="miter" stroke-opacity="1.0" fill-opacity="0.0" stroke="rgb(0,0,0)" stroke-width="2.350853988879138" fill="rgb(0,0,0)" stroke-linecap="butt" stroke-miterlimit="10.0"><path d="M 462.0472,109.6063 c 0.0000,-1.0437 -0.8461,-1.8898 -1.8898 -1.8898c -1.0437,-0.0000 -1.8898,0.8461 -1.8898 1.8898c -0.0000,1.0437 0.8461,1.8898 1.8898 1.8898c 1.0437,0.0000 1.8898,-0.8461 1.8898 -1.8898Z"/></g><g stroke-linejoin="miter" stroke-opacity="1.0" fill-opacity="0.0" stroke="rgb(0,0,0)" stroke-width="2.350853988879138" fill="rgb(0,0,0)" stroke-linecap="butt" stroke-miterlimit="10.0"><path d="M 462.0472,119.0551 c 0.0000,-1.0437 -0.8461,-1.8898 -1.8898 -1.8898c -1.0437,-0.0000 -1.8898,0.8461 -1.8898 1.8898c -0.0000,1.0437 0.8461,1.8898 1.8898 1.8898c 1.0437,0.0000 1.8898,-0.8461 1.8898 -1.8898Z"/></g><g stroke-linejoin="miter" stroke-opacity="1.0" fill-opacity="0.0" stroke="rgb(0,0,0)" stroke-width="2.350853988879138" fill="rgb(0,0,0)" stroke-linecap="butt" stroke-miterlimit="10.0"><path d="M 462.0472,128.5039 c 0.0000,-1.0437 -0.8461,-1.8898 -1.8898 -1.8898c -1.0437,-0.0000 -1.8898,0.8461 -1.8898 1.8898c -0.0000,1.0437 0.8461,1.8898 1.8898 1.8898c 1.0437,0.0000 1.8898,-0.8461 1.8898 -1.8898Z"/></g><g stroke-linejoin="miter" stroke-opacity="1.0" fill-opacity="0.0" stroke="rgb(0,0,0)" stroke-width="2.350853988879138" fill="rgb(0,0,0)" stroke-linecap="butt" stroke-miterlimit="10.0"><path d="M 401.5748,24.5669 c 0.0000,-1.0437 -0.8461,-1.8898 -1.8898 -1.8898c -1.0437,-0.0000 -1.8898,0.8461 -1.8898 1.8898c -0.0000,1.0437 0.8461,1.8898 1.8898 1.8898c 1.0437,0.0000 1.8898,-0.8461 1.8898 -1.8898Z"/></g><g stroke-linejoin="miter" stroke-opacity="1.0" fill-opacity="0.0" stroke="rgb(0,0,0)" stroke-width="2.350853988879138" fill="rgb(0,0,0)" stroke-linecap="butt" stroke-miterlimit="10.0"><path d="M 401.5748,34.0157 c 0.0000,-1.0437 -0.8461,-1.8898 -1.8898 -1.8898c -1.0437,-0.0000 -1.8898,0.8461 -1.8898 1.8898c -0.0000,1.0437 0.8461,1.8898 1.8898 1.8898c 1.0437,0.0000 1.8898,-0.8461 1.8898 -1.8898Z"/></g><g stroke-linejoin="miter" stroke-opacity="1.0" fill-opacity="0.0" stroke="rgb(0,0,0)" stroke-width="2.350853988879138" fill="rgb(0,0,0)" stroke-linecap="butt" stroke-miterlimit="10.0"><path d="M 401.5748,43.4646 c 0.0000,-1.0437 -0.8461,-1.8898 -1.8898 -1.8898c -1.0437,-0.0000 -1.8898,0.8461 -1.8898 1.8898c -0.0000,1.0437 0.8461,1.8898 1.8898 1.8898c 1.0437,0.0000 1.8898,-0.8461 1.8898 -1.8898Z"/></g><g stroke-linejoin="miter" stroke-opacity="1.0" fill-opacity="0.0" stroke="rgb(0,0,0)" stroke-width="2.350853988879138" fill="rgb(0,0,0)" stroke-linecap="butt" stroke-miterlimit="10.0"><path d="M 401.5748,52.9134 c 0.0000,-1.0437 -0.8461,-1.8898 -1.8898 -1.8898c -1.0437,-0.0000 -1.8898,0.8461 -1.8898 1.8898c -0.0000,1.0437 0.8461,1.8898 1.8898 1.8898c 1.0437,0.0000 1.8898,-0.8461 1.8898 -1.8898Z"/></g><g stroke-linejoin="miter" stroke-opacity="1.0" fill-opacity="0.0" stroke="rgb(0,0,0)" stroke-width="2.350853988879138" fill="rgb(0,0,0)" stroke-linecap="butt" stroke-miterlimit="10.0"><path d="M 401.5748,62.3622 c 0.0000,-1.0437 -0.8461,-1.8898 -1.8898 -1.8898c -1.0437,-0.0000 -1.8898,0.8461 -1.8898 1.8898c -0.0000,1.0437 0.8461,1.8898 1.8898 1.8898c 1.0437,0.0000 1.8898,-0.8461 1.8898 -1.8898Z"/></g><g stroke-linejoin="miter" stroke-opacity="1.0" fill-opacity="0.0" stroke="rgb(0,0,0)" stroke-width="2.350853988879138" fill="rgb(0,0,0)" stroke-linecap="butt" stroke-miterlimit="10.0"><path d="M 401.5748,71.8110 c 0.0000,-1.0437 -0.8461,-1.8898 -1.8898 -1.8898c -1.0437,-0.0000 -1.8898,0.8461 -1.8898 1.8898c -0.0000,1.0437 0.8461,1.8898 1.8898 1.8898c 1.0437,0.0000 1.8898,-0.8461 1.8898 -1.8898Z"/></g><g stroke-linejoin="miter" stroke-opacity="1.0" fill-opacity="0.0" stroke="rgb(0,0,0)" stroke-width="2.350853988879138" fill="rgb(0,0,0)" stroke-linecap="butt" stroke-miterlimit="10.0"><path d="M 401.5748,81.2598 c 0.0000,-1.0437 -0.8461,-1.8898 -1.8898 -1.8898c -1.0437,-0.0000 -1.8898,0.8461 -1.8898 1.8898c -0.0000,1.0437 0.8461,1.8898 1.8898 1.8898c 1.0437,0.0000 1.8898,-0.8461 1.8898 -1.8898Z"/></g><g stroke-linejoin="miter" stroke-opacity="1.0" fill-opacity="0.0" stroke="rgb(0,0,0)" stroke-width="2.350853988879138" fill="rgb(0,0,0)" stroke-linecap="butt" stroke-miterlimit="10.0"><path d="M 401.5748,90.7087 c 0.0000,-1.0437 -0.8461,-1.8898 -1.8898 -1.8898c -1.0437,-0.0000 -1.8898,0.8461 -1.8898 1.8898c -0.0000,1.0437 0.8461,1.8898 1.8898 1.8898c 1.0437,0.0000 1.8898,-0.8461 1.8898 -1.8898Z"/></g><g stroke-linejoin="miter" stroke-opacity="1.0" fill-opacity="0.0" stroke="rgb(0,0,0)" stroke-width="2.350853988879138" fill="rgb(0,0,0)" stroke-linecap="butt" stroke-miterlimit="10.0"><path d="M 401.5748,100.1575 c 0.0000,-1.0437 -0.8461,-1.8898 -1.8898 -1.8898c -1.0437,-0.0000 -1.8898,0.8461 -1.8898 1.8898c -0.0000,1.0437 0.8461,1.8898 1.8898 1.8898c 1.0437,0.0000 1.8898,-0.8461 1.8898 -1.8898Z"/></g><g stroke-linejoin="miter" stroke-opacity="1.0" fill-opacity="0.0" stroke="rgb(0,0,0)" stroke-width="2.350853988879138" fill="rgb(0,0,0)" stroke-linecap="butt" stroke-miterlimit="10.0"><path d="M 401.5748,109.6063 c 0.0000,-1.0437 -0.8461,-1.8898 -1.8898 -1.8898c -1.0437,-0.0000 -1.8898,0.8461 -1.8898 1.8898c -0.0000,1.0437 0.8461,1.8898 1.8898 1.8898c 1.0437,0.0000 1.8898,-0.8461 1.8898 -1.8898Z"/></g><g stroke-linejoin="miter" stroke-opacity="1.0" fill-opacity="0.0" stroke="rgb(0,0,0)" stroke-width="2.350853988879138" fill="rgb(0,0,0)" stroke-linecap="butt" stroke-miterlimit="10.0"><path d="M 401.5748,119.0551 c 0.0000,-1.0437 -0.8461,-1.8898 -1.8898 -1.8898c -1.0437,-0.0000 -1.8898,0.8461 -1.8898 1.8898c -0.0000,1.0437 0.8461,1.8898 1.8898 1.8898c 1.0437,0.0000 1.8898,-0.8461 1.8898 -1.8898Z"/></g><g stroke-linejoin="miter" stroke-opacity="1.0" fill-opacity="0.0" stroke="rgb(0,0,0)" stroke-width="2.350853988879138" fill="rgb(0,0,0)" stroke-linecap="butt" stroke-miterlimit="10.0"><path d="M 401.5748,128.5039 c 0.0000,-1.0437 -0.8461,-1.8898 -1.8898 -1.8898c -1.0437,-0.0000 -1.8898,0.8461 -1.8898 1.8898c -0.0000,1.0437 0.8461,1.8898 1.8898 1.8898c 1.0437,0.0000 1.8898,-0.8461 1.8898 -1.8898Z"/></g><g stroke-linejoin="miter" stroke-opacity="1.0" fill-opacity="0.0" stroke="rgb(0,0,0)" stroke-width="2.350853988879138" fill="rgb(0,0,0)" stroke-linecap="butt" stroke-miterlimit="10.0"><path d="M 463.9370,132.2835 l -0.0000,-124.7244 h -68.0315 l -0.0000,124.7244 Z"/></g><g stroke-linejoin="miter" stroke-opacity="1.0" fill-opacity="0.0" stroke="rgb(0,0,255)" stroke-width="2.350853988879138" fill="rgb(0,0,0)" stroke-linecap="butt" stroke-miterlimit="10.0"><path d="M 414.1512,218.6457 c 0.0000,-1.6699 -1.3537,-3.0236 -3.0236 -3.0236c -1.6699,-0.0000 -3.0236,1.3537 -3.0236 3.0236c -0.0000,1.6699 1.3537,3.0236 3.0236 3.0236c 1.6699,0.0000 3.0236,-1.3537 3.0236 -3.0236Z"/></g><g stroke-linejoin="miter" stroke-opacity="1.0" fill-opacity="1.0" stroke="rgb(255,0,0)" stroke-width="2.350853988879138" fill="rgb(255,0,0)" stroke-linecap="butt" stroke-miterlimit="10.0"><path d="M 411.5055,218.6457 c 0.0000,-0.2087 -0.1692,-0.3780 -0.3780 -0.3780c -0.2087,-0.0000 -0.3780,0.1692 -0.3780 0.3780c -0.0000,0.2087 0.1692,0.3780 0.3780 0.3780c 0.2087,0.0000 0.3780,-0.1692 0.3780 -0.3780Z"/></g><g stroke-linejoin="miter" stroke-opacity="1.0" fill-opacity="0.0" stroke="rgb(0,0,255)" stroke-width="2.350853988879138" fill="rgb(0,0,0)" stroke-linecap="butt" stroke-miterlimit="10.0"><path d="M 432.9449,218.6457 c 0.0000,-1.6699 -1.3537,-3.0236 -3.0236 -3.0236c -1.6699,-0.0000 -3.0236,1.3537 -3.0236 3.0236c -0.0000,1.6699 1.3537,3.0236 3.0236 3.0236c 1.6699,0.0000 3.0236,-1.3537 3.0236 -3.0236Z"/></g><g stroke-linejoin="miter" stroke-opacity="1.0" fill-opacity="1.0" stroke="rgb(255,0,0)" stroke-width="2.350853988879138" fill="rgb(255,0,0)" stroke-linecap="butt" stroke-miterlimit="10.0"><path d="M 430.2992,218.6457 c 0.0000,-0.2087 -0.1692,-0.3780 -0.3780 -0.3780c -0.2087,-0.0000 -0.3780,0.1692 -0.3780 0.3780c -0.0000,0.2087 0.1692,0.3780 0.3780 0.3780c 0.2087,0.0000 0.3780,-0.1692 0.3780 -0.3780Z"/></g><g stroke-linejoin="miter" stroke-opacity="1.0" fill-opacity="0.0" stroke="rgb(0,0,255)" stroke-width="2.350853988879138" fill="rgb(0,0,0)" stroke-linecap="butt" stroke-miterlimit="10.0"><path d="M 451.7386,218.6457 c 0.0000,-1.6699 -1.3537,-3.0236 -3.0236 -3.0236c -1.6699,-0.0000 -3.0236,1.3537 -3.0236 3.0236c -0.0000,1.6699 1.3537,3.0236 3.0236 3.0236c 1.6699,0.0000 3.0236,-1.3537 3.0236 -3.0236Z"/></g><g stroke-linejoin="miter" stroke-opacity="1.0" fill-opacity="1.0" stroke="rgb(255,0,0)" stroke-width="2.350853988879138" fill="rgb(255,0,0)" stroke-linecap="butt" stroke-miterlimit="10.0"><path d="M 449.0929,218.6457 c 0.0000,-0.2087 -0.1692,-0.3780 -0.3780 -0.3780c -0.2087,-0.0000 -0.3780,0.1692 -0.3780 0.3780c -0.0000,0.2087 0.1692,0.3780 0.3780 0.3780c 0.2087,0.0000 0.3780,-0.1692 0.3780 -0.3780Z"/></g><g stroke-linejoin="miter" stroke-opacity="1.0" fill-opacity="0.0" stroke="rgb(0,0,0)" stroke-width="2.350853988879138" fill="rgb(0,0,0)" stroke-linecap="butt" stroke-miterlimit="10.0"><path d="M 460.0535,258.3307 l -0.0000,-49.1339 h -60.2646 l -0.0000,49.1339 Z"/></g><g stroke-linejoin="miter" stroke-opacity="1.0" fill-opacity="1.0" font-size="18.89763779527559px" stroke="rgb(0,0,0)" stroke-width="2.350853988879138" fill="rgb(0,0,0)" stroke-linecap="butt" stroke-miterlimit="10.0"><text dominant-baseline="middle" transform="matrix(1.0000,-0.0000,0.0000,1.0000,429.9213,233.7638)" stroke="none" text-anchor="middle"></text></g><g stroke-linejoin="miter" stroke-opacity="1.0" fill-opacity="0.0" stroke="rgb(0,0,255)" stroke-width="2.350853988879138" fill="rgb(0,0,0)" stroke-linecap="butt" stroke-miterlimit="10.0"><path d="M 414.1512,292.3465 c 0.0000,-1.6699 -1.3537,-3.0236 -3.0236 -3.0236c -1.6699,-0.0000 -3.0236,1.3537 -3.0236 3.0236c -0.0000,1.6699 1.3537,3.0236 3.0236 3.0236c 1.6699,0.0000 3.0236,-1.3537 3.0236 -3.0236Z"/></g><g stroke-linejoin="miter" stroke-opacity="1.0" fill-opacity="1.0" stroke="rgb(255,0,0)" stroke-width="2.350853988879138" fill="rgb(255,0,0)" stroke-linecap="butt" stroke-miterlimit="10.0"><path d="M 411.5055,292.3465 c 0.0000,-0.2087 -0.1692,-0.3780 -0.3780 -0.3780c -0.2087,-0.0000 -0.3780,0.1692 -0.3780 0.3780c -0.0000,0.2087 0.1692,0.3780 0.3780 0.3780c 0.2087,0.0000 0.3780,-0.1692 0.3780 -0.3780Z"/></g><g stroke-linejoin="miter" stroke-opacity="1.0" fill-opacity="0.0" stroke="rgb(0,0,255)" stroke-width="2.350853988879138" fill="rgb(0,0,0)" stroke-linecap="butt" stroke-miterlimit="10.0"><path d="M 432.9449,292.3465 c 0.0000,-1.6699 -1.3537,-3.0236 -3.0236 -3.0236c -1.6699,-0.0000 -3.0236,1.3537 -3.0236 3.0236c -0.0000,1.6699 1.3537,3.0236 3.0236 3.0236c 1.6699,0.0000 3.0236,-1.3537 3.0236 -3.0236Z"/></g><g stroke-linejoin="miter" stroke-opacity="1.0" fill-opacity="1.0" stroke="rgb(255,0,0)" stroke-width="2.350853988879138" fill="rgb(255,0,0)" stroke-linecap="butt" stroke-miterlimit="10.0"><path d="M 430.2992,292.3465 c 0.0000,-0.2087 -0.1692,-0.3780 -0.3780 -0.3780c -0.2087,-0.0000 -0.3780,0.1692 -0.3780 0.3780c -0.0000,0.2087 0.1692,0.3780 0.3780 0.3780c 0.2087,0.0000 0.3780,-0.1692 0.3780 -0.3780Z"/></g><g stroke-linejoin="miter" stroke-opacity="1.0" fill-opacity="0.0" stroke="rgb(0,0,255)" stroke-width="2.350853988879138" fill="rgb(0,0,0)" stroke-linecap="butt" stroke-miterlimit="10.0"><path d="M 451.7386,292.3465 c 0.0000,-1.6699 -1.3537,-3.0236 -3.0236 -3.0236c -1.6699,-0.0000 -3.0236,1.3537 -3.0236 3.0236c -0.0000,1.6699 1.3537,3.0236 3.0236 3.0236c 1.6699,0.0000 3.0236,-1.3537 3.0236 -3.0236Z"/></g><g stroke-linejoin="miter" stroke-opacity="1.0" fill-opacity="1.0" stroke="rgb(255,0,0)" stroke-width="2.350853988879138" fill="rgb(255,0,0)" stroke-linecap="butt" stroke-miterlimit="10.0"><path d="M 449.0929,292.3465 c 0.0000,-0.2087 -0.1692,-0.3780 -0.3780 -0.3780c -0.2087,-0.0000 -0.3780,0.1692 -0.3780 0.3780c -0.0000,0.2087 0.1692,0.3780 0.3780 0.3780c 0.2087,0.0000 0.3780,-0.1692 0.3780 -0.3780Z"/></g><g stroke-linejoin="miter" stroke-opacity="1.0" fill-opacity="0.0" stroke="rgb(0,0,0)" stroke-width="2.350853988879138" fill="rgb(0,0,0)" stroke-linecap="butt" stroke-miterlimit="10.0"><path d="M 460.0535,332.0315 l -0.0000,-49.1339 h -60.2646 l -0.0000,49.1339 Z"/></g><g stroke-linejoin="miter" stroke-opacity="1.0" fill-opacity="1.0" font-size="18.89763779527559px" stroke="rgb(0,0,0)" stroke-width="2.350853988879138" fill="rgb(0,0,0)" stroke-linecap="butt" stroke-miterlimit="10.0"><text dominant-baseline="middle" transform="matrix(1.0000,-0.0000,0.0000,1.0000,429.9213,307.4646)" stroke="none" text-anchor="middle"></text></g><g stroke-linejoin="miter" stroke-opacity="1.0" fill-opacity="0.0" stroke="rgb(0,0,255)" stroke-width="2.350853988879138" fill="rgb(0,0,0)" stroke-linecap="butt" stroke-miterlimit="10.0"><path d="M 338.5606,59.1496 c 0.0000,-1.6699 -1.3537,-3.0236 -3.0236 -3.0236c -1.6699,-0.0000 -3.0236,1.3537 -3.0236 3.0236c -0.0000,1.6699 1.3537,3.0236 3.0236 3.0236c 1.6699,0.0000 3.0236,-1.3537 3.0236 -3.0236Z"/></g><g stroke-linejoin="miter" stroke-opacity="1.0" fill-opacity="1.0" stroke="rgb(255,0,0)" stroke-width="2.350853988879138" fill="rgb(255,0,0)" stroke-linecap="butt" stroke-miterlimit="10.0"><path d="M 335.9150,59.1496 c 0.0000,-0.2087 -0.1692,-0.3780 -0.3780 -0.3780c -0.2087,-0.0000 -0.3780,0.1692 -0.3780 0.3780c -0.0000,0.2087 0.1692,0.3780 0.3780 0.3780c 0.2087,0.0000 0.3780,-0.1692 0.3780 -0.3780Z"/></g><g stroke-linejoin="miter" stroke-opacity="1.0" fill-opacity="0.0" stroke="rgb(0,0,255)" stroke-width="2.350853988879138" fill="rgb(0,0,0)" stroke-linecap="butt" stroke-miterlimit="10.0"><path d="M 357.3543,59.1496 c 0.0000,-1.6699 -1.3537,-3.0236 -3.0236 -3.0236c -1.6699,-0.0000 -3.0236,1.3537 -3.0236 3.0236c -0.0000,1.6699 1.3537,3.0236 3.0236 3.0236c 1.6699,0.0000 3.0236,-1.3537 3.0236 -3.0236Z"/></g><g stroke-linejoin="miter" stroke-opacity="1.0" fill-opacity="1.0" stroke="rgb(255,0,0)" stroke-width="2.350853988879138" fill="rgb(255,0,0)" stroke-linecap="butt" stroke-miterlimit="10.0"><path d="M 354.7087,59.1496 c 0.0000,-0.2087 -0.1692,-0.3780 -0.3780 -0.3780c -0.2087,-0.0000 -0.3780,0.1692 -0.3780 0.3780c -0.0000,0.2087 0.1692,0.3780 0.3780 0.3780c 0.2087,0.0000 0.3780,-0.1692 0.3780 -0.3780Z"/></g><g stroke-linejoin="miter" stroke-opacity="1.0" fill-opacity="0.0" stroke="rgb(0,0,255)" stroke-width="2.350853988879138" fill="rgb(0,0,0)" stroke-linecap="butt" stroke-miterlimit="10.0"><path d="M 376.1480,59.1496 c 0.0000,-1.6699 -1.3537,-3.0236 -3.0236 -3.0236c -1.6699,-0.0000 -3.0236,1.3537 -3.0236 3.0236c -0.0000,1.6699 1.3537,3.0236 3.0236 3.0236c 1.6699,0.0000 3.0236,-1.3537 3.0236 -3.0236Z"/></g><g stroke-linejoin="miter" stroke-opacity="1.0" fill-opacity="1.0" stroke="rgb(255,0,0)" stroke-width="2.350853988879138" fill="rgb(255,0,0)" stroke-linecap="butt" stroke-miterlimit="10.0"><path d="M 373.5024,59.1496 c 0.0000,-0.2087 -0.1692,-0.3780 -0.3780 -0.3780c -0.2087,-0.0000 -0.3780,0.1692 -0.3780 0.3780c -0.0000,0.2087 0.1692,0.3780 0.3780 0.3780c 0.2087,0.0000 0.3780,-0.1692 0.3780 -0.3780Z"/></g><g stroke-linejoin="miter" stroke-opacity="1.0" fill-opacity="0.0" stroke="rgb(0,0,0)" stroke-width="2.350853988879138" fill="rgb(0,0,0)" stroke-linecap="butt" stroke-miterlimit="10.0"><path d="M 384.4630,98.8346 l -0.0000,-49.1339 h -60.2646 l -0.0000,49.1339 Z"/></g><g stroke-linejoin="miter" stroke-opacity="1.0" fill-opacity="1.0" font-size="18.89763779527559px" stroke="rgb(0,0,0)" stroke-width="2.350853988879138" fill="rgb(0,0,0)" stroke-linecap="butt" stroke-miterlimit="10.0"><text dominant-baseline="middle" transform="matrix(1.0000,-0.0000,0.0000,1.0000,354.3307,74.2677)" stroke="none" text-anchor="middle"></text></g><g stroke-linejoin="miter" stroke-opacity="1.0" fill-opacity="0.0" stroke="rgb(0,0,255)" stroke-width="2.350853988879138" fill="rgb(0,0,0)" stroke-linecap="butt" stroke-miterlimit="10.0"><path d="M 338.5606,132.8504 c 0.0000,-1.6699 -1.3537,-3.0236 -3.0236 -3.0236c -1.6699,-0.0000 -3.0236,1.3537 -3.0236 3.0236c -0.0000,1.6699 1.3537,3.0236 3.0236 3.0236c 1.6699,0.0000 3.0236,-1.3537 3.0236 -3.0236Z"/></g><g stroke-linejoin="miter" stroke-opacity="1.0" fill-opacity="1.0" stroke="rgb(255,0,0)" stroke-width="2.350853988879138" fill="rgb(255,0,0)" stroke-linecap="butt" stroke-miterlimit="10.0"><path d="M 335.9150,132.8504 c 0.0000,-0.2087 -0.1692,-0.3780 -0.3780 -0.3780c -0.2087,-0.0000 -0.3780,0.1692 -0.3780 0.3780c -0.0000,0.2087 0.1692,0.3780 0.3780 0.3780c 0.2087,0.0000 0.3780,-0.1692 0.3780 -0.3780Z"/></g><g stroke-linejoin="miter" stroke-opacity="1.0" fill-opacity="0.0" stroke="rgb(0,0,255)" stroke-width="2.350853988879138" fill="rgb(0,0,0)" stroke-linecap="butt" stroke-miterlimit="10.0"><path d="M 357.3543,132.8504 c 0.0000,-1.6699 -1.3537,-3.0236 -3.0236 -3.0236c -1.6699,-0.0000 -3.0236,1.3537 -3.0236 3.0236c -0.0000,1.6699 1.3537,3.0236 3.0236 3.0236c 1.6699,0.0000 3.0236,-1.3537 3.0236 -3.0236Z"/></g><g stroke-linejoin="miter" stroke-opacity="1.0" fill-opacity="1.0" stroke="rgb(255,0,0)" stroke-width="2.350853988879138" fill="rgb(255,0,0)" stroke-linecap="butt" stroke-miterlimit="10.0"><path d="M 354.7087,132.8504 c 0.0000,-0.2087 -0.1692,-0.3780 -0.3780 -0.3780c -0.2087,-0.0000 -0.3780,0.1692 -0.3780 0.3780c -0.0000,0.2087 0.1692,0.3780 0.3780 0.3780c 0.2087,0.0000 0.3780,-0.1692 0.3780 -0.3780Z"/></g><g stroke-linejoin="miter" stroke-opacity="1.0" fill-opacity="0.0" stroke="rgb(0,0,255)" stroke-width="2.350853988879138" fill="rgb(0,0,0)" stroke-linecap="butt" stroke-miterlimit="10.0"><path d="M 376.1480,132.8504 c 0.0000,-1.6699 -1.3537,-3.0236 -3.0236 -3.0236c -1.6699,-0.0000 -3.0236,1.3537 -3.0236 3.0236c -0.0000,1.6699 1.3537,3.0236 3.0236 3.0236c 1.6699,0.0000 3.0236,-1.3537 3.0236 -3.0236Z"/></g><g stroke-linejoin="miter" stroke-opacity="1.0" fill-opacity="1.0" stroke="rgb(255,0,0)" stroke-width="2.350853988879138" fill="rgb(255,0,0)" stroke-linecap="butt" stroke-miterlimit="10.0"><path d="M 373.5024,132.8504 c 0.0000,-0.2087 -0.1692,-0.3780 -0.3780 -0.3780c -0.2087,-0.0000 -0.3780,0.1692 -0.3780 0.3780c -0.0000,0.2087 0.1692,0.3780 0.3780 0.3780c 0.2087,0.0000 0.3780,-0.1692 0.3780 -0.3780Z"/></g><g stroke-linejoin="miter" stroke-opacity="1.0" fill-opacity="0.0" stroke="rgb(0,0,0)" stroke-width="2.350853988879138" fill="rgb(0,0,0)" stroke-linecap="butt" stroke-miterlimit="10.0"><path d="M 384.4630,172.5354 l -0.0000,-49.1339 h -60.2646 l -0.0000,49.1339 Z"/></g><g stroke-linejoin="miter" stroke-opacity="1.0" fill-opacity="1.0" font-size="18.89763779527559px" stroke="rgb(0,0,0)" stroke-width="2.350853988879138" fill="rgb(0,0,0)" stroke-linecap="butt" stroke-miterlimit="10.0"><text dominant-baseline="middle" transform="matrix(1.0000,-0.0000,0.0000,1.0000,354.3307,147.9685)" stroke="none" text-anchor="middle"></text></g><g stroke-linejoin="miter" stroke-opacity="1.0" fill-opacity="0.0" stroke="rgb(0,0,255)" stroke-width="2.350853988879138" fill="rgb(0,0,0)" stroke-linecap="butt" stroke-miterlimit="10.0"><path d="M 338.5606,206.5512 c 0.0000,-1.6699 -1.3537,-3.0236 -3.0236 -3.0236c -1.6699,-0.0000 -3.0236,1.3537 -3.0236 3.0236c -0.0000,1.6699 1.3537,3.0236 3.0236 3.0236c 1.6699,0.0000 3.0236,-1.3537 3.0236 -3.0236Z"/></g><g stroke-linejoin="miter" stroke-opacity="1.0" fill-opacity="1.0" stroke="rgb(255,0,0)" stroke-width="2.350853988879138" fill="rgb(255,0,0)" stroke-linecap="butt" stroke-miterlimit="10.0"><path d="M 335.9150,206.5512 c 0.0000,-0.2087 -0.1692,-0.3780 -0.3780 -0.3780c -0.2087,-0.0000 -0.3780,0.1692 -0.3780 0.3780c -0.0000,0.2087 0.1692,0.3780 0.3780 0.3780c 0.2087,0.0000 0.3780,-0.1692 0.3780 -0.3780Z"/></g><g stroke-linejoin="miter" stroke-opacity="1.0" fill-opacity="0.0" stroke="rgb(0,0,255)" stroke-width="2.350853988879138" fill="rgb(0,0,0)" stroke-linecap="butt" stroke-miterlimit="10.0"><path d="M 357.3543,206.5512 c 0.0000,-1.6699 -1.3537,-3.0236 -3.0236 -3.0236c -1.6699,-0.0000 -3.0236,1.3537 -3.0236 3.0236c -0.0000,1.6699 1.3537,3.0236 3.0236 3.0236c 1.6699,0.0000 3.0236,-1.3537 3.0236 -3.0236Z"/></g><g stroke-linejoin="miter" stroke-opacity="1.0" fill-opacity="1.0" stroke="rgb(255,0,0)" stroke-width="2.350853988879138" fill="rgb(255,0,0)" stroke-linecap="butt" stroke-miterlimit="10.0"><path d="M 354.7087,206.5512 c 0.0000,-0.2087 -0.1692,-0.3780 -0.3780 -0.3780c -0.2087,-0.0000 -0.3780,0.1692 -0.3780 0.3780c -0.0000,0.2087 0.1692,0.3780 0.3780 0.3780c 0.2087,0.0000 0.3780,-0.1692 0.3780 -0.3780Z"/></g><g stroke-linejoin="miter" stroke-opacity="1.0" fill-opacity="0.0" stroke="rgb(0,0,255)" stroke-width="2.350853988879138" fill="rgb(0,0,0)" stroke-linecap="butt" stroke-miterlimit="10.0"><path d="M 376.1480,206.5512 c 0.0000,-1.6699 -1.3537,-3.0236 -3.0236 -3.0236c -1.6699,-0.0000 -3.0236,1.3537 -3.0236 3.0236c -0.0000,1.6699 1.3537,3.0236 3.0236 3.0236c 1.6699,0.0000 3.0236,-1.3537 3.0236 -3.0236Z"/></g><g stroke-linejoin="miter" stroke-opacity="1.0" fill-opacity="1.0" stroke="rgb(255,0,0)" stroke-width="2.350853988879138" fill="rgb(255,0,0)" stroke-linecap="butt" stroke-miterlimit="10.0"><path d="M 373.5024,206.5512 c 0.0000,-0.2087 -0.1692,-0.3780 -0.3780 -0.3780c -0.2087,-0.0000 -0.3780,0.1692 -0.3780 0.3780c -0.0000,0.2087 0.1692,0.3780 0.3780 0.3780c 0.2087,0.0000 0.3780,-0.1692 0.3780 -0.3780Z"/></g><g stroke-linejoin="miter" stroke-opacity="1.0" fill-opacity="0.0" stroke="rgb(0,0,0)" stroke-width="2.350853988879138" fill="rgb(0,0,0)" stroke-linecap="butt" stroke-miterlimit="10.0"><path d="M 384.4630,246.2362 l -0.0000,-49.1339 h -60.2646 l -0.0000,49.1339 Z"/></g><g stroke-linejoin="miter" stroke-opacity="1.0" fill-opacity="1.0" font-size="18.89763779527559px" stroke="rgb(0,0,0)" stroke-width="2.350853988879138" fill="rgb(0,0,0)" stroke-linecap="butt" stroke-miterlimit="10.0"><text dominant-baseline="middle" transform="matrix(1.0000,-0.0000,0.0000,1.0000,354.3307,221.6693)" stroke="none" text-anchor="middle"></text></g><g stroke-linejoin="miter" stroke-opacity="1.0" fill-opacity="0.0" stroke="rgb(0,0,255)" stroke-width="2.350853988879138" fill="rgb(0,0,0)" stroke-linecap="butt" stroke-miterlimit="10.0"><path d="M 338.5606,280.2520 c 0.0000,-1.6699 -1.3537,-3.0236 -3.0236 -3.0236c -1.6699,-0.0000 -3.0236,1.3537 -3.0236 3.0236c -0.0000,1.6699 1.3537,3.0236 3.0236 3.0236c 1.6699,0.0000 3.0236,-1.3537 3.0236 -3.0236Z"/></g><g stroke-linejoin="miter" stroke-opacity="1.0" fill-opacity="1.0" stroke="rgb(255,0,0)" stroke-width="2.350853988879138" fill="rgb(255,0,0)" stroke-linecap="butt" stroke-miterlimit="10.0"><path d="M 335.9150,280.2520 c 0.0000,-0.2087 -0.1692,-0.3780 -0.3780 -0.3780c -0.2087,-0.0000 -0.3780,0.1692 -0.3780 0.3780c -0.0000,0.2087 0.1692,0.3780 0.3780 0.3780c 0.2087,0.0000 0.3780,-0.1692 0.3780 -0.3780Z"/></g><g stroke-linejoin="miter" stroke-opacity="1.0" fill-opacity="0.0" stroke="rgb(0,0,255)" stroke-width="2.350853988879138" fill="rgb(0,0,0)" stroke-linecap="butt" stroke-miterlimit="10.0"><path d="M 357.3543,280.2520 c 0.0000,-1.6699 -1.3537,-3.0236 -3.0236 -3.0236c -1.6699,-0.0000 -3.0236,1.3537 -3.0236 3.0236c -0.0000,1.6699 1.3537,3.0236 3.0236 3.0236c 1.6699,0.0000 3.0236,-1.3537 3.0236 -3.0236Z"/></g><g stroke-linejoin="miter" stroke-opacity="1.0" fill-opacity="1.0" stroke="rgb(255,0,0)" stroke-width="2.350853988879138" fill="rgb(255,0,0)" stroke-linecap="butt" stroke-miterlimit="10.0"><path d="M 354.7087,280.2520 c 0.0000,-0.2087 -0.1692,-0.3780 -0.3780 -0.3780c -0.2087,-0.0000 -0.3780,0.1692 -0.3780 0.3780c -0.0000,0.2087 0.1692,0.3780 0.3780 0.3780c 0.2087,0.0000 0.3780,-0.1692 0.3780 -0.3780Z"/></g><g stroke-linejoin="miter" stroke-opacity="1.0" fill-opacity="0.0" stroke="rgb(0,0,255)" stroke-width="2.350853988879138" fill="rgb(0,0,0)" stroke-linecap="butt" stroke-miterlimit="10.0"><path d="M 376.1480,280.2520 c 0.0000,-1.6699 -1.3537,-3.0236 -3.0236 -3.0236c -1.6699,-0.0000 -3.0236,1.3537 -3.0236 3.0236c -0.0000,1.6699 1.3537,3.0236 3.0236 3.0236c 1.6699,0.0000 3.0236,-1.3537 3.0236 -3.0236Z"/></g><g stroke-linejoin="miter" stroke-opacity="1.0" fill-opacity="1.0" stroke="rgb(255,0,0)" stroke-width="2.350853988879138" fill="rgb(255,0,0)" stroke-linecap="butt" stroke-miterlimit="10.0"><path d="M 373.5024,280.2520 c 0.0000,-0.2087 -0.1692,-0.3780 -0.3780 -0.3780c -0.2087,-0.0000 -0.3780,0.1692 -0.3780 0.3780c -0.0000,0.2087 0.1692,0.3780 0.3780 0.3780c 0.2087,0.0000 0.3780,-0.1692 0.3780 -0.3780Z"/></g><g stroke-linejoin="miter" stroke-opacity="1.0" fill-opacity="0.0" stroke="rgb(0,0,0)" stroke-width="2.350853988879138" fill="rgb(0,0,0)" stroke-linecap="butt" stroke-miterlimit="10.0"><path d="M 384.4630,319.9370 l -0.0000,-49.1339 h -60.2646 l -0.0000,49.1339 Z"/></g><g stroke-linejoin="miter" stroke-opacity="1.0" fill-opacity="1.0" font-size="18.89763779527559px" stroke="rgb(0,0,0)" stroke-width="2.350853988879138" fill="rgb(0,0,0)" stroke-linecap="butt" stroke-miterlimit="10.0"><text dominant-baseline="middle" transform="matrix(1.0000,-0.0000,0.0000,1.0000,354.3307,295.3701)" stroke="none" text-anchor="middle"></text></g><g stroke-linejoin="miter" stroke-opacity="1.0" fill-opacity="0.0" stroke="rgb(0,0,255)" stroke-width="2.350853988879138" fill="rgb(0,0,0)" stroke-linecap="butt" stroke-miterlimit="10.0"><path d="M 262.9701,44.0315 c 0.0000,-1.6699 -1.3537,-3.0236 -3.0236 -3.0236c -1.6699,-0.0000 -3.0236,1.3537 -3.0236 3.0236c -0.0000,1.6699 1.3537,3.0236 3.0236 3.0236c 1.6699,0.0000 3.0236,-1.3537 3.0236 -3.0236Z"/></g><g stroke-linejoin="miter" stroke-opacity="1.0" fill-opacity="1.0" stroke="rgb(255,0,0)" stroke-width="2.350853988879138" fill="rgb(255,0,0)" stroke-linecap="butt" stroke-miterlimit="10.0"><path d="M 260.3244,44.0315 c 0.0000,-0.2087 -0.1692,-0.3780 -0.3780 -0.3780c -0.2087,-0.0000 -0.3780,0.1692 -0.3780 0.3780c -0.0000,0.2087 0.1692,0.3780 0.3780 0.3780c 0.2087,0.0000 0.3780,-0.1692 0.3780 -0.3780Z"/></g><g stroke-linejoin="miter" stroke-opacity="1.0" fill-opacity="0.0" stroke="rgb(0,0,255)" stroke-width="2.350853988879138" fill="rgb(0,0,0)" stroke-linecap="butt" stroke-miterlimit="10.0"><path d="M 281.7638,44.0315 c 0.0000,-1.6699 -1.3537,-3.0236 -3.0236 -3.0236c -1.6699,-0.0000 -3.0236,1.3537 -3.0236 3.0236c -0.0000,1.6699 1.3537,3.0236 3.0236 3.0236c 1.6699,0.0000 3.0236,-1.3537 3.0236 -3.0236Z"/></g><g stroke-linejoin="miter" stroke-opacity="1.0" fill-opacity="1.0" stroke="rgb(255,0,0)" stroke-width="2.350853988879138" fill="rgb(255,0,0)" stroke-linecap="butt" stroke-miterlimit="10.0"><path d="M 279.1181,44.0315 c 0.0000,-0.2087 -0.1692,-0.3780 -0.3780 -0.3780c -0.2087,-0.0000 -0.3780,0.1692 -0.3780 0.3780c -0.0000,0.2087 0.1692,0.3780 0.3780 0.3780c 0.2087,0.0000 0.3780,-0.1692 0.3780 -0.3780Z"/></g><g stroke-linejoin="miter" stroke-opacity="1.0" fill-opacity="0.0" stroke="rgb(0,0,255)" stroke-width="2.350853988879138" fill="rgb(0,0,0)" stroke-linecap="butt" stroke-miterlimit="10.0"><path d="M 300.5575,44.0315 c 0.0000,-1.6699 -1.3537,-3.0236 -3.0236 -3.0236c -1.6699,-0.0000 -3.0236,1.3537 -3.0236 3.0236c -0.0000,1.6699 1.3537,3.0236 3.0236 3.0236c 1.6699,0.0000 3.0236,-1.3537 3.0236 -3.0236Z"/></g><g stroke-linejoin="miter" stroke-opacity="1.0" fill-opacity="1.0" stroke="rgb(255,0,0)" stroke-width="2.350853988879138" fill="rgb(255,0,0)" stroke-linecap="butt" stroke-miterlimit="10.0"><path d="M 297.9118,44.0315 c 0.0000,-0.2087 -0.1692,-0.3780 -0.3780 -0.3780c -0.2087,-0.0000 -0.3780,0.1692 -0.3780 0.3780c -0.0000,0.2087 0.1692,0.3780 0.3780 0.3780c 0.2087,0.0000 0.3780,-0.1692 0.3780 -0.3780Z"/></g><g stroke-linejoin="miter" stroke-opacity="1.0" fill-opacity="0.0" stroke="rgb(0,0,0)" stroke-width="2.350853988879138" fill="rgb(0,0,0)" stroke-linecap="butt" stroke-miterlimit="10.0"><path d="M 308.8724,83.7165 l -0.0000,-49.1339 h -60.2646 l -0.0000,49.1339 Z"/></g><g stroke-linejoin="miter" stroke-opacity="1.0" fill-opacity="1.0" font-size="18.89763779527559px" stroke="rgb(0,0,0)" stroke-width="2.350853988879138" fill="rgb(0,0,0)" stroke-linecap="butt" stroke-miterlimit="10.0"><text dominant-baseline="middle" transform="matrix(1.0000,-0.0000,0.0000,1.0000,278.7402,59.1496)" stroke="none" text-anchor="middle"></text></g><g stroke-linejoin="miter" stroke-opacity="1.0" fill-opacity="0.0" stroke="rgb(0,0,255)" stroke-width="2.350853988879138" fill="rgb(0,0,0)" stroke-linecap="butt" stroke-miterlimit="10.0"><path d="M 262.9701,117.7323 c 0.0000,-1.6699 -1.3537,-3.0236 -3.0236 -3.0236c -1.6699,-0.0000 -3.0236,1.3537 -3.0236 3.0236c -0.0000,1.6699 1.3537,3.0236 3.0236 3.0236c 1.6699,0.0000 3.0236,-1.3537 3.0236 -3.0236Z"/></g><g stroke-linejoin="miter" stroke-opacity="1.0" fill-opacity="1.0" stroke="rgb(255,0,0)" stroke-width="2.350853988879138" fill="rgb(255,0,0)" stroke-linecap="butt" stroke-miterlimit="10.0"><path d="M 260.3244,117.7323 c 0.0000,-0.2087 -0.1692,-0.3780 -0.3780 -0.3780c -0.2087,-0.0000 -0.3780,0.1692 -0.3780 0.3780c -0.0000,0.2087 0.1692,0.3780 0.3780 0.3780c 0.2087,0.0000 0.3780,-0.1692 0.3780 -0.3780Z"/></g><g stroke-linejoin="miter" stroke-opacity="1.0" fill-opacity="0.0" stroke="rgb(0,0,255)" stroke-width="2.350853988879138" fill="rgb(0,0,0)" stroke-linecap="butt" stroke-miterlimit="10.0"><path d="M 281.7638,117.7323 c 0.0000,-1.6699 -1.3537,-3.0236 -3.0236 -3.0236c -1.6699,-0.0000 -3.0236,1.3537 -3.0236 3.0236c -0.0000,1.6699 1.3537,3.0236 3.0236 3.0236c 1.6699,0.0000 3.0236,-1.3537 3.0236 -3.0236Z"/></g><g stroke-linejoin="miter" stroke-opacity="1.0" fill-opacity="1.0" stroke="rgb(255,0,0)" stroke-width="2.350853988879138" fill="rgb(255,0,0)" stroke-linecap="butt" stroke-miterlimit="10.0"><path d="M 279.1181,117.7323 c 0.0000,-0.2087 -0.1692,-0.3780 -0.3780 -0.3780c -0.2087,-0.0000 -0.3780,0.1692 -0.3780 0.3780c -0.0000,0.2087 0.1692,0.3780 0.3780 0.3780c 0.2087,0.0000 0.3780,-0.1692 0.3780 -0.3780Z"/></g><g stroke-linejoin="miter" stroke-opacity="1.0" fill-opacity="0.0" stroke="rgb(0,0,255)" stroke-width="2.350853988879138" fill="rgb(0,0,0)" stroke-linecap="butt" stroke-miterlimit="10.0"><path d="M 300.5575,117.7323 c 0.0000,-1.6699 -1.3537,-3.0236 -3.0236 -3.0236c -1.6699,-0.0000 -3.0236,1.3537 -3.0236 3.0236c -0.0000,1.6699 1.3537,3.0236 3.0236 3.0236c 1.6699,0.0000 3.0236,-1.3537 3.0236 -3.0236Z"/></g><g stroke-linejoin="miter" stroke-opacity="1.0" fill-opacity="1.0" stroke="rgb(255,0,0)" stroke-width="2.350853988879138" fill="rgb(255,0,0)" stroke-linecap="butt" stroke-miterlimit="10.0"><path d="M 297.9118,117.7323 c 0.0000,-0.2087 -0.1692,-0.3780 -0.3780 -0.3780c -0.2087,-0.0000 -0.3780,0.1692 -0.3780 0.3780c -0.0000,0.2087 0.1692,0.3780 0.3780 0.3780c 0.2087,0.0000 0.3780,-0.1692 0.3780 -0.3780Z"/></g><g stroke-linejoin="miter" stroke-opacity="1.0" fill-opacity="0.0" stroke="rgb(0,0,0)" stroke-width="2.350853988879138" fill="rgb(0,0,0)" stroke-linecap="butt" stroke-miterlimit="10.0"><path d="M 308.8724,157.4173 l -0.0000,-49.1339 h -60.2646 l -0.0000,49.1339 Z"/></g><g stroke-linejoin="miter" stroke-opacity="1.0" fill-opacity="1.0" font-size="18.89763779527559px" stroke="rgb(0,0,0)" stroke-width="2.350853988879138" fill="rgb(0,0,0)" stroke-linecap="butt" stroke-miterlimit="10.0"><text dominant-baseline="middle" transform="matrix(1.0000,-0.0000,0.0000,1.0000,278.7402,132.8504)" stroke="none" text-anchor="middle"></text></g><g stroke-linejoin="miter" stroke-opacity="1.0" fill-opacity="0.0" stroke="rgb(0,0,255)" stroke-width="2.350853988879138" fill="rgb(0,0,0)" stroke-linecap="butt" stroke-miterlimit="10.0"><path d="M 262.9701,191.4331 c 0.0000,-1.6699 -1.3537,-3.0236 -3.0236 -3.0236c -1.6699,-0.0000 -3.0236,1.3537 -3.0236 3.0236c -0.0000,1.6699 1.3537,3.0236 3.0236 3.0236c 1.6699,0.0000 3.0236,-1.3537 3.0236 -3.0236Z"/></g><g stroke-linejoin="miter" stroke-opacity="1.0" fill-opacity="1.0" stroke="rgb(255,0,0)" stroke-width="2.350853988879138" fill="rgb(255,0,0)" stroke-linecap="butt" stroke-miterlimit="10.0"><path d="M 260.3244,191.4331 c 0.0000,-0.2087 -0.1692,-0.3780 -0.3780 -0.3780c -0.2087,-0.0000 -0.3780,0.1692 -0.3780 0.3780c -0.0000,0.2087 0.1692,0.3780 0.3780 0.3780c 0.2087,0.0000 0.3780,-0.1692 0.3780 -0.3780Z"/></g><g stroke-linejoin="miter" stroke-opacity="1.0" fill-opacity="0.0" stroke="rgb(0,0,255)" stroke-width="2.350853988879138" fill="rgb(0,0,0)" stroke-linecap="butt" stroke-miterlimit="10.0"><path d="M 281.7638,191.4331 c 0.0000,-1.6699 -1.3537,-3.0236 -3.0236 -3.0236c -1.6699,-0.0000 -3.0236,1.3537 -3.0236 3.0236c -0.0000,1.6699 1.3537,3.0236 3.0236 3.0236c 1.6699,0.0000 3.0236,-1.3537 3.0236 -3.0236Z"/></g><g stroke-linejoin="miter" stroke-opacity="1.0" fill-opacity="1.0" stroke="rgb(255,0,0)" stroke-width="2.350853988879138" fill="rgb(255,0,0)" stroke-linecap="butt" stroke-miterlimit="10.0"><path d="M 279.1181,191.4331 c 0.0000,-0.2087 -0.1692,-0.3780 -0.3780 -0.3780c -0.2087,-0.0000 -0.3780,0.1692 -0.3780 0.3780c -0.0000,0.2087 0.1692,0.3780 0.3780 0.3780c 0.2087,0.0000 0.3780,-0.1692 0.3780 -0.3780Z"/></g><g stroke-linejoin="miter" stroke-opacity="1.0" fill-opacity="0.0" stroke="rgb(0,0,255)" stroke-width="2.350853988879138" fill="rgb(0,0,0)" stroke-linecap="butt" stroke-miterlimit="10.0"><path d="M 300.5575,191.4331 c 0.0000,-1.6699 -1.3537,-3.0236 -3.0236 -3.0236c -1.6699,-0.0000 -3.0236,1.3537 -3.0236 3.0236c -0.0000,1.6699 1.3537,3.0236 3.0236 3.0236c 1.6699,0.0000 3.0236,-1.3537 3.0236 -3.0236Z"/></g><g stroke-linejoin="miter" stroke-opacity="1.0" fill-opacity="1.0" stroke="rgb(255,0,0)" stroke-width="2.350853988879138" fill="rgb(255,0,0)" stroke-linecap="butt" stroke-miterlimit="10.0"><path d="M 297.9118,191.4331 c 0.0000,-0.2087 -0.1692,-0.3780 -0.3780 -0.3780c -0.2087,-0.0000 -0.3780,0.1692 -0.3780 0.3780c -0.0000,0.2087 0.1692,0.3780 0.3780 0.3780c 0.2087,0.0000 0.3780,-0.1692 0.3780 -0.3780Z"/></g><g stroke-linejoin="miter" stroke-opacity="1.0" fill-opacity="0.0" stroke="rgb(0,0,0)" stroke-width="2.350853988879138" fill="rgb(0,0,0)" stroke-linecap="butt" stroke-miterlimit="10.0"><path d="M 308.8724,231.1181 l -0.0000,-49.1339 h -60.2646 l -0.0000,49.1339 Z"/></g><g stroke-linejoin="miter" stroke-opacity="1.0" fill-opacity="1.0" font-size="18.89763779527559px" stroke="rgb(0,0,0)" stroke-width="2.350853988879138" fill="rgb(0,0,0)" stroke-linecap="butt" stroke-miterlimit="10.0"><text dominant-baseline="middle" transform="matrix(1.0000,-0.0000,0.0000,1.0000,278.7402,206.5512)" stroke="none" text-anchor="middle"></text></g><g stroke-linejoin="miter" stroke-opacity="1.0" fill-opacity="0.0" stroke="rgb(0,0,255)" stroke-width="2.350853988879138" fill="rgb(0,0,0)" stroke-linecap="butt" stroke-miterlimit="10.0"><path d="M 262.9701,265.1339 c 0.0000,-1.6699 -1.3537,-3.0236 -3.0236 -3.0236c -1.6699,-0.0000 -3.0236,1.3537 -3.0236 3.0236c -0.0000,1.6699 1.3537,3.0236 3.0236 3.0236c 1.6699,0.0000 3.0236,-1.3537 3.0236 -3.0236Z"/></g><g stroke-linejoin="miter" stroke-opacity="1.0" fill-opacity="1.0" stroke="rgb(255,0,0)" stroke-width="2.350853988879138" fill="rgb(255,0,0)" stroke-linecap="butt" stroke-miterlimit="10.0"><path d="M 260.3244,265.1339 c 0.0000,-0.2087 -0.1692,-0.3780 -0.3780 -0.3780c -0.2087,-0.0000 -0.3780,0.1692 -0.3780 0.3780c -0.0000,0.2087 0.1692,0.3780 0.3780 0.3780c 0.2087,0.0000 0.3780,-0.1692 0.3780 -0.3780Z"/></g><g stroke-linejoin="miter" stroke-opacity="1.0" fill-opacity="0.0" stroke="rgb(0,0,255)" stroke-width="2.350853988879138" fill="rgb(0,0,0)" stroke-linecap="butt" stroke-miterlimit="10.0"><path d="M 281.7638,265.1339 c 0.0000,-1.6699 -1.3537,-3.0236 -3.0236 -3.0236c -1.6699,-0.0000 -3.0236,1.3537 -3.0236 3.0236c -0.0000,1.6699 1.3537,3.0236 3.0236 3.0236c 1.6699,0.0000 3.0236,-1.3537 3.0236 -3.0236Z"/></g><g stroke-linejoin="miter" stroke-opacity="1.0" fill-opacity="1.0" stroke="rgb(255,0,0)" stroke-width="2.350853988879138" fill="rgb(255,0,0)" stroke-linecap="butt" stroke-miterlimit="10.0"><path d="M 279.1181,265.1339 c 0.0000,-0.2087 -0.1692,-0.3780 -0.3780 -0.3780c -0.2087,-0.0000 -0.3780,0.1692 -0.3780 0.3780c -0.0000,0.2087 0.1692,0.3780 0.3780 0.3780c 0.2087,0.0000 0.3780,-0.1692 0.3780 -0.3780Z"/></g><g stroke-linejoin="miter" stroke-opacity="1.0" fill-opacity="0.0" stroke="rgb(0,0,255)" stroke-width="2.350853988879138" fill="rgb(0,0,0)" stroke-linecap="butt" stroke-miterlimit="10.0"><path d="M 300.5575,265.1339 c 0.0000,-1.6699 -1.3537,-3.0236 -3.0236 -3.0236c -1.6699,-0.0000 -3.0236,1.3537 -3.0236 3.0236c -0.0000,1.6699 1.3537,3.0236 3.0236 3.0236c 1.6699,0.0000 3.0236,-1.3537 3.0236 -3.0236Z"/></g><g stroke-linejoin="miter" stroke-opacity="1.0" fill-opacity="1.0" stroke="rgb(255,0,0)" stroke-width="2.350853988879138" fill="rgb(255,0,0)" stroke-linecap="butt" stroke-miterlimit="10.0"><path d="M 297.9118,265.1339 c 0.0000,-0.2087 -0.1692,-0.3780 -0.3780 -0.3780c -0.2087,-0.0000 -0.3780,0.1692 -0.3780 0.3780c -0.0000,0.2087 0.1692,0.3780 0.3780 0.3780c 0.2087,0.0000 0.3780,-0.1692 0.3780 -0.3780Z"/></g><g stroke-linejoin="miter" stroke-opacity="1.0" fill-opacity="0.0" stroke="rgb(0,0,0)" stroke-width="2.350853988879138" fill="rgb(0,0,0)" stroke-linecap="butt" stroke-miterlimit="10.0"><path d="M 308.8724,304.8189 l -0.0000,-49.1339 h -60.2646 l -0.0000,49.1339 Z"/></g><g stroke-linejoin="miter" stroke-opacity="1.0" fill-opacity="1.0" font-size="18.89763779527559px" stroke="rgb(0,0,0)" stroke-width="2.350853988879138" fill="rgb(0,0,0)" stroke-linecap="butt" stroke-miterlimit="10.0"><text dominant-baseline="middle" transform="matrix(1.0000,-0.0000,0.0000,1.0000,278.7402,280.2520)" stroke="none" text-anchor="middle"></text></g><g stroke-linejoin="miter" stroke-opacity="1.0" fill-opacity="0.0" stroke="rgb(0,0,255)" stroke-width="2.350853988879138" fill="rgb(0,0,0)" stroke-linecap="butt" stroke-miterlimit="10.0"><path d="M 187.3795,28.9134 c 0.0000,-1.6699 -1.3537,-3.0236 -3.0236 -3.0236c -1.6699,-0.0000 -3.0236,1.3537 -3.0236 3.0236c -0.0000,1.6699 1.3537,3.0236 3.0236 3.0236c 1.6699,0.0000 3.0236,-1.3537 3.0236 -3.0236Z"/></g><g stroke-linejoin="miter" stroke-opacity="1.0" fill-opacity="1.0" stroke="rgb(255,0,0)" stroke-width="2.350853988879138" fill="rgb(255,0,0)" stroke-linecap="butt" stroke-miterlimit="10.0"><path d="M 184.7339,28.9134 c 0.0000,-0.2087 -0.1692,-0.3780 -0.3780 -0.3780c -0.2087,-0.0000 -0.3780,0.1692 -0.3780 0.3780c -0.0000,0.2087 0.1692,0.3780 0.3780 0.3780c 0.2087,0.0000 0.3780,-0.1692 0.3780 -0.3780Z"/></g><g stroke-linejoin="miter" stroke-opacity="1.0" fill-opacity="0.0" stroke="rgb(0,0,255)" stroke-width="2.350853988879138" fill="rgb(0,0,0)" stroke-linecap="butt" stroke-miterlimit="10.0"><path d="M 206.1732,28.9134 c 0.0000,-1.6699 -1.3537,-3.0236 -3.0236 -3.0236c -1.6699,-0.0000 -3.0236,1.3537 -3.0236 3.0236c -0.0000,1.6699 1.3537,3.0236 3.0236 3.0236c 1.6699,0.0000 3.0236,-1.3537 3.0236 -3.0236Z"/></g><g stroke-linejoin="miter" stroke-opacity="1.0" fill-opacity="1.0" stroke="rgb(255,0,0)" stroke-width="2.350853988879138" fill="rgb(255,0,0)" stroke-linecap="butt" stroke-miterlimit="10.0"><path d="M 203.5276,28.9134 c 0.0000,-0.2087 -0.1692,-0.3780 -0.3780 -0.3780c -0.2087,-0.0000 -0.3780,0.1692 -0.3780 0.3780c -0.0000,0.2087 0.1692,0.3780 0.3780 0.3780c 0.2087,0.0000 0.3780,-0.1692 0.3780 -0.3780Z"/></g><g stroke-linejoin="miter" stroke-opacity="1.0" fill-opacity="0.0" stroke="rgb(0,0,255)" stroke-width="2.350853988879138" fill="rgb(0,0,0)" stroke-linecap="butt" stroke-miterlimit="10.0"><path d="M 224.9669,28.9134 c 0.0000,-1.6699 -1.3537,-3.0236 -3.0236 -3.0236c -1.6699,-0.0000 -3.0236,1.3537 -3.0236 3.0236c -0.0000,1.6699 1.3537,3.0236 3.0236 3.0236c 1.6699,0.0000 3.0236,-1.3537 3.0236 -3.0236Z"/></g><g stroke-linejoin="miter" stroke-opacity="1.0" fill-opacity="1.0" stroke="rgb(255,0,0)" stroke-width="2.350853988879138" fill="rgb(255,0,0)" stroke-linecap="butt" stroke-miterlimit="10.0"><path d="M 222.3213,28.9134 c 0.0000,-0.2087 -0.1692,-0.3780 -0.3780 -0.3780c -0.2087,-0.0000 -0.3780,0.1692 -0.3780 0.3780c -0.0000,0.2087 0.1692,0.3780 0.3780 0.3780c 0.2087,0.0000 0.3780,-0.1692 0.3780 -0.3780Z"/></g><g stroke-linejoin="miter" stroke-opacity="1.0" fill-opacity="0.0" stroke="rgb(0,0,0)" stroke-width="2.350853988879138" fill="rgb(0,0,0)" stroke-linecap="butt" stroke-miterlimit="10.0"><path d="M 233.2819,68.5984 l -0.0000,-49.1339 h -60.2646 l -0.0000,49.1339 Z"/></g><g stroke-linejoin="miter" stroke-opacity="1.0" fill-opacity="1.0" font-size="18.89763779527559px" stroke="rgb(0,0,0)" stroke-width="2.350853988879138" fill="rgb(0,0,0)" stroke-linecap="butt" stroke-miterlimit="10.0"><text dominant-baseline="middle" transform="matrix(1.0000,-0.0000,0.0000,1.0000,203.1496,44.0315)" stroke="none" text-anchor="middle"></text></g><g stroke-linejoin="miter" stroke-opacity="1.0" fill-opacity="0.0" stroke="rgb(0,0,255)" stroke-width="2.350853988879138" fill="rgb(0,0,0)" stroke-linecap="butt" stroke-miterlimit="10.0"><path d="M 187.3795,102.6142 c 0.0000,-1.6699 -1.3537,-3.0236 -3.0236 -3.0236c -1.6699,-0.0000 -3.0236,1.3537 -3.0236 3.0236c -0.0000,1.6699 1.3537,3.0236 3.0236 3.0236c 1.6699,0.0000 3.0236,-1.3537 3.0236 -3.0236Z"/></g><g stroke-linejoin="miter" stroke-opacity="1.0" fill-opacity="1.0" stroke="rgb(255,0,0)" stroke-width="2.350853988879138" fill="rgb(255,0,0)" stroke-linecap="butt" stroke-miterlimit="10.0"><path d="M 184.7339,102.6142 c 0.0000,-0.2087 -0.1692,-0.3780 -0.3780 -0.3780c -0.2087,-0.0000 -0.3780,0.1692 -0.3780 0.3780c -0.0000,0.2087 0.1692,0.3780 0.3780 0.3780c 0.2087,0.0000 0.3780,-0.1692 0.3780 -0.3780Z"/></g><g stroke-linejoin="miter" stroke-opacity="1.0" fill-opacity="0.0" stroke="rgb(0,0,255)" stroke-width="2.350853988879138" fill="rgb(0,0,0)" stroke-linecap="butt" stroke-miterlimit="10.0"><path d="M 206.1732,102.6142 c 0.0000,-1.6699 -1.3537,-3.0236 -3.0236 -3.0236c -1.6699,-0.0000 -3.0236,1.3537 -3.0236 3.0236c -0.0000,1.6699 1.3537,3.0236 3.0236 3.0236c 1.6699,0.0000 3.0236,-1.3537 3.0236 -3.0236Z"/></g><g stroke-linejoin="miter" stroke-opacity="1.0" fill-opacity="1.0" stroke="rgb(255,0,0)" stroke-width="2.350853988879138" fill="rgb(255,0,0)" stroke-linecap="butt" stroke-miterlimit="10.0"><path d="M 203.5276,102.6142 c 0.0000,-0.2087 -0.1692,-0.3780 -0.3780 -0.3780c -0.2087,-0.0000 -0.3780,0.1692 -0.3780 0.3780c -0.0000,0.2087 0.1692,0.3780 0.3780 0.3780c 0.2087,0.0000 0.3780,-0.1692 0.3780 -0.3780Z"/></g><g stroke-linejoin="miter" stroke-opacity="1.0" fill-opacity="0.0" stroke="rgb(0,0,255)" stroke-width="2.350853988879138" fill="rgb(0,0,0)" stroke-linecap="butt" stroke-miterlimit="10.0"><path d="M 224.9669,102.6142 c 0.0000,-1.6699 -1.3537,-3.0236 -3.0236 -3.0236c -1.6699,-0.0000 -3.0236,1.3537 -3.0236 3.0236c -0.0000,1.6699 1.3537,3.0236 3.0236 3.0236c 1.6699,0.0000 3.0236,-1.3537 3.0236 -3.0236Z"/></g><g stroke-linejoin="miter" stroke-opacity="1.0" fill-opacity="1.0" stroke="rgb(255,0,0)" stroke-width="2.350853988879138" fill="rgb(255,0,0)" stroke-linecap="butt" stroke-miterlimit="10.0"><path d="M 222.3213,102.6142 c 0.0000,-0.2087 -0.1692,-0.3780 -0.3780 -0.3780c -0.2087,-0.0000 -0.3780,0.1692 -0.3780 0.3780c -0.0000,0.2087 0.1692,0.3780 0.3780 0.3780c 0.2087,0.0000 0.3780,-0.1692 0.3780 -0.3780Z"/></g><g stroke-linejoin="miter" stroke-opacity="1.0" fill-opacity="0.0" stroke="rgb(0,0,0)" stroke-width="2.350853988879138" fill="rgb(0,0,0)" stroke-linecap="butt" stroke-miterlimit="10.0"><path d="M 233.2819,142.2992 l -0.0000,-49.1339 h -60.2646 l -0.0000,49.1339 Z"/></g><g stroke-linejoin="miter" stroke-opacity="1.0" fill-opacity="1.0" font-size="18.89763779527559px" stroke="rgb(0,0,0)" stroke-width="2.350853988879138" fill="rgb(0,0,0)" stroke-linecap="butt" stroke-miterlimit="10.0"><text dominant-baseline="middle" transform="matrix(1.0000,-0.0000,0.0000,1.0000,203.1496,117.7323)" stroke="none" text-anchor="middle"></text></g><g stroke-linejoin="miter" stroke-opacity="1.0" fill-opacity="0.0" stroke="rgb(0,0,255)" stroke-width="2.350853988879138" fill="rgb(0,0,0)" stroke-linecap="butt" stroke-miterlimit="10.0"><path d="M 187.3795,176.3150 c 0.0000,-1.6699 -1.3537,-3.0236 -3.0236 -3.0236c -1.6699,-0.0000 -3.0236,1.3537 -3.0236 3.0236c -0.0000,1.6699 1.3537,3.0236 3.0236 3.0236c 1.6699,0.0000 3.0236,-1.3537 3.0236 -3.0236Z"/></g><g stroke-linejoin="miter" stroke-opacity="1.0" fill-opacity="1.0" stroke="rgb(255,0,0)" stroke-width="2.350853988879138" fill="rgb(255,0,0)" stroke-linecap="butt" stroke-miterlimit="10.0"><path d="M 184.7339,176.3150 c 0.0000,-0.2087 -0.1692,-0.3780 -0.3780 -0.3780c -0.2087,-0.0000 -0.3780,0.1692 -0.3780 0.3780c -0.0000,0.2087 0.1692,0.3780 0.3780 0.3780c 0.2087,0.0000 0.3780,-0.1692 0.3780 -0.3780Z"/></g><g stroke-linejoin="miter" stroke-opacity="1.0" fill-opacity="0.0" stroke="rgb(0,0,255)" stroke-width="2.350853988879138" fill="rgb(0,0,0)" stroke-linecap="butt" stroke-miterlimit="10.0"><path d="M 206.1732,176.3150 c 0.0000,-1.6699 -1.3537,-3.0236 -3.0236 -3.0236c -1.6699,-0.0000 -3.0236,1.3537 -3.0236 3.0236c -0.0000,1.6699 1.3537,3.0236 3.0236 3.0236c 1.6699,0.0000 3.0236,-1.3537 3.0236 -3.0236Z"/></g><g stroke-linejoin="miter" stroke-opacity="1.0" fill-opacity="1.0" stroke="rgb(255,0,0)" stroke-width="2.350853988879138" fill="rgb(255,0,0)" stroke-linecap="butt" stroke-miterlimit="10.0"><path d="M 203.5276,176.3150 c 0.0000,-0.2087 -0.1692,-0.3780 -0.3780 -0.3780c -0.2087,-0.0000 -0.3780,0.1692 -0.3780 0.3780c -0.0000,0.2087 0.1692,0.3780 0.3780 0.3780c 0.2087,0.0000 0.3780,-0.1692 0.3780 -0.3780Z"/></g><g stroke-linejoin="miter" stroke-opacity="1.0" fill-opacity="0.0" stroke="rgb(0,0,255)" stroke-width="2.350853988879138" fill="rgb(0,0,0)" stroke-linecap="butt" stroke-miterlimit="10.0"><path d="M 224.9669,176.3150 c 0.0000,-1.6699 -1.3537,-3.0236 -3.0236 -3.0236c -1.6699,-0.0000 -3.0236,1.3537 -3.0236 3.0236c -0.0000,1.6699 1.3537,3.0236 3.0236 3.0236c 1.6699,0.0000 3.0236,-1.3537 3.0236 -3.0236Z"/></g><g stroke-linejoin="miter" stroke-opacity="1.0" fill-opacity="1.0" stroke="rgb(255,0,0)" stroke-width="2.350853988879138" fill="rgb(255,0,0)" stroke-linecap="butt" stroke-miterlimit="10.0"><path d="M 222.3213,176.3150 c 0.0000,-0.2087 -0.1692,-0.3780 -0.3780 -0.3780c -0.2087,-0.0000 -0.3780,0.1692 -0.3780 0.3780c -0.0000,0.2087 0.1692,0.3780 0.3780 0.3780c 0.2087,0.0000 0.3780,-0.1692 0.3780 -0.3780Z"/></g><g stroke-linejoin="miter" stroke-opacity="1.0" fill-opacity="0.0" stroke="rgb(0,0,0)" stroke-width="2.350853988879138" fill="rgb(0,0,0)" stroke-linecap="butt" stroke-miterlimit="10.0"><path d="M 233.2819,216.0000 l -0.0000,-49.1339 h -60.2646 l -0.0000,49.1339 Z"/></g><g stroke-linejoin="miter" stroke-opacity="1.0" fill-opacity="1.0" font-size="18.89763779527559px" stroke="rgb(0,0,0)" stroke-width="2.350853988879138" fill="rgb(0,0,0)" stroke-linecap="butt" stroke-miterlimit="10.0"><text dominant-baseline="middle" transform="matrix(1.0000,-0.0000,0.0000,1.0000,203.1496,191.4331)" stroke="none" text-anchor="middle"></text></g><g stroke-linejoin="miter" stroke-opacity="1.0" fill-opacity="0.0" stroke="rgb(0,0,255)" stroke-width="2.350853988879138" fill="rgb(0,0,0)" stroke-linecap="butt" stroke-miterlimit="10.0"><path d="M 187.3795,250.0157 c 0.0000,-1.6699 -1.3537,-3.0236 -3.0236 -3.0236c -1.6699,-0.0000 -3.0236,1.3537 -3.0236 3.0236c -0.0000,1.6699 1.3537,3.0236 3.0236 3.0236c 1.6699,0.0000 3.0236,-1.3537 3.0236 -3.0236Z"/></g><g stroke-linejoin="miter" stroke-opacity="1.0" fill-opacity="1.0" stroke="rgb(255,0,0)" stroke-width="2.350853988879138" fill="rgb(255,0,0)" stroke-linecap="butt" stroke-miterlimit="10.0"><path d="M 184.7339,250.0157 c 0.0000,-0.2087 -0.1692,-0.3780 -0.3780 -0.3780c -0.2087,-0.0000 -0.3780,0.1692 -0.3780 0.3780c -0.0000,0.2087 0.1692,0.3780 0.3780 0.3780c 0.2087,0.0000 0.3780,-0.1692 0.3780 -0.3780Z"/></g><g stroke-linejoin="miter" stroke-opacity="1.0" fill-opacity="0.0" stroke="rgb(0,0,255)" stroke-width="2.350853988879138" fill="rgb(0,0,0)" stroke-linecap="butt" stroke-miterlimit="10.0"><path d="M 206.1732,250.0157 c 0.0000,-1.6699 -1.3537,-3.0236 -3.0236 -3.0236c -1.6699,-0.0000 -3.0236,1.3537 -3.0236 3.0236c -0.0000,1.6699 1.3537,3.0236 3.0236 3.0236c 1.6699,0.0000 3.0236,-1.3537 3.0236 -3.0236Z"/></g><g stroke-linejoin="miter" stroke-opacity="1.0" fill-opacity="1.0" stroke="rgb(255,0,0)" stroke-width="2.350853988879138" fill="rgb(255,0,0)" stroke-linecap="butt" stroke-miterlimit="10.0"><path d="M 203.5276,250.0157 c 0.0000,-0.2087 -0.1692,-0.3780 -0.3780 -0.3780c -0.2087,-0.0000 -0.3780,0.1692 -0.3780 0.3780c -0.0000,0.2087 0.1692,0.3780 0.3780 0.3780c 0.2087,0.0000 0.3780,-0.1692 0.3780 -0.3780Z"/></g><g stroke-linejoin="miter" stroke-opacity="1.0" fill-opacity="0.0" stroke="rgb(0,0,255)" stroke-width="2.350853988879138" fill="rgb(0,0,0)" stroke-linecap="butt" stroke-miterlimit="10.0"><path d="M 224.9669,250.0157 c 0.0000,-1.6699 -1.3537,-3.0236 -3.0236 -3.0236c -1.6699,-0.0000 -3.0236,1.3537 -3.0236 3.0236c -0.0000,1.6699 1.3537,3.0236 3.0236 3.0236c 1.6699,0.0000 3.0236,-1.3537 3.0236 -3.0236Z"/></g><g stroke-linejoin="miter" stroke-opacity="1.0" fill-opacity="1.0" stroke="rgb(255,0,0)" stroke-width="2.350853988879138" fill="rgb(255,0,0)" stroke-linecap="butt" stroke-miterlimit="10.0"><path d="M 222.3213,250.0157 c 0.0000,-0.2087 -0.1692,-0.3780 -0.3780 -0.3780c -0.2087,-0.0000 -0.3780,0.1692 -0.3780 0.3780c -0.0000,0.2087 0.1692,0.3780 0.3780 0.3780c 0.2087,0.0000 0.3780,-0.1692 0.3780 -0.3780Z"/></g><g stroke-linejoin="miter" stroke-opacity="1.0" fill-opacity="0.0" stroke="rgb(0,0,0)" stroke-width="2.350853988879138" fill="rgb(0,0,0)" stroke-linecap="butt" stroke-miterlimit="10.0"><path d="M 233.2819,289.7008 l -0.0000,-49.1339 h -60.2646 l -0.0000,49.1339 Z"/></g><g stroke-linejoin="miter" stroke-opacity="1.0" fill-opacity="1.0" font-size="18.89763779527559px" stroke="rgb(0,0,0)" stroke-width="2.350853988879138" fill="rgb(0,0,0)" stroke-linecap="butt" stroke-miterlimit="10.0"><text dominant-baseline="middle" transform="matrix(1.0000,-0.0000,0.0000,1.0000,203.1496,265.1339)" stroke="none" text-anchor="middle"></text></g><g stroke-linejoin="miter" stroke-opacity="1.0" fill-opacity="0.0" stroke="rgb(0,0,255)" stroke-width="2.350853988879138" fill="rgb(0,0,0)" stroke-linecap="butt" stroke-miterlimit="10.0"><path d="M 111.7890,44.0315 c 0.0000,-1.6699 -1.3537,-3.0236 -3.0236 -3.0236c -1.6699,-0.0000 -3.0236,1.3537 -3.0236 3.0236c -0.0000,1.6699 1.3537,3.0236 3.0236 3.0236c 1.6699,0.0000 3.0236,-1.3537 3.0236 -3.0236Z"/></g><g stroke-linejoin="miter" stroke-opacity="1.0" fill-opacity="1.0" stroke="rgb(255,0,0)" stroke-width="2.350853988879138" fill="rgb(255,0,0)" stroke-linecap="butt" stroke-miterlimit="10.0"><path d="M 109.1433,44.0315 c 0.0000,-0.2087 -0.1692,-0.3780 -0.3780 -0.3780c -0.2087,-0.0000 -0.3780,0.1692 -0.3780 0.3780c -0.0000,0.2087 0.1692,0.3780 0.3780 0.3780c 0.2087,0.0000 0.3780,-0.1692 0.3780 -0.3780Z"/></g><g stroke-linejoin="miter" stroke-opacity="1.0" fill-opacity="0.0" stroke="rgb(0,0,255)" stroke-width="2.350853988879138" fill="rgb(0,0,0)" stroke-linecap="butt" stroke-miterlimit="10.0"><path d="M 130.5827,44.0315 c 0.0000,-1.6699 -1.3537,-3.0236 -3.0236 -3.0236c -1.6699,-0.0000 -3.0236,1.3537 -3.0236 3.0236c -0.0000,1.6699 1.3537,3.0236 3.0236 3.0236c 1.6699,0.0000 3.0236,-1.3537 3.0236 -3.0236Z"/></g><g stroke-linejoin="miter" stroke-opacity="1.0" fill-opacity="1.0" stroke="rgb(255,0,0)" stroke-width="2.350853988879138" fill="rgb(255,0,0)" stroke-linecap="butt" stroke-miterlimit="10.0"><path d="M 127.9370,44.0315 c 0.0000,-0.2087 -0.1692,-0.3780 -0.3780 -0.3780c -0.2087,-0.0000 -0.3780,0.1692 -0.3780 0.3780c -0.0000,0.2087 0.1692,0.3780 0.3780 0.3780c 0.2087,0.0000 0.3780,-0.1692 0.3780 -0.3780Z"/></g><g stroke-linejoin="miter" stroke-opacity="1.0" fill-opacity="0.0" stroke="rgb(0,0,255)" stroke-width="2.350853988879138" fill="rgb(0,0,0)" stroke-linecap="butt" stroke-miterlimit="10.0"><path d="M 149.3764,44.0315 c 0.0000,-1.6699 -1.3537,-3.0236 -3.0236 -3.0236c -1.6699,-0.0000 -3.0236,1.3537 -3.0236 3.0236c -0.0000,1.6699 1.3537,3.0236 3.0236 3.0236c 1.6699,0.0000 3.0236,-1.3537 3.0236 -3.0236Z"/></g><g stroke-linejoin="miter" stroke-opacity="1.0" fill-opacity="1.0" stroke="rgb(255,0,0)" stroke-width="2.350853988879138" fill="rgb(255,0,0)" stroke-linecap="butt" stroke-miterlimit="10.0"><path d="M 146.7307,44.0315 c 0.0000,-0.2087 -0.1692,-0.3780 -0.3780 -0.3780c -0.2087,-0.0000 -0.3780,0.1692 -0.3780 0.3780c -0.0000,0.2087 0.1692,0.3780 0.3780 0.3780c 0.2087,0.0000 0.3780,-0.1692 0.3780 -0.3780Z"/></g><g stroke-linejoin="miter" stroke-opacity="1.0" fill-opacity="0.0" stroke="rgb(0,0,0)" stroke-width="2.350853988879138" fill="rgb(0,0,0)" stroke-linecap="butt" stroke-miterlimit="10.0"><path d="M 157.6913,83.7165 l -0.0000,-49.1339 h -60.2646 l -0.0000,49.1339 Z"/></g><g stroke-linejoin="miter" stroke-opacity="1.0" fill-opacity="1.0" font-size="18.89763779527559px" stroke="rgb(0,0,0)" stroke-width="2.350853988879138" fill="rgb(0,0,0)" stroke-linecap="butt" stroke-miterlimit="10.0"><text dominant-baseline="middle" transform="matrix(1.0000,-0.0000,0.0000,1.0000,127.5591,59.1496)" stroke="none" text-anchor="middle"></text></g><g stroke-linejoin="miter" stroke-opacity="1.0" fill-opacity="0.0" stroke="rgb(0,0,255)" stroke-width="2.350853988879138" fill="rgb(0,0,0)" stroke-linecap="butt" stroke-miterlimit="10.0"><path d="M 111.7890,117.7323 c 0.0000,-1.6699 -1.3537,-3.0236 -3.0236 -3.0236c -1.6699,-0.0000 -3.0236,1.3537 -3.0236 3.0236c -0.0000,1.6699 1.3537,3.0236 3.0236 3.0236c 1.6699,0.0000 3.0236,-1.3537 3.0236 -3.0236Z"/></g><g stroke-linejoin="miter" stroke-opacity="1.0" fill-opacity="1.0" stroke="rgb(255,0,0)" stroke-width="2.350853988879138" fill="rgb(255,0,0)" stroke-linecap="butt" stroke-miterlimit="10.0"><path d="M 109.1433,117.7323 c 0.0000,-0.2087 -0.1692,-0.3780 -0.3780 -0.3780c -0.2087,-0.0000 -0.3780,0.1692 -0.3780 0.3780c -0.0000,0.2087 0.1692,0.3780 0.3780 0.3780c 0.2087,0.0000 0.3780,-0.1692 0.3780 -0.3780Z"/></g><g stroke-linejoin="miter" stroke-opacity="1.0" fill-opacity="0.0" stroke="rgb(0,0,255)" stroke-width="2.350853988879138" fill="rgb(0,0,0)" stroke-linecap="butt" stroke-miterlimit="10.0"><path d="M 130.5827,117.7323 c 0.0000,-1.6699 -1.3537,-3.0236 -3.0236 -3.0236c -1.6699,-0.0000 -3.0236,1.3537 -3.0236 3.0236c -0.0000,1.6699 1.3537,3.0236 3.0236 3.0236c 1.6699,0.0000 3.0236,-1.3537 3.0236 -3.0236Z"/></g><g stroke-linejoin="miter" stroke-opacity="1.0" fill-opacity="1.0" stroke="rgb(255,0,0)" stroke-width="2.350853988879138" fill="rgb(255,0,0)" stroke-linecap="butt" stroke-miterlimit="10.0"><path d="M 127.9370,117.7323 c 0.0000,-0.2087 -0.1692,-0.3780 -0.3780 -0.3780c -0.2087,-0.0000 -0.3780,0.1692 -0.3780 0.3780c -0.0000,0.2087 0.1692,0.3780 0.3780 0.3780c 0.2087,0.0000 0.3780,-0.1692 0.3780 -0.3780Z"/></g><g stroke-linejoin="miter" stroke-opacity="1.0" fill-opacity="0.0" stroke="rgb(0,0,255)" stroke-width="2.350853988879138" fill="rgb(0,0,0)" stroke-linecap="butt" stroke-miterlimit="10.0"><path d="M 149.3764,117.7323 c 0.0000,-1.6699 -1.3537,-3.0236 -3.0236 -3.0236c -1.6699,-0.0000 -3.0236,1.3537 -3.0236 3.0236c -0.0000,1.6699 1.3537,3.0236 3.0236 3.0236c 1.6699,0.0000 3.0236,-1.3537 3.0236 -3.0236Z"/></g><g stroke-linejoin="miter" stroke-opacity="1.0" fill-opacity="1.0" stroke="rgb(255,0,0)" stroke-width="2.350853988879138" fill="rgb(255,0,0)" stroke-linecap="butt" stroke-miterlimit="10.0"><path d="M 146.7307,117.7323 c 0.0000,-0.2087 -0.1692,-0.3780 -0.3780 -0.3780c -0.2087,-0.0000 -0.3780,0.1692 -0.3780 0.3780c -0.0000,0.2087 0.1692,0.3780 0.3780 0.3780c 0.2087,0.0000 0.3780,-0.1692 0.3780 -0.3780Z"/></g><g stroke-linejoin="miter" stroke-opacity="1.0" fill-opacity="0.0" stroke="rgb(0,0,0)" stroke-width="2.350853988879138" fill="rgb(0,0,0)" stroke-linecap="butt" stroke-miterlimit="10.0"><path d="M 157.6913,157.4173 l -0.0000,-49.1339 h -60.2646 l -0.0000,49.1339 Z"/></g><g stroke-linejoin="miter" stroke-opacity="1.0" fill-opacity="1.0" font-size="18.89763779527559px" stroke="rgb(0,0,0)" stroke-width="2.350853988879138" fill="rgb(0,0,0)" stroke-linecap="butt" stroke-miterlimit="10.0"><text dominant-baseline="middle" transform="matrix(1.0000,-0.0000,0.0000,1.0000,127.5591,132.8504)" stroke="none" text-anchor="middle"></text></g><g stroke-linejoin="miter" stroke-opacity="1.0" fill-opacity="0.0" stroke="rgb(0,0,255)" stroke-width="2.350853988879138" fill="rgb(0,0,0)" stroke-linecap="butt" stroke-miterlimit="10.0"><path d="M 111.7890,191.4331 c 0.0000,-1.6699 -1.3537,-3.0236 -3.0236 -3.0236c -1.6699,-0.0000 -3.0236,1.3537 -3.0236 3.0236c -0.0000,1.6699 1.3537,3.0236 3.0236 3.0236c 1.6699,0.0000 3.0236,-1.3537 3.0236 -3.0236Z"/></g><g stroke-linejoin="miter" stroke-opacity="1.0" fill-opacity="1.0" stroke="rgb(255,0,0)" stroke-width="2.350853988879138" fill="rgb(255,0,0)" stroke-linecap="butt" stroke-miterlimit="10.0"><path d="M 109.1433,191.4331 c 0.0000,-0.2087 -0.1692,-0.3780 -0.3780 -0.3780c -0.2087,-0.0000 -0.3780,0.1692 -0.3780 0.3780c -0.0000,0.2087 0.1692,0.3780 0.3780 0.3780c 0.2087,0.0000 0.3780,-0.1692 0.3780 -0.3780Z"/></g><g stroke-linejoin="miter" stroke-opacity="1.0" fill-opacity="0.0" stroke="rgb(0,0,255)" stroke-width="2.350853988879138" fill="rgb(0,0,0)" stroke-linecap="butt" stroke-miterlimit="10.0"><path d="M 130.5827,191.4331 c 0.0000,-1.6699 -1.3537,-3.0236 -3.0236 -3.0236c -1.6699,-0.0000 -3.0236,1.3537 -3.0236 3.0236c -0.0000,1.6699 1.3537,3.0236 3.0236 3.0236c 1.6699,0.0000 3.0236,-1.3537 3.0236 -3.0236Z"/></g><g stroke-linejoin="miter" stroke-opacity="1.0" fill-opacity="1.0" stroke="rgb(255,0,0)" stroke-width="2.350853988879138" fill="rgb(255,0,0)" stroke-linecap="butt" stroke-miterlimit="10.0"><path d="M 127.9370,191.4331 c 0.0000,-0.2087 -0.1692,-0.3780 -0.3780 -0.3780c -0.2087,-0.0000 -0.3780,0.1692 -0.3780 0.3780c -0.0000,0.2087 0.1692,0.3780 0.3780 0.3780c 0.2087,0.0000 0.3780,-0.1692 0.3780 -0.3780Z"/></g><g stroke-linejoin="miter" stroke-opacity="1.0" fill-opacity="0.0" stroke="rgb(0,0,255)" stroke-width="2.350853988879138" fill="rgb(0,0,0)" stroke-linecap="butt" stroke-miterlimit="10.0"><path d="M 149.3764,191.4331 c 0.0000,-1.6699 -1.3537,-3.0236 -3.0236 -3.0236c -1.6699,-0.0000 -3.0236,1.3537 -3.0236 3.0236c -0.0000,1.6699 1.3537,3.0236 3.0236 3.0236c 1.6699,0.0000 3.0236,-1.3537 3.0236 -3.0236Z"/></g><g stroke-linejoin="miter" stroke-opacity="1.0" fill-opacity="1.0" stroke="rgb(255,0,0)" stroke-width="2.350853988879138" fill="rgb(255,0,0)" stroke-linecap="butt" stroke-miterlimit="10.0"><path d="M 146.7307,191.4331 c 0.0000,-0.2087 -0.1692,-0.3780 -0.3780 -0.3780c -0.2087,-0.0000 -0.3780,0.1692 -0.3780 0.3780c -0.0000,0.2087 0.1692,0.3780 0.3780 0.3780c 0.2087,0.0000 0.3780,-0.1692 0.3780 -0.3780Z"/></g><g stroke-linejoin="miter" stroke-opacity="1.0" fill-opacity="0.0" stroke="rgb(0,0,0)" stroke-width="2.350853988879138" fill="rgb(0,0,0)" stroke-linecap="butt" stroke-miterlimit="10.0"><path d="M 157.6913,231.1181 l -0.0000,-49.1339 h -60.2646 l -0.0000,49.1339 Z"/></g><g stroke-linejoin="miter" stroke-opacity="1.0" fill-opacity="1.0" font-size="18.89763779527559px" stroke="rgb(0,0,0)" stroke-width="2.350853988879138" fill="rgb(0,0,0)" stroke-linecap="butt" stroke-miterlimit="10.0"><text dominant-baseline="middle" transform="matrix(1.0000,-0.0000,0.0000,1.0000,127.5591,206.5512)" stroke="none" text-anchor="middle"></text></g><g stroke-linejoin="miter" stroke-opacity="1.0" fill-opacity="0.0" stroke="rgb(0,0,255)" stroke-width="2.350853988879138" fill="rgb(0,0,0)" stroke-linecap="butt" stroke-miterlimit="10.0"><path d="M 111.7890,265.1339 c 0.0000,-1.6699 -1.3537,-3.0236 -3.0236 -3.0236c -1.6699,-0.0000 -3.0236,1.3537 -3.0236 3.0236c -0.0000,1.6699 1.3537,3.0236 3.0236 3.0236c 1.6699,0.0000 3.0236,-1.3537 3.0236 -3.0236Z"/></g><g stroke-linejoin="miter" stroke-opacity="1.0" fill-opacity="1.0" stroke="rgb(255,0,0)" stroke-width="2.350853988879138" fill="rgb(255,0,0)" stroke-linecap="butt" stroke-miterlimit="10.0"><path d="M 109.1433,265.1339 c 0.0000,-0.2087 -0.1692,-0.3780 -0.3780 -0.3780c -0.2087,-0.0000 -0.3780,0.1692 -0.3780 0.3780c -0.0000,0.2087 0.1692,0.3780 0.3780 0.3780c 0.2087,0.0000 0.3780,-0.1692 0.3780 -0.3780Z"/></g><g stroke-linejoin="miter" stroke-opacity="1.0" fill-opacity="0.0" stroke="rgb(0,0,255)" stroke-width="2.350853988879138" fill="rgb(0,0,0)" stroke-linecap="butt" stroke-miterlimit="10.0"><path d="M 130.5827,265.1339 c 0.0000,-1.6699 -1.3537,-3.0236 -3.0236 -3.0236c -1.6699,-0.0000 -3.0236,1.3537 -3.0236 3.0236c -0.0000,1.6699 1.3537,3.0236 3.0236 3.0236c 1.6699,0.0000 3.0236,-1.3537 3.0236 -3.0236Z"/></g><g stroke-linejoin="miter" stroke-opacity="1.0" fill-opacity="1.0" stroke="rgb(255,0,0)" stroke-width="2.350853988879138" fill="rgb(255,0,0)" stroke-linecap="butt" stroke-miterlimit="10.0"><path d="M 127.9370,265.1339 c 0.0000,-0.2087 -0.1692,-0.3780 -0.3780 -0.3780c -0.2087,-0.0000 -0.3780,0.1692 -0.3780 0.3780c -0.0000,0.2087 0.1692,0.3780 0.3780 0.3780c 0.2087,0.0000 0.3780,-0.1692 0.3780 -0.3780Z"/></g><g stroke-linejoin="miter" stroke-opacity="1.0" fill-opacity="0.0" stroke="rgb(0,0,255)" stroke-width="2.350853988879138" fill="rgb(0,0,0)" stroke-linecap="butt" stroke-miterlimit="10.0"><path d="M 149.3764,265.1339 c 0.0000,-1.6699 -1.3537,-3.0236 -3.0236 -3.0236c -1.6699,-0.0000 -3.0236,1.3537 -3.0236 3.0236c -0.0000,1.6699 1.3537,3.0236 3.0236 3.0236c 1.6699,0.0000 3.0236,-1.3537 3.0236 -3.0236Z"/></g><g stroke-linejoin="miter" stroke-opacity="1.0" fill-opacity="1.0" stroke="rgb(255,0,0)" stroke-width="2.350853988879138" fill="rgb(255,0,0)" stroke-linecap="butt" stroke-miterlimit="10.0"><path d="M 146.7307,265.1339 c 0.0000,-0.2087 -0.1692,-0.3780 -0.3780 -0.3780c -0.2087,-0.0000 -0.3780,0.1692 -0.3780 0.3780c -0.0000,0.2087 0.1692,0.3780 0.3780 0.3780c 0.2087,0.0000 0.3780,-0.1692 0.3780 -0.3780Z"/></g><g stroke-linejoin="miter" stroke-opacity="1.0" fill-opacity="0.0" stroke="rgb(0,0,0)" stroke-width="2.350853988879138" fill="rgb(0,0,0)" stroke-linecap="butt" stroke-miterlimit="10.0"><path d="M 157.6913,304.8189 l -0.0000,-49.1339 h -60.2646 l -0.0000,49.1339 Z"/></g><g stroke-linejoin="miter" stroke-opacity="1.0" fill-opacity="1.0" font-size="18.89763779527559px" stroke="rgb(0,0,0)" stroke-width="2.350853988879138" fill="rgb(0,0,0)" stroke-linecap="butt" stroke-miterlimit="10.0"><text dominant-baseline="middle" transform="matrix(1.0000,-0.0000,0.0000,1.0000,127.5591,280.2520)" stroke="none" text-anchor="middle"></text></g><g stroke-linejoin="miter" stroke-opacity="1.0" fill-opacity="0.0" stroke="rgb(0,0,255)" stroke-width="2.350853988879138" fill="rgb(0,0,0)" stroke-linecap="butt" stroke-miterlimit="10.0"><path d="M 36.1984,59.1496 c 0.0000,-1.6699 -1.3537,-3.0236 -3.0236 -3.0236c -1.6699,-0.0000 -3.0236,1.3537 -3.0236 3.0236c -0.0000,1.6699 1.3537,3.0236 3.0236 3.0236c 1.6699,0.0000 3.0236,-1.3537 3.0236 -3.0236Z"/></g><g stroke-linejoin="miter" stroke-opacity="1.0" fill-opacity="1.0" stroke="rgb(255,0,0)" stroke-width="2.350853988879138" fill="rgb(255,0,0)" stroke-linecap="butt" stroke-miterlimit="10.0"><path d="M 33.5528,59.1496 c 0.0000,-0.2087 -0.1692,-0.3780 -0.3780 -0.3780c -0.2087,-0.0000 -0.3780,0.1692 -0.3780 0.3780c -0.0000,0.2087 0.1692,0.3780 0.3780 0.3780c 0.2087,0.0000 0.3780,-0.1692 0.3780 -0.3780Z"/></g><g stroke-linejoin="miter" stroke-opacity="1.0" fill-opacity="0.0" stroke="rgb(0,0,255)" stroke-width="2.350853988879138" fill="rgb(0,0,0)" stroke-linecap="butt" stroke-miterlimit="10.0"><path d="M 54.9921,59.1496 c 0.0000,-1.6699 -1.3537,-3.0236 -3.0236 -3.0236c -1.6699,-0.0000 -3.0236,1.3537 -3.0236 3.0236c -0.0000,1.6699 1.3537,3.0236 3.0236 3.0236c 1.6699,0.0000 3.0236,-1.3537 3.0236 -3.0236Z"/></g><g stroke-linejoin="miter" stroke-opacity="1.0" fill-opacity="1.0" stroke="rgb(255,0,0)" stroke-width="2.350853988879138" fill="rgb(255,0,0)" stroke-linecap="butt" stroke-miterlimit="10.0"><path d="M 52.3465,59.1496 c 0.0000,-0.2087 -0.1692,-0.3780 -0.3780 -0.3780c -0.2087,-0.0000 -0.3780,0.1692 -0.3780 0.3780c -0.0000,0.2087 0.1692,0.3780 0.3780 0.3780c 0.2087,0.0000 0.3780,-0.1692 0.3780 -0.3780Z"/></g><g stroke-linejoin="miter" stroke-opacity="1.0" fill-opacity="0.0" stroke="rgb(0,0,255)" stroke-width="2.350853988879138" fill="rgb(0,0,0)" stroke-linecap="butt" stroke-miterlimit="10.0"><path d="M 73.7858,59.1496 c 0.0000,-1.6699 -1.3537,-3.0236 -3.0236 -3.0236c -1.6699,-0.0000 -3.0236,1.3537 -3.0236 3.0236c -0.0000,1.6699 1.3537,3.0236 3.0236 3.0236c 1.6699,0.0000 3.0236,-1.3537 3.0236 -3.0236Z"/></g><g stroke-linejoin="miter" stroke-opacity="1.0" fill-opacity="1.0" stroke="rgb(255,0,0)" stroke-width="2.350853988879138" fill="rgb(255,0,0)" stroke-linecap="butt" stroke-miterlimit="10.0"><path d="M 71.1402,59.1496 c 0.0000,-0.2087 -0.1692,-0.3780 -0.3780 -0.3780c -0.2087,-0.0000 -0.3780,0.1692 -0.3780 0.3780c -0.0000,0.2087 0.1692,0.3780 0.3780 0.3780c 0.2087,0.0000 0.3780,-0.1692 0.3780 -0.3780Z"/></g><g stroke-linejoin="miter" stroke-opacity="1.0" fill-opacity="0.0" stroke="rgb(0,0,0)" stroke-width="2.350853988879138" fill="rgb(0,0,0)" stroke-linecap="butt" stroke-miterlimit="10.0"><path d="M 82.1008,98.8346 l -0.0000,-49.1339 h -60.2646 l -0.0000,49.1339 Z"/></g><g stroke-linejoin="miter" stroke-opacity="1.0" fill-opacity="1.0" font-size="18.89763779527559px" stroke="rgb(0,0,0)" stroke-width="2.350853988879138" fill="rgb(0,0,0)" stroke-linecap="butt" stroke-miterlimit="10.0"><text dominant-baseline="middle" transform="matrix(1.0000,-0.0000,0.0000,1.0000,51.9685,74.2677)" stroke="none" text-anchor="middle"></text></g><g stroke-linejoin="miter" stroke-opacity="1.0" fill-opacity="0.0" stroke="rgb(0,0,255)" stroke-width="2.350853988879138" fill="rgb(0,0,0)" stroke-linecap="butt" stroke-miterlimit="10.0"><path d="M 36.1984,132.8504 c 0.0000,-1.6699 -1.3537,-3.0236 -3.0236 -3.0236c -1.6699,-0.0000 -3.0236,1.3537 -3.0236 3.0236c -0.0000,1.6699 1.3537,3.0236 3.0236 3.0236c 1.6699,0.0000 3.0236,-1.3537 3.0236 -3.0236Z"/></g><g stroke-linejoin="miter" stroke-opacity="1.0" fill-opacity="1.0" stroke="rgb(255,0,0)" stroke-width="2.350853988879138" fill="rgb(255,0,0)" stroke-linecap="butt" stroke-miterlimit="10.0"><path d="M 33.5528,132.8504 c 0.0000,-0.2087 -0.1692,-0.3780 -0.3780 -0.3780c -0.2087,-0.0000 -0.3780,0.1692 -0.3780 0.3780c -0.0000,0.2087 0.1692,0.3780 0.3780 0.3780c 0.2087,0.0000 0.3780,-0.1692 0.3780 -0.3780Z"/></g><g stroke-linejoin="miter" stroke-opacity="1.0" fill-opacity="0.0" stroke="rgb(0,0,255)" stroke-width="2.350853988879138" fill="rgb(0,0,0)" stroke-linecap="butt" stroke-miterlimit="10.0"><path d="M 54.9921,132.8504 c 0.0000,-1.6699 -1.3537,-3.0236 -3.0236 -3.0236c -1.6699,-0.0000 -3.0236,1.3537 -3.0236 3.0236c -0.0000,1.6699 1.3537,3.0236 3.0236 3.0236c 1.6699,0.0000 3.0236,-1.3537 3.0236 -3.0236Z"/></g><g stroke-linejoin="miter" stroke-opacity="1.0" fill-opacity="1.0" stroke="rgb(255,0,0)" stroke-width="2.350853988879138" fill="rgb(255,0,0)" stroke-linecap="butt" stroke-miterlimit="10.0"><path d="M 52.3465,132.8504 c 0.0000,-0.2087 -0.1692,-0.3780 -0.3780 -0.3780c -0.2087,-0.0000 -0.3780,0.1692 -0.3780 0.3780c -0.0000,0.2087 0.1692,0.3780 0.3780 0.3780c 0.2087,0.0000 0.3780,-0.1692 0.3780 -0.3780Z"/></g><g stroke-linejoin="miter" stroke-opacity="1.0" fill-opacity="0.0" stroke="rgb(0,0,255)" stroke-width="2.350853988879138" fill="rgb(0,0,0)" stroke-linecap="butt" stroke-miterlimit="10.0"><path d="M 73.7858,132.8504 c 0.0000,-1.6699 -1.3537,-3.0236 -3.0236 -3.0236c -1.6699,-0.0000 -3.0236,1.3537 -3.0236 3.0236c -0.0000,1.6699 1.3537,3.0236 3.0236 3.0236c 1.6699,0.0000 3.0236,-1.3537 3.0236 -3.0236Z"/></g><g stroke-linejoin="miter" stroke-opacity="1.0" fill-opacity="1.0" stroke="rgb(255,0,0)" stroke-width="2.350853988879138" fill="rgb(255,0,0)" stroke-linecap="butt" stroke-miterlimit="10.0"><path d="M 71.1402,132.8504 c 0.0000,-0.2087 -0.1692,-0.3780 -0.3780 -0.3780c -0.2087,-0.0000 -0.3780,0.1692 -0.3780 0.3780c -0.0000,0.2087 0.1692,0.3780 0.3780 0.3780c 0.2087,0.0000 0.3780,-0.1692 0.3780 -0.3780Z"/></g><g stroke-linejoin="miter" stroke-opacity="1.0" fill-opacity="0.0" stroke="rgb(0,0,0)" stroke-width="2.350853988879138" fill="rgb(0,0,0)" stroke-linecap="butt" stroke-miterlimit="10.0"><path d="M 82.1008,172.5354 l -0.0000,-49.1339 h -60.2646 l -0.0000,49.1339 Z"/></g><g stroke-linejoin="miter" stroke-opacity="1.0" fill-opacity="1.0" font-size="18.89763779527559px" stroke="rgb(0,0,0)" stroke-width="2.350853988879138" fill="rgb(0,0,0)" stroke-linecap="butt" stroke-miterlimit="10.0"><text dominant-baseline="middle" transform="matrix(1.0000,-0.0000,0.0000,1.0000,51.9685,147.9685)" stroke="none" text-anchor="middle"></text></g><g stroke-linejoin="miter" stroke-opacity="1.0" fill-opacity="0.0" stroke="rgb(0,0,255)" stroke-width="2.350853988879138" fill="rgb(0,0,0)" stroke-linecap="butt" stroke-miterlimit="10.0"><path d="M 36.1984,206.5512 c 0.0000,-1.6699 -1.3537,-3.0236 -3.0236 -3.0236c -1.6699,-0.0000 -3.0236,1.3537 -3.0236 3.0236c -0.0000,1.6699 1.3537,3.0236 3.0236 3.0236c 1.6699,0.0000 3.0236,-1.3537 3.0236 -3.0236Z"/></g><g stroke-linejoin="miter" stroke-opacity="1.0" fill-opacity="1.0" stroke="rgb(255,0,0)" stroke-width="2.350853988879138" fill="rgb(255,0,0)" stroke-linecap="butt" stroke-miterlimit="10.0"><path d="M 33.5528,206.5512 c 0.0000,-0.2087 -0.1692,-0.3780 -0.3780 -0.3780c -0.2087,-0.0000 -0.3780,0.1692 -0.3780 0.3780c -0.0000,0.2087 0.1692,0.3780 0.3780 0.3780c 0.2087,0.0000 0.3780,-0.1692 0.3780 -0.3780Z"/></g><g stroke-linejoin="miter" stroke-opacity="1.0" fill-opacity="0.0" stroke="rgb(0,0,255)" stroke-width="2.350853988879138" fill="rgb(0,0,0)" stroke-linecap="butt" stroke-miterlimit="10.0"><path d="M 54.9921,206.5512 c 0.0000,-1.6699 -1.3537,-3.0236 -3.0236 -3.0236c -1.6699,-0.0000 -3.0236,1.3537 -3.0236 3.0236c -0.0000,1.6699 1.3537,3.0236 3.0236 3.0236c 1.6699,0.0000 3.0236,-1.3537 3.0236 -3.0236Z"/></g><g stroke-linejoin="miter" stroke-opacity="1.0" fill-opacity="1.0" stroke="rgb(255,0,0)" stroke-width="2.350853988879138" fill="rgb(255,0,0)" stroke-linecap="butt" stroke-miterlimit="10.0"><path d="M 52.3465,206.5512 c 0.0000,-0.2087 -0.1692,-0.3780 -0.3780 -0.3780c -0.2087,-0.0000 -0.3780,0.1692 -0.3780 0.3780c -0.0000,0.2087 0.1692,0.3780 0.3780 0.3780c 0.2087,0.0000 0.3780,-0.1692 0.3780 -0.3780Z"/></g><g stroke-linejoin="miter" stroke-opacity="1.0" fill-opacity="0.0" stroke="rgb(0,0,255)" stroke-width="2.350853988879138" fill="rgb(0,0,0)" stroke-linecap="butt" stroke-miterlimit="10.0"><path d="M 73.7858,206.5512 c 0.0000,-1.6699 -1.3537,-3.0236 -3.0236 -3.0236c -1.6699,-0.0000 -3.0236,1.3537 -3.0236 3.0236c -0.0000,1.6699 1.3537,3.0236 3.0236 3.0236c 1.6699,0.0000 3.0236,-1.3537 3.0236 -3.0236Z"/></g><g stroke-linejoin="miter" stroke-opacity="1.0" fill-opacity="1.0" stroke="rgb(255,0,0)" stroke-width="2.350853988879138" fill="rgb(255,0,0)" stroke-linecap="butt" stroke-miterlimit="10.0"><path d="M 71.1402,206.5512 c 0.0000,-0.2087 -0.1692,-0.3780 -0.3780 -0.3780c -0.2087,-0.0000 -0.3780,0.1692 -0.3780 0.3780c -0.0000,0.2087 0.1692,0.3780 0.3780 0.3780c 0.2087,0.0000 0.3780,-0.1692 0.3780 -0.3780Z"/></g><g stroke-linejoin="miter" stroke-opacity="1.0" fill-opacity="0.0" stroke="rgb(0,0,0)" stroke-width="2.350853988879138" fill="rgb(0,0,0)" stroke-linecap="butt" stroke-miterlimit="10.0"><path d="M 82.1008,246.2362 l -0.0000,-49.1339 h -60.2646 l -0.0000,49.1339 Z"/></g><g stroke-linejoin="miter" stroke-opacity="1.0" fill-opacity="1.0" font-size="18.89763779527559px" stroke="rgb(0,0,0)" stroke-width="2.350853988879138" fill="rgb(0,0,0)" stroke-linecap="butt" stroke-miterlimit="10.0"><text dominant-baseline="middle" transform="matrix(1.0000,-0.0000,0.0000,1.0000,51.9685,221.6693)" stroke="none" text-anchor="middle"></text></g><g stroke-linejoin="miter" stroke-opacity="1.0" fill-opacity="0.0" stroke="rgb(0,0,255)" stroke-width="2.350853988879138" fill="rgb(0,0,0)" stroke-linecap="butt" stroke-miterlimit="10.0"><path d="M 36.1984,280.2520 c 0.0000,-1.6699 -1.3537,-3.0236 -3.0236 -3.0236c -1.6699,-0.0000 -3.0236,1.3537 -3.0236 3.0236c -0.0000,1.6699 1.3537,3.0236 3.0236 3.0236c 1.6699,0.0000 3.0236,-1.3537 3.0236 -3.0236Z"/></g><g stroke-linejoin="miter" stroke-opacity="1.0" fill-opacity="1.0" stroke="rgb(255,0,0)" stroke-width="2.350853988879138" fill="rgb(255,0,0)" stroke-linecap="butt" stroke-miterlimit="10.0"><path d="M 33.5528,280.2520 c 0.0000,-0.2087 -0.1692,-0.3780 -0.3780 -0.3780c -0.2087,-0.0000 -0.3780,0.1692 -0.3780 0.3780c -0.0000,0.2087 0.1692,0.3780 0.3780 0.3780c 0.2087,0.0000 0.3780,-0.1692 0.3780 -0.3780Z"/></g><g stroke-linejoin="miter" stroke-opacity="1.0" fill-opacity="0.0" stroke="rgb(0,0,255)" stroke-width="2.350853988879138" fill="rgb(0,0,0)" stroke-linecap="butt" stroke-miterlimit="10.0"><path d="M 54.9921,280.2520 c 0.0000,-1.6699 -1.3537,-3.0236 -3.0236 -3.0236c -1.6699,-0.0000 -3.0236,1.3537 -3.0236 3.0236c -0.0000,1.6699 1.3537,3.0236 3.0236 3.0236c 1.6699,0.0000 3.0236,-1.3537 3.0236 -3.0236Z"/></g><g stroke-linejoin="miter" stroke-opacity="1.0" fill-opacity="1.0" stroke="rgb(255,0,0)" stroke-width="2.350853988879138" fill="rgb(255,0,0)" stroke-linecap="butt" stroke-miterlimit="10.0"><path d="M 52.3465,280.2520 c 0.0000,-0.2087 -0.1692,-0.3780 -0.3780 -0.3780c -0.2087,-0.0000 -0.3780,0.1692 -0.3780 0.3780c -0.0000,0.2087 0.1692,0.3780 0.3780 0.3780c 0.2087,0.0000 0.3780,-0.1692 0.3780 -0.3780Z"/></g><g stroke-linejoin="miter" stroke-opacity="1.0" fill-opacity="0.0" stroke="rgb(0,0,255)" stroke-width="2.350853988879138" fill="rgb(0,0,0)" stroke-linecap="butt" stroke-miterlimit="10.0"><path d="M 73.7858,280.2520 c 0.0000,-1.6699 -1.3537,-3.0236 -3.0236 -3.0236c -1.6699,-0.0000 -3.0236,1.3537 -3.0236 3.0236c -0.0000,1.6699 1.3537,3.0236 3.0236 3.0236c 1.6699,0.0000 3.0236,-1.3537 3.0236 -3.0236Z"/></g><g stroke-linejoin="miter" stroke-opacity="1.0" fill-opacity="1.0" stroke="rgb(255,0,0)" stroke-width="2.350853988879138" fill="rgb(255,0,0)" stroke-linecap="butt" stroke-miterlimit="10.0"><path d="M 71.1402,280.2520 c 0.0000,-0.2087 -0.1692,-0.3780 -0.3780 -0.3780c -0.2087,-0.0000 -0.3780,0.1692 -0.3780 0.3780c -0.0000,0.2087 0.1692,0.3780 0.3780 0.3780c 0.2087,0.0000 0.3780,-0.1692 0.3780 -0.3780Z"/></g><g stroke-linejoin="miter" stroke-opacity="1.0" fill-opacity="0.0" stroke="rgb(0,0,0)" stroke-width="2.350853988879138" fill="rgb(0,0,0)" stroke-linecap="butt" stroke-miterlimit="10.0"><path d="M 82.1008,319.9370 l -0.0000,-49.1339 h -60.2646 l -0.0000,49.1339 Z"/></g><g stroke-linejoin="miter" stroke-opacity="1.0" fill-opacity="1.0" font-size="18.89763779527559px" stroke="rgb(0,0,0)" stroke-width="2.350853988879138" fill="rgb(0,0,0)" stroke-linecap="butt" stroke-miterlimit="10.0"><text dominant-baseline="middle" transform="matrix(1.0000,-0.0000,0.0000,1.0000,51.9685,295.3701)" stroke="none" text-anchor="middle"></text></g></svg>