<?xml version="1.0" encoding="UTF-8"?>
<!DOCTYPE svg PUBLIC "-//W3C//DTD SVG 1.1//EN"
    "http://www.w3.org/Graphics/SVG/1.1/DTD/svg11.dtd"><svg xmlns="http://www.w3.org/2000/svg" height="351.4961" stroke-opacity="1" viewBox="0.0 0.0 481.88976377952747 351.496062992126" font-size="1" width="481.8898" xmlns:xlink="http://www.w3.org/1999/xlink" stroke="rgb(0,0,0)" version="1.1"><defs></defs><g stroke-linejoin="miter" stroke-opacity="1.0" fill-opacity="0.0" stroke="rgb(0,128,0)" stroke-width="1.6462435045385455" fill="rgb(0,0,0)" stroke-linecap="butt" stroke-miterlimit="10.0"><path d="M 326.9291,15.1181 c 0.0000,-3.1311 -2.5382,-5.6693 -5.6693 -5.6693c -3.1311,-0.0000 -5.6693,2.5382 -5.6693 5.6693c -0.0000,3.1311 2.5382,5.6693 5.6693 5.6693c 3.1311,0.0000 5.6693,-2.5382 5.6693 -5.6693Z"/></g><g stroke-linejoin="miter" stroke-opacity="1.0" fill-opacity="1.0" stroke="rgb(0,128,0)" stroke-width="0.0" fill="rgb(255,0,0)" stroke-linecap="butt" stroke-miterlimit="10.0"><path d="M 321.4866,15.1181 c 0.0000,-0.1252 -0.1015,-0.2268 -0.2268 -0.2268c -0.1252,-0.0000 -0.2268,0.1015 -0.2268 0.2268c -0.0000,0.1252 0.1015,0.2268 0.2268 0.2268c 0.1252,0.0000 0.2268,-0.1015 0.2268 -0.2268Z"/></g><g stroke-linejoin="miter" stroke-opacity="1.0" fill-opacity="0.0" stroke="rgb(0,128,0)" stroke-width="1.6462435045385455" fill="rgb(0,0,0)" stroke-linecap="butt" stroke-miterlimit="10.0"><path d="M 246.6142,336.3780 c 0.0000,-3.1311 -2.5382,-5.6693 -5.6693 -5.6693c -3.1311,-0.0000 -5.6693,2.5382 -5.6693 5.6693c -0.0000,3.1311 2.5382,5.6693 5.6693 5.6693c 3.1311,0.0000 5.6693,-2.5382 5.6693 -5.6693Z"/></g><g stroke-linejoin="miter" stroke-opacity="1.0" fill-opacity="1.0" stroke="rgb(0,128,0)" stroke-width="0.0" fill="rgb(255,0,0)" stroke-linecap="butt" stroke-miterlimit="10.0"><path d="M 241.1717,336.3780 c 0.0000,-0.1252 -0.1015,-0.2268 -0.2268 -0.2268c -0.1252,-0.0000 -0.2268,0.1015 -0.2268 0.2268c -0.0000,0.1252 0.1015,0.2268 0.2268 0.2268c 0.1252,0.0000 0.2268,-0.1015 0.2268 -0.2268Z"/></g><g stroke-linejoin="miter" stroke-opacity="1.0" fill-opacity="0.0" stroke="rgb(0,128,0)" stroke-width="1.6462435045385455" fill="rgb(0,0,0)" stroke-linecap="butt" stroke-miterlimit="10.0"><path d="M 20.7874,15.1181 c 0.0000,-3.1311 -2.5382,-5.6693 -5.6693 -5.6693c -3.1311,-0.0000 -5.6693,2.5382 -5.6693 5.6693c -0.0000,3.1311 2.5382,5.6693 5.6693 5.6693c 3.1311,0.0000 5.6693,-2.5382 5.6693 -5.6693Z"/></g><g stroke-linejoin="miter" stroke-opacity="1.0" fill-opacity="1.0" stroke="rgb(0,128,0)" stroke-width="0.0" fill="rgb(255,0,0)" stroke-linecap="butt" stroke-miterlimit="10.0"><path d="M 15.3449,15.1181 c 0.0000,-0.1252 -0.1015,-0.2268 -0.2268 -0.2268c -0.1252,-0.0000 -0.2268,0.1015 -0.2268 0.2268c -0.0000,0.1252 0.1015,0.2268 0.2268 0.2268c 0.1252,0.0000 0.2268,-0.1015 0.2268 -0.2268Z"/></g><g stroke-linejoin="miter" stroke-opacity="1.0" fill-opacity="0.0" stroke="rgb(0,128,0)" stroke-width="1.6462435045385455" fill="rgb(0,0,0)" stroke-linecap="butt" stroke-miterlimit="10.0"><path d="M 472.4409,336.3780 c 0.0000,-3.1311 -2.5382,-5.6693 -5.6693 -5.6693c -3.1311,-0.0000 -5.6693,2.5382 -5.6693 5.6693c -0.0000,3.1311 2.5382,5.6693 5.6693 5.6693c 3.1311,0.0000 5.6693,-2.5382 5.6693 -5.6693Z"/></g><g stroke-linejoin="miter" stroke-opacity="1.0" fill-opacity="1.0" stroke="rgb(0,128,0)" stroke-width="0.0" fill="rgb(255,0,0)" stroke-linecap="butt" stroke-miterlimit="10.0"><path d="M 466.9984,336.3780 c 0.0000,-0.1252 -0.1015,-0.2268 -0.2268 -0.2268c -0.1252,-0.0000 -0.2268,0.1015 -0.2268 0.2268c -0.0000,0.1252 0.1015,0.2268 0.2268 0.2268c 0.1252,0.0000 0.2268,-0.1015 0.2268 -0.2268Z"/></g><g stroke-linejoin="miter" stroke-opacity="1.0" fill-opacity="0.0" stroke="rgb(0,128,0)" stroke-width="1.6462435045385455" fill="rgb(0,0,0)" stroke-linecap="butt" stroke-miterlimit="10.0"><path d="M 20.7874,336.3780 c 0.0000,-3.1311 -2.5382,-5.6693 -5.6693 -5.6693c -3.1311,-0.0000 -5.6693,2.5382 -5.6693 5.6693c -0.0000,3.1311 2.5382,5.6693 5.6693 5.6693c 3.1311,0.0000 5.6693,-2.5382 5.6693 -5.6693Z"/></g><g stroke-linejoin="miter" stroke-opacity="1.0" fill-opacity="1.0" stroke="rgb(0,128,0)" stroke-width="0.0" fill="rgb(255,0,0)" stroke-linecap="butt" stroke-miterlimit="10.0"><path d="M 15.3449,336.3780 c 0.0000,-0.1252 -0.1015,-0.2268 -0.2268 -0.2268c -0.1252,-0.0000 -0.2268,0.1015 -0.2268 0.2268c -0.0000,0.1252 0.1015,0.2268 0.2268 0.2268c 0.1252,0.0000 0.2268,-0.1015 0.2268 -0.2268Z"/></g><g stroke-linejoin="miter" stroke-opacity="1.0" fill-opacity="0.0" stroke="rgb(0,128,0)" stroke-width="1.6462435045385455" fill="rgb(0,0,0)" stroke-linecap="butt" stroke-miterlimit="10.0"><path d="M -0.0000,351.4961 v -351.4961 h 481.8898 v 351.4961 h -481.8898 "/></g><g stroke-linejoin="miter" stroke-opacity="1.0" fill-opacity="1.0" font-size="18.89763779527559px" stroke="rgb(0,0,0)" stroke-width="1.6462435045385455" fill="rgb(0,0,0)" stroke-linecap="butt" stroke-miterlimit="10.0"><text dominant-baseline="middle" transform="matrix(1.0000,0.0000,0.0000,1.0000,429.9213,143.6220)" stroke="none" text-anchor="middle">trrs</text></g><g stroke-linejoin="miter" stroke-opacity="1.0" fill-opacity="0.0" stroke="rgb(0,0,0)" stroke-width="1.6462435045385455" fill="rgb(0,0,0)" stroke-linecap="butt" stroke-miterlimit="10.0"><path d="M 463.9370,154.9606 l -0.0000,-22.6772 h -68.0315 l -0.0000,22.6772 Z"/></g><g stroke-linejoin="miter" stroke-opacity="1.0" fill-opacity="1.0" font-size="18.89763779527559px" stroke="rgb(0,0,0)" stroke-width="1.6462435045385455" fill="rgb(0,0,0)" stroke-linecap="butt" stroke-miterlimit="10.0"><text dominant-baseline="middle" transform="matrix(0.0000,-1.0000,1.0000,0.0000,429.9213,69.9213)" stroke="none" text-anchor="middle">promicro</text></g><g stroke-linejoin="miter" stroke-opacity="1.0" fill-opacity="0.0" stroke="rgb(0,0,0)" stroke-width="1.6462435045385455" fill="rgb(0,0,0)" stroke-linecap="butt" stroke-miterlimit="10.0"><path d="M 462.0472,24.5669 c 0.0000,-1.0437 -0.8461,-1.8898 -1.8898 -1.8898c -1.0437,-0.0000 -1.8898,0.8461 -1.8898 1.8898c -0.0000,1.0437 0.8461,1.8898 1.8898 1.8898c 1.0437,0.0000 1.8898,-0.8461 1.8898 -1.8898Z"/></g><g stroke-linejoin="miter" stroke-opacity="1.0" fill-opacity="0.0" stroke="rgb(0,0,0)" stroke-width="1.6462435045385455" fill="rgb(0,0,0)" stroke-linecap="butt" stroke-miterlimit="10.0"><path d="M 462.0472,34.0157 c 0.0000,-1.0437 -0.8461,-1.8898 -1.8898 -1.8898c -1.0437,-0.0000 -1.8898,0.8461 -1.8898 1.8898c -0.0000,1.0437 0.8461,1.8898 1.8898 1.8898c 1.0437,0.0000 1.8898,-0.8461 1.8898 -1.8898Z"/></g><g stroke-linejoin="miter" stroke-opacity="1.0" fill-opacity="0.0" stroke="rgb(0,0,0)" stroke-width="1.6462435045385455" fill="rgb(0,0,0)" stroke-linecap="butt" stroke-miterlimit="10.0"><path d="M 462.0472,43.4646 c 0.0000,-1.0437 -0.8461,-1.8898 -1.8898 -1.8898c -1.0437,-0.0000 -1.8898,0.8461 -1.8898 1.8898c -0.0000,1.0437 0.8461,1.8898 1.8898 1.8898c 1.0437,0.0000 1.8898,-0.8461 1.8898 -1.8898Z"/></g><g stroke-linejoin="miter" stroke-opacity="1.0" fill-opacity="0.0" stroke="rgb(0,0,0)" stroke-width="1.6462435045385455" fill="rgb(0,0,0)" stroke-linecap="butt" stroke-miterlimit="10.0"><path d="M 462.0472,52.9134 c 0.0000,-1.0437 -0.8461,-1.8898 -1.8898 -1.8898c -1.0437,-0.0000 -1.8898,0.8461 -1.8898 1.8898c -0.0000,1.0437 0.8461,1.8898 1.8898 1.8898c 1.0437,0.0000 1.8898,-0.8461 1.8898 -1.8898Z"/></g><g stroke-linejoin="miter" stroke-opacity="1.0" fill-opacity="0.0" stroke="rgb(0,0,0)" stroke-width="1.6462435045385455" fill="rgb(0,0,0)" stroke-linecap="butt" stroke-miterlimit="10.0"><path d="M 462.0472,62.3622 c 0.0000,-1.0437 -0.8461,-1.8898 -1.8898 -1.8898c -1.0437,-0.0000 -1.8898,0.8461 -1.8898 1.8898c -0.0000,1.0437 0.8461,1.8898 1.8898 1.8898c 1.0437,0.0000 1.8898,-0.8461 1.8898 -1.8898Z"/></g><g stroke-linejoin="miter" stroke-opacity="1.0" fill-opacity="0.0" stroke="rgb(0,0,0)" stroke-width="1.6462435045385455" fill="rgb(0,0,0)" stroke-linecap="butt" stroke-miterlimit="10.0"><path d="M 462.0472,71.8110 c 0.0000,-1.0437 -0.8461,-1.8898 -1.8898 -1.8898c -1.0437,-0.0000 -1.8898,0.8461 -1.8898 1.8898c -0.0000,1.0437 0.8461,1.8898 1.8898 1.8898c 1.0437,0.0000 1.8898,-0.8461 1.8898 -1.8898Z"/></g><g stroke-linejoin="miter" stroke-opacity="1.0" fill-opacity="0.0" stroke="rgb(0,0,0)" stroke-width="1.6462435045385455" fill="rgb(0,0,0)" stroke-linecap="butt" stroke-miterlimit="10.0"><path d="M 462.0472,81.2598 c 0.0000,-1.0437 -0.8461,-1.8898 -1.8898 -1.8898c -1.0437,-0.0000 -1.8898,0.8461 -1.8898 1.8898c -0.0000,1.0437 0.8461,1.8898 1.8898 1.8898c 1.0437,0.0000 1.8898,-0.8461 1.8898 -1.8898Z"/></g><g stroke-linejoin="miter" stroke-opacity="1.0" fill-opacity="0.0" stroke="rgb(0,0,0)" stroke-width="1.6462435045385455" fill="rgb(0,0,0)" stroke-linecap="butt" stroke-miterlimit="10.0"><path d="M 462.0472,90.7087 c 0.0000,-1.0437 -0.8461,-1.8898 -1.8898 -1.8898c -1.0437,-0.0000 -1.8898,0.8461 -1.8898 1.8898c -0.0000,1.0437 0.8461,1.8898 1.8898 1.8898c 1.0437,0.0000 1.8898,-0.8461 1.8898 -1.8898Z"/></g><g stroke-linejoin="miter" stroke-opacity="1.0" fill-opacity="0.0" stroke="rgb(0,0,0)" stroke-width="1.6462435045385455" fill="rgb(0,0,0)" stroke-linecap="butt" stroke-miterlimit="10.0"><path d="M 462.0472,100.1575 c 0.0000,-1.0437 -0.8461,-1.8898 -1.8898 -1.8898c -1.0437,-0.0000 -1.8898,0.8461 -1.8898 1.8898c -0.0000,1.0437 0.8461,1.8898 1.8898 1.8898c 1.0437,0.0000 1.8898,-0.8461 1.8898 -1.8898Z"/></g><g stroke-linejoin="miter" stroke-opacity="1.0" fill-opacity="0.0" stroke="rgb(0,0,0)" stroke-width="1.6462435045385455" fill="rgb(0,0,0)" stroke-linecap="butt" stroke-miterlimit="10.0"><path d="M 462.0472,109.6063 c 0.0000,-1.0437 -0.8461,-1.8898 -1.8898 -1.8898c -1.0437,-0.0000 -1.8898,0.8461 -1.8898 1.8898c -0.0000,1.0437 0.8461,1.8898 1.8898 1.8898c 1.0437,0.0000 1.8898,-0.8461 1.8898 -1.8898Z"/></g><g stroke-linejoin="miter" stroke-opacity="1.0" fill-opacity="0.0" stroke="rgb(0,0,0)" stroke-width="1.6462435045385455" fill="rgb(0,0,0)" stroke-linecap="butt" stroke-miterlimit="10.0"><path d="M 462.0472,119.0551 c 0.0000,-1.0437 -0.8461,-1.8898 -1.8898 -1.8898c -1.0437,-0.0000 -1.8898,0.8461 -1.8898 1.8898c -0.0000,1.0437 0.8461,1.8898 1.8898 1.8898c 1.0437,0.0000 1.8898,-0.8461 1.8898 -1.8898Z"/></g><g stroke-linejoin="miter" stroke-opacity="1.0" fill-opacity="0.0" stroke="rgb(0,0,0)" stroke-width="1.6462435045385455" fill="rgb(0,0,0)" stroke-linecap="butt" stroke-miterlimit="10.0"><path d="M 462.0472,128.5039 c 0.0000,-1.0437 -0.8461,-1.8898 -1.8898 -1.8898c -1.0437,-0.0000 -1.8898,0.8461 -1.8898 1.8898c -0.0000,1.0437 0.8461,1.8898 1.8898 1.8898c 1.0437,0.0000 1.8898,-0.8461 1.8898 -1.8898Z"/></g><g stroke-linejoin="miter" stroke-opacity="1.0" fill-opacity="0.0" stroke="rgb(0,0,0)" stroke-width="1.6462435045385455" fill="rgb(0,0,0)" stroke-linecap="butt" stroke-miterlimit="10.0"><path d="M 401.5748,24.5669 c 0.0000,-1.0437 -0.8461,-1.8898 -1.8898 -1.8898c -1.0437,-0.0000 -1.8898,0.8461 -1.8898 1.8898c -0.0000,1.0437 0.8461,1.8898 1.8898 1.8898c 1.0437,0.0000 1.8898,-0.8461 1.8898 -1.8898Z"/></g><g stroke-linejoin="miter" stroke-opacity="1.0" fill-opacity="0.0" stroke="rgb(0,0,0)" stroke-width="1.6462435045385455" fill="rgb(0,0,0)" stroke-linecap="butt" stroke-miterlimit="10.0"><path d="M 401.5748,34.0157 c 0.0000,-1.0437 -0.8461,-1.8898 -1.8898 -1.8898c -1.0437,-0.0000 -1.8898,0.8461 -1.8898 1.8898c -0.0000,1.0437 0.8461,1.8898 1.8898 1.8898c 1.0437,0.0000 1.8898,-0.8461 1.8898 -1.8898Z"/></g><g stroke-linejoin="miter" stroke-opacity="1.0" fill-opacity="0.0" stroke="rgb(0,0,0)" stroke-width="1.6462435045385455" fill="rgb(0,0,0)" stroke-linecap="butt" stroke-miterlimit="10.0"><path d="M 401.5748,43.4646 c 0.0000,-1.0437 -0.8461,-1.8898 -1.8898 -1.8898c -1.0437,-0.0000 -1.8898,0.8461 -1.8898 1.8898c -0.0000,1.0437 0.8461,1.8898 1.8898 1.8898c 1.0437,0.0000 1.8898,-0.8461 1.8898 -1.8898Z"/></g><g stroke-linejoin="miter" stroke-opacity="1.0" fill-opacity="0.0" stroke="rgb(0,0,0)" stroke-width="1.6462435045385455" fill="rgb(0,0,0)" stroke-linecap="butt" stroke-miterlimit="10.0"><path d="M 401.5748,52.9134 c 0.0000,-1.0437 -0.8461,-1.8898 -1.8898 -1.8898c -1.0437,-0.0000 -1.8898,0.8461 -1.8898 1.8898c -0.0000,1.0437 0.8461,1.8898 1.8898 1.8898c 1.0437,0.0000 1.8898,-0.8461 1.8898 -1.8898Z"/></g><g stroke-linejoin="miter" stroke-opacity="1.0" fill-opacity="0.0" stroke="rgb(0,0,0)" stroke-width="1.6462435045385455" fill="rgb(0,0,0)" stroke-linecap="butt" stroke-miterlimit="10.0"><path d="M 401.5748,62.3622 c 0.0000,-1.0437 -0.8461,-1.8898 -1.8898 -1.8898c -1.0437,-0.0000 -1.8898,0.8461 -1.8898 1.8898c -0.0000,1.0437 0.8461,1.8898 1.8898 1.8898c 1.0437,0.0000 1.8898,-0.8461 1.8898 -1.8898Z"/></g><g stroke-linejoin="miter" stroke-opacity="1.0" fill-opacity="0.0" stroke="rgb(0,0,0)" stroke-width="1.6462435045385455" fill="rgb(0,0,0)" stroke-linecap="butt" stroke-miterlimit="10.0"><path d="M 401.5748,71.8110 c 0.0000,-1.0437 -0.8461,-1.8898 -1.8898 -1.8898c -1.0437,-0.0000 -1.8898,0.8461 -1.8898 1.8898c -0.0000,1.0437 0.8461,1.8898 1.8898 1.8898c 1.0437,0.0000 1.8898,-0.8461 1.8898 -1.8898Z"/></g><g stroke-linejoin="miter" stroke-opacity="1.0" fill-opacity="0.0" stroke="rgb(0,0,0)" stroke-width="1.6462435045385455" fill="rgb(0,0,0)" stroke-linecap="butt" stroke-miterlimit="10.0"><path d="M 401.5748,81.2598 c 0.0000,-1.0437 -0.8461,-1.8898 -1.8898 -1.8898c -1.0437,-0.0000 -1.8898,0.8461 -1.8898 1.8898c -0.0000,1.0437 0.8461,1.8898 1.8898 1.8898c 1.0437,0.0000 1.8898,-0.8461 1.8898 -1.8898Z"/></g><g stroke-linejoin="miter" stroke-opacity="1.0" fill-opacity="0.0" stroke="rgb(0,0,0)" stroke-width="1.6462435045385455" fill="rgb(0,0,0)" stroke-linecap="butt" stroke-miterlimit="10.0"><path d="M 401.5748,90.7087 c 0.0000,-1.0437 -0.8461,-1.8898 -1.8898 -1.8898c -1.0437,-0.0000 -1.8898,0.8461 -1.8898 1.8898c -0.0000,1.0437 0.8461,1.8898 1.8898 1.8898c 1.0437,0.0000 1.8898,-0.8461 1.8898 -1.8898Z"/></g><g stroke-linejoin="miter" stroke-opacity="1.0" fill-opacity="0.0" stroke="rgb(0,0,0)" stroke-width="1.6462435045385455" fill="rgb(0,0,0)" stroke-linecap="butt" stroke-miterlimit="10.0"><path d="M 401.5748,100.1575 c 0.0000,-1.0437 -0.8461,-1.8898 -1.8898 -1.8898c -1.0437,-0.0000 -1.8898,0.8461 -1.8898 1.8898c -0.0000,1.0437 0.8461,1.8898 1.8898 1.8898c 1.0437,0.0000 1.8898,-0.8461 1.8898 -1.8898Z"/></g><g stroke-linejoin="miter" stroke-opacity="1.0" fill-opacity="0.0" stroke="rgb(0,0,0)" stroke-width="1.6462435045385455" fill="rgb(0,0,0)" stroke-linecap="butt" stroke-miterlimit="10.0"><path d="M 401.5748,109.6063 c 0.0000,-1.0437 -0.8461,-1.8898 -1.8898 -1.8898c -1.0437,-0.0000 -1.8898,0.8461 -1.8898 1.8898c -0.0000,1.0437 0.8461,1.8898 1.8898 1.8898c 1.0437,0.0000 1.8898,-0.8461 1.8898 -1.8898Z"/></g><g stroke-linejoin="miter" stroke-opacity="1.0" fill-opacity="0.0" stroke="rgb(0,0,0)" stroke-width="1.6462435045385455" fill="rgb(0,0,0)" stroke-linecap="butt" stroke-miterlimit="10.0"><path d="M 401.5748,119.0551 c 0.0000,-1.0437 -0.8461,-1.8898 -1.8898 -1.8898c -1.0437,-0.0000 -1.8898,0.8461 -1.8898 1.8898c -0.0000,1.0437 0.8461,1.8898 1.8898 1.8898c 1.0437,0.0000 1.8898,-0.8461 1.8898 -1.8898Z"/></g><g stroke-linejoin="miter" stroke-opacity="1.0" fill-opacity="0.0" stroke="rgb(0,0,0)" stroke-width="1.6462435045385455" fill="rgb(0,0,0)" stroke-linecap="butt" stroke-miterlimit="10.0"><path d="M 401.5748,128.5039 c 0.0000,-1.0437 -0.8461,-1.8898 -1.8898 -1.8898c -1.0437,-0.0000 -1.8898,0.8461 -1.8898 1.8898c -0.0000,1.0437 0.8461,1.8898 1.8898 1.8898c 1.0437,0.0000 1.8898,-0.8461 1.8898 -1.8898Z"/></g><g stroke-linejoin="miter" stroke-opacity="1.0" fill-opacity="0.0" stroke="rgb(0,0,0)" stroke-width="1.6462435045385455" fill="rgb(0,0,0)" stroke-linecap="butt" stroke-miterlimit="10.0"><path d="M 463.9370,132.2835 l -0.0000,-124.7244 h -68.0315 l -0.0000,124.7244 Z"/></g><g stroke-linejoin="miter" stroke-opacity="1.0" fill-opacity="0.0" stroke="rgb(0,0,255)" stroke-width="1.6462435045385455" fill="rgb(0,0,0)" stroke-linecap="butt" stroke-miterlimit="10.0"><path d="M 414.1512,197.4803 c 0.0000,-1.6699 -1.3537,-3.0236 -3.0236 -3.0236c -1.6699,-0.0000 -3.0236,1.3537 -3.0236 3.0236c -0.0000,1.6699 1.3537,3.0236 3.0236 3.0236c 1.6699,0.0000 3.0236,-1.3537 3.0236 -3.0236Z"/></g><g stroke-linejoin="miter" stroke-opacity="1.0" fill-opacity="1.0" stroke="rgb(255,0,0)" stroke-width="1.6462435045385455" fill="rgb(255,0,0)" stroke-linecap="butt" stroke-miterlimit="10.0"><path d="M 411.5055,197.4803 c 0.0000,-0.2087 -0.1692,-0.3780 -0.3780 -0.3780c -0.2087,-0.0000 -0.3780,0.1692 -0.3780 0.3780c -0.0000,0.2087 0.1692,0.3780 0.3780 0.3780c 0.2087,0.0000 0.3780,-0.1692 0.3780 -0.3780Z"/></g><g stroke-linejoin="miter" stroke-opacity="1.0" fill-opacity="0.0" stroke="rgb(0,0,255)" stroke-width="1.6462435045385455" fill="rgb(0,0,0)" stroke-linecap="butt" stroke-miterlimit="10.0"><path d="M 432.9449,197.4803 c 0.0000,-1.6699 -1.3537,-3.0236 -3.0236 -3.0236c -1.6699,-0.0000 -3.0236,1.3537 -3.0236 3.0236c -0.0000,1.6699 1.3537,3.0236 3.0236 3.0236c 1.6699,0.0000 3.0236,-1.3537 3.0236 -3.0236Z"/></g><g stroke-linejoin="miter" stroke-opacity="1.0" fill-opacity="1.0" stroke="rgb(255,0,0)" stroke-width="1.6462435045385455" fill="rgb(255,0,0)" stroke-linecap="butt" stroke-miterlimit="10.0"><path d="M 430.2992,197.4803 c 0.0000,-0.2087 -0.1692,-0.3780 -0.3780 -0.3780c -0.2087,-0.0000 -0.3780,0.1692 -0.3780 0.3780c -0.0000,0.2087 0.1692,0.3780 0.3780 0.3780c 0.2087,0.0000 0.3780,-0.1692 0.3780 -0.3780Z"/></g><g stroke-linejoin="miter" stroke-opacity="1.0" fill-opacity="0.0" stroke="rgb(0,0,255)" stroke-width="1.6462435045385455" fill="rgb(0,0,0)" stroke-linecap="butt" stroke-miterlimit="10.0"><path d="M 451.7386,197.4803 c 0.0000,-1.6699 -1.3537,-3.0236 -3.0236 -3.0236c -1.6699,-0.0000 -3.0236,1.3537 -3.0236 3.0236c -0.0000,1.6699 1.3537,3.0236 3.0236 3.0236c 1.6699,0.0000 3.0236,-1.3537 3.0236 -3.0236Z"/></g><g stroke-linejoin="miter" stroke-opacity="1.0" fill-opacity="1.0" stroke="rgb(255,0,0)" stroke-width="1.6462435045385455" fill="rgb(255,0,0)" stroke-linecap="butt" stroke-miterlimit="10.0"><path d="M 449.0929,197.4803 c 0.0000,-0.2087 -0.1692,-0.3780 -0.3780 -0.3780c -0.2087,-0.0000 -0.3780,0.1692 -0.3780 0.3780c -0.0000,0.2087 0.1692,0.3780 0.3780 0.3780c 0.2087,0.0000 0.3780,-0.1692 0.3780 -0.3780Z"/></g><g stroke-linejoin="miter" stroke-opacity="1.0" fill-opacity="0.0" stroke="rgb(0,0,0)" stroke-width="1.6462435045385455" fill="rgb(0,0,0)" stroke-linecap="butt" stroke-miterlimit="10.0"><path d="M 460.0535,237.1654 l -0.0000,-49.1339 h -60.2646 l -0.0000,49.1339 Z"/></g><g stroke-linejoin="miter" stroke-opacity="1.0" fill-opacity="1.0" font-size="18.89763779527559px" stroke="rgb(0,0,0)" stroke-width="1.6462435045385455" fill="rgb(0,0,0)" stroke-linecap="butt" stroke-miterlimit="10.0"><text dominant-baseline="middle" transform="matrix(1.0000,-0.0000,0.0000,1.0000,429.9213,212.5984)" stroke="none" text-anchor="middle"></text></g><g stroke-linejoin="miter" stroke-opacity="1.0" fill-opacity="0.0" stroke="rgb(0,0,255)" stroke-width="1.6462435045385455" fill="rgb(0,0,0)" stroke-linecap="butt" stroke-miterlimit="10.0"><path d="M 414.1512,271.1811 c 0.0000,-1.6699 -1.3537,-3.0236 -3.0236 -3.0236c -1.6699,-0.0000 -3.0236,1.3537 -3.0236 3.0236c -0.0000,1.6699 1.3537,3.0236 3.0236 3.0236c 1.6699,0.0000 3.0236,-1.3537 3.0236 -3.0236Z"/></g><g stroke-linejoin="miter" stroke-opacity="1.0" fill-opacity="1.0" stroke="rgb(255,0,0)" stroke-width="1.6462435045385455" fill="rgb(255,0,0)" stroke-linecap="butt" stroke-miterlimit="10.0"><path d="M 411.5055,271.1811 c 0.0000,-0.2087 -0.1692,-0.3780 -0.3780 -0.3780c -0.2087,-0.0000 -0.3780,0.1692 -0.3780 0.3780c -0.0000,0.2087 0.1692,0.3780 0.3780 0.3780c 0.2087,0.0000 0.3780,-0.1692 0.3780 -0.3780Z"/></g><g stroke-linejoin="miter" stroke-opacity="1.0" fill-opacity="0.0" stroke="rgb(0,0,255)" stroke-width="1.6462435045385455" fill="rgb(0,0,0)" stroke-linecap="butt" stroke-miterlimit="10.0"><path d="M 432.9449,271.1811 c 0.0000,-1.6699 -1.3537,-3.0236 -3.0236 -3.0236c -1.6699,-0.0000 -3.0236,1.3537 -3.0236 3.0236c -0.0000,1.6699 1.3537,3.0236 3.0236 3.0236c 1.6699,0.0000 3.0236,-1.3537 3.0236 -3.0236Z"/></g><g stroke-linejoin="miter" stroke-opacity="1.0" fill-opacity="1.0" stroke="rgb(255,0,0)" stroke-width="1.6462435045385455" fill="rgb(255,0,0)" stroke-linecap="butt" stroke-miterlimit="10.0"><path d="M 430.2992,271.1811 c 0.0000,-0.2087 -0.1692,-0.3780 -0.3780 -0.3780c -0.2087,-0.0000 -0.3780,0.1692 -0.3780 0.3780c -0.0000,0.2087 0.1692,0.3780 0.3780 0.3780c 0.2087,0.0000 0.3780,-0.1692 0.3780 -0.3780Z"/></g><g stroke-linejoin="miter" stroke-opacity="1.0" fill-opacity="0.0" stroke="rgb(0,0,255)" stroke-width="1.6462435045385455" fill="rgb(0,0,0)" stroke-linecap="butt" stroke-miterlimit="10.0"><path d="M 451.7386,271.1811 c 0.0000,-1.6699 -1.3537,-3.0236 -3.0236 -3.0236c -1.6699,-0.0000 -3.0236,1.3537 -3.0236 3.0236c -0.0000,1.6699 1.3537,3.0236 3.0236 3.0236c 1.6699,0.0000 3.0236,-1.3537 3.0236 -3.0236Z"/></g><g stroke-linejoin="miter" stroke-opacity="1.0" fill-opacity="1.0" stroke="rgb(255,0,0)" stroke-width="1.6462435045385455" fill="rgb(255,0,0)" stroke-linecap="butt" stroke-miterlimit="10.0"><path d="M 449.0929,271.1811 c 0.0000,-0.2087 -0.1692,-0.3780 -0.3780 -0.3780c -0.2087,-0.0000 -0.3780,0.1692 -0.3780 0.3780c -0.0000,0.2087 0.1692,0.3780 0.3780 0.3780c 0.2087,0.0000 0.3780,-0.1692 0.3780 -0.3780Z"/></g><g stroke-linejoin="miter" stroke-opacity="1.0" fill-opacity="0.0" stroke="rgb(0,0,0)" stroke-width="1.6462435045385455" fill="rgb(0,0,0)" stroke-linecap="butt" stroke-miterlimit="10.0"><path d="M 460.0535,310.8661 l -0.0000,-49.1339 h -60.2646 l -0.0000,49.1339 Z"/></g><g stroke-linejoin="miter" stroke-opacity="1.0" fill-opacity="1.0" font-size="18.89763779527559px" stroke="rgb(0,0,0)" stroke-width="1.6462435045385455" fill="rgb(0,0,0)" stroke-linecap="butt" stroke-miterlimit="10.0"><text dominant-baseline="middle" transform="matrix(1.0000,-0.0000,0.0000,1.0000,429.9213,286.2992)" stroke="none" text-anchor="middle"></text></g><g stroke-linejoin="miter" stroke-opacity="1.0" fill-opacity="0.0" stroke="rgb(0,0,255)" stroke-width="1.6462435045385455" fill="rgb(0,0,0)" stroke-linecap="butt" stroke-miterlimit="10.0"><path d="M 338.5606,50.0787 c 0.0000,-1.6699 -1.3537,-3.0236 -3.0236 -3.0236c -1.6699,-0.0000 -3.0236,1.3537 -3.0236 3.0236c -0.0000,1.6699 1.3537,3.0236 3.0236 3.0236c 1.6699,0.0000 3.0236,-1.3537 3.0236 -3.0236Z"/></g><g stroke-linejoin="miter" stroke-opacity="1.0" fill-opacity="1.0" stroke="rgb(255,0,0)" stroke-width="1.6462435045385455" fill="rgb(255,0,0)" stroke-linecap="butt" stroke-miterlimit="10.0"><path d="M 335.9150,50.0787 c 0.0000,-0.2087 -0.1692,-0.3780 -0.3780 -0.3780c -0.2087,-0.0000 -0.3780,0.1692 -0.3780 0.3780c -0.0000,0.2087 0.1692,0.3780 0.3780 0.3780c 0.2087,0.0000 0.3780,-0.1692 0.3780 -0.3780Z"/></g><g stroke-linejoin="miter" stroke-opacity="1.0" fill-opacity="0.0" stroke="rgb(0,0,255)" stroke-width="1.6462435045385455" fill="rgb(0,0,0)" stroke-linecap="butt" stroke-miterlimit="10.0"><path d="M 357.3543,50.0787 c 0.0000,-1.6699 -1.3537,-3.0236 -3.0236 -3.0236c -1.6699,-0.0000 -3.0236,1.3537 -3.0236 3.0236c -0.0000,1.6699 1.3537,3.0236 3.0236 3.0236c 1.6699,0.0000 3.0236,-1.3537 3.0236 -3.0236Z"/></g><g stroke-linejoin="miter" stroke-opacity="1.0" fill-opacity="1.0" stroke="rgb(255,0,0)" stroke-width="1.6462435045385455" fill="rgb(255,0,0)" stroke-linecap="butt" stroke-miterlimit="10.0"><path d="M 354.7087,50.0787 c 0.0000,-0.2087 -0.1692,-0.3780 -0.3780 -0.3780c -0.2087,-0.0000 -0.3780,0.1692 -0.3780 0.3780c -0.0000,0.2087 0.1692,0.3780 0.3780 0.3780c 0.2087,0.0000 0.3780,-0.1692 0.3780 -0.3780Z"/></g><g stroke-linejoin="miter" stroke-opacity="1.0" fill-opacity="0.0" stroke="rgb(0,0,255)" stroke-width="1.6462435045385455" fill="rgb(0,0,0)" stroke-linecap="butt" stroke-miterlimit="10.0"><path d="M 376.1480,50.0787 c 0.0000,-1.6699 -1.3537,-3.0236 -3.0236 -3.0236c -1.6699,-0.0000 -3.0236,1.3537 -3.0236 3.0236c -0.0000,1.6699 1.3537,3.0236 3.0236 3.0236c 1.6699,0.0000 3.0236,-1.3537 3.0236 -3.0236Z"/></g><g stroke-linejoin="miter" stroke-opacity="1.0" fill-opacity="1.0" stroke="rgb(255,0,0)" stroke-width="1.6462435045385455" fill="rgb(255,0,0)" stroke-linecap="butt" stroke-miterlimit="10.0"><path d="M 373.5024,50.0787 c 0.0000,-0.2087 -0.1692,-0.3780 -0.3780 -0.3780c -0.2087,-0.0000 -0.3780,0.1692 -0.3780 0.3780c -0.0000,0.2087 0.1692,0.3780 0.3780 0.3780c 0.2087,0.0000 0.3780,-0.1692 0.3780 -0.3780Z"/></g><g stroke-linejoin="miter" stroke-opacity="1.0" fill-opacity="0.0" stroke="rgb(0,0,0)" stroke-width="1.6462435045385455" fill="rgb(0,0,0)" stroke-linecap="butt" stroke-miterlimit="10.0"><path d="M 384.4630,89.7638 l -0.0000,-49.1339 h -60.2646 l -0.0000,49.1339 Z"/></g><g stroke-linejoin="miter" stroke-opacity="1.0" fill-opacity="1.0" font-size="18.89763779527559px" stroke="rgb(0,0,0)" stroke-width="1.6462435045385455" fill="rgb(0,0,0)" stroke-linecap="butt" stroke-miterlimit="10.0"><text dominant-baseline="middle" transform="matrix(1.0000,-0.0000,0.0000,1.0000,354.3307,65.1969)" stroke="none" text-anchor="middle"></text></g><g stroke-linejoin="miter" stroke-opacity="1.0" fill-opacity="0.0" stroke="rgb(0,0,255)" stroke-width="1.6462435045385455" fill="rgb(0,0,0)" stroke-linecap="butt" stroke-miterlimit="10.0"><path d="M 338.5606,123.7795 c 0.0000,-1.6699 -1.3537,-3.0236 -3.0236 -3.0236c -1.6699,-0.0000 -3.0236,1.3537 -3.0236 3.0236c -0.0000,1.6699 1.3537,3.0236 3.0236 3.0236c 1.6699,0.0000 3.0236,-1.3537 3.0236 -3.0236Z"/></g><g stroke-linejoin="miter" stroke-opacity="1.0" fill-opacity="1.0" stroke="rgb(255,0,0)" stroke-width="1.6462435045385455" fill="rgb(255,0,0)" stroke-linecap="butt" stroke-miterlimit="10.0"><path d="M 335.9150,123.7795 c 0.0000,-0.2087 -0.1692,-0.3780 -0.3780 -0.3780c -0.2087,-0.0000 -0.3780,0.1692 -0.3780 0.3780c -0.0000,0.2087 0.1692,0.3780 0.3780 0.3780c 0.2087,0.0000 0.3780,-0.1692 0.3780 -0.3780Z"/></g><g stroke-linejoin="miter" stroke-opacity="1.0" fill-opacity="0.0" stroke="rgb(0,0,255)" stroke-width="1.6462435045385455" fill="rgb(0,0,0)" stroke-linecap="butt" stroke-miterlimit="10.0"><path d="M 357.3543,123.7795 c 0.0000,-1.6699 -1.3537,-3.0236 -3.0236 -3.0236c -1.6699,-0.0000 -3.0236,1.3537 -3.0236 3.0236c -0.0000,1.6699 1.3537,3.0236 3.0236 3.0236c 1.6699,0.0000 3.0236,-1.3537 3.0236 -3.0236Z"/></g><g stroke-linejoin="miter" stroke-opacity="1.0" fill-opacity="1.0" stroke="rgb(255,0,0)" stroke-width="1.6462435045385455" fill="rgb(255,0,0)" stroke-linecap="butt" stroke-miterlimit="10.0"><path d="M 354.7087,123.7795 c 0.0000,-0.2087 -0.1692,-0.3780 -0.3780 -0.3780c -0.2087,-0.0000 -0.3780,0.1692 -0.3780 0.3780c -0.0000,0.2087 0.1692,0.3780 0.3780 0.3780c 0.2087,0.0000 0.3780,-0.1692 0.3780 -0.3780Z"/></g><g stroke-linejoin="miter" stroke-opacity="1.0" fill-opacity="0.0" stroke="rgb(0,0,255)" stroke-width="1.6462435045385455" fill="rgb(0,0,0)" stroke-linecap="butt" stroke-miterlimit="10.0"><path d="M 376.1480,123.7795 c 0.0000,-1.6699 -1.3537,-3.0236 -3.0236 -3.0236c -1.6699,-0.0000 -3.0236,1.3537 -3.0236 3.0236c -0.0000,1.6699 1.3537,3.0236 3.0236 3.0236c 1.6699,0.0000 3.0236,-1.3537 3.0236 -3.0236Z"/></g><g stroke-linejoin="miter" stroke-opacity="1.0" fill-opacity="1.0" stroke="rgb(255,0,0)" stroke-width="1.6462435045385455" fill="rgb(255,0,0)" stroke-linecap="butt" stroke-miterlimit="10.0"><path d="M 373.5024,123.7795 c 0.0000,-0.2087 -0.1692,-0.3780 -0.3780 -0.3780c -0.2087,-0.0000 -0.3780,0.1692 -0.3780 0.3780c -0.0000,0.2087 0.1692,0.3780 0.3780 0.3780c 0.2087,0.0000 0.3780,-0.1692 0.3780 -0.3780Z"/></g><g stroke-linejoin="miter" stroke-opacity="1.0" fill-opacity="0.0" stroke="rgb(0,0,0)" stroke-width="1.6462435045385455" fill="rgb(0,0,0)" stroke-linecap="butt" stroke-miterlimit="10.0"><path d="M 384.4630,163.4646 l -0.0000,-49.1339 h -60.2646 l -0.0000,49.1339 Z"/></g><g stroke-linejoin="miter" stroke-opacity="1.0" fill-opacity="1.0" font-size="18.89763779527559px" stroke="rgb(0,0,0)" stroke-width="1.6462435045385455" fill="rgb(0,0,0)" stroke-linecap="butt" stroke-miterlimit="10.0"><text dominant-baseline="middle" transform="matrix(1.0000,-0.0000,0.0000,1.0000,354.3307,138.8976)" stroke="none" text-anchor="middle"></text></g><g stroke-linejoin="miter" stroke-opacity="1.0" fill-opacity="0.0" stroke="rgb(0,0,255)" stroke-width="1.6462435045385455" fill="rgb(0,0,0)" stroke-linecap="butt" stroke-miterlimit="10.0"><path d="M 338.5606,197.4803 c 0.0000,-1.6699 -1.3537,-3.0236 -3.0236 -3.0236c -1.6699,-0.0000 -3.0236,1.3537 -3.0236 3.0236c -0.0000,1.6699 1.3537,3.0236 3.0236 3.0236c 1.6699,0.0000 3.0236,-1.3537 3.0236 -3.0236Z"/></g><g stroke-linejoin="miter" stroke-opacity="1.0" fill-opacity="1.0" stroke="rgb(255,0,0)" stroke-width="1.6462435045385455" fill="rgb(255,0,0)" stroke-linecap="butt" stroke-miterlimit="10.0"><path d="M 335.9150,197.4803 c 0.0000,-0.2087 -0.1692,-0.3780 -0.3780 -0.3780c -0.2087,-0.0000 -0.3780,0.1692 -0.3780 0.3780c -0.0000,0.2087 0.1692,0.3780 0.3780 0.3780c 0.2087,0.0000 0.3780,-0.1692 0.3780 -0.3780Z"/></g><g stroke-linejoin="miter" stroke-opacity="1.0" fill-opacity="0.0" stroke="rgb(0,0,255)" stroke-width="1.6462435045385455" fill="rgb(0,0,0)" stroke-linecap="butt" stroke-miterlimit="10.0"><path d="M 357.3543,197.4803 c 0.0000,-1.6699 -1.3537,-3.0236 -3.0236 -3.0236c -1.6699,-0.0000 -3.0236,1.3537 -3.0236 3.0236c -0.0000,1.6699 1.3537,3.0236 3.0236 3.0236c 1.6699,0.0000 3.0236,-1.3537 3.0236 -3.0236Z"/></g><g stroke-linejoin="miter" stroke-opacity="1.0" fill-opacity="1.0" stroke="rgb(255,0,0)" stroke-width="1.6462435045385455" fill="rgb(255,0,0)" stroke-linecap="butt" stroke-miterlimit="10.0"><path d="M 354.7087,197.4803 c 0.0000,-0.2087 -0.1692,-0.3780 -0.3780 -0.3780c -0.2087,-0.0000 -0.3780,0.1692 -0.3780 0.3780c -0.0000,0.2087 0.1692,0.3780 0.3780 0.3780c 0.2087,0.0000 0.3780,-0.1692 0.3780 -0.3780Z"/></g><g stroke-linejoin="miter" stroke-opacity="1.0" fill-opacity="0.0" stroke="rgb(0,0,255)" stroke-width="1.6462435045385455" fill="rgb(0,0,0)" stroke-linecap="butt" stroke-miterlimit="10.0"><path d="M 376.1480,197.4803 c 0.0000,-1.6699 -1.3537,-3.0236 -3.0236 -3.0236c -1.6699,-0.0000 -3.0236,1.3537 -3.0236 3.0236c -0.0000,1.6699 1.3537,3.0236 3.0236 3.0236c 1.6699,0.0000 3.0236,-1.3537 3.0236 -3.0236Z"/></g><g stroke-linejoin="miter" stroke-opacity="1.0" fill-opacity="1.0" stroke="rgb(255,0,0)" stroke-width="1.6462435045385455" fill="rgb(255,0,0)" stroke-linecap="butt" stroke-miterlimit="10.0"><path d="M 373.5024,197.4803 c 0.0000,-0.2087 -0.1692,-0.3780 -0.3780 -0.3780c -0.2087,-0.0000 -0.3780,0.1692 -0.3780 0.3780c -0.0000,0.2087 0.1692,0.3780 0.3780 0.3780c 0.2087,0.0000 0.3780,-0.1692 0.3780 -0.3780Z"/></g><g stroke-linejoin="miter" stroke-opacity="1.0" fill-opacity="0.0" stroke="rgb(0,0,0)" stroke-width="1.6462435045385455" fill="rgb(0,0,0)" stroke-linecap="butt" stroke-miterlimit="10.0"><path d="M 384.4630,237.1654 l -0.0000,-49.1339 h -60.2646 l -0.0000,49.1339 Z"/></g><g stroke-linejoin="miter" stroke-opacity="1.0" fill-opacity="1.0" font-size="18.89763779527559px" stroke="rgb(0,0,0)" stroke-width="1.6462435045385455" fill="rgb(0,0,0)" stroke-linecap="butt" stroke-miterlimit="10.0"><text dominant-baseline="middle" transform="matrix(1.0000,-0.0000,0.0000,1.0000,354.3307,212.5984)" stroke="none" text-anchor="middle"></text></g><g stroke-linejoin="miter" stroke-opacity="1.0" fill-opacity="0.0" stroke="rgb(0,0,255)" stroke-width="1.6462435045385455" fill="rgb(0,0,0)" stroke-linecap="butt" stroke-miterlimit="10.0"><path d="M 338.5606,271.1811 c 0.0000,-1.6699 -1.3537,-3.0236 -3.0236 -3.0236c -1.6699,-0.0000 -3.0236,1.3537 -3.0236 3.0236c -0.0000,1.6699 1.3537,3.0236 3.0236 3.0236c 1.6699,0.0000 3.0236,-1.3537 3.0236 -3.0236Z"/></g><g stroke-linejoin="miter" stroke-opacity="1.0" fill-opacity="1.0" stroke="rgb(255,0,0)" stroke-width="1.6462435045385455" fill="rgb(255,0,0)" stroke-linecap="butt" stroke-miterlimit="10.0"><path d="M 335.9150,271.1811 c 0.0000,-0.2087 -0.1692,-0.3780 -0.3780 -0.3780c -0.2087,-0.0000 -0.3780,0.1692 -0.3780 0.3780c -0.0000,0.2087 0.1692,0.3780 0.3780 0.3780c 0.2087,0.0000 0.3780,-0.1692 0.3780 -0.3780Z"/></g><g stroke-linejoin="miter" stroke-opacity="1.0" fill-opacity="0.0" stroke="rgb(0,0,255)" stroke-width="1.6462435045385455" fill="rgb(0,0,0)" stroke-linecap="butt" stroke-miterlimit="10.0"><path d="M 357.3543,271.1811 c 0.0000,-1.6699 -1.3537,-3.0236 -3.0236 -3.0236c -1.6699,-0.0000 -3.0236,1.3537 -3.0236 3.0236c -0.0000,1.6699 1.3537,3.0236 3.0236 3.0236c 1.6699,0.0000 3.0236,-1.3537 3.0236 -3.0236Z"/></g><g stroke-linejoin="miter" stroke-opacity="1.0" fill-opacity="1.0" stroke="rgb(255,0,0)" stroke-width="1.6462435045385455" fill="rgb(255,0,0)" stroke-linecap="butt" stroke-miterlimit="10.0"><path d="M 354.7087,271.1811 c 0.0000,-0.2087 -0.1692,-0.3780 -0.3780 -0.3780c -0.2087,-0.0000 -0.3780,0.1692 -0.3780 0.3780c -0.0000,0.2087 0.1692,0.3780 0.3780 0.3780c 0.2087,0.0000 0.3780,-0.1692 0.3780 -0.3780Z"/></g><g stroke-linejoin="miter" stroke-opacity="1.0" fill-opacity="0.0" stroke="rgb(0,0,255)" stroke-width="1.6462435045385455" fill="rgb(0,0,0)" stroke-linecap="butt" stroke-miterlimit="10.0"><path d="M 376.1480,271.1811 c 0.0000,-1.6699 -1.3537,-3.0236 -3.0236 -3.0236c -1.6699,-0.0000 -3.0236,1.3537 -3.0236 3.0236c -0.0000,1.6699 1.3537,3.0236 3.0236 3.0236c 1.6699,0.0000 3.0236,-1.3537 3.0236 -3.0236Z"/></g><g stroke-linejoin="miter" stroke-opacity="1.0" fill-opacity="1.0" stroke="rgb(255,0,0)" stroke-width="1.6462435045385455" fill="rgb(255,0,0)" stroke-linecap="butt" stroke-miterlimit="10.0"><path d="M 373.5024,271.1811 c 0.0000,-0.2087 -0.1692,-0.3780 -0.3780 -0.3780c -0.2087,-0.0000 -0.3780,0.1692 -0.3780 0.3780c -0.0000,0.2087 0.1692,0.3780 0.3780 0.3780c 0.2087,0.0000 0.3780,-0.1692 0.3780 -0.3780Z"/></g><g stroke-linejoin="miter" stroke-opacity="1.0" fill-opacity="0.0" stroke="rgb(0,0,0)" stroke-width="1.6462435045385455" fill="rgb(0,0,0)" stroke-linecap="butt" stroke-miterlimit="10.0"><path d="M 384.4630,310.8661 l -0.0000,-49.1339 h -60.2646 l -0.0000,49.1339 Z"/></g><g stroke-linejoin="miter" stroke-opacity="1.0" fill-opacity="1.0" font-size="18.89763779527559px" stroke="rgb(0,0,0)" stroke-width="1.6462435045385455" fill="rgb(0,0,0)" stroke-linecap="butt" stroke-miterlimit="10.0"><text dominant-baseline="middle" transform="matrix(1.0000,-0.0000,0.0000,1.0000,354.3307,286.2992)" stroke="none" text-anchor="middle"></text></g><g stroke-linejoin="miter" stroke-opacity="1.0" fill-opacity="0.0" stroke="rgb(0,0,255)" stroke-width="1.6462435045385455" fill="rgb(0,0,0)" stroke-linecap="butt" stroke-miterlimit="10.0"><path d="M 262.9701,50.0787 c 0.0000,-1.6699 -1.3537,-3.0236 -3.0236 -3.0236c -1.6699,-0.0000 -3.0236,1.3537 -3.0236 3.0236c -0.0000,1.6699 1.3537,3.0236 3.0236 3.0236c 1.6699,0.0000 3.0236,-1.3537 3.0236 -3.0236Z"/></g><g stroke-linejoin="miter" stroke-opacity="1.0" fill-opacity="1.0" stroke="rgb(255,0,0)" stroke-width="1.6462435045385455" fill="rgb(255,0,0)" stroke-linecap="butt" stroke-miterlimit="10.0"><path d="M 260.3244,50.0787 c 0.0000,-0.2087 -0.1692,-0.3780 -0.3780 -0.3780c -0.2087,-0.0000 -0.3780,0.1692 -0.3780 0.3780c -0.0000,0.2087 0.1692,0.3780 0.3780 0.3780c 0.2087,0.0000 0.3780,-0.1692 0.3780 -0.3780Z"/></g><g stroke-linejoin="miter" stroke-opacity="1.0" fill-opacity="0.0" stroke="rgb(0,0,255)" stroke-width="1.6462435045385455" fill="rgb(0,0,0)" stroke-linecap="butt" stroke-miterlimit="10.0"><path d="M 281.7638,50.0787 c 0.0000,-1.6699 -1.3537,-3.0236 -3.0236 -3.0236c -1.6699,-0.0000 -3.0236,1.3537 -3.0236 3.0236c -0.0000,1.6699 1.3537,3.0236 3.0236 3.0236c 1.6699,0.0000 3.0236,-1.3537 3.0236 -3.0236Z"/></g><g stroke-linejoin="miter" stroke-opacity="1.0" fill-opacity="1.0" stroke="rgb(255,0,0)" stroke-width="1.6462435045385455" fill="rgb(255,0,0)" stroke-linecap="butt" stroke-miterlimit="10.0"><path d="M 279.1181,50.0787 c 0.0000,-0.2087 -0.1692,-0.3780 -0.3780 -0.3780c -0.2087,-0.0000 -0.3780,0.1692 -0.3780 0.3780c -0.0000,0.2087 0.1692,0.3780 0.3780 0.3780c 0.2087,0.0000 0.3780,-0.1692 0.3780 -0.3780Z"/></g><g stroke-linejoin="miter" stroke-opacity="1.0" fill-opacity="0.0" stroke="rgb(0,0,255)" stroke-width="1.6462435045385455" fill="rgb(0,0,0)" stroke-linecap="butt" stroke-miterlimit="10.0"><path d="M 300.5575,50.0787 c 0.0000,-1.6699 -1.3537,-3.0236 -3.0236 -3.0236c -1.6699,-0.0000 -3.0236,1.3537 -3.0236 3.0236c -0.0000,1.6699 1.3537,3.0236 3.0236 3.0236c 1.6699,0.0000 3.0236,-1.3537 3.0236 -3.0236Z"/></g><g stroke-linejoin="miter" stroke-opacity="1.0" fill-opacity="1.0" stroke="rgb(255,0,0)" stroke-width="1.6462435045385455" fill="rgb(255,0,0)" stroke-linecap="butt" stroke-miterlimit="10.0"><path d="M 297.9118,50.0787 c 0.0000,-0.2087 -0.1692,-0.3780 -0.3780 -0.3780c -0.2087,-0.0000 -0.3780,0.1692 -0.3780 0.3780c -0.0000,0.2087 0.1692,0.3780 0.3780 0.3780c 0.2087,0.0000 0.3780,-0.1692 0.3780 -0.3780Z"/></g><g stroke-linejoin="miter" stroke-opacity="1.0" fill-opacity="0.0" stroke="rgb(0,0,0)" stroke-width="1.6462435045385455" fill="rgb(0,0,0)" stroke-linecap="butt" stroke-miterlimit="10.0"><path d="M 308.8724,89.7638 l -0.0000,-49.1339 h -60.2646 l -0.0000,49.1339 Z"/></g><g stroke-linejoin="miter" stroke-opacity="1.0" fill-opacity="1.0" font-size="18.89763779527559px" stroke="rgb(0,0,0)" stroke-width="1.6462435045385455" fill="rgb(0,0,0)" stroke-linecap="butt" stroke-miterlimit="10.0"><text dominant-baseline="middle" transform="matrix(1.0000,-0.0000,0.0000,1.0000,278.7402,65.1969)" stroke="none" text-anchor="middle"></text></g><g stroke-linejoin="miter" stroke-opacity="1.0" fill-opacity="0.0" stroke="rgb(0,0,255)" stroke-width="1.6462435045385455" fill="rgb(0,0,0)" stroke-linecap="butt" stroke-miterlimit="10.0"><path d="M 262.9701,123.7795 c 0.0000,-1.6699 -1.3537,-3.0236 -3.0236 -3.0236c -1.6699,-0.0000 -3.0236,1.3537 -3.0236 3.0236c -0.0000,1.6699 1.3537,3.0236 3.0236 3.0236c 1.6699,0.0000 3.0236,-1.3537 3.0236 -3.0236Z"/></g><g stroke-linejoin="miter" stroke-opacity="1.0" fill-opacity="1.0" stroke="rgb(255,0,0)" stroke-width="1.6462435045385455" fill="rgb(255,0,0)" stroke-linecap="butt" stroke-miterlimit="10.0"><path d="M 260.3244,123.7795 c 0.0000,-0.2087 -0.1692,-0.3780 -0.3780 -0.3780c -0.2087,-0.0000 -0.3780,0.1692 -0.3780 0.3780c -0.0000,0.2087 0.1692,0.3780 0.3780 0.3780c 0.2087,0.0000 0.3780,-0.1692 0.3780 -0.3780Z"/></g><g stroke-linejoin="miter" stroke-opacity="1.0" fill-opacity="0.0" stroke="rgb(0,0,255)" stroke-width="1.6462435045385455" fill="rgb(0,0,0)" stroke-linecap="butt" stroke-miterlimit="10.0"><path d="M 281.7638,123.7795 c 0.0000,-1.6699 -1.3537,-3.0236 -3.0236 -3.0236c -1.6699,-0.0000 -3.0236,1.3537 -3.0236 3.0236c -0.0000,1.6699 1.3537,3.0236 3.0236 3.0236c 1.6699,0.0000 3.0236,-1.3537 3.0236 -3.0236Z"/></g><g stroke-linejoin="miter" stroke-opacity="1.0" fill-opacity="1.0" stroke="rgb(255,0,0)" stroke-width="1.6462435045385455" fill="rgb(255,0,0)" stroke-linecap="butt" stroke-miterlimit="10.0"><path d="M 279.1181,123.7795 c 0.0000,-0.2087 -0.1692,-0.3780 -0.3780 -0.3780c -0.2087,-0.0000 -0.3780,0.1692 -0.3780 0.3780c -0.0000,0.2087 0.1692,0.3780 0.3780 0.3780c 0.2087,0.0000 0.3780,-0.1692 0.3780 -0.3780Z"/></g><g stroke-linejoin="miter" stroke-opacity="1.0" fill-opacity="0.0" stroke="rgb(0,0,255)" stroke-width="1.6462435045385455" fill="rgb(0,0,0)" stroke-linecap="butt" stroke-miterlimit="10.0"><path d="M 300.5575,123.7795 c 0.0000,-1.6699 -1.3537,-3.0236 -3.0236 -3.0236c -1.6699,-0.0000 -3.0236,1.3537 -3.0236 3.0236c -0.0000,1.6699 1.3537,3.0236 3.0236 3.0236c 1.6699,0.0000 3.0236,-1.3537 3.0236 -3.0236Z"/></g><g stroke-linejoin="miter" stroke-opacity="1.0" fill-opacity="1.0" stroke="rgb(255,0,0)" stroke-width="1.6462435045385455" fill="rgb(255,0,0)" stroke-linecap="butt" stroke-miterlimit="10.0"><path d="M 297.9118,123.7795 c 0.0000,-0.2087 -0.1692,-0.3780 -0.3780 -0.3780c -0.2087,-0.0000 -0.3780,0.1692 -0.3780 0.3780c -0.0000,0.2087 0.1692,0.3780 0.3780 0.3780c 0.2087,0.0000 0.3780,-0.1692 0.3780 -0.3780Z"/></g><g stroke-linejoin="miter" stroke-opacity="1.0" fill-opacity="0.0" stroke="rgb(0,0,0)" stroke-width="1.6462435045385455" fill="rgb(0,0,0)" stroke-linecap="butt" stroke-miterlimit="10.0"><path d="M 308.8724,163.4646 l -0.0000,-49.1339 h -60.2646 l -0.0000,49.1339 Z"/></g><g stroke-linejoin="miter" stroke-opacity="1.0" fill-opacity="1.0" font-size="18.89763779527559px" stroke="rgb(0,0,0)" stroke-width="1.6462435045385455" fill="rgb(0,0,0)" stroke-linecap="butt" stroke-miterlimit="10.0"><text dominant-baseline="middle" transform="matrix(1.0000,-0.0000,0.0000,1.0000,278.7402,138.8976)" stroke="none" text-anchor="middle"></text></g><g stroke-linejoin="miter" stroke-opacity="1.0" fill-opacity="0.0" stroke="rgb(0,0,255)" stroke-width="1.6462435045385455" fill="rgb(0,0,0)" stroke-linecap="butt" stroke-miterlimit="10.0"><path d="M 262.9701,197.4803 c 0.0000,-1.6699 -1.3537,-3.0236 -3.0236 -3.0236c -1.6699,-0.0000 -3.0236,1.3537 -3.0236 3.0236c -0.0000,1.6699 1.3537,3.0236 3.0236 3.0236c 1.6699,0.0000 3.0236,-1.3537 3.0236 -3.0236Z"/></g><g stroke-linejoin="miter" stroke-opacity="1.0" fill-opacity="1.0" stroke="rgb(255,0,0)" stroke-width="1.6462435045385455" fill="rgb(255,0,0)" stroke-linecap="butt" stroke-miterlimit="10.0"><path d="M 260.3244,197.4803 c 0.0000,-0.2087 -0.1692,-0.3780 -0.3780 -0.3780c -0.2087,-0.0000 -0.3780,0.1692 -0.3780 0.3780c -0.0000,0.2087 0.1692,0.3780 0.3780 0.3780c 0.2087,0.0000 0.3780,-0.1692 0.3780 -0.3780Z"/></g><g stroke-linejoin="miter" stroke-opacity="1.0" fill-opacity="0.0" stroke="rgb(0,0,255)" stroke-width="1.6462435045385455" fill="rgb(0,0,0)" stroke-linecap="butt" stroke-miterlimit="10.0"><path d="M 281.7638,197.4803 c 0.0000,-1.6699 -1.3537,-3.0236 -3.0236 -3.0236c -1.6699,-0.0000 -3.0236,1.3537 -3.0236 3.0236c -0.0000,1.6699 1.3537,3.0236 3.0236 3.0236c 1.6699,0.0000 3.0236,-1.3537 3.0236 -3.0236Z"/></g><g stroke-linejoin="miter" stroke-opacity="1.0" fill-opacity="1.0" stroke="rgb(255,0,0)" stroke-width="1.6462435045385455" fill="rgb(255,0,0)" stroke-linecap="butt" stroke-miterlimit="10.0"><path d="M 279.1181,197.4803 c 0.0000,-0.2087 -0.1692,-0.3780 -0.3780 -0.3780c -0.2087,-0.0000 -0.3780,0.1692 -0.3780 0.3780c -0.0000,0.2087 0.1692,0.3780 0.3780 0.3780c 0.2087,0.0000 0.3780,-0.1692 0.3780 -0.3780Z"/></g><g stroke-linejoin="miter" stroke-opacity="1.0" fill-opacity="0.0" stroke="rgb(0,0,255)" stroke-width="1.6462435045385455" fill="rgb(0,0,0)" stroke-linecap="butt" stroke-miterlimit="10.0"><path d="M 300.5575,197.4803 c 0.0000,-1.6699 -1.3537,-3.0236 -3.0236 -3.0236c -1.6699,-0.0000 -3.0236,1.3537 -3.0236 3.0236c -0.0000,1.6699 1.3537,3.0236 3.0236 3.0236c 1.6699,0.0000 3.0236,-1.3537 3.0236 -3.0236Z"/></g><g stroke-linejoin="miter" stroke-opacity="1.0" fill-opacity="1.0" stroke="rgb(255,0,0)" stroke-width="1.6462435045385455" fill="rgb(255,0,0)" stroke-linecap="butt" stroke-miterlimit="10.0"><path d="M 297.9118,197.4803 c 0.0000,-0.2087 -0.1692,-0.3780 -0.3780 -0.3780c -0.2087,-0.0000 -0.3780,0.1692 -0.3780 0.3780c -0.0000,0.2087 0.1692,0.3780 0.3780 0.3780c 0.2087,0.0000 0.3780,-0.1692 0.3780 -0.3780Z"/></g><g stroke-linejoin="miter" stroke-opacity="1.0" fill-opacity="0.0" stroke="rgb(0,0,0)" stroke-width="1.6462435045385455" fill="rgb(0,0,0)" stroke-linecap="butt" stroke-miterlimit="10.0"><path d="M 308.8724,237.1654 l -0.0000,-49.1339 h -60.2646 l -0.0000,49.1339 Z"/></g><g stroke-linejoin="miter" stroke-opacity="1.0" fill-opacity="1.0" font-size="18.89763779527559px" stroke="rgb(0,0,0)" stroke-width="1.6462435045385455" fill="rgb(0,0,0)" stroke-linecap="butt" stroke-miterlimit="10.0"><text dominant-baseline="middle" transform="matrix(1.0000,-0.0000,0.0000,1.0000,278.7402,212.5984)" stroke="none" text-anchor="middle"></text></g><g stroke-linejoin="miter" stroke-opacity="1.0" fill-opacity="0.0" stroke="rgb(0,0,255)" stroke-width="1.6462435045385455" fill="rgb(0,0,0)" stroke-linecap="butt" stroke-miterlimit="10.0"><path d="M 262.9701,271.1811 c 0.0000,-1.6699 -1.3537,-3.0236 -3.0236 -3.0236c -1.6699,-0.0000 -3.0236,1.3537 -3.0236 3.0236c -0.0000,1.6699 1.3537,3.0236 3.0236 3.0236c 1.6699,0.0000 3.0236,-1.3537 3.0236 -3.0236Z"/></g><g stroke-linejoin="miter" stroke-opacity="1.0" fill-opacity="1.0" stroke="rgb(255,0,0)" stroke-width="1.6462435045385455" fill="rgb(255,0,0)" stroke-linecap="butt" stroke-miterlimit="10.0"><path d="M 260.3244,271.1811 c 0.0000,-0.2087 -0.1692,-0.3780 -0.3780 -0.3780c -0.2087,-0.0000 -0.3780,0.1692 -0.3780 0.3780c -0.0000,0.2087 0.1692,0.3780 0.3780 0.3780c 0.2087,0.0000 0.3780,-0.1692 0.3780 -0.3780Z"/></g><g stroke-linejoin="miter" stroke-opacity="1.0" fill-opacity="0.0" stroke="rgb(0,0,255)" stroke-width="1.6462435045385455" fill="rgb(0,0,0)" stroke-linecap="butt" stroke-miterlimit="10.0"><path d="M 281.7638,271.1811 c 0.0000,-1.6699 -1.3537,-3.0236 -3.0236 -3.0236c -1.6699,-0.0000 -3.0236,1.3537 -3.0236 3.0236c -0.0000,1.6699 1.3537,3.0236 3.0236 3.0236c 1.6699,0.0000 3.0236,-1.3537 3.0236 -3.0236Z"/></g><g stroke-linejoin="miter" stroke-opacity="1.0" fill-opacity="1.0" stroke="rgb(255,0,0)" stroke-width="1.6462435045385455" fill="rgb(255,0,0)" stroke-linecap="butt" stroke-miterlimit="10.0"><path d="M 279.1181,271.1811 c 0.0000,-0.2087 -0.1692,-0.3780 -0.3780 -0.3780c -0.2087,-0.0000 -0.3780,0.1692 -0.3780 0.3780c -0.0000,0.2087 0.1692,0.3780 0.3780 0.3780c 0.2087,0.0000 0.3780,-0.1692 0.3780 -0.3780Z"/></g><g stroke-linejoin="miter" stroke-opacity="1.0" fill-opacity="0.0" stroke="rgb(0,0,255)" stroke-width="1.6462435045385455" fill="rgb(0,0,0)" stroke-linecap="butt" stroke-miterlimit="10.0"><path d="M 300.5575,271.1811 c 0.0000,-1.6699 -1.3537,-3.0236 -3.0236 -3.0236c -1.6699,-0.0000 -3.0236,1.3537 -3.0236 3.0236c -0.0000,1.6699 1.3537,3.0236 3.0236 3.0236c 1.6699,0.0000 3.0236,-1.3537 3.0236 -3.0236Z"/></g><g stroke-linejoin="miter" stroke-opacity="1.0" fill-opacity="1.0" stroke="rgb(255,0,0)" stroke-width="1.6462435045385455" fill="rgb(255,0,0)" stroke-linecap="butt" stroke-miterlimit="10.0"><path d="M 297.9118,271.1811 c 0.0000,-0.2087 -0.1692,-0.3780 -0.3780 -0.3780c -0.2087,-0.0000 -0.3780,0.1692 -0.3780 0.3780c -0.0000,0.2087 0.1692,0.3780 0.3780 0.3780c 0.2087,0.0000 0.3780,-0.1692 0.3780 -0.3780Z"/></g><g stroke-linejoin="miter" stroke-opacity="1.0" fill-opacity="0.0" stroke="rgb(0,0,0)" stroke-width="1.6462435045385455" fill="rgb(0,0,0)" stroke-linecap="butt" stroke-miterlimit="10.0"><path d="M 308.8724,310.8661 l -0.0000,-49.1339 h -60.2646 l -0.0000,49.1339 Z"/></g><g stroke-linejoin="miter" stroke-opacity="1.0" fill-opacity="1.0" font-size="18.89763779527559px" stroke="rgb(0,0,0)" stroke-width="1.6462435045385455" fill="rgb(0,0,0)" stroke-linecap="butt" stroke-miterlimit="10.0"><text dominant-baseline="middle" transform="matrix(1.0000,-0.0000,0.0000,1.0000,278.7402,286.2992)" stroke="none" text-anchor="middle"></text></g><g stroke-linejoin="miter" stroke-opacity="1.0" fill-opacity="0.0" stroke="rgb(0,0,255)" stroke-width="1.6462435045385455" fill="rgb(0,0,0)" stroke-linecap="butt" stroke-miterlimit="10.0"><path d="M 187.3795,50.0787 c 0.0000,-1.6699 -1.3537,-3.0236 -3.0236 -3.0236c -1.6699,-0.0000 -3.0236,1.3537 -3.0236 3.0236c -0.0000,1.6699 1.3537,3.0236 3.0236 3.0236c 1.6699,0.0000 3.0236,-1.3537 3.0236 -3.0236Z"/></g><g stroke-linejoin="miter" stroke-opacity="1.0" fill-opacity="1.0" stroke="rgb(255,0,0)" stroke-width="1.6462435045385455" fill="rgb(255,0,0)" stroke-linecap="butt" stroke-miterlimit="10.0"><path d="M 184.7339,50.0787 c 0.0000,-0.2087 -0.1692,-0.3780 -0.3780 -0.3780c -0.2087,-0.0000 -0.3780,0.1692 -0.3780 0.3780c -0.0000,0.2087 0.1692,0.3780 0.3780 0.3780c 0.2087,0.0000 0.3780,-0.1692 0.3780 -0.3780Z"/></g><g stroke-linejoin="miter" stroke-opacity="1.0" fill-opacity="0.0" stroke="rgb(0,0,255)" stroke-width="1.6462435045385455" fill="rgb(0,0,0)" stroke-linecap="butt" stroke-miterlimit="10.0"><path d="M 206.1732,50.0787 c 0.0000,-1.6699 -1.3537,-3.0236 -3.0236 -3.0236c -1.6699,-0.0000 -3.0236,1.3537 -3.0236 3.0236c -0.0000,1.6699 1.3537,3.0236 3.0236 3.0236c 1.6699,0.0000 3.0236,-1.3537 3.0236 -3.0236Z"/></g><g stroke-linejoin="miter" stroke-opacity="1.0" fill-opacity="1.0" stroke="rgb(255,0,0)" stroke-width="1.6462435045385455" fill="rgb(255,0,0)" stroke-linecap="butt" stroke-miterlimit="10.0"><path d="M 203.5276,50.0787 c 0.0000,-0.2087 -0.1692,-0.3780 -0.3780 -0.3780c -0.2087,-0.0000 -0.3780,0.1692 -0.3780 0.3780c -0.0000,0.2087 0.1692,0.3780 0.3780 0.3780c 0.2087,0.0000 0.3780,-0.1692 0.3780 -0.3780Z"/></g><g stroke-linejoin="miter" stroke-opacity="1.0" fill-opacity="0.0" stroke="rgb(0,0,255)" stroke-width="1.6462435045385455" fill="rgb(0,0,0)" stroke-linecap="butt" stroke-miterlimit="10.0"><path d="M 224.9669,50.0787 c 0.0000,-1.6699 -1.3537,-3.0236 -3.0236 -3.0236c -1.6699,-0.0000 -3.0236,1.3537 -3.0236 3.0236c -0.0000,1.6699 1.3537,3.0236 3.0236 3.0236c 1.6699,0.0000 3.0236,-1.3537 3.0236 -3.0236Z"/></g><g stroke-linejoin="miter" stroke-opacity="1.0" fill-opacity="1.0" stroke="rgb(255,0,0)" stroke-width="1.6462435045385455" fill="rgb(255,0,0)" stroke-linecap="butt" stroke-miterlimit="10.0"><path d="M 222.3213,50.0787 c 0.0000,-0.2087 -0.1692,-0.3780 -0.3780 -0.3780c -0.2087,-0.0000 -0.3780,0.1692 -0.3780 0.3780c -0.0000,0.2087 0.1692,0.3780 0.3780 0.3780c 0.2087,0.0000 0.3780,-0.1692 0.3780 -0.3780Z"/></g><g stroke-linejoin="miter" stroke-opacity="1.0" fill-opacity="0.0" stroke="rgb(0,0,0)" stroke-width="1.6462435045385455" fill="rgb(0,0,0)" stroke-linecap="butt" stroke-miterlimit="10.0"><path d="M 233.2819,89.7638 l -0.0000,-49.1339 h -60.2646 l -0.0000,49.1339 Z"/></g><g stroke-linejoin="miter" stroke-opacity="1.0" fill-opacity="1.0" font-size="18.89763779527559px" stroke="rgb(0,0,0)" stroke-width="1.6462435045385455" fill="rgb(0,0,0)" stroke-linecap="butt" stroke-miterlimit="10.0"><text dominant-baseline="middle" transform="matrix(1.0000,-0.0000,0.0000,1.0000,203.1496,65.1969)" stroke="none" text-anchor="middle"></text></g><g stroke-linejoin="miter" stroke-opacity="1.0" fill-opacity="0.0" stroke="rgb(0,0,255)" stroke-width="1.6462435045385455" fill="rgb(0,0,0)" stroke-linecap="butt" stroke-miterlimit="10.0"><path d="M 187.3795,123.7795 c 0.0000,-1.6699 -1.3537,-3.0236 -3.0236 -3.0236c -1.6699,-0.0000 -3.0236,1.3537 -3.0236 3.0236c -0.0000,1.6699 1.3537,3.0236 3.0236 3.0236c 1.6699,0.0000 3.0236,-1.3537 3.0236 -3.0236Z"/></g><g stroke-linejoin="miter" stroke-opacity="1.0" fill-opacity="1.0" stroke="rgb(255,0,0)" stroke-width="1.6462435045385455" fill="rgb(255,0,0)" stroke-linecap="butt" stroke-miterlimit="10.0"><path d="M 184.7339,123.7795 c 0.0000,-0.2087 -0.1692,-0.3780 -0.3780 -0.3780c -0.2087,-0.0000 -0.3780,0.1692 -0.3780 0.3780c -0.0000,0.2087 0.1692,0.3780 0.3780 0.3780c 0.2087,0.0000 0.3780,-0.1692 0.3780 -0.3780Z"/></g><g stroke-linejoin="miter" stroke-opacity="1.0" fill-opacity="0.0" stroke="rgb(0,0,255)" stroke-width="1.6462435045385455" fill="rgb(0,0,0)" stroke-linecap="butt" stroke-miterlimit="10.0"><path d="M 206.1732,123.7795 c 0.0000,-1.6699 -1.3537,-3.0236 -3.0236 -3.0236c -1.6699,-0.0000 -3.0236,1.3537 -3.0236 3.0236c -0.0000,1.6699 1.3537,3.0236 3.0236 3.0236c 1.6699,0.0000 3.0236,-1.3537 3.0236 -3.0236Z"/></g><g stroke-linejoin="miter" stroke-opacity="1.0" fill-opacity="1.0" stroke="rgb(255,0,0)" stroke-width="1.6462435045385455" fill="rgb(255,0,0)" stroke-linecap="butt" stroke-miterlimit="10.0"><path d="M 203.5276,123.7795 c 0.0000,-0.2087 -0.1692,-0.3780 -0.3780 -0.3780c -0.2087,-0.0000 -0.3780,0.1692 -0.3780 0.3780c -0.0000,0.2087 0.1692,0.3780 0.3780 0.3780c 0.2087,0.0000 0.3780,-0.1692 0.3780 -0.3780Z"/></g><g stroke-linejoin="miter" stroke-opacity="1.0" fill-opacity="0.0" stroke="rgb(0,0,255)" stroke-width="1.6462435045385455" fill="rgb(0,0,0)" stroke-linecap="butt" stroke-miterlimit="10.0"><path d="M 224.9669,123.7795 c 0.0000,-1.6699 -1.3537,-3.0236 -3.0236 -3.0236c -1.6699,-0.0000 -3.0236,1.3537 -3.0236 3.0236c -0.0000,1.6699 1.3537,3.0236 3.0236 3.0236c 1.6699,0.0000 3.0236,-1.3537 3.0236 -3.0236Z"/></g><g stroke-linejoin="miter" stroke-opacity="1.0" fill-opacity="1.0" stroke="rgb(255,0,0)" stroke-width="1.6462435045385455" fill="rgb(255,0,0)" stroke-linecap="butt" stroke-miterlimit="10.0"><path d="M 222.3213,123.7795 c 0.0000,-0.2087 -0.1692,-0.3780 -0.3780 -0.3780c -0.2087,-0.0000 -0.3780,0.1692 -0.3780 0.3780c -0.0000,0.2087 0.1692,0.3780 0.3780 0.3780c 0.2087,0.0000 0.3780,-0.1692 0.3780 -0.3780Z"/></g><g stroke-linejoin="miter" stroke-opacity="1.0" fill-opacity="0.0" stroke="rgb(0,0,0)" stroke-width="1.6462435045385455" fill="rgb(0,0,0)" stroke-linecap="butt" stroke-miterlimit="10.0"><path d="M 233.2819,163.4646 l -0.0000,-49.1339 h -60.2646 l -0.0000,49.1339 Z"/></g><g stroke-linejoin="miter" stroke-opacity="1.0" fill-opacity="1.0" font-size="18.89763779527559px" stroke="rgb(0,0,0)" stroke-width="1.6462435045385455" fill="rgb(0,0,0)" stroke-linecap="butt" stroke-miterlimit="10.0"><text dominant-baseline="middle" transform="matrix(1.0000,-0.0000,0.0000,1.0000,203.1496,138.8976)" stroke="none" text-anchor="middle"></text></g><g stroke-linejoin="miter" stroke-opacity="1.0" fill-opacity="0.0" stroke="rgb(0,0,255)" stroke-width="1.6462435045385455" fill="rgb(0,0,0)" stroke-linecap="butt" stroke-miterlimit="10.0"><path d="M 187.3795,197.4803 c 0.0000,-1.6699 -1.3537,-3.0236 -3.0236 -3.0236c -1.6699,-0.0000 -3.0236,1.3537 -3.0236 3.0236c -0.0000,1.6699 1.3537,3.0236 3.0236 3.0236c 1.6699,0.0000 3.0236,-1.3537 3.0236 -3.0236Z"/></g><g stroke-linejoin="miter" stroke-opacity="1.0" fill-opacity="1.0" stroke="rgb(255,0,0)" stroke-width="1.6462435045385455" fill="rgb(255,0,0)" stroke-linecap="butt" stroke-miterlimit="10.0"><path d="M 184.7339,197.4803 c 0.0000,-0.2087 -0.1692,-0.3780 -0.3780 -0.3780c -0.2087,-0.0000 -0.3780,0.1692 -0.3780 0.3780c -0.0000,0.2087 0.1692,0.3780 0.3780 0.3780c 0.2087,0.0000 0.3780,-0.1692 0.3780 -0.3780Z"/></g><g stroke-linejoin="miter" stroke-opacity="1.0" fill-opacity="0.0" stroke="rgb(0,0,255)" stroke-width="1.6462435045385455" fill="rgb(0,0,0)" stroke-linecap="butt" stroke-miterlimit="10.0"><path d="M 206.1732,197.4803 c 0.0000,-1.6699 -1.3537,-3.0236 -3.0236 -3.0236c -1.6699,-0.0000 -3.0236,1.3537 -3.0236 3.0236c -0.0000,1.6699 1.3537,3.0236 3.0236 3.0236c 1.6699,0.0000 3.0236,-1.3537 3.0236 -3.0236Z"/></g><g stroke-linejoin="miter" stroke-opacity="1.0" fill-opacity="1.0" stroke="rgb(255,0,0)" stroke-width="1.6462435045385455" fill="rgb(255,0,0)" stroke-linecap="butt" stroke-miterlimit="10.0"><path d="M 203.5276,197.4803 c 0.0000,-0.2087 -0.1692,-0.3780 -0.3780 -0.3780c -0.2087,-0.0000 -0.3780,0.1692 -0.3780 0.3780c -0.0000,0.2087 0.1692,0.3780 0.3780 0.3780c 0.2087,0.0000 0.3780,-0.1692 0.3780 -0.3780Z"/></g><g stroke-linejoin="miter" stroke-opacity="1.0" fill-opacity="0.0" stroke="rgb(0,0,255)" stroke-width="1.6462435045385455" fill="rgb(0,0,0)" stroke-linecap="butt" stroke-miterlimit="10.0"><path d="M 224.9669,197.4803 c 0.0000,-1.6699 -1.3537,-3.0236 -3.0236 -3.0236c -1.6699,-0.0000 -3.0236,1.3537 -3.0236 3.0236c -0.0000,1.6699 1.3537,3.0236 3.0236 3.0236c 1.6699,0.0000 3.0236,-1.3537 3.0236 -3.0236Z"/></g><g stroke-linejoin="miter" stroke-opacity="1.0" fill-opacity="1.0" stroke="rgb(255,0,0)" stroke-width="1.6462435045385455" fill="rgb(255,0,0)" stroke-linecap="butt" stroke-miterlimit="10.0"><path d="M 222.3213,197.4803 c 0.0000,-0.2087 -0.1692,-0.3780 -0.3780 -0.3780c -0.2087,-0.0000 -0.3780,0.1692 -0.3780 0.3780c -0.0000,0.2087 0.1692,0.3780 0.3780 0.3780c 0.2087,0.0000 0.3780,-0.1692 0.3780 -0.3780Z"/></g><g stroke-linejoin="miter" stroke-opacity="1.0" fill-opacity="0.0" stroke="rgb(0,0,0)" stroke-width="1.6462435045385455" fill="rgb(0,0,0)" stroke-linecap="butt" stroke-miterlimit="10.0"><path d="M 233.2819,237.1654 l -0.0000,-49.1339 h -60.2646 l -0.0000,49.1339 Z"/></g><g stroke-linejoin="miter" stroke-opacity="1.0" fill-opacity="1.0" font-size="18.89763779527559px" stroke="rgb(0,0,0)" stroke-width="1.6462435045385455" fill="rgb(0,0,0)" stroke-linecap="butt" stroke-miterlimit="10.0"><text dominant-baseline="middle" transform="matrix(1.0000,-0.0000,0.0000,1.0000,203.1496,212.5984)" stroke="none" text-anchor="middle"></text></g><g stroke-linejoin="miter" stroke-opacity="1.0" fill-opacity="0.0" stroke="rgb(0,0,255)" stroke-width="1.6462435045385455" fill="rgb(0,0,0)" stroke-linecap="butt" stroke-miterlimit="10.0"><path d="M 187.3795,271.1811 c 0.0000,-1.6699 -1.3537,-3.0236 -3.0236 -3.0236c -1.6699,-0.0000 -3.0236,1.3537 -3.0236 3.0236c -0.0000,1.6699 1.3537,3.0236 3.0236 3.0236c 1.6699,0.0000 3.0236,-1.3537 3.0236 -3.0236Z"/></g><g stroke-linejoin="miter" stroke-opacity="1.0" fill-opacity="1.0" stroke="rgb(255,0,0)" stroke-width="1.6462435045385455" fill="rgb(255,0,0)" stroke-linecap="butt" stroke-miterlimit="10.0"><path d="M 184.7339,271.1811 c 0.0000,-0.2087 -0.1692,-0.3780 -0.3780 -0.3780c -0.2087,-0.0000 -0.3780,0.1692 -0.3780 0.3780c -0.0000,0.2087 0.1692,0.3780 0.3780 0.3780c 0.2087,0.0000 0.3780,-0.1692 0.3780 -0.3780Z"/></g><g stroke-linejoin="miter" stroke-opacity="1.0" fill-opacity="0.0" stroke="rgb(0,0,255)" stroke-width="1.6462435045385455" fill="rgb(0,0,0)" stroke-linecap="butt" stroke-miterlimit="10.0"><path d="M 206.1732,271.1811 c 0.0000,-1.6699 -1.3537,-3.0236 -3.0236 -3.0236c -1.6699,-0.0000 -3.0236,1.3537 -3.0236 3.0236c -0.0000,1.6699 1.3537,3.0236 3.0236 3.0236c 1.6699,0.0000 3.0236,-1.3537 3.0236 -3.0236Z"/></g><g stroke-linejoin="miter" stroke-opacity="1.0" fill-opacity="1.0" stroke="rgb(255,0,0)" stroke-width="1.6462435045385455" fill="rgb(255,0,0)" stroke-linecap="butt" stroke-miterlimit="10.0"><path d="M 203.5276,271.1811 c 0.0000,-0.2087 -0.1692,-0.3780 -0.3780 -0.3780c -0.2087,-0.0000 -0.3780,0.1692 -0.3780 0.3780c -0.0000,0.2087 0.1692,0.3780 0.3780 0.3780c 0.2087,0.0000 0.3780,-0.1692 0.3780 -0.3780Z"/></g><g stroke-linejoin="miter" stroke-opacity="1.0" fill-opacity="0.0" stroke="rgb(0,0,255)" stroke-width="1.6462435045385455" fill="rgb(0,0,0)" stroke-linecap="butt" stroke-miterlimit="10.0"><path d="M 224.9669,271.1811 c 0.0000,-1.6699 -1.3537,-3.0236 -3.0236 -3.0236c -1.6699,-0.0000 -3.0236,1.3537 -3.0236 3.0236c -0.0000,1.6699 1.3537,3.0236 3.0236 3.0236c 1.6699,0.0000 3.0236,-1.3537 3.0236 -3.0236Z"/></g><g stroke-linejoin="miter" stroke-opacity="1.0" fill-opacity="1.0" stroke="rgb(255,0,0)" stroke-width="1.6462435045385455" fill="rgb(255,0,0)" stroke-linecap="butt" stroke-miterlimit="10.0"><path d="M 222.3213,271.1811 c 0.0000,-0.2087 -0.1692,-0.3780 -0.3780 -0.3780c -0.2087,-0.0000 -0.3780,0.1692 -0.3780 0.3780c -0.0000,0.2087 0.1692,0.3780 0.3780 0.3780c 0.2087,0.0000 0.3780,-0.1692 0.3780 -0.3780Z"/></g><g stroke-linejoin="miter" stroke-opacity="1.0" fill-opacity="0.0" stroke="rgb(0,0,0)" stroke-width="1.6462435045385455" fill="rgb(0,0,0)" stroke-linecap="butt" stroke-miterlimit="10.0"><path d="M 233.2819,310.8661 l -0.0000,-49.1339 h -60.2646 l -0.0000,49.1339 Z"/></g><g stroke-linejoin="miter" stroke-opacity="1.0" fill-opacity="1.0" font-size="18.89763779527559px" stroke="rgb(0,0,0)" stroke-width="1.6462435045385455" fill="rgb(0,0,0)" stroke-linecap="butt" stroke-miterlimit="10.0"><text dominant-baseline="middle" transform="matrix(1.0000,-0.0000,0.0000,1.0000,203.1496,286.2992)" stroke="none" text-anchor="middle"></text></g><g stroke-linejoin="miter" stroke-opacity="1.0" fill-opacity="0.0" stroke="rgb(0,0,255)" stroke-width="1.6462435045385455" fill="rgb(0,0,0)" stroke-linecap="butt" stroke-miterlimit="10.0"><path d="M 111.7890,50.0787 c 0.0000,-1.6699 -1.3537,-3.0236 -3.0236 -3.0236c -1.6699,-0.0000 -3.0236,1.3537 -3.0236 3.0236c -0.0000,1.6699 1.3537,3.0236 3.0236 3.0236c 1.6699,0.0000 3.0236,-1.3537 3.0236 -3.0236Z"/></g><g stroke-linejoin="miter" stroke-opacity="1.0" fill-opacity="1.0" stroke="rgb(255,0,0)" stroke-width="1.6462435045385455" fill="rgb(255,0,0)" stroke-linecap="butt" stroke-miterlimit="10.0"><path d="M 109.1433,50.0787 c 0.0000,-0.2087 -0.1692,-0.3780 -0.3780 -0.3780c -0.2087,-0.0000 -0.3780,0.1692 -0.3780 0.3780c -0.0000,0.2087 0.1692,0.3780 0.3780 0.3780c 0.2087,0.0000 0.3780,-0.1692 0.3780 -0.3780Z"/></g><g stroke-linejoin="miter" stroke-opacity="1.0" fill-opacity="0.0" stroke="rgb(0,0,255)" stroke-width="1.6462435045385455" fill="rgb(0,0,0)" stroke-linecap="butt" stroke-miterlimit="10.0"><path d="M 130.5827,50.0787 c 0.0000,-1.6699 -1.3537,-3.0236 -3.0236 -3.0236c -1.6699,-0.0000 -3.0236,1.3537 -3.0236 3.0236c -0.0000,1.6699 1.3537,3.0236 3.0236 3.0236c 1.6699,0.0000 3.0236,-1.3537 3.0236 -3.0236Z"/></g><g stroke-linejoin="miter" stroke-opacity="1.0" fill-opacity="1.0" stroke="rgb(255,0,0)" stroke-width="1.6462435045385455" fill="rgb(255,0,0)" stroke-linecap="butt" stroke-miterlimit="10.0"><path d="M 127.9370,50.0787 c 0.0000,-0.2087 -0.1692,-0.3780 -0.3780 -0.3780c -0.2087,-0.0000 -0.3780,0.1692 -0.3780 0.3780c -0.0000,0.2087 0.1692,0.3780 0.3780 0.3780c 0.2087,0.0000 0.3780,-0.1692 0.3780 -0.3780Z"/></g><g stroke-linejoin="miter" stroke-opacity="1.0" fill-opacity="0.0" stroke="rgb(0,0,255)" stroke-width="1.6462435045385455" fill="rgb(0,0,0)" stroke-linecap="butt" stroke-miterlimit="10.0"><path d="M 149.3764,50.0787 c 0.0000,-1.6699 -1.3537,-3.0236 -3.0236 -3.0236c -1.6699,-0.0000 -3.0236,1.3537 -3.0236 3.0236c -0.0000,1.6699 1.3537,3.0236 3.0236 3.0236c 1.6699,0.0000 3.0236,-1.3537 3.0236 -3.0236Z"/></g><g stroke-linejoin="miter" stroke-opacity="1.0" fill-opacity="1.0" stroke="rgb(255,0,0)" stroke-width="1.6462435045385455" fill="rgb(255,0,0)" stroke-linecap="butt" stroke-miterlimit="10.0"><path d="M 146.7307,50.0787 c 0.0000,-0.2087 -0.1692,-0.3780 -0.3780 -0.3780c -0.2087,-0.0000 -0.3780,0.1692 -0.3780 0.3780c -0.0000,0.2087 0.1692,0.3780 0.3780 0.3780c 0.2087,0.0000 0.3780,-0.1692 0.3780 -0.3780Z"/></g><g stroke-linejoin="miter" stroke-opacity="1.0" fill-opacity="0.0" stroke="rgb(0,0,0)" stroke-width="1.6462435045385455" fill="rgb(0,0,0)" stroke-linecap="butt" stroke-miterlimit="10.0"><path d="M 157.6913,89.7638 l -0.0000,-49.1339 h -60.2646 l -0.0000,49.1339 Z"/></g><g stroke-linejoin="miter" stroke-opacity="1.0" fill-opacity="1.0" font-size="18.89763779527559px" stroke="rgb(0,0,0)" stroke-width="1.6462435045385455" fill="rgb(0,0,0)" stroke-linecap="butt" stroke-miterlimit="10.0"><text dominant-baseline="middle" transform="matrix(1.0000,-0.0000,0.0000,1.0000,127.5591,65.1969)" stroke="none" text-anchor="middle"></text></g><g stroke-linejoin="miter" stroke-opacity="1.0" fill-opacity="0.0" stroke="rgb(0,0,255)" stroke-width="1.6462435045385455" fill="rgb(0,0,0)" stroke-linecap="butt" stroke-miterlimit="10.0"><path d="M 111.7890,123.7795 c 0.0000,-1.6699 -1.3537,-3.0236 -3.0236 -3.0236c -1.6699,-0.0000 -3.0236,1.3537 -3.0236 3.0236c -0.0000,1.6699 1.3537,3.0236 3.0236 3.0236c 1.6699,0.0000 3.0236,-1.3537 3.0236 -3.0236Z"/></g><g stroke-linejoin="miter" stroke-opacity="1.0" fill-opacity="1.0" stroke="rgb(255,0,0)" stroke-width="1.6462435045385455" fill="rgb(255,0,0)" stroke-linecap="butt" stroke-miterlimit="10.0"><path d="M 109.1433,123.7795 c 0.0000,-0.2087 -0.1692,-0.3780 -0.3780 -0.3780c -0.2087,-0.0000 -0.3780,0.1692 -0.3780 0.3780c -0.0000,0.2087 0.1692,0.3780 0.3780 0.3780c 0.2087,0.0000 0.3780,-0.1692 0.3780 -0.3780Z"/></g><g stroke-linejoin="miter" stroke-opacity="1.0" fill-opacity="0.0" stroke="rgb(0,0,255)" stroke-width="1.6462435045385455" fill="rgb(0,0,0)" stroke-linecap="butt" stroke-miterlimit="10.0"><path d="M 130.5827,123.7795 c 0.0000,-1.6699 -1.3537,-3.0236 -3.0236 -3.0236c -1.6699,-0.0000 -3.0236,1.3537 -3.0236 3.0236c -0.0000,1.6699 1.3537,3.0236 3.0236 3.0236c 1.6699,0.0000 3.0236,-1.3537 3.0236 -3.0236Z"/></g><g stroke-linejoin="miter" stroke-opacity="1.0" fill-opacity="1.0" stroke="rgb(255,0,0)" stroke-width="1.6462435045385455" fill="rgb(255,0,0)" stroke-linecap="butt" stroke-miterlimit="10.0"><path d="M 127.9370,123.7795 c 0.0000,-0.2087 -0.1692,-0.3780 -0.3780 -0.3780c -0.2087,-0.0000 -0.3780,0.1692 -0.3780 0.3780c -0.0000,0.2087 0.1692,0.3780 0.3780 0.3780c 0.2087,0.0000 0.3780,-0.1692 0.3780 -0.3780Z"/></g><g stroke-linejoin="miter" stroke-opacity="1.0" fill-opacity="0.0" stroke="rgb(0,0,255)" stroke-width="1.6462435045385455" fill="rgb(0,0,0)" stroke-linecap="butt" stroke-miterlimit="10.0"><path d="M 149.3764,123.7795 c 0.0000,-1.6699 -1.3537,-3.0236 -3.0236 -3.0236c -1.6699,-0.0000 -3.0236,1.3537 -3.0236 3.0236c -0.0000,1.6699 1.3537,3.0236 3.0236 3.0236c 1.6699,0.0000 3.0236,-1.3537 3.0236 -3.0236Z"/></g><g stroke-linejoin="miter" stroke-opacity="1.0" fill-opacity="1.0" stroke="rgb(255,0,0)" stroke-width="1.6462435045385455" fill="rgb(255,0,0)" stroke-linecap="butt" stroke-miterlimit="10.0"><path d="M 146.7307,123.7795 c 0.0000,-0.2087 -0.1692,-0.3780 -0.3780 -0.3780c -0.2087,-0.0000 -0.3780,0.1692 -0.3780 0.3780c -0.0000,0.2087 0.1692,0.3780 0.3780 0.3780c 0.2087,0.0000 0.3780,-0.1692 0.3780 -0.3780Z"/></g><g stroke-linejoin="miter" stroke-opacity="1.0" fill-opacity="0.0" stroke="rgb(0,0,0)" stroke-width="1.6462435045385455" fill="rgb(0,0,0)" stroke-linecap="butt" stroke-miterlimit="10.0"><path d="M 157.6913,163.4646 l -0.0000,-49.1339 h -60.2646 l -0.0000,49.1339 Z"/></g><g stroke-linejoin="miter" stroke-opacity="1.0" fill-opacity="1.0" font-size="18.89763779527559px" stroke="rgb(0,0,0)" stroke-width="1.6462435045385455" fill="rgb(0,0,0)" stroke-linecap="butt" stroke-miterlimit="10.0"><text dominant-baseline="middle" transform="matrix(1.0000,-0.0000,0.0000,1.0000,127.5591,138.8976)" stroke="none" text-anchor="middle"></text></g><g stroke-linejoin="miter" stroke-opacity="1.0" fill-opacity="0.0" stroke="rgb(0,0,255)" stroke-width="1.6462435045385455" fill="rgb(0,0,0)" stroke-linecap="butt" stroke-miterlimit="10.0"><path d="M 111.7890,197.4803 c 0.0000,-1.6699 -1.3537,-3.0236 -3.0236 -3.0236c -1.6699,-0.0000 -3.0236,1.3537 -3.0236 3.0236c -0.0000,1.6699 1.3537,3.0236 3.0236 3.0236c 1.6699,0.0000 3.0236,-1.3537 3.0236 -3.0236Z"/></g><g stroke-linejoin="miter" stroke-opacity="1.0" fill-opacity="1.0" stroke="rgb(255,0,0)" stroke-width="1.6462435045385455" fill="rgb(255,0,0)" stroke-linecap="butt" stroke-miterlimit="10.0"><path d="M 109.1433,197.4803 c 0.0000,-0.2087 -0.1692,-0.3780 -0.3780 -0.3780c -0.2087,-0.0000 -0.3780,0.1692 -0.3780 0.3780c -0.0000,0.2087 0.1692,0.3780 0.3780 0.3780c 0.2087,0.0000 0.3780,-0.1692 0.3780 -0.3780Z"/></g><g stroke-linejoin="miter" stroke-opacity="1.0" fill-opacity="0.0" stroke="rgb(0,0,255)" stroke-width="1.6462435045385455" fill="rgb(0,0,0)" stroke-linecap="butt" stroke-miterlimit="10.0"><path d="M 130.5827,197.4803 c 0.0000,-1.6699 -1.3537,-3.0236 -3.0236 -3.0236c -1.6699,-0.0000 -3.0236,1.3537 -3.0236 3.0236c -0.0000,1.6699 1.3537,3.0236 3.0236 3.0236c 1.6699,0.0000 3.0236,-1.3537 3.0236 -3.0236Z"/></g><g stroke-linejoin="miter" stroke-opacity="1.0" fill-opacity="1.0" stroke="rgb(255,0,0)" stroke-width="1.6462435045385455" fill="rgb(255,0,0)" stroke-linecap="butt" stroke-miterlimit="10.0"><path d="M 127.9370,197.4803 c 0.0000,-0.2087 -0.1692,-0.3780 -0.3780 -0.3780c -0.2087,-0.0000 -0.3780,0.1692 -0.3780 0.3780c -0.0000,0.2087 0.1692,0.3780 0.3780 0.3780c 0.2087,0.0000 0.3780,-0.1692 0.3780 -0.3780Z"/></g><g stroke-linejoin="miter" stroke-opacity="1.0" fill-opacity="0.0" stroke="rgb(0,0,255)" stroke-width="1.6462435045385455" fill="rgb(0,0,0)" stroke-linecap="butt" stroke-miterlimit="10.0"><path d="M 149.3764,197.4803 c 0.0000,-1.6699 -1.3537,-3.0236 -3.0236 -3.0236c -1.6699,-0.0000 -3.0236,1.3537 -3.0236 3.0236c -0.0000,1.6699 1.3537,3.0236 3.0236 3.0236c 1.6699,0.0000 3.0236,-1.3537 3.0236 -3.0236Z"/></g><g stroke-linejoin="miter" stroke-opacity="1.0" fill-opacity="1.0" stroke="rgb(255,0,0)" stroke-width="1.6462435045385455" fill="rgb(255,0,0)" stroke-linecap="butt" stroke-miterlimit="10.0"><path d="M 146.7307,197.4803 c 0.0000,-0.2087 -0.1692,-0.3780 -0.3780 -0.3780c -0.2087,-0.0000 -0.3780,0.1692 -0.3780 0.3780c -0.0000,0.2087 0.1692,0.3780 0.3780 0.3780c 0.2087,0.0000 0.3780,-0.1692 0.3780 -0.3780Z"/></g><g stroke-linejoin="miter" stroke-opacity="1.0" fill-opacity="0.0" stroke="rgb(0,0,0)" stroke-width="1.6462435045385455" fill="rgb(0,0,0)" stroke-linecap="butt" stroke-miterlimit="10.0"><path d="M 157.6913,237.1654 l -0.0000,-49.1339 h -60.2646 l -0.0000,49.1339 Z"/></g><g stroke-linejoin="miter" stroke-opacity="1.0" fill-opacity="1.0" font-size="18.89763779527559px" stroke="rgb(0,0,0)" stroke-width="1.6462435045385455" fill="rgb(0,0,0)" stroke-linecap="butt" stroke-miterlimit="10.0"><text dominant-baseline="middle" transform="matrix(1.0000,-0.0000,0.0000,1.0000,127.5591,212.5984)" stroke="none" text-anchor="middle"></text></g><g stroke-linejoin="miter" stroke-opacity="1.0" fill-opacity="0.0" stroke="rgb(0,0,255)" stroke-width="1.6462435045385455" fill="rgb(0,0,0)" stroke-linecap="butt" stroke-miterlimit="10.0"><path d="M 111.7890,271.1811 c 0.0000,-1.6699 -1.3537,-3.0236 -3.0236 -3.0236c -1.6699,-0.0000 -3.0236,1.3537 -3.0236 3.0236c -0.0000,1.6699 1.3537,3.0236 3.0236 3.0236c 1.6699,0.0000 3.0236,-1.3537 3.0236 -3.0236Z"/></g><g stroke-linejoin="miter" stroke-opacity="1.0" fill-opacity="1.0" stroke="rgb(255,0,0)" stroke-width="1.6462435045385455" fill="rgb(255,0,0)" stroke-linecap="butt" stroke-miterlimit="10.0"><path d="M 109.1433,271.1811 c 0.0000,-0.2087 -0.1692,-0.3780 -0.3780 -0.3780c -0.2087,-0.0000 -0.3780,0.1692 -0.3780 0.3780c -0.0000,0.2087 0.1692,0.3780 0.3780 0.3780c 0.2087,0.0000 0.3780,-0.1692 0.3780 -0.3780Z"/></g><g stroke-linejoin="miter" stroke-opacity="1.0" fill-opacity="0.0" stroke="rgb(0,0,255)" stroke-width="1.6462435045385455" fill="rgb(0,0,0)" stroke-linecap="butt" stroke-miterlimit="10.0"><path d="M 130.5827,271.1811 c 0.0000,-1.6699 -1.3537,-3.0236 -3.0236 -3.0236c -1.6699,-0.0000 -3.0236,1.3537 -3.0236 3.0236c -0.0000,1.6699 1.3537,3.0236 3.0236 3.0236c 1.6699,0.0000 3.0236,-1.3537 3.0236 -3.0236Z"/></g><g stroke-linejoin="miter" stroke-opacity="1.0" fill-opacity="1.0" stroke="rgb(255,0,0)" stroke-width="1.6462435045385455" fill="rgb(255,0,0)" stroke-linecap="butt" stroke-miterlimit="10.0"><path d="M 127.9370,271.1811 c 0.0000,-0.2087 -0.1692,-0.3780 -0.3780 -0.3780c -0.2087,-0.0000 -0.3780,0.1692 -0.3780 0.3780c -0.0000,0.2087 0.1692,0.3780 0.3780 0.3780c 0.2087,0.0000 0.3780,-0.1692 0.3780 -0.3780Z"/></g><g stroke-linejoin="miter" stroke-opacity="1.0" fill-opacity="0.0" stroke="rgb(0,0,255)" stroke-width="1.6462435045385455" fill="rgb(0,0,0)" stroke-linecap="butt" stroke-miterlimit="10.0"><path d="M 149.3764,271.1811 c 0.0000,-1.6699 -1.3537,-3.0236 -3.0236 -3.0236c -1.6699,-0.0000 -3.0236,1.3537 -3.0236 3.0236c -0.0000,1.6699 1.3537,3.0236 3.0236 3.0236c 1.6699,0.0000 3.0236,-1.3537 3.0236 -3.0236Z"/></g><g stroke-linejoin="miter" stroke-opacity="1.0" fill-opacity="1.0" stroke="rgb(255,0,0)" stroke-width="1.6462435045385455" fill="rgb(255,0,0)" stroke-linecap="butt" stroke-miterlimit="10.0"><path d="M 146.7307,271.1811 c 0.0000,-0.2087 -0.1692,-0.3780 -0.3780 -0.3780c -0.2087,-0.0000 -0.3780,0.1692 -0.3780 0.3780c -0.0000,0.2087 0.1692,0.3780 0.3780 0.3780c 0.2087,0.0000 0.3780,-0.1692 0.3780 -0.3780Z"/></g><g stroke-linejoin="miter" stroke-opacity="1.0" fill-opacity="0.0" stroke="rgb(0,0,0)" stroke-width="1.6462435045385455" fill="rgb(0,0,0)" stroke-linecap="butt" stroke-miterlimit="10.0"><path d="M 157.6913,310.8661 l -0.0000,-49.1339 h -60.2646 l -0.0000,49.1339 Z"/></g><g stroke-linejoin="miter" stroke-opacity="1.0" fill-opacity="1.0" font-size="18.89763779527559px" stroke="rgb(0,0,0)" stroke-width="1.6462435045385455" fill="rgb(0,0,0)" stroke-linecap="butt" stroke-miterlimit="10.0"><text dominant-baseline="middle" transform="matrix(1.0000,-0.0000,0.0000,1.0000,127.5591,286.2992)" stroke="none" text-anchor="middle"></text></g><g stroke-linejoin="miter" stroke-opacity="1.0" fill-opacity="0.0" stroke="rgb(0,0,255)" stroke-width="1.6462435045385455" fill="rgb(0,0,0)" stroke-linecap="butt" stroke-miterlimit="10.0"><path d="M 36.1984,50.0787 c 0.0000,-1.6699 -1.3537,-3.0236 -3.0236 -3.0236c -1.6699,-0.0000 -3.0236,1.3537 -3.0236 3.0236c -0.0000,1.6699 1.3537,3.0236 3.0236 3.0236c 1.6699,0.0000 3.0236,-1.3537 3.0236 -3.0236Z"/></g><g stroke-linejoin="miter" stroke-opacity="1.0" fill-opacity="1.0" stroke="rgb(255,0,0)" stroke-width="1.6462435045385455" fill="rgb(255,0,0)" stroke-linecap="butt" stroke-miterlimit="10.0"><path d="M 33.5528,50.0787 c 0.0000,-0.2087 -0.1692,-0.3780 -0.3780 -0.3780c -0.2087,-0.0000 -0.3780,0.1692 -0.3780 0.3780c -0.0000,0.2087 0.1692,0.3780 0.3780 0.3780c 0.2087,0.0000 0.3780,-0.1692 0.3780 -0.3780Z"/></g><g stroke-linejoin="miter" stroke-opacity="1.0" fill-opacity="0.0" stroke="rgb(0,0,255)" stroke-width="1.6462435045385455" fill="rgb(0,0,0)" stroke-linecap="butt" stroke-miterlimit="10.0"><path d="M 54.9921,50.0787 c 0.0000,-1.6699 -1.3537,-3.0236 -3.0236 -3.0236c -1.6699,-0.0000 -3.0236,1.3537 -3.0236 3.0236c -0.0000,1.6699 1.3537,3.0236 3.0236 3.0236c 1.6699,0.0000 3.0236,-1.3537 3.0236 -3.0236Z"/></g><g stroke-linejoin="miter" stroke-opacity="1.0" fill-opacity="1.0" stroke="rgb(255,0,0)" stroke-width="1.6462435045385455" fill="rgb(255,0,0)" stroke-linecap="butt" stroke-miterlimit="10.0"><path d="M 52.3465,50.0787 c 0.0000,-0.2087 -0.1692,-0.3780 -0.3780 -0.3780c -0.2087,-0.0000 -0.3780,0.1692 -0.3780 0.3780c -0.0000,0.2087 0.1692,0.3780 0.3780 0.3780c 0.2087,0.0000 0.3780,-0.1692 0.3780 -0.3780Z"/></g><g stroke-linejoin="miter" stroke-opacity="1.0" fill-opacity="0.0" stroke="rgb(0,0,255)" stroke-width="1.6462435045385455" fill="rgb(0,0,0)" stroke-linecap="butt" stroke-miterlimit="10.0"><path d="M 73.7858,50.0787 c 0.0000,-1.6699 -1.3537,-3.0236 -3.0236 -3.0236c -1.6699,-0.0000 -3.0236,1.3537 -3.0236 3.0236c -0.0000,1.6699 1.3537,3.0236 3.0236 3.0236c 1.6699,0.0000 3.0236,-1.3537 3.0236 -3.0236Z"/></g><g stroke-linejoin="miter" stroke-opacity="1.0" fill-opacity="1.0" stroke="rgb(255,0,0)" stroke-width="1.6462435045385455" fill="rgb(255,0,0)" stroke-linecap="butt" stroke-miterlimit="10.0"><path d="M 71.1402,50.0787 c 0.0000,-0.2087 -0.1692,-0.3780 -0.3780 -0.3780c -0.2087,-0.0000 -0.3780,0.1692 -0.3780 0.3780c -0.0000,0.2087 0.1692,0.3780 0.3780 0.3780c 0.2087,0.0000 0.3780,-0.1692 0.3780 -0.3780Z"/></g><g stroke-linejoin="miter" stroke-opacity="1.0" fill-opacity="0.0" stroke="rgb(0,0,0)" stroke-width="1.6462435045385455" fill="rgb(0,0,0)" stroke-linecap="butt" stroke-miterlimit="10.0"><path d="M 82.1008,89.7638 l -0.0000,-49.1339 h -60.2646 l -0.0000,49.1339 Z"/></g><g stroke-linejoin="miter" stroke-opacity="1.0" fill-opacity="1.0" font-size="18.89763779527559px" stroke="rgb(0,0,0)" stroke-width="1.6462435045385455" fill="rgb(0,0,0)" stroke-linecap="butt" stroke-miterlimit="10.0"><text dominant-baseline="middle" transform="matrix(1.0000,-0.0000,0.0000,1.0000,51.9685,65.1969)" stroke="none" text-anchor="middle"></text></g><g stroke-linejoin="miter" stroke-opacity="1.0" fill-opacity="0.0" stroke="rgb(0,0,255)" stroke-width="1.6462435045385455" fill="rgb(0,0,0)" stroke-linecap="butt" stroke-miterlimit="10.0"><path d="M 36.1984,123.7795 c 0.0000,-1.6699 -1.3537,-3.0236 -3.0236 -3.0236c -1.6699,-0.0000 -3.0236,1.3537 -3.0236 3.0236c -0.0000,1.6699 1.3537,3.0236 3.0236 3.0236c 1.6699,0.0000 3.0236,-1.3537 3.0236 -3.0236Z"/></g><g stroke-linejoin="miter" stroke-opacity="1.0" fill-opacity="1.0" stroke="rgb(255,0,0)" stroke-width="1.6462435045385455" fill="rgb(255,0,0)" stroke-linecap="butt" stroke-miterlimit="10.0"><path d="M 33.5528,123.7795 c 0.0000,-0.2087 -0.1692,-0.3780 -0.3780 -0.3780c -0.2087,-0.0000 -0.3780,0.1692 -0.3780 0.3780c -0.0000,0.2087 0.1692,0.3780 0.3780 0.3780c 0.2087,0.0000 0.3780,-0.1692 0.3780 -0.3780Z"/></g><g stroke-linejoin="miter" stroke-opacity="1.0" fill-opacity="0.0" stroke="rgb(0,0,255)" stroke-width="1.6462435045385455" fill="rgb(0,0,0)" stroke-linecap="butt" stroke-miterlimit="10.0"><path d="M 54.9921,123.7795 c 0.0000,-1.6699 -1.3537,-3.0236 -3.0236 -3.0236c -1.6699,-0.0000 -3.0236,1.3537 -3.0236 3.0236c -0.0000,1.6699 1.3537,3.0236 3.0236 3.0236c 1.6699,0.0000 3.0236,-1.3537 3.0236 -3.0236Z"/></g><g stroke-linejoin="miter" stroke-opacity="1.0" fill-opacity="1.0" stroke="rgb(255,0,0)" stroke-width="1.6462435045385455" fill="rgb(255,0,0)" stroke-linecap="butt" stroke-miterlimit="10.0"><path d="M 52.3465,123.7795 c 0.0000,-0.2087 -0.1692,-0.3780 -0.3780 -0.3780c -0.2087,-0.0000 -0.3780,0.1692 -0.3780 0.3780c -0.0000,0.2087 0.1692,0.3780 0.3780 0.3780c 0.2087,0.0000 0.3780,-0.1692 0.3780 -0.3780Z"/></g><g stroke-linejoin="miter" stroke-opacity="1.0" fill-opacity="0.0" stroke="rgb(0,0,255)" stroke-width="1.6462435045385455" fill="rgb(0,0,0)" stroke-linecap="butt" stroke-miterlimit="10.0"><path d="M 73.7858,123.7795 c 0.0000,-1.6699 -1.3537,-3.0236 -3.0236 -3.0236c -1.6699,-0.0000 -3.0236,1.3537 -3.0236 3.0236c -0.0000,1.6699 1.3537,3.0236 3.0236 3.0236c 1.6699,0.0000 3.0236,-1.3537 3.0236 -3.0236Z"/></g><g stroke-linejoin="miter" stroke-opacity="1.0" fill-opacity="1.0" stroke="rgb(255,0,0)" stroke-width="1.6462435045385455" fill="rgb(255,0,0)" stroke-linecap="butt" stroke-miterlimit="10.0"><path d="M 71.1402,123.7795 c 0.0000,-0.2087 -0.1692,-0.3780 -0.3780 -0.3780c -0.2087,-0.0000 -0.3780,0.1692 -0.3780 0.3780c -0.0000,0.2087 0.1692,0.3780 0.3780 0.3780c 0.2087,0.0000 0.3780,-0.1692 0.3780 -0.3780Z"/></g><g stroke-linejoin="miter" stroke-opacity="1.0" fill-opacity="0.0" stroke="rgb(0,0,0)" stroke-width="1.6462435045385455" fill="rgb(0,0,0)" stroke-linecap="butt" stroke-miterlimit="10.0"><path d="M 82.1008,163.4646 l -0.0000,-49.1339 h -60.2646 l -0.0000,49.1339 Z"/></g><g stroke-linejoin="miter" stroke-opacity="1.0" fill-opacity="1.0" font-size="18.89763779527559px" stroke="rgb(0,0,0)" stroke-width="1.6462435045385455" fill="rgb(0,0,0)" stroke-linecap="butt" stroke-miterlimit="10.0"><text dominant-baseline="middle" transform="matrix(1.0000,-0.0000,0.0000,1.0000,51.9685,138.8976)" stroke="none" text-anchor="middle"></text></g><g stroke-linejoin="miter" stroke-opacity="1.0" fill-opacity="0.0" stroke="rgb(0,0,255)" stroke-width="1.6462435045385455" fill="rgb(0,0,0)" stroke-linecap="butt" stroke-miterlimit="10.0"><path d="M 36.1984,197.4803 c 0.0000,-1.6699 -1.3537,-3.0236 -3.0236 -3.0236c -1.6699,-0.0000 -3.0236,1.3537 -3.0236 3.0236c -0.0000,1.6699 1.3537,3.0236 3.0236 3.0236c 1.6699,0.0000 3.0236,-1.3537 3.0236 -3.0236Z"/></g><g stroke-linejoin="miter" stroke-opacity="1.0" fill-opacity="1.0" stroke="rgb(255,0,0)" stroke-width="1.6462435045385455" fill="rgb(255,0,0)" stroke-linecap="butt" stroke-miterlimit="10.0"><path d="M 33.5528,197.4803 c 0.0000,-0.2087 -0.1692,-0.3780 -0.3780 -0.3780c -0.2087,-0.0000 -0.3780,0.1692 -0.3780 0.3780c -0.0000,0.2087 0.1692,0.3780 0.3780 0.3780c 0.2087,0.0000 0.3780,-0.1692 0.3780 -0.3780Z"/></g><g stroke-linejoin="miter" stroke-opacity="1.0" fill-opacity="0.0" stroke="rgb(0,0,255)" stroke-width="1.6462435045385455" fill="rgb(0,0,0)" stroke-linecap="butt" stroke-miterlimit="10.0"><path d="M 54.9921,197.4803 c 0.0000,-1.6699 -1.3537,-3.0236 -3.0236 -3.0236c -1.6699,-0.0000 -3.0236,1.3537 -3.0236 3.0236c -0.0000,1.6699 1.3537,3.0236 3.0236 3.0236c 1.6699,0.0000 3.0236,-1.3537 3.0236 -3.0236Z"/></g><g stroke-linejoin="miter" stroke-opacity="1.0" fill-opacity="1.0" stroke="rgb(255,0,0)" stroke-width="1.6462435045385455" fill="rgb(255,0,0)" stroke-linecap="butt" stroke-miterlimit="10.0"><path d="M 52.3465,197.4803 c 0.0000,-0.2087 -0.1692,-0.3780 -0.3780 -0.3780c -0.2087,-0.0000 -0.3780,0.1692 -0.3780 0.3780c -0.0000,0.2087 0.1692,0.3780 0.3780 0.3780c 0.2087,0.0000 0.3780,-0.1692 0.3780 -0.3780Z"/></g><g stroke-linejoin="miter" stroke-opacity="1.0" fill-opacity="0.0" stroke="rgb(0,0,255)" stroke-width="1.6462435045385455" fill="rgb(0,0,0)" stroke-linecap="butt" stroke-miterlimit="10.0"><path d="M 73.7858,197.4803 c 0.0000,-1.6699 -1.3537,-3.0236 -3.0236 -3.0236c -1.6699,-0.0000 -3.0236,1.3537 -3.0236 3.0236c -0.0000,1.6699 1.3537,3.0236 3.0236 3.0236c 1.6699,0.0000 3.0236,-1.3537 3.0236 -3.0236Z"/></g><g stroke-linejoin="miter" stroke-opacity="1.0" fill-opacity="1.0" stroke="rgb(255,0,0)" stroke-width="1.6462435045385455" fill="rgb(255,0,0)" stroke-linecap="butt" stroke-miterlimit="10.0"><path d="M 71.1402,197.4803 c 0.0000,-0.2087 -0.1692,-0.3780 -0.3780 -0.3780c -0.2087,-0.0000 -0.3780,0.1692 -0.3780 0.3780c -0.0000,0.2087 0.1692,0.3780 0.3780 0.3780c 0.2087,0.0000 0.3780,-0.1692 0.3780 -0.3780Z"/></g><g stroke-linejoin="miter" stroke-opacity="1.0" fill-opacity="0.0" stroke="rgb(0,0,0)" stroke-width="1.6462435045385455" fill="rgb(0,0,0)" stroke-linecap="butt" stroke-miterlimit="10.0"><path d="M 82.1008,237.1654 l -0.0000,-49.1339 h -60.2646 l -0.0000,49.1339 Z"/></g><g stroke-linejoin="miter" stroke-opacity="1.0" fill-opacity="1.0" font-size="18.89763779527559px" stroke="rgb(0,0,0)" stroke-width="1.6462435045385455" fill="rgb(0,0,0)" stroke-linecap="butt" stroke-miterlimit="10.0"><text dominant-baseline="middle" transform="matrix(1.0000,-0.0000,0.0000,1.0000,51.9685,212.5984)" stroke="none" text-anchor="middle"></text></g><g stroke-linejoin="miter" stroke-opacity="1.0" fill-opacity="0.0" stroke="rgb(0,0,255)" stroke-width="1.6462435045385455" fill="rgb(0,0,0)" stroke-linecap="butt" stroke-miterlimit="10.0"><path d="M 36.1984,271.1811 c 0.0000,-1.6699 -1.3537,-3.0236 -3.0236 -3.0236c -1.6699,-0.0000 -3.0236,1.3537 -3.0236 3.0236c -0.0000,1.6699 1.3537,3.0236 3.0236 3.0236c 1.6699,0.0000 3.0236,-1.3537 3.0236 -3.0236Z"/></g><g stroke-linejoin="miter" stroke-opacity="1.0" fill-opacity="1.0" stroke="rgb(255,0,0)" stroke-width="1.6462435045385455" fill="rgb(255,0,0)" stroke-linecap="butt" stroke-miterlimit="10.0"><path d="M 33.5528,271.1811 c 0.0000,-0.2087 -0.1692,-0.3780 -0.3780 -0.3780c -0.2087,-0.0000 -0.3780,0.1692 -0.3780 0.3780c -0.0000,0.2087 0.1692,0.3780 0.3780 0.3780c 0.2087,0.0000 0.3780,-0.1692 0.3780 -0.3780Z"/></g><g stroke-linejoin="miter" stroke-opacity="1.0" fill-opacity="0.0" stroke="rgb(0,0,255)" stroke-width="1.6462435045385455" fill="rgb(0,0,0)" stroke-linecap="butt" stroke-miterlimit="10.0"><path d="M 54.9921,271.1811 c 0.0000,-1.6699 -1.3537,-3.0236 -3.0236 -3.0236c -1.6699,-0.0000 -3.0236,1.3537 -3.0236 3.0236c -0.0000,1.6699 1.3537,3.0236 3.0236 3.0236c 1.6699,0.0000 3.0236,-1.3537 3.0236 -3.0236Z"/></g><g stroke-linejoin="miter" stroke-opacity="1.0" fill-opacity="1.0" stroke="rgb(255,0,0)" stroke-width="1.6462435045385455" fill="rgb(255,0,0)" stroke-linecap="butt" stroke-miterlimit="10.0"><path d="M 52.3465,271.1811 c 0.0000,-0.2087 -0.1692,-0.3780 -0.3780 -0.3780c -0.2087,-0.0000 -0.3780,0.1692 -0.3780 0.3780c -0.0000,0.2087 0.1692,0.3780 0.3780 0.3780c 0.2087,0.0000 0.3780,-0.1692 0.3780 -0.3780Z"/></g><g stroke-linejoin="miter" stroke-opacity="1.0" fill-opacity="0.0" stroke="rgb(0,0,255)" stroke-width="1.6462435045385455" fill="rgb(0,0,0)" stroke-linecap="butt" stroke-miterlimit="10.0"><path d="M 73.7858,271.1811 c 0.0000,-1.6699 -1.3537,-3.0236 -3.0236 -3.0236c -1.6699,-0.0000 -3.0236,1.3537 -3.0236 3.0236c -0.0000,1.6699 1.3537,3.0236 3.0236 3.0236c 1.6699,0.0000 3.0236,-1.3537 3.0236 -3.0236Z"/></g><g stroke-linejoin="miter" stroke-opacity="1.0" fill-opacity="1.0" stroke="rgb(255,0,0)" stroke-width="1.6462435045385455" fill="rgb(255,0,0)" stroke-linecap="butt" stroke-miterlimit="10.0"><path d="M 71.1402,271.1811 c 0.0000,-0.2087 -0.1692,-0.3780 -0.3780 -0.3780c -0.2087,-0.0000 -0.3780,0.1692 -0.3780 0.3780c -0.0000,0.2087 0.1692,0.3780 0.3780 0.3780c 0.2087,0.0000 0.3780,-0.1692 0.3780 -0.3780Z"/></g><g stroke-linejoin="miter" stroke-opacity="1.0" fill-opacity="0.0" stroke="rgb(0,0,0)" stroke-width="1.6462435045385455" fill="rgb(0,0,0)" stroke-linecap="butt" stroke-miterlimit="10.0"><path d="M 82.1008,310.8661 l -0.0000,-49.1339 h -60.2646 l -0.0000,49.1339 Z"/></g><g stroke-linejoin="miter" stroke-opacity="1.0" fill-opacity="1.0" font-size="18.89763779527559px" stroke="rgb(0,0,0)" stroke-width="1.6462435045385455" fill="rgb(0,0,0)" stroke-linecap="butt" stroke-miterlimit="10.0"><text dominant-baseline="middle" transform="matrix(1.0000,-0.0000,0.0000,1.0000,51.9685,286.2992)" stroke="none" text-anchor="middle"></text></g></svg>